%TF.GenerationSoftware,KiCad,Pcbnew,7.0.2*%
%TF.CreationDate,2023-06-06T14:32:33-03:00*%
%TF.ProjectId,adapter,61646170-7465-4722-9e6b-696361645f70,rev?*%
%TF.SameCoordinates,Original*%
%TF.FileFunction,Copper,L1,Top*%
%TF.FilePolarity,Positive*%
%FSLAX46Y46*%
G04 Gerber Fmt 4.6, Leading zero omitted, Abs format (unit mm)*
G04 Created by KiCad (PCBNEW 7.0.2) date 2023-06-06 14:32:33*
%MOMM*%
%LPD*%
G01*
G04 APERTURE LIST*
%TA.AperFunction,ComponentPad*%
%ADD10O,2.000000X1.700000*%
%TD*%
%TA.AperFunction,ComponentPad*%
%ADD11O,1.700000X2.000000*%
%TD*%
%TA.AperFunction,SMDPad,CuDef*%
%ADD12R,0.960399X0.254800*%
%TD*%
%TA.AperFunction,SMDPad,CuDef*%
%ADD13R,0.254800X0.960399*%
%TD*%
%TA.AperFunction,SMDPad,CuDef*%
%ADD14R,3.352800X3.352800*%
%TD*%
%TA.AperFunction,Conductor*%
%ADD15C,0.250000*%
%TD*%
G04 APERTURE END LIST*
D10*
%TO.P,J26,1,Pin_1*%
%TO.N,Net-(J26-Pin_1)*%
X138250000Y-80000000D03*
%TD*%
D11*
%TO.P,J24,1,Pin_1*%
%TO.N,Net-(J24-Pin_1)*%
X146850000Y-75800000D03*
%TD*%
D10*
%TO.P,J4,1,Pin_1*%
%TO.N,Net-(J4-Pin_1)*%
X164180000Y-97587501D03*
%TD*%
%TO.P,J20,1,Pin_1*%
%TO.N,Net-(J20-Pin_1)*%
X164100000Y-80800000D03*
%TD*%
D11*
%TO.P,J23,1,Pin_1*%
%TO.N,Net-(J23-Pin_1)*%
X151180000Y-75837501D03*
%TD*%
%TO.P,J25,1,Pin_1*%
%TO.N,Net-(J25-Pin_1)*%
X142400000Y-75800000D03*
%TD*%
D10*
%TO.P,J16,1,Pin_1*%
%TO.N,Net-(J16-Pin_1)*%
X164180000Y-114337501D03*
%TD*%
D11*
%TO.P,J12,1,Pin_1*%
%TO.N,Net-(J12-Pin_1)*%
X141900000Y-116700000D03*
%TD*%
%TO.P,J22,1,Pin_1*%
%TO.N,Net-(J22-Pin_1)*%
X155550000Y-75850000D03*
%TD*%
D12*
%TO.P,U2,1,VCC_RF2*%
%TO.N,Net-(J1-Pin_1)*%
X148807500Y-94337500D03*
%TO.P,U2,2,VCC_RF1*%
%TO.N,Net-(J6-Pin_1)*%
X148807500Y-94837499D03*
%TO.P,U2,3,GND*%
%TO.N,Net-(#FLG01-pwr)*%
X148807500Y-95337501D03*
%TO.P,U2,4,RFIN*%
%TO.N,Net-(J7-Pin_1)*%
X148807500Y-95837500D03*
%TO.P,U2,5,GC1*%
%TO.N,Net-(J8-Pin_1)*%
X148807500Y-96337499D03*
%TO.P,U2,6,VCC_LO*%
%TO.N,Net-(J9-Pin_1)*%
X148807500Y-96837501D03*
%TO.P,U2,7,VCC_VCO*%
%TO.N,Net-(J10-Pin_1)*%
X148807500Y-97337500D03*
D13*
%TO.P,U2,8,BYPVCO*%
%TO.N,Net-(J11-Pin_1)*%
X149680000Y-98210000D03*
%TO.P,U2,9,TUNEVCO*%
%TO.N,Net-(J12-Pin_1)*%
X150179999Y-98210000D03*
%TO.P,U2,10,GNDTUNE*%
%TO.N,Net-(J13-Pin_1)*%
X150680001Y-98210000D03*
%TO.P,U2,11,GNDSYN*%
%TO.N,Net-(J17-Pin_1)*%
X151180000Y-98210000D03*
%TO.P,U2,12,CPOUT*%
%TO.N,Net-(J14-Pin_1)*%
X151679999Y-98210000D03*
%TO.P,U2,13,VCC_SYN*%
%TO.N,Net-(J15-Pin_1)*%
X152180001Y-98210000D03*
%TO.P,U2,14,XTAL*%
%TO.N,Net-(J16-Pin_1)*%
X152680000Y-98210000D03*
D12*
%TO.P,U2,15,REFOUT*%
%TO.N,Net-(J28-Pin_1)*%
X153552500Y-97337500D03*
%TO.P,U2,16,VCC_DIG*%
%TO.N,Net-(J27-Pin_1)*%
X153552500Y-96837501D03*
%TO.P,U2,17,QOUT+*%
%TO.N,Net-(J5-Pin_1)*%
X153552500Y-96337499D03*
%TO.P,U2,18,QOUT-*%
%TO.N,Net-(J4-Pin_1)*%
X153552500Y-95837500D03*
%TO.P,U2,19,IOUT+*%
%TO.N,Net-(J3-Pin_1)*%
X153552500Y-95337501D03*
%TO.P,U2,20,IOUT-*%
%TO.N,Net-(J2-Pin_1)*%
X153552500Y-94837499D03*
%TO.P,U2,21,IDC+*%
%TO.N,Net-(J19-Pin_1)*%
X153552500Y-94337500D03*
D13*
%TO.P,U2,22,IDC-*%
%TO.N,Net-(J20-Pin_1)*%
X152680000Y-93465000D03*
%TO.P,U2,23,QDC+*%
%TO.N,Net-(J21-Pin_1)*%
X152180001Y-93465000D03*
%TO.P,U2,24,QDC-*%
%TO.N,Net-(J22-Pin_1)*%
X151679999Y-93465000D03*
%TO.P,U2,25,VCC_BB*%
%TO.N,Net-(J23-Pin_1)*%
X151180000Y-93465000D03*
%TO.P,U2,26,SDA*%
%TO.N,Net-(J24-Pin_1)*%
X150680001Y-93465000D03*
%TO.P,U2,27,SCL*%
%TO.N,Net-(J25-Pin_1)*%
X150179999Y-93465000D03*
%TO.P,U2,28,ADDR*%
%TO.N,Net-(J26-Pin_1)*%
X149680000Y-93465000D03*
D14*
%TO.P,U2,29,EPAD*%
%TO.N,unconnected-(U2-EPAD-Pad29)*%
X151180000Y-95837500D03*
%TD*%
D11*
%TO.P,J17,1,Pin_1*%
%TO.N,Net-(J17-Pin_1)*%
X151168000Y-116586000D03*
%TD*%
D10*
%TO.P,J8,1,Pin_1*%
%TO.N,Net-(J8-Pin_1)*%
X138350000Y-98750000D03*
%TD*%
%TO.P,J9,1,Pin_1*%
%TO.N,Net-(J9-Pin_1)*%
X138300000Y-103500000D03*
%TD*%
%TO.P,J27,1,Pin_1*%
%TO.N,Net-(J27-Pin_1)*%
X164220000Y-105480000D03*
%TD*%
%TO.P,J18,1,Pin_1*%
%TO.N,Net-(#FLG01-pwr)*%
X138300000Y-92900000D03*
%TD*%
%TO.P,J7,1,Pin_1*%
%TO.N,Net-(J7-Pin_1)*%
X130900000Y-95850000D03*
%TD*%
%TO.P,J6,1,Pin_1*%
%TO.N,Net-(J6-Pin_1)*%
X138250000Y-88700000D03*
%TD*%
%TO.P,J11,1,Pin_1*%
%TO.N,Net-(J11-Pin_1)*%
X138250000Y-112550000D03*
%TD*%
D11*
%TO.P,J21,1,Pin_1*%
%TO.N,Net-(J21-Pin_1)*%
X159800000Y-75800000D03*
%TD*%
D10*
%TO.P,J19,1,Pin_1*%
%TO.N,Net-(J19-Pin_1)*%
X164160000Y-85490000D03*
%TD*%
%TO.P,J10,1,Pin_1*%
%TO.N,Net-(J10-Pin_1)*%
X138250000Y-108050000D03*
%TD*%
%TO.P,J1,1,Pin_1*%
%TO.N,Net-(J1-Pin_1)*%
X138200000Y-84300000D03*
%TD*%
%TO.P,J2,1,Pin_1*%
%TO.N,Net-(J2-Pin_1)*%
X164180000Y-90087501D03*
%TD*%
D11*
%TO.P,J14,1,Pin_1*%
%TO.N,Net-(J14-Pin_1)*%
X155740000Y-116586000D03*
%TD*%
D10*
%TO.P,J5,1,Pin_1*%
%TO.N,Net-(J5-Pin_1)*%
X164180000Y-101337501D03*
%TD*%
D11*
%TO.P,J15,1,Pin_1*%
%TO.N,Net-(J15-Pin_1)*%
X160312000Y-116586000D03*
%TD*%
D10*
%TO.P,J3,1,Pin_1*%
%TO.N,Net-(J3-Pin_1)*%
X164180000Y-93837501D03*
%TD*%
D11*
%TO.P,J13,1,Pin_1*%
%TO.N,Net-(J13-Pin_1)*%
X146700000Y-116700000D03*
%TD*%
D10*
%TO.P,J28,1,Pin_1*%
%TO.N,Net-(J28-Pin_1)*%
X164240000Y-109690000D03*
%TD*%
D15*
%TO.N,Net-(J1-Pin_1)*%
X141000000Y-84300000D02*
X138200000Y-84300000D01*
X147137500Y-94337500D02*
X143300000Y-90500000D01*
X143300000Y-86600000D02*
X141000000Y-84300000D01*
X148807500Y-94337500D02*
X147137500Y-94337500D01*
X143300000Y-90500000D02*
X143300000Y-86600000D01*
%TO.N,Net-(J2-Pin_1)*%
X164180000Y-90087501D02*
X161180000Y-90087501D01*
X161180000Y-90087501D02*
X156680000Y-94837501D01*
X156680000Y-94837501D02*
X153552500Y-94837499D01*
%TO.N,Net-(J3-Pin_1)*%
X161680000Y-93837501D02*
X159680000Y-95337501D01*
X159680000Y-95337501D02*
X153552500Y-95337501D01*
X164180000Y-93837501D02*
X161680000Y-93837501D01*
%TO.N,Net-(J4-Pin_1)*%
X159679999Y-95837500D02*
X153552500Y-95837500D01*
X164180000Y-97587501D02*
X161430000Y-97587501D01*
X161430000Y-97587501D02*
X159679999Y-95837500D01*
%TO.N,Net-(J5-Pin_1)*%
X156679998Y-96337499D02*
X153552500Y-96337499D01*
X164180000Y-101337501D02*
X161680000Y-101337501D01*
X161680000Y-101337501D02*
X156679998Y-96337499D01*
%TO.N,Net-(J7-Pin_1)*%
X148795000Y-95850000D02*
X148807500Y-95837500D01*
X130900000Y-95850000D02*
X148795000Y-95850000D01*
%TO.N,Net-(J8-Pin_1)*%
X145100000Y-96400000D02*
X142150000Y-96400000D01*
X148850000Y-96379999D02*
X148807500Y-96337499D01*
X146792375Y-96337499D02*
X145100000Y-96400000D01*
X142150000Y-96400000D02*
X139800000Y-98750000D01*
X139800000Y-98750000D02*
X138350000Y-98750000D01*
X148850000Y-96385101D02*
X148850000Y-96379999D01*
X148807500Y-96337499D02*
X146792375Y-96337499D01*
%TO.N,Net-(J9-Pin_1)*%
X148807500Y-96837501D02*
X147100000Y-96900000D01*
X147100000Y-96900000D02*
X145700000Y-98300000D01*
X143000000Y-103500000D02*
X138300000Y-103500000D01*
X145700000Y-98300000D02*
X145700000Y-100800000D01*
X145700000Y-100800000D02*
X143000000Y-103500000D01*
%TO.N,Net-(J11-Pin_1)*%
X149680000Y-98210000D02*
X149680000Y-103370000D01*
X139000000Y-113050000D02*
X139000000Y-111950000D01*
X149680000Y-103370000D02*
X140500000Y-112550000D01*
X140500000Y-112550000D02*
X138250000Y-112550000D01*
%TO.N,Net-(J12-Pin_1)*%
X141900000Y-112050000D02*
X150179999Y-103770001D01*
X141900000Y-116700000D02*
X141900000Y-112050000D01*
X150179999Y-103770001D02*
X150179999Y-98210000D01*
%TO.N,Net-(J13-Pin_1)*%
X150680001Y-104619999D02*
X146700000Y-108600000D01*
X150680001Y-98210000D02*
X150680001Y-104619999D01*
X146700000Y-108600000D02*
X146700000Y-116700000D01*
%TO.N,Net-(J14-Pin_1)*%
X155740000Y-108690000D02*
X155740000Y-116586000D01*
X151679999Y-98210000D02*
X151679999Y-104629999D01*
X151679999Y-104629999D02*
X155740000Y-108690000D01*
%TO.N,Net-(J15-Pin_1)*%
X152180001Y-103530001D02*
X160312000Y-111662000D01*
X160312000Y-111662000D02*
X160312000Y-116586000D01*
X152180001Y-98210000D02*
X152180001Y-103530001D01*
%TO.N,Net-(J16-Pin_1)*%
X152680000Y-98210000D02*
X152680000Y-102880000D01*
X155100000Y-105300000D02*
X155142499Y-105300000D01*
X155142499Y-105300000D02*
X164180000Y-114337501D01*
X152680000Y-102880000D02*
X155100000Y-105300000D01*
%TO.N,Net-(J17-Pin_1)*%
X151180000Y-116574000D02*
X151192000Y-116586000D01*
X151180000Y-98210000D02*
X151180000Y-116574000D01*
%TO.N,Net-(J10-Pin_1)*%
X147774383Y-97325617D02*
X147150000Y-97950000D01*
X147150000Y-97950000D02*
X147150000Y-103200000D01*
X148770857Y-97300857D02*
X148450857Y-97300857D01*
X147150000Y-103200000D02*
X142300000Y-108050000D01*
X148450857Y-97300857D02*
X147774383Y-97325617D01*
X138680000Y-108887501D02*
X138762499Y-108887501D01*
X142300000Y-108050000D02*
X138250000Y-108050000D01*
X148807500Y-97337500D02*
X148770857Y-97300857D01*
%TO.N,Net-(J28-Pin_1)*%
X159350000Y-106850000D02*
X162190000Y-109690000D01*
X153552500Y-97337500D02*
X154387500Y-97337500D01*
X159350000Y-102300000D02*
X159350000Y-106850000D01*
X154387500Y-97337500D02*
X159350000Y-102300000D01*
X162190000Y-109690000D02*
X164240000Y-109690000D01*
%TO.N,Net-(J19-Pin_1)*%
X160100000Y-87700000D02*
X162310000Y-85490000D01*
X154350000Y-94337500D02*
X155012500Y-94337500D01*
X160100000Y-89250000D02*
X160100000Y-87700000D01*
X155012500Y-94337500D02*
X160100000Y-89250000D01*
X162310000Y-85490000D02*
X164160000Y-85490000D01*
X154350000Y-94337500D02*
X154442500Y-94337500D01*
X153552500Y-94337500D02*
X154350000Y-94337500D01*
%TO.N,Net-(J20-Pin_1)*%
X152680000Y-89520000D02*
X161400000Y-80800000D01*
X152680000Y-93465000D02*
X152680000Y-89520000D01*
X161400000Y-80800000D02*
X164100000Y-80800000D01*
%TO.N,Net-(J21-Pin_1)*%
X159800000Y-80550000D02*
X159800000Y-75800000D01*
X152180001Y-88169999D02*
X159800000Y-80550000D01*
X152180001Y-93465000D02*
X152180001Y-88169999D01*
%TO.N,Net-(J22-Pin_1)*%
X151679999Y-93465000D02*
X151679999Y-87020001D01*
X155550000Y-83150000D02*
X155550000Y-75850000D01*
X151679999Y-87020001D02*
X155550000Y-83150000D01*
%TO.N,Net-(J23-Pin_1)*%
X151180000Y-93465000D02*
X151180000Y-75837501D01*
%TO.N,Net-(J24-Pin_1)*%
X146850000Y-75800000D02*
X146850000Y-82900000D01*
X146850000Y-82900000D02*
X150680001Y-86730001D01*
X150680001Y-86730001D02*
X150680001Y-93465000D01*
%TO.N,Net-(J25-Pin_1)*%
X142400000Y-80450000D02*
X142400000Y-75800000D01*
X150179999Y-88229999D02*
X142400000Y-80450000D01*
X150179999Y-93465000D02*
X150179999Y-88229999D01*
%TO.N,Net-(J26-Pin_1)*%
X140300000Y-80000000D02*
X149680000Y-89380000D01*
X138250000Y-80000000D02*
X140300000Y-80000000D01*
X149680000Y-89380000D02*
X149680000Y-93465000D01*
X149680000Y-93452401D02*
X149680000Y-93465000D01*
%TO.N,Net-(J27-Pin_1)*%
X153552500Y-96837501D02*
X155337501Y-96837501D01*
X155337501Y-96837501D02*
X160500000Y-102000000D01*
X160500000Y-103950000D02*
X162030000Y-105480000D01*
X162030000Y-105480000D02*
X164220000Y-105480000D01*
X160500000Y-102000000D02*
X160500000Y-103950000D01*
%TO.N,Net-(J6-Pin_1)*%
X145887499Y-94837499D02*
X139750000Y-88700000D01*
X139750000Y-88700000D02*
X138250000Y-88700000D01*
X148807500Y-94837499D02*
X145887499Y-94837499D01*
%TO.N,Net-(#FLG01-pwr)*%
X140000000Y-92900000D02*
X138300000Y-92900000D01*
X148807500Y-95337501D02*
X142437501Y-95337501D01*
X142437501Y-95337501D02*
X140000000Y-92900000D01*
%TD*%
M02*
