  0
SECTION
  2
HEADER
  9
$ANGBASE
  50
0.0
  9
$ANGDIR
  70
1
  9
$MEASUREMENT
  70
0
  0
ENDSEC
  0
SECTION
  2
TABLES
  0
TABLE
  2
LTYPE
  70
4
  0
LTYPE
  5
40F
  2
CONTINUOUS
  70
0
  3
Solid line
  72
65
  73
0
  40
0.0
  0
LTYPE
  5
410
  2
DASHDOT
 70
0
  3
Dash Dot ____ _ ____ _
 72
65
 73
4
 40
2.0
 49
1.25
 49
-0.25
 49
0.25
 49
-0.25
  0
LTYPE
  5
411
  2
DASHED
 70
0
  3
Dashed __ __ __ __ __
 72
65
 73
2
 40
0.75
 49
0.5
 49
-0.25
  0
LTYPE
  5
43B
  2
DOTTED
 70
0
  3
Dotted .  .  .  .
 72
65
 73
2
 40
0.2
 49
0.0
 49
-0.2
  0
ENDTAB
  0
TABLE
  2
STYLE
  70
4
  0
STYLE
  2
KICAD
  70
0
  40
0
  41
1
  42
1
  50
0
  71
0
  3
isocp.shx
  0
STYLE
  2
KICADB
  70
0
  40
0
  41
1
  42
1
  50
0
  71
0
  3
isocp.shx
  0
STYLE
  2
KICADI
  70
0
  40
0
  41
1
  42
1
  50
15
  71
0
  3
isocp.shx
  0
STYLE
  2
KICADBI
  70
0
  40
0
  41
1
  42
1
  50
15
  71
0
  3
isocp.shx
  0
ENDTAB
  0
TABLE
  2
LAYER
  70
1
  0
LAYER
  2
BLACK
  70
0
  62
7
  6
CONTINUOUS
  0
ENDTAB
  0
ENDSEC
  0
SECTION
  2
ENTITIES
0
LINE
8
BLACK
6
CONTINUOUS
10
5.16307
20
-3.74035
11
5.17013
21
-3.74191
0
LINE
8
BLACK
6
CONTINUOUS
10
5.17013
20
-3.74191
11
5.1767
21
-3.74495
0
LINE
8
BLACK
6
CONTINUOUS
10
5.1767
20
-3.74495
11
5.18246
21
-3.74933
0
LINE
8
BLACK
6
CONTINUOUS
10
5.18246
20
-3.74933
11
5.18715
21
-3.75484
0
LINE
8
BLACK
6
CONTINUOUS
10
5.18715
20
-3.75484
11
5.19054
21
-3.76124
0
LINE
8
BLACK
6
CONTINUOUS
10
5.19054
20
-3.76124
11
5.19247
21
-3.76821
0
LINE
8
BLACK
6
CONTINUOUS
10
5.19247
20
-3.76821
11
5.1925
21
-3.7687
0
LINE
8
BLACK
6
CONTINUOUS
10
5.1925
20
-3.7687
11
5.83966
21
-3.7687
0
LINE
8
BLACK
6
CONTINUOUS
10
5.83966
20
-3.7687
11
5.83966
21
-3.76811
0
LINE
8
BLACK
6
CONTINUOUS
10
5.83966
20
-3.76811
11
5.87747
21
-3.76811
0
LINE
8
BLACK
6
CONTINUOUS
10
5.87747
20
-3.76811
11
5.87747
21
-3.77815
0
LINE
8
BLACK
6
CONTINUOUS
10
5.87747
20
-3.77815
11
5.85949
21
-3.77815
0
LINE
8
BLACK
6
CONTINUOUS
10
5.85949
20
-3.77815
11
5.85924
21
-3.7782
0
LINE
8
BLACK
6
CONTINUOUS
10
5.85924
20
-3.7782
11
5.85807
21
-3.77854
0
LINE
8
BLACK
6
CONTINUOUS
10
5.85807
20
-3.77854
11
5.19235
21
-3.77854
0
LINE
8
BLACK
6
CONTINUOUS
10
5.19235
20
-3.77854
11
5.19169
21
-3.78257
0
LINE
8
BLACK
6
CONTINUOUS
10
5.19169
20
-3.78257
11
5.18902
21
-3.7893
0
LINE
8
BLACK
6
CONTINUOUS
10
5.18902
20
-3.7893
11
5.18495
21
-3.79529
0
LINE
8
BLACK
6
CONTINUOUS
10
5.18495
20
-3.79529
11
5.1797
21
-3.80026
0
LINE
8
BLACK
6
CONTINUOUS
10
5.1797
20
-3.80026
11
5.1735
21
-3.80399
0
LINE
8
BLACK
6
CONTINUOUS
10
5.1735
20
-3.80399
11
5.16664
21
-3.8063
0
LINE
8
BLACK
6
CONTINUOUS
10
5.16664
20
-3.8063
11
5.15945
21
-3.80709
0
LINE
8
BLACK
6
CONTINUOUS
10
5.15945
20
-3.80709
11
5.14764
21
-3.80709
0
LINE
8
BLACK
6
CONTINUOUS
10
5.14764
20
-3.80709
11
5.14402
21
-3.80689
0
LINE
8
BLACK
6
CONTINUOUS
10
5.14402
20
-3.80689
11
5.13695
21
-3.80533
0
LINE
8
BLACK
6
CONTINUOUS
10
5.13695
20
-3.80533
11
5.13038
21
-3.8023
0
LINE
8
BLACK
6
CONTINUOUS
10
5.13038
20
-3.8023
11
5.12462
21
-3.79792
0
LINE
8
BLACK
6
CONTINUOUS
10
5.12462
20
-3.79792
11
5.11994
21
-3.7924
0
LINE
8
BLACK
6
CONTINUOUS
10
5.11994
20
-3.7924
11
5.11655
21
-3.78601
0
LINE
8
BLACK
6
CONTINUOUS
10
5.11655
20
-3.78601
11
5.11461
21
-3.77904
0
LINE
8
BLACK
6
CONTINUOUS
10
5.11461
20
-3.77904
11
5.11422
21
-3.77181
0
LINE
8
BLACK
6
CONTINUOUS
10
5.11422
20
-3.77181
11
5.11539
21
-3.76467
0
LINE
8
BLACK
6
CONTINUOUS
10
5.11539
20
-3.76467
11
5.11807
21
-3.75795
0
LINE
8
BLACK
6
CONTINUOUS
10
5.11807
20
-3.75795
11
5.12213
21
-3.75196
0
LINE
8
BLACK
6
CONTINUOUS
10
5.12213
20
-3.75196
11
5.12739
21
-3.74698
0
LINE
8
BLACK
6
CONTINUOUS
10
5.12739
20
-3.74698
11
5.13359
21
-3.74325
0
LINE
8
BLACK
6
CONTINUOUS
10
5.13359
20
-3.74325
11
5.14044
21
-3.74094
0
LINE
8
BLACK
6
CONTINUOUS
10
5.14044
20
-3.74094
11
5.14764
21
-3.74016
0
LINE
8
BLACK
6
CONTINUOUS
10
5.14764
20
-3.74016
11
5.15945
21
-3.74016
0
LINE
8
BLACK
6
CONTINUOUS
10
5.15945
20
-3.74016
11
5.16307
21
-3.74035
0
LINE
8
BLACK
6
CONTINUOUS
10
5.87747
20
-3.79783
11
5.86383
21
-3.79783
0
LINE
8
BLACK
6
CONTINUOUS
10
5.86383
20
-3.79783
11
5.86346
21
-3.79841
0
LINE
8
BLACK
6
CONTINUOUS
10
5.86346
20
-3.79841
11
5.86197
21
-3.79909
0
LINE
8
BLACK
6
CONTINUOUS
10
5.86197
20
-3.79909
11
5.86196
21
-3.7991
0
LINE
8
BLACK
6
CONTINUOUS
10
5.86196
20
-3.7991
11
5.86194
21
-3.7991
0
LINE
8
BLACK
6
CONTINUOUS
10
5.86194
20
-3.7991
11
5.86094
21
-3.79956
0
LINE
8
BLACK
6
CONTINUOUS
10
5.86094
20
-3.79956
11
5.85819
21
-3.79917
0
LINE
8
BLACK
6
CONTINUOUS
10
5.85819
20
-3.79917
11
5.8569
21
-3.79805
0
LINE
8
BLACK
6
CONTINUOUS
10
5.8569
20
-3.79805
11
5.85676
21
-3.79797
0
LINE
8
BLACK
6
CONTINUOUS
10
5.85676
20
-3.79797
11
5.85662
21
-3.79783
0
LINE
8
BLACK
6
CONTINUOUS
10
5.85662
20
-3.79783
11
5.83966
21
-3.79783
0
LINE
8
BLACK
6
CONTINUOUS
10
5.83966
20
-3.79783
11
5.83966
21
-3.79774
0
LINE
8
BLACK
6
CONTINUOUS
10
5.83966
20
-3.79774
11
5.77932
21
-3.79774
0
LINE
8
BLACK
6
CONTINUOUS
10
5.77932
20
-3.79774
11
5.71278
21
-3.80019
0
LINE
8
BLACK
6
CONTINUOUS
10
5.71278
20
-3.80019
11
5.71266
21
-3.80018
0
LINE
8
BLACK
6
CONTINUOUS
10
5.71266
20
-3.80018
11
5.7126
21
-3.8002
0
LINE
8
BLACK
6
CONTINUOUS
10
5.7126
20
-3.8002
11
5.5985
21
-3.8002
0
LINE
8
BLACK
6
CONTINUOUS
10
5.5985
20
-3.8002
11
5.50742
21
-3.89128
0
LINE
8
BLACK
6
CONTINUOUS
10
5.50742
20
-3.89128
11
5.50671
21
-3.8918
0
LINE
8
BLACK
6
CONTINUOUS
10
5.50671
20
-3.8918
11
5.5066
21
-3.89194
0
LINE
8
BLACK
6
CONTINUOUS
10
5.5066
20
-3.89194
11
5.50649
21
-3.89197
0
LINE
8
BLACK
6
CONTINUOUS
10
5.50649
20
-3.89197
11
5.5063
21
-3.89211
0
LINE
8
BLACK
6
CONTINUOUS
10
5.5063
20
-3.89211
11
5.50511
21
-3.89237
0
LINE
8
BLACK
6
CONTINUOUS
10
5.50511
20
-3.89237
11
5.50394
21
-3.89272
0
LINE
8
BLACK
6
CONTINUOUS
10
5.50394
20
-3.89272
11
5.48566
21
-3.89272
0
LINE
8
BLACK
6
CONTINUOUS
10
5.48566
20
-3.89272
11
5.485
21
-3.89675
0
LINE
8
BLACK
6
CONTINUOUS
10
5.485
20
-3.89675
11
5.48232
21
-3.90347
0
LINE
8
BLACK
6
CONTINUOUS
10
5.48232
20
-3.90347
11
5.47826
21
-3.90946
0
LINE
8
BLACK
6
CONTINUOUS
10
5.47826
20
-3.90946
11
5.47301
21
-3.91444
0
LINE
8
BLACK
6
CONTINUOUS
10
5.47301
20
-3.91444
11
5.46681
21
-3.91817
0
LINE
8
BLACK
6
CONTINUOUS
10
5.46681
20
-3.91817
11
5.45995
21
-3.92048
0
LINE
8
BLACK
6
CONTINUOUS
10
5.45995
20
-3.92048
11
5.45276
21
-3.92126
0
LINE
8
BLACK
6
CONTINUOUS
10
5.45276
20
-3.92126
11
5.44094
21
-3.92126
0
LINE
8
BLACK
6
CONTINUOUS
10
5.44094
20
-3.92126
11
5.43733
21
-3.92106
0
LINE
8
BLACK
6
CONTINUOUS
10
5.43733
20
-3.92106
11
5.43026
21
-3.91951
0
LINE
8
BLACK
6
CONTINUOUS
10
5.43026
20
-3.91951
11
5.42369
21
-3.91647
0
LINE
8
BLACK
6
CONTINUOUS
10
5.42369
20
-3.91647
11
5.41793
21
-3.91209
0
LINE
8
BLACK
6
CONTINUOUS
10
5.41793
20
-3.91209
11
5.41325
21
-3.90658
0
LINE
8
BLACK
6
CONTINUOUS
10
5.41325
20
-3.90658
11
5.40986
21
-3.90018
0
LINE
8
BLACK
6
CONTINUOUS
10
5.40986
20
-3.90018
11
5.40792
21
-3.89321
0
LINE
8
BLACK
6
CONTINUOUS
10
5.40792
20
-3.89321
11
5.40753
21
-3.88598
0
LINE
8
BLACK
6
CONTINUOUS
10
5.40753
20
-3.88598
11
5.4087
21
-3.87884
0
LINE
8
BLACK
6
CONTINUOUS
10
5.4087
20
-3.87884
11
5.41138
21
-3.87212
0
LINE
8
BLACK
6
CONTINUOUS
10
5.41138
20
-3.87212
11
5.41544
21
-3.86613
0
LINE
8
BLACK
6
CONTINUOUS
10
5.41544
20
-3.86613
11
5.42069
21
-3.86115
0
LINE
8
BLACK
6
CONTINUOUS
10
5.42069
20
-3.86115
11
5.42689
21
-3.85742
0
LINE
8
BLACK
6
CONTINUOUS
10
5.42689
20
-3.85742
11
5.43375
21
-3.85511
0
LINE
8
BLACK
6
CONTINUOUS
10
5.43375
20
-3.85511
11
5.44094
21
-3.85433
0
LINE
8
BLACK
6
CONTINUOUS
10
5.44094
20
-3.85433
11
5.45276
21
-3.85433
0
LINE
8
BLACK
6
CONTINUOUS
10
5.45276
20
-3.85433
11
5.45637
21
-3.85453
0
LINE
8
BLACK
6
CONTINUOUS
10
5.45637
20
-3.85453
11
5.46344
21
-3.85608
0
LINE
8
BLACK
6
CONTINUOUS
10
5.46344
20
-3.85608
11
5.47001
21
-3.85912
0
LINE
8
BLACK
6
CONTINUOUS
10
5.47001
20
-3.85912
11
5.47577
21
-3.8635
0
LINE
8
BLACK
6
CONTINUOUS
10
5.47577
20
-3.8635
11
5.48045
21
-3.86902
0
LINE
8
BLACK
6
CONTINUOUS
10
5.48045
20
-3.86902
11
5.48384
21
-3.87541
0
LINE
8
BLACK
6
CONTINUOUS
10
5.48384
20
-3.87541
11
5.48578
21
-3.88238
0
LINE
8
BLACK
6
CONTINUOUS
10
5.48578
20
-3.88238
11
5.48581
21
-3.88287
0
LINE
8
BLACK
6
CONTINUOUS
10
5.48581
20
-3.88287
11
5.5019
21
-3.88287
0
LINE
8
BLACK
6
CONTINUOUS
10
5.5019
20
-3.88287
11
5.59298
21
-3.7918
0
LINE
8
BLACK
6
CONTINUOUS
10
5.59298
20
-3.7918
11
5.59368
21
-3.79127
0
LINE
8
BLACK
6
CONTINUOUS
10
5.59368
20
-3.79127
11
5.5938
21
-3.79114
0
LINE
8
BLACK
6
CONTINUOUS
10
5.5938
20
-3.79114
11
5.5939
21
-3.79111
0
LINE
8
BLACK
6
CONTINUOUS
10
5.5939
20
-3.79111
11
5.5941
21
-3.79096
0
LINE
8
BLACK
6
CONTINUOUS
10
5.5941
20
-3.79096
11
5.59529
21
-3.7907
0
LINE
8
BLACK
6
CONTINUOUS
10
5.59529
20
-3.7907
11
5.59646
21
-3.79035
0
LINE
8
BLACK
6
CONTINUOUS
10
5.59646
20
-3.79035
11
5.71251
21
-3.79035
0
LINE
8
BLACK
6
CONTINUOUS
10
5.71251
20
-3.79035
11
5.77905
21
-3.7879
0
LINE
8
BLACK
6
CONTINUOUS
10
5.77905
20
-3.7879
11
5.77917
21
-3.78791
0
LINE
8
BLACK
6
CONTINUOUS
10
5.77917
20
-3.78791
11
5.77923
21
-3.78789
0
LINE
8
BLACK
6
CONTINUOUS
10
5.77923
20
-3.78789
11
5.83966
21
-3.78789
0
LINE
8
BLACK
6
CONTINUOUS
10
5.83966
20
-3.78789
11
5.83966
21
-3.7878
0
LINE
8
BLACK
6
CONTINUOUS
10
5.83966
20
-3.7878
11
5.87747
21
-3.7878
0
LINE
8
BLACK
6
CONTINUOUS
10
5.87747
20
-3.7878
11
5.87747
21
-3.79783
0
LINE
8
BLACK
6
CONTINUOUS
10
5.87747
20
-3.81752
11
5.85607
21
-3.81752
0
LINE
8
BLACK
6
CONTINUOUS
10
5.85607
20
-3.81752
11
5.79345
21
-3.81981
0
LINE
8
BLACK
6
CONTINUOUS
10
5.79345
20
-3.81981
11
5.74114
21
-3.87212
0
LINE
8
BLACK
6
CONTINUOUS
10
5.74114
20
-3.87212
11
5.74114
21
-3.9685
0
LINE
8
BLACK
6
CONTINUOUS
10
5.74114
20
-3.9685
11
5.74102
21
-3.96937
0
LINE
8
BLACK
6
CONTINUOUS
10
5.74102
20
-3.96937
11
5.74103
21
-3.96955
0
LINE
8
BLACK
6
CONTINUOUS
10
5.74103
20
-3.96955
11
5.74098
21
-3.96964
0
LINE
8
BLACK
6
CONTINUOUS
10
5.74098
20
-3.96964
11
5.74094
21
-3.96989
0
LINE
8
BLACK
6
CONTINUOUS
10
5.74094
20
-3.96989
11
5.74028
21
-3.97091
0
LINE
8
BLACK
6
CONTINUOUS
10
5.74028
20
-3.97091
11
5.7397
21
-3.97198
0
LINE
8
BLACK
6
CONTINUOUS
10
5.7397
20
-3.97198
11
5.6334
21
-4.07828
0
LINE
8
BLACK
6
CONTINUOUS
10
5.6334
20
-4.07828
11
5.6327
21
-4.07881
0
LINE
8
BLACK
6
CONTINUOUS
10
5.6327
20
-4.07881
11
5.63258
21
-4.07894
0
LINE
8
BLACK
6
CONTINUOUS
10
5.63258
20
-4.07894
11
5.63248
21
-4.07897
0
LINE
8
BLACK
6
CONTINUOUS
10
5.63248
20
-4.07897
11
5.63228
21
-4.07912
0
LINE
8
BLACK
6
CONTINUOUS
10
5.63228
20
-4.07912
11
5.63109
21
-4.07938
0
LINE
8
BLACK
6
CONTINUOUS
10
5.63109
20
-4.07938
11
5.62992
21
-4.07972
0
LINE
8
BLACK
6
CONTINUOUS
10
5.62992
20
-4.07972
11
5.48369
21
-4.07972
0
LINE
8
BLACK
6
CONTINUOUS
10
5.48369
20
-4.07972
11
5.48303
21
-4.08376
0
LINE
8
BLACK
6
CONTINUOUS
10
5.48303
20
-4.08376
11
5.48035
21
-4.09048
0
LINE
8
BLACK
6
CONTINUOUS
10
5.48035
20
-4.09048
11
5.47629
21
-4.09647
0
LINE
8
BLACK
6
CONTINUOUS
10
5.47629
20
-4.09647
11
5.47104
21
-4.10144
0
LINE
8
BLACK
6
CONTINUOUS
10
5.47104
20
-4.10144
11
5.46484
21
-4.10517
0
LINE
8
BLACK
6
CONTINUOUS
10
5.46484
20
-4.10517
11
5.45798
21
-4.10749
0
LINE
8
BLACK
6
CONTINUOUS
10
5.45798
20
-4.10749
11
5.45079
21
-4.10827
0
LINE
8
BLACK
6
CONTINUOUS
10
5.45079
20
-4.10827
11
5.43898
21
-4.10827
0
LINE
8
BLACK
6
CONTINUOUS
10
5.43898
20
-4.10827
11
5.43536
21
-4.10807
0
LINE
8
BLACK
6
CONTINUOUS
10
5.43536
20
-4.10807
11
5.42829
21
-4.10652
0
LINE
8
BLACK
6
CONTINUOUS
10
5.42829
20
-4.10652
11
5.42172
21
-4.10348
0
LINE
8
BLACK
6
CONTINUOUS
10
5.42172
20
-4.10348
11
5.41596
21
-4.0991
0
LINE
8
BLACK
6
CONTINUOUS
10
5.41596
20
-4.0991
11
5.41128
21
-4.09358
0
LINE
8
BLACK
6
CONTINUOUS
10
5.41128
20
-4.09358
11
5.40789
21
-4.08719
0
LINE
8
BLACK
6
CONTINUOUS
10
5.40789
20
-4.08719
11
5.40595
21
-4.08022
0
LINE
8
BLACK
6
CONTINUOUS
10
5.40595
20
-4.08022
11
5.40556
21
-4.07299
0
LINE
8
BLACK
6
CONTINUOUS
10
5.40556
20
-4.07299
11
5.40673
21
-4.06585
0
LINE
8
BLACK
6
CONTINUOUS
10
5.40673
20
-4.06585
11
5.40941
21
-4.05913
0
LINE
8
BLACK
6
CONTINUOUS
10
5.40941
20
-4.05913
11
5.41347
21
-4.05314
0
LINE
8
BLACK
6
CONTINUOUS
10
5.41347
20
-4.05314
11
5.41872
21
-4.04816
0
LINE
8
BLACK
6
CONTINUOUS
10
5.41872
20
-4.04816
11
5.42492
21
-4.04443
0
LINE
8
BLACK
6
CONTINUOUS
10
5.42492
20
-4.04443
11
5.43178
21
-4.04212
0
LINE
8
BLACK
6
CONTINUOUS
10
5.43178
20
-4.04212
11
5.43898
21
-4.04134
0
LINE
8
BLACK
6
CONTINUOUS
10
5.43898
20
-4.04134
11
5.45079
21
-4.04134
0
LINE
8
BLACK
6
CONTINUOUS
10
5.45079
20
-4.04134
11
5.45441
21
-4.04153
0
LINE
8
BLACK
6
CONTINUOUS
10
5.45441
20
-4.04153
11
5.46147
21
-4.04309
0
LINE
8
BLACK
6
CONTINUOUS
10
5.46147
20
-4.04309
11
5.46804
21
-4.04613
0
LINE
8
BLACK
6
CONTINUOUS
10
5.46804
20
-4.04613
11
5.4738
21
-4.05051
0
LINE
8
BLACK
6
CONTINUOUS
10
5.4738
20
-4.05051
11
5.47849
21
-4.05602
0
LINE
8
BLACK
6
CONTINUOUS
10
5.47849
20
-4.05602
11
5.48188
21
-4.06242
0
LINE
8
BLACK
6
CONTINUOUS
10
5.48188
20
-4.06242
11
5.48381
21
-4.06939
0
LINE
8
BLACK
6
CONTINUOUS
10
5.48381
20
-4.06939
11
5.48384
21
-4.06988
0
LINE
8
BLACK
6
CONTINUOUS
10
5.48384
20
-4.06988
11
5.62788
21
-4.06988
0
LINE
8
BLACK
6
CONTINUOUS
10
5.62788
20
-4.06988
11
5.7313
21
-3.96647
0
LINE
8
BLACK
6
CONTINUOUS
10
5.7313
20
-3.96647
11
5.7313
21
-3.87008
0
LINE
8
BLACK
6
CONTINUOUS
10
5.7313
20
-3.87008
11
5.73142
21
-3.86921
0
LINE
8
BLACK
6
CONTINUOUS
10
5.73142
20
-3.86921
11
5.73141
21
-3.86903
0
LINE
8
BLACK
6
CONTINUOUS
10
5.73141
20
-3.86903
11
5.73146
21
-3.86894
0
LINE
8
BLACK
6
CONTINUOUS
10
5.73146
20
-3.86894
11
5.7315
21
-3.86869
0
LINE
8
BLACK
6
CONTINUOUS
10
5.7315
20
-3.86869
11
5.73216
21
-3.86767
0
LINE
8
BLACK
6
CONTINUOUS
10
5.73216
20
-3.86767
11
5.73274
21
-3.8666
0
LINE
8
BLACK
6
CONTINUOUS
10
5.73274
20
-3.8666
11
5.78786
21
-3.81148
0
LINE
8
BLACK
6
CONTINUOUS
10
5.78786
20
-3.81148
11
5.78841
21
-3.81107
0
LINE
8
BLACK
6
CONTINUOUS
10
5.78841
20
-3.81107
11
5.78853
21
-3.81092
0
LINE
8
BLACK
6
CONTINUOUS
10
5.78853
20
-3.81092
11
5.78867
21
-3.81087
0
LINE
8
BLACK
6
CONTINUOUS
10
5.78867
20
-3.81087
11
5.78898
21
-3.81064
0
LINE
8
BLACK
6
CONTINUOUS
10
5.78898
20
-3.81064
11
5.79009
21
-3.8104
0
LINE
8
BLACK
6
CONTINUOUS
10
5.79009
20
-3.8104
11
5.79116
21
-3.81004
0
LINE
8
BLACK
6
CONTINUOUS
10
5.79116
20
-3.81004
11
5.83966
21
-3.80827
0
LINE
8
BLACK
6
CONTINUOUS
10
5.83966
20
-3.80827
11
5.83966
21
-3.80748
0
LINE
8
BLACK
6
CONTINUOUS
10
5.83966
20
-3.80748
11
5.87747
21
-3.80748
0
LINE
8
BLACK
6
CONTINUOUS
10
5.87747
20
-3.80748
11
5.87747
21
-3.81752
0
LINE
8
BLACK
6
CONTINUOUS
10
5.85799
20
-3.82595
11
5.85817
21
-3.82593
0
LINE
8
BLACK
6
CONTINUOUS
10
5.85817
20
-3.82593
11
5.85826
21
-3.82599
0
LINE
8
BLACK
6
CONTINUOUS
10
5.85826
20
-3.82599
11
5.85851
21
-3.82602
0
LINE
8
BLACK
6
CONTINUOUS
10
5.85851
20
-3.82602
11
5.85953
21
-3.82668
0
LINE
8
BLACK
6
CONTINUOUS
10
5.85953
20
-3.82668
11
5.86043
21
-3.82717
0
LINE
8
BLACK
6
CONTINUOUS
10
5.86043
20
-3.82717
11
5.87747
21
-3.82717
0
LINE
8
BLACK
6
CONTINUOUS
10
5.87747
20
-3.82717
11
5.87747
21
-3.8372
0
LINE
8
BLACK
6
CONTINUOUS
10
5.87747
20
-3.8372
11
5.83966
21
-3.8372
0
LINE
8
BLACK
6
CONTINUOUS
10
5.83966
20
-3.8372
11
5.83966
21
-3.83584
0
LINE
8
BLACK
6
CONTINUOUS
10
5.83966
20
-3.83584
11
5.82
21
-3.83656
0
LINE
8
BLACK
6
CONTINUOUS
10
5.82
20
-3.83656
11
5.79823
21
-3.85834
0
LINE
8
BLACK
6
CONTINUOUS
10
5.79823
20
-3.85834
11
5.79823
21
-4.06299
0
LINE
8
BLACK
6
CONTINUOUS
10
5.79823
20
-4.06299
11
5.7981
21
-4.06386
0
LINE
8
BLACK
6
CONTINUOUS
10
5.7981
20
-4.06386
11
5.79812
21
-4.06404
0
LINE
8
BLACK
6
CONTINUOUS
10
5.79812
20
-4.06404
11
5.79806
21
-4.06413
0
LINE
8
BLACK
6
CONTINUOUS
10
5.79806
20
-4.06413
11
5.79803
21
-4.06438
0
LINE
8
BLACK
6
CONTINUOUS
10
5.79803
20
-4.06438
11
5.79737
21
-4.0654
0
LINE
8
BLACK
6
CONTINUOUS
10
5.79737
20
-4.0654
11
5.79679
21
-4.06647
0
LINE
8
BLACK
6
CONTINUOUS
10
5.79679
20
-4.06647
11
5.60584
21
-4.25742
0
LINE
8
BLACK
6
CONTINUOUS
10
5.60584
20
-4.25742
11
5.60514
21
-4.25794
0
LINE
8
BLACK
6
CONTINUOUS
10
5.60514
20
-4.25794
11
5.60502
21
-4.25808
0
LINE
8
BLACK
6
CONTINUOUS
10
5.60502
20
-4.25808
11
5.60492
21
-4.25811
0
LINE
8
BLACK
6
CONTINUOUS
10
5.60492
20
-4.25811
11
5.60472
21
-4.25826
0
LINE
8
BLACK
6
CONTINUOUS
10
5.60472
20
-4.25826
11
5.60353
21
-4.25852
0
LINE
8
BLACK
6
CONTINUOUS
10
5.60353
20
-4.25852
11
5.60236
21
-4.25886
0
LINE
8
BLACK
6
CONTINUOUS
10
5.60236
20
-4.25886
11
5.48172
21
-4.25886
0
LINE
8
BLACK
6
CONTINUOUS
10
5.48172
20
-4.25886
11
5.48106
21
-4.26289
0
LINE
8
BLACK
6
CONTINUOUS
10
5.48106
20
-4.26289
11
5.47839
21
-4.26961
0
LINE
8
BLACK
6
CONTINUOUS
10
5.47839
20
-4.26961
11
5.47432
21
-4.2756
0
LINE
8
BLACK
6
CONTINUOUS
10
5.47432
20
-4.2756
11
5.46907
21
-4.28058
0
LINE
8
BLACK
6
CONTINUOUS
10
5.46907
20
-4.28058
11
5.4654
21
-4.28278
0
LINE
8
BLACK
6
CONTINUOUS
10
5.4654
20
-4.28278
11
5.46681
21
-4.28369
0
LINE
8
BLACK
6
CONTINUOUS
10
5.46681
20
-4.28369
11
5.46796
21
-4.28621
0
LINE
8
BLACK
6
CONTINUOUS
10
5.46796
20
-4.28621
11
5.46757
21
-4.28895
0
LINE
8
BLACK
6
CONTINUOUS
10
5.46757
20
-4.28895
11
5.46575
21
-4.29105
0
LINE
8
BLACK
6
CONTINUOUS
10
5.46575
20
-4.29105
11
5.46309
21
-4.29183
0
LINE
8
BLACK
6
CONTINUOUS
10
5.46309
20
-4.29183
11
5.45984
21
-4.29183
0
LINE
8
BLACK
6
CONTINUOUS
10
5.45984
20
-4.29183
11
5.45846
21
-4.29163
0
LINE
8
BLACK
6
CONTINUOUS
10
5.45846
20
-4.29163
11
5.45612
21
-4.29013
0
LINE
8
BLACK
6
CONTINUOUS
10
5.45612
20
-4.29013
11
5.45497
21
-4.28761
0
LINE
8
BLACK
6
CONTINUOUS
10
5.45497
20
-4.28761
11
5.4551
21
-4.28672
0
LINE
8
BLACK
6
CONTINUOUS
10
5.4551
20
-4.28672
11
5.44882
21
-4.2874
0
LINE
8
BLACK
6
CONTINUOUS
10
5.44882
20
-4.2874
11
5.43701
21
-4.2874
0
LINE
8
BLACK
6
CONTINUOUS
10
5.43701
20
-4.2874
11
5.43339
21
-4.28721
0
LINE
8
BLACK
6
CONTINUOUS
10
5.43339
20
-4.28721
11
5.42632
21
-4.28565
0
LINE
8
BLACK
6
CONTINUOUS
10
5.42632
20
-4.28565
11
5.41976
21
-4.28261
0
LINE
8
BLACK
6
CONTINUOUS
10
5.41976
20
-4.28261
11
5.41399
21
-4.27823
0
LINE
8
BLACK
6
CONTINUOUS
10
5.41399
20
-4.27823
11
5.40931
21
-4.27272
0
LINE
8
BLACK
6
CONTINUOUS
10
5.40931
20
-4.27272
11
5.40592
21
-4.26632
0
LINE
8
BLACK
6
CONTINUOUS
10
5.40592
20
-4.26632
11
5.40398
21
-4.25935
0
LINE
8
BLACK
6
CONTINUOUS
10
5.40398
20
-4.25935
11
5.40359
21
-4.25213
0
LINE
8
BLACK
6
CONTINUOUS
10
5.40359
20
-4.25213
11
5.40476
21
-4.24498
0
LINE
8
BLACK
6
CONTINUOUS
10
5.40476
20
-4.24498
11
5.40744
21
-4.23826
0
LINE
8
BLACK
6
CONTINUOUS
10
5.40744
20
-4.23826
11
5.4115
21
-4.23227
0
LINE
8
BLACK
6
CONTINUOUS
10
5.4115
20
-4.23227
11
5.41676
21
-4.2273
0
LINE
8
BLACK
6
CONTINUOUS
10
5.41676
20
-4.2273
11
5.42296
21
-4.22357
0
LINE
8
BLACK
6
CONTINUOUS
10
5.42296
20
-4.22357
11
5.42981
21
-4.22125
0
LINE
8
BLACK
6
CONTINUOUS
10
5.42981
20
-4.22125
11
5.43701
21
-4.22047
0
LINE
8
BLACK
6
CONTINUOUS
10
5.43701
20
-4.22047
11
5.44882
21
-4.22047
0
LINE
8
BLACK
6
CONTINUOUS
10
5.44882
20
-4.22047
11
5.45244
21
-4.22067
0
LINE
8
BLACK
6
CONTINUOUS
10
5.45244
20
-4.22067
11
5.4595
21
-4.22222
0
LINE
8
BLACK
6
CONTINUOUS
10
5.4595
20
-4.22222
11
5.46607
21
-4.22526
0
LINE
8
BLACK
6
CONTINUOUS
10
5.46607
20
-4.22526
11
5.47183
21
-4.22964
0
LINE
8
BLACK
6
CONTINUOUS
10
5.47183
20
-4.22964
11
5.47652
21
-4.23516
0
LINE
8
BLACK
6
CONTINUOUS
10
5.47652
20
-4.23516
11
5.47991
21
-4.24155
0
LINE
8
BLACK
6
CONTINUOUS
10
5.47991
20
-4.24155
11
5.48184
21
-4.24852
0
LINE
8
BLACK
6
CONTINUOUS
10
5.48184
20
-4.24852
11
5.48187
21
-4.24902
0
LINE
8
BLACK
6
CONTINUOUS
10
5.48187
20
-4.24902
11
5.60032
21
-4.24902
0
LINE
8
BLACK
6
CONTINUOUS
10
5.60032
20
-4.24902
11
5.78839
21
-4.06095
0
LINE
8
BLACK
6
CONTINUOUS
10
5.78839
20
-4.06095
11
5.78839
21
-3.8563
0
LINE
8
BLACK
6
CONTINUOUS
10
5.78839
20
-3.8563
11
5.78851
21
-3.85543
0
LINE
8
BLACK
6
CONTINUOUS
10
5.78851
20
-3.85543
11
5.7885
21
-3.85525
0
LINE
8
BLACK
6
CONTINUOUS
10
5.7885
20
-3.85525
11
5.78855
21
-3.85516
0
LINE
8
BLACK
6
CONTINUOUS
10
5.78855
20
-3.85516
11
5.78859
21
-3.85491
0
LINE
8
BLACK
6
CONTINUOUS
10
5.78859
20
-3.85491
11
5.78924
21
-3.85389
0
LINE
8
BLACK
6
CONTINUOUS
10
5.78924
20
-3.85389
11
5.78983
21
-3.85282
0
LINE
8
BLACK
6
CONTINUOUS
10
5.78983
20
-3.85282
11
5.81441
21
-3.82824
0
LINE
8
BLACK
6
CONTINUOUS
10
5.81441
20
-3.82824
11
5.81496
21
-3.82783
0
LINE
8
BLACK
6
CONTINUOUS
10
5.81496
20
-3.82783
11
5.81508
21
-3.82768
0
LINE
8
BLACK
6
CONTINUOUS
10
5.81508
20
-3.82768
11
5.81522
21
-3.82763
0
LINE
8
BLACK
6
CONTINUOUS
10
5.81522
20
-3.82763
11
5.81553
21
-3.8274
0
LINE
8
BLACK
6
CONTINUOUS
10
5.81553
20
-3.8274
11
5.81664
21
-3.82716
0
LINE
8
BLACK
6
CONTINUOUS
10
5.81664
20
-3.82716
11
5.81771
21
-3.8268
0
LINE
8
BLACK
6
CONTINUOUS
10
5.81771
20
-3.8268
11
5.84434
21
-3.82582
0
LINE
8
BLACK
6
CONTINUOUS
10
5.84434
20
-3.82582
11
5.84447
21
-3.82584
0
LINE
8
BLACK
6
CONTINUOUS
10
5.84447
20
-3.82584
11
5.84452
21
-3.82582
0
LINE
8
BLACK
6
CONTINUOUS
10
5.84452
20
-3.82582
11
5.85712
21
-3.82582
0
LINE
8
BLACK
6
CONTINUOUS
10
5.85712
20
-3.82582
11
5.85799
21
-3.82595
0
LINE
8
BLACK
6
CONTINUOUS
10
5.89793
20
-3.88544
11
5.89783
21
-3.88544
0
LINE
8
BLACK
6
CONTINUOUS
10
5.89783
20
-3.88544
11
5.89783
21
-4.06969
0
LINE
8
BLACK
6
CONTINUOUS
10
5.89783
20
-4.06969
11
5.89771
21
-4.07055
0
LINE
8
BLACK
6
CONTINUOUS
10
5.89771
20
-4.07055
11
5.89772
21
-4.07073
0
LINE
8
BLACK
6
CONTINUOUS
10
5.89772
20
-4.07073
11
5.89767
21
-4.07083
0
LINE
8
BLACK
6
CONTINUOUS
10
5.89767
20
-4.07083
11
5.89764
21
-4.07107
0
LINE
8
BLACK
6
CONTINUOUS
10
5.89764
20
-4.07107
11
5.89698
21
-4.0721
0
LINE
8
BLACK
6
CONTINUOUS
10
5.89698
20
-4.0721
11
5.89639
21
-4.07316
0
LINE
8
BLACK
6
CONTINUOUS
10
5.89639
20
-4.07316
11
5.53498
21
-4.43458
0
LINE
8
BLACK
6
CONTINUOUS
10
5.53498
20
-4.43458
11
5.53427
21
-4.43511
0
LINE
8
BLACK
6
CONTINUOUS
10
5.53427
20
-4.43511
11
5.53416
21
-4.43524
0
LINE
8
BLACK
6
CONTINUOUS
10
5.53416
20
-4.43524
11
5.53405
21
-4.43527
0
LINE
8
BLACK
6
CONTINUOUS
10
5.53405
20
-4.43527
11
5.53385
21
-4.43542
0
LINE
8
BLACK
6
CONTINUOUS
10
5.53385
20
-4.43542
11
5.53266
21
-4.43568
0
LINE
8
BLACK
6
CONTINUOUS
10
5.53266
20
-4.43568
11
5.5315
21
-4.43602
0
LINE
8
BLACK
6
CONTINUOUS
10
5.5315
20
-4.43602
11
5.48172
21
-4.43602
0
LINE
8
BLACK
6
CONTINUOUS
10
5.48172
20
-4.43602
11
5.48106
21
-4.44006
0
LINE
8
BLACK
6
CONTINUOUS
10
5.48106
20
-4.44006
11
5.47839
21
-4.44678
0
LINE
8
BLACK
6
CONTINUOUS
10
5.47839
20
-4.44678
11
5.47736
21
-4.44829
0
LINE
8
BLACK
6
CONTINUOUS
10
5.47736
20
-4.44829
11
5.47736
21
-4.45079
0
LINE
8
BLACK
6
CONTINUOUS
10
5.47736
20
-4.45079
11
5.47716
21
-4.45217
0
LINE
8
BLACK
6
CONTINUOUS
10
5.47716
20
-4.45217
11
5.47566
21
-4.45451
0
LINE
8
BLACK
6
CONTINUOUS
10
5.47566
20
-4.45451
11
5.47314
21
-4.45566
0
LINE
8
BLACK
6
CONTINUOUS
10
5.47314
20
-4.45566
11
5.47152
21
-4.45543
0
LINE
8
BLACK
6
CONTINUOUS
10
5.47152
20
-4.45543
11
5.46907
21
-4.45774
0
LINE
8
BLACK
6
CONTINUOUS
10
5.46907
20
-4.45774
11
5.46287
21
-4.46147
0
LINE
8
BLACK
6
CONTINUOUS
10
5.46287
20
-4.46147
11
5.45601
21
-4.46378
0
LINE
8
BLACK
6
CONTINUOUS
10
5.45601
20
-4.46378
11
5.44882
21
-4.46457
0
LINE
8
BLACK
6
CONTINUOUS
10
5.44882
20
-4.46457
11
5.43701
21
-4.46457
0
LINE
8
BLACK
6
CONTINUOUS
10
5.43701
20
-4.46457
11
5.43339
21
-4.46437
0
LINE
8
BLACK
6
CONTINUOUS
10
5.43339
20
-4.46437
11
5.42632
21
-4.46282
0
LINE
8
BLACK
6
CONTINUOUS
10
5.42632
20
-4.46282
11
5.41976
21
-4.45978
0
LINE
8
BLACK
6
CONTINUOUS
10
5.41976
20
-4.45978
11
5.41399
21
-4.4554
0
LINE
8
BLACK
6
CONTINUOUS
10
5.41399
20
-4.4554
11
5.40931
21
-4.44988
0
LINE
8
BLACK
6
CONTINUOUS
10
5.40931
20
-4.44988
11
5.40592
21
-4.44349
0
LINE
8
BLACK
6
CONTINUOUS
10
5.40592
20
-4.44349
11
5.40398
21
-4.43652
0
LINE
8
BLACK
6
CONTINUOUS
10
5.40398
20
-4.43652
11
5.40359
21
-4.42929
0
LINE
8
BLACK
6
CONTINUOUS
10
5.40359
20
-4.42929
11
5.40476
21
-4.42215
0
LINE
8
BLACK
6
CONTINUOUS
10
5.40476
20
-4.42215
11
5.40744
21
-4.41543
0
LINE
8
BLACK
6
CONTINUOUS
10
5.40744
20
-4.41543
11
5.4115
21
-4.40944
0
LINE
8
BLACK
6
CONTINUOUS
10
5.4115
20
-4.40944
11
5.41676
21
-4.40446
0
LINE
8
BLACK
6
CONTINUOUS
10
5.41676
20
-4.40446
11
5.42296
21
-4.40073
0
LINE
8
BLACK
6
CONTINUOUS
10
5.42296
20
-4.40073
11
5.42981
21
-4.39842
0
LINE
8
BLACK
6
CONTINUOUS
10
5.42981
20
-4.39842
11
5.43701
21
-4.39764
0
LINE
8
BLACK
6
CONTINUOUS
10
5.43701
20
-4.39764
11
5.44882
21
-4.39764
0
LINE
8
BLACK
6
CONTINUOUS
10
5.44882
20
-4.39764
11
5.45244
21
-4.39783
0
LINE
8
BLACK
6
CONTINUOUS
10
5.45244
20
-4.39783
11
5.4595
21
-4.39939
0
LINE
8
BLACK
6
CONTINUOUS
10
5.4595
20
-4.39939
11
5.46607
21
-4.40243
0
LINE
8
BLACK
6
CONTINUOUS
10
5.46607
20
-4.40243
11
5.46876
21
-4.40447
0
LINE
8
BLACK
6
CONTINUOUS
10
5.46876
20
-4.40447
11
5.46922
21
-4.40376
0
LINE
8
BLACK
6
CONTINUOUS
10
5.46922
20
-4.40376
11
5.47174
21
-4.40261
0
LINE
8
BLACK
6
CONTINUOUS
10
5.47174
20
-4.40261
11
5.47449
21
-4.403
0
LINE
8
BLACK
6
CONTINUOUS
10
5.47449
20
-4.403
11
5.47658
21
-4.40482
0
LINE
8
BLACK
6
CONTINUOUS
10
5.47658
20
-4.40482
11
5.47736
21
-4.40748
0
LINE
8
BLACK
6
CONTINUOUS
10
5.47736
20
-4.40748
11
5.47736
21
-4.41392
0
LINE
8
BLACK
6
CONTINUOUS
10
5.47736
20
-4.41392
11
5.47991
21
-4.41872
0
LINE
8
BLACK
6
CONTINUOUS
10
5.47991
20
-4.41872
11
5.48184
21
-4.42569
0
LINE
8
BLACK
6
CONTINUOUS
10
5.48184
20
-4.42569
11
5.48187
21
-4.42618
0
LINE
8
BLACK
6
CONTINUOUS
10
5.48187
20
-4.42618
11
5.52946
21
-4.42618
0
LINE
8
BLACK
6
CONTINUOUS
10
5.52946
20
-4.42618
11
5.88799
21
-4.06765
0
LINE
8
BLACK
6
CONTINUOUS
10
5.88799
20
-4.06765
11
5.88799
21
-3.88544
0
LINE
8
BLACK
6
CONTINUOUS
10
5.88799
20
-3.88544
11
5.8879
21
-3.88544
0
LINE
8
BLACK
6
CONTINUOUS
10
5.8879
20
-3.88544
11
5.8879
21
-3.84763
0
LINE
8
BLACK
6
CONTINUOUS
10
5.8879
20
-3.84763
11
5.89793
21
-3.84763
0
LINE
8
BLACK
6
CONTINUOUS
10
5.89793
20
-3.84763
11
5.89793
21
-3.88544
0
LINE
8
BLACK
6
CONTINUOUS
10
5.91761
20
-3.88544
11
5.91752
21
-3.88544
0
LINE
8
BLACK
6
CONTINUOUS
10
5.91752
20
-3.88544
11
5.91752
21
-4.08543
0
LINE
8
BLACK
6
CONTINUOUS
10
5.91752
20
-4.08543
11
5.91739
21
-4.0863
0
LINE
8
BLACK
6
CONTINUOUS
10
5.91739
20
-4.0863
11
5.91741
21
-4.08648
0
LINE
8
BLACK
6
CONTINUOUS
10
5.91741
20
-4.08648
11
5.91736
21
-4.08657
0
LINE
8
BLACK
6
CONTINUOUS
10
5.91736
20
-4.08657
11
5.91732
21
-4.08682
0
LINE
8
BLACK
6
CONTINUOUS
10
5.91732
20
-4.08682
11
5.91666
21
-4.08784
0
LINE
8
BLACK
6
CONTINUOUS
10
5.91666
20
-4.08784
11
5.91608
21
-4.08891
0
LINE
8
BLACK
6
CONTINUOUS
10
5.91608
20
-4.08891
11
5.59154
21
-4.41346
0
LINE
8
BLACK
6
CONTINUOUS
10
5.59154
20
-4.41346
11
5.59154
21
-4.55568
0
LINE
8
BLACK
6
CONTINUOUS
10
5.59154
20
-4.55568
11
5.59557
21
-4.55634
0
LINE
8
BLACK
6
CONTINUOUS
10
5.59557
20
-4.55634
11
5.60229
21
-4.55902
0
LINE
8
BLACK
6
CONTINUOUS
10
5.60229
20
-4.55902
11
5.60828
21
-4.56308
0
LINE
8
BLACK
6
CONTINUOUS
10
5.60828
20
-4.56308
11
5.61326
21
-4.56833
0
LINE
8
BLACK
6
CONTINUOUS
10
5.61326
20
-4.56833
11
5.61699
21
-4.57453
0
LINE
8
BLACK
6
CONTINUOUS
10
5.61699
20
-4.57453
11
5.6193
21
-4.58139
0
LINE
8
BLACK
6
CONTINUOUS
10
5.6193
20
-4.58139
11
5.62008
21
-4.58858
0
LINE
8
BLACK
6
CONTINUOUS
10
5.62008
20
-4.58858
11
5.62008
21
-4.60039
0
LINE
8
BLACK
6
CONTINUOUS
10
5.62008
20
-4.60039
11
5.61988
21
-4.60401
0
LINE
8
BLACK
6
CONTINUOUS
10
5.61988
20
-4.60401
11
5.61833
21
-4.61108
0
LINE
8
BLACK
6
CONTINUOUS
10
5.61833
20
-4.61108
11
5.61529
21
-4.61765
0
LINE
8
BLACK
6
CONTINUOUS
10
5.61529
20
-4.61765
11
5.61091
21
-4.62341
0
LINE
8
BLACK
6
CONTINUOUS
10
5.61091
20
-4.62341
11
5.60539
21
-4.62809
0
LINE
8
BLACK
6
CONTINUOUS
10
5.60539
20
-4.62809
11
5.599
21
-4.63148
0
LINE
8
BLACK
6
CONTINUOUS
10
5.599
20
-4.63148
11
5.59203
21
-4.63342
0
LINE
8
BLACK
6
CONTINUOUS
10
5.59203
20
-4.63342
11
5.5848
21
-4.63381
0
LINE
8
BLACK
6
CONTINUOUS
10
5.5848
20
-4.63381
11
5.57766
21
-4.63264
0
LINE
8
BLACK
6
CONTINUOUS
10
5.57766
20
-4.63264
11
5.57094
21
-4.62996
0
LINE
8
BLACK
6
CONTINUOUS
10
5.57094
20
-4.62996
11
5.56495
21
-4.6259
0
LINE
8
BLACK
6
CONTINUOUS
10
5.56495
20
-4.6259
11
5.55997
21
-4.62065
0
LINE
8
BLACK
6
CONTINUOUS
10
5.55997
20
-4.62065
11
5.55624
21
-4.61445
0
LINE
8
BLACK
6
CONTINUOUS
10
5.55624
20
-4.61445
11
5.55393
21
-4.60759
0
LINE
8
BLACK
6
CONTINUOUS
10
5.55393
20
-4.60759
11
5.55315
21
-4.60039
0
LINE
8
BLACK
6
CONTINUOUS
10
5.55315
20
-4.60039
11
5.55315
21
-4.58858
0
LINE
8
BLACK
6
CONTINUOUS
10
5.55315
20
-4.58858
11
5.55335
21
-4.58496
0
LINE
8
BLACK
6
CONTINUOUS
10
5.55335
20
-4.58496
11
5.5549
21
-4.5779
0
LINE
8
BLACK
6
CONTINUOUS
10
5.5549
20
-4.5779
11
5.55794
21
-4.57133
0
LINE
8
BLACK
6
CONTINUOUS
10
5.55794
20
-4.57133
11
5.56232
21
-4.56557
0
LINE
8
BLACK
6
CONTINUOUS
10
5.56232
20
-4.56557
11
5.56783
21
-4.56088
0
LINE
8
BLACK
6
CONTINUOUS
10
5.56783
20
-4.56088
11
5.57423
21
-4.55749
0
LINE
8
BLACK
6
CONTINUOUS
10
5.57423
20
-4.55749
11
5.5812
21
-4.55556
0
LINE
8
BLACK
6
CONTINUOUS
10
5.5812
20
-4.55556
11
5.58169
21
-4.55553
0
LINE
8
BLACK
6
CONTINUOUS
10
5.58169
20
-4.55553
11
5.58169
21
-4.41142
0
LINE
8
BLACK
6
CONTINUOUS
10
5.58169
20
-4.41142
11
5.58182
21
-4.41055
0
LINE
8
BLACK
6
CONTINUOUS
10
5.58182
20
-4.41055
11
5.58181
21
-4.41037
0
LINE
8
BLACK
6
CONTINUOUS
10
5.58181
20
-4.41037
11
5.58186
21
-4.41028
0
LINE
8
BLACK
6
CONTINUOUS
10
5.58186
20
-4.41028
11
5.58189
21
-4.41003
0
LINE
8
BLACK
6
CONTINUOUS
10
5.58189
20
-4.41003
11
5.58255
21
-4.40901
0
LINE
8
BLACK
6
CONTINUOUS
10
5.58255
20
-4.40901
11
5.58313
21
-4.40794
0
LINE
8
BLACK
6
CONTINUOUS
10
5.58313
20
-4.40794
11
5.90768
21
-4.08339
0
LINE
8
BLACK
6
CONTINUOUS
10
5.90768
20
-4.08339
11
5.90768
21
-3.88544
0
LINE
8
BLACK
6
CONTINUOUS
10
5.90768
20
-3.88544
11
5.90758
21
-3.88544
0
LINE
8
BLACK
6
CONTINUOUS
10
5.90758
20
-3.88544
11
5.90758
21
-3.84763
0
LINE
8
BLACK
6
CONTINUOUS
10
5.90758
20
-3.84763
11
5.91761
21
-3.84763
0
LINE
8
BLACK
6
CONTINUOUS
10
5.91761
20
-3.84763
11
5.91761
21
-3.88544
0
LINE
8
BLACK
6
CONTINUOUS
10
5.9373
20
-3.88544
11
5.9372
21
-3.88544
0
LINE
8
BLACK
6
CONTINUOUS
10
5.9372
20
-3.88544
11
5.9372
21
-4.1189
0
LINE
8
BLACK
6
CONTINUOUS
10
5.9372
20
-4.1189
11
5.93708
21
-4.11977
0
LINE
8
BLACK
6
CONTINUOUS
10
5.93708
20
-4.11977
11
5.93709
21
-4.11994
0
LINE
8
BLACK
6
CONTINUOUS
10
5.93709
20
-4.11994
11
5.93704
21
-4.12004
0
LINE
8
BLACK
6
CONTINUOUS
10
5.93704
20
-4.12004
11
5.93701
21
-4.12028
0
LINE
8
BLACK
6
CONTINUOUS
10
5.93701
20
-4.12028
11
5.93635
21
-4.12131
0
LINE
8
BLACK
6
CONTINUOUS
10
5.93635
20
-4.12131
11
5.93576
21
-4.12238
0
LINE
8
BLACK
6
CONTINUOUS
10
5.93576
20
-4.12238
11
5.78051
21
-4.27763
0
LINE
8
BLACK
6
CONTINUOUS
10
5.78051
20
-4.27763
11
5.78051
21
-4.55568
0
LINE
8
BLACK
6
CONTINUOUS
10
5.78051
20
-4.55568
11
5.78454
21
-4.55634
0
LINE
8
BLACK
6
CONTINUOUS
10
5.78454
20
-4.55634
11
5.79127
21
-4.55902
0
LINE
8
BLACK
6
CONTINUOUS
10
5.79127
20
-4.55902
11
5.79726
21
-4.56308
0
LINE
8
BLACK
6
CONTINUOUS
10
5.79726
20
-4.56308
11
5.80223
21
-4.56833
0
LINE
8
BLACK
6
CONTINUOUS
10
5.80223
20
-4.56833
11
5.80596
21
-4.57453
0
LINE
8
BLACK
6
CONTINUOUS
10
5.80596
20
-4.57453
11
5.80827
21
-4.58139
0
LINE
8
BLACK
6
CONTINUOUS
10
5.80827
20
-4.58139
11
5.80906
21
-4.58858
0
LINE
8
BLACK
6
CONTINUOUS
10
5.80906
20
-4.58858
11
5.80906
21
-4.60039
0
LINE
8
BLACK
6
CONTINUOUS
10
5.80906
20
-4.60039
11
5.80886
21
-4.60401
0
LINE
8
BLACK
6
CONTINUOUS
10
5.80886
20
-4.60401
11
5.8073
21
-4.61108
0
LINE
8
BLACK
6
CONTINUOUS
10
5.8073
20
-4.61108
11
5.80426
21
-4.61765
0
LINE
8
BLACK
6
CONTINUOUS
10
5.80426
20
-4.61765
11
5.79989
21
-4.62341
0
LINE
8
BLACK
6
CONTINUOUS
10
5.79989
20
-4.62341
11
5.79437
21
-4.62809
0
LINE
8
BLACK
6
CONTINUOUS
10
5.79437
20
-4.62809
11
5.78798
21
-4.63148
0
LINE
8
BLACK
6
CONTINUOUS
10
5.78798
20
-4.63148
11
5.781
21
-4.63342
0
LINE
8
BLACK
6
CONTINUOUS
10
5.781
20
-4.63342
11
5.77378
21
-4.63381
0
LINE
8
BLACK
6
CONTINUOUS
10
5.77378
20
-4.63381
11
5.76664
21
-4.63264
0
LINE
8
BLACK
6
CONTINUOUS
10
5.76664
20
-4.63264
11
5.75992
21
-4.62996
0
LINE
8
BLACK
6
CONTINUOUS
10
5.75992
20
-4.62996
11
5.75393
21
-4.6259
0
LINE
8
BLACK
6
CONTINUOUS
10
5.75393
20
-4.6259
11
5.74895
21
-4.62065
0
LINE
8
BLACK
6
CONTINUOUS
10
5.74895
20
-4.62065
11
5.74522
21
-4.61445
0
LINE
8
BLACK
6
CONTINUOUS
10
5.74522
20
-4.61445
11
5.74291
21
-4.60759
0
LINE
8
BLACK
6
CONTINUOUS
10
5.74291
20
-4.60759
11
5.74213
21
-4.60039
0
LINE
8
BLACK
6
CONTINUOUS
10
5.74213
20
-4.60039
11
5.74213
21
-4.58858
0
LINE
8
BLACK
6
CONTINUOUS
10
5.74213
20
-4.58858
11
5.74232
21
-4.58496
0
LINE
8
BLACK
6
CONTINUOUS
10
5.74232
20
-4.58496
11
5.74388
21
-4.5779
0
LINE
8
BLACK
6
CONTINUOUS
10
5.74388
20
-4.5779
11
5.74692
21
-4.57133
0
LINE
8
BLACK
6
CONTINUOUS
10
5.74692
20
-4.57133
11
5.7513
21
-4.56557
0
LINE
8
BLACK
6
CONTINUOUS
10
5.7513
20
-4.56557
11
5.75681
21
-4.56088
0
LINE
8
BLACK
6
CONTINUOUS
10
5.75681
20
-4.56088
11
5.7632
21
-4.55749
0
LINE
8
BLACK
6
CONTINUOUS
10
5.7632
20
-4.55749
11
5.77018
21
-4.55556
0
LINE
8
BLACK
6
CONTINUOUS
10
5.77018
20
-4.55556
11
5.77067
21
-4.55553
0
LINE
8
BLACK
6
CONTINUOUS
10
5.77067
20
-4.55553
11
5.77067
21
-4.27559
0
LINE
8
BLACK
6
CONTINUOUS
10
5.77067
20
-4.27559
11
5.77079
21
-4.27472
0
LINE
8
BLACK
6
CONTINUOUS
10
5.77079
20
-4.27472
11
5.77078
21
-4.27454
0
LINE
8
BLACK
6
CONTINUOUS
10
5.77078
20
-4.27454
11
5.77083
21
-4.27445
0
LINE
8
BLACK
6
CONTINUOUS
10
5.77083
20
-4.27445
11
5.77087
21
-4.2742
0
LINE
8
BLACK
6
CONTINUOUS
10
5.77087
20
-4.2742
11
5.77153
21
-4.27318
0
LINE
8
BLACK
6
CONTINUOUS
10
5.77153
20
-4.27318
11
5.77211
21
-4.27211
0
LINE
8
BLACK
6
CONTINUOUS
10
5.77211
20
-4.27211
11
5.92736
21
-4.11686
0
LINE
8
BLACK
6
CONTINUOUS
10
5.92736
20
-4.11686
11
5.92736
21
-3.88544
0
LINE
8
BLACK
6
CONTINUOUS
10
5.92736
20
-3.88544
11
5.92727
21
-3.88544
0
LINE
8
BLACK
6
CONTINUOUS
10
5.92727
20
-3.88544
11
5.92727
21
-3.84763
0
LINE
8
BLACK
6
CONTINUOUS
10
5.92727
20
-3.84763
11
5.9373
21
-3.84763
0
LINE
8
BLACK
6
CONTINUOUS
10
5.9373
20
-3.84763
11
5.9373
21
-3.88544
0
LINE
8
BLACK
6
CONTINUOUS
10
5.95698
20
-3.88544
11
5.95689
21
-3.88544
0
LINE
8
BLACK
6
CONTINUOUS
10
5.95689
20
-3.88544
11
5.95689
21
-4.55127
0
LINE
8
BLACK
6
CONTINUOUS
10
5.95689
20
-4.55127
11
5.96045
21
-4.55185
0
LINE
8
BLACK
6
CONTINUOUS
10
5.96045
20
-4.55185
11
5.96717
21
-4.55453
0
LINE
8
BLACK
6
CONTINUOUS
10
5.96717
20
-4.55453
11
5.97316
21
-4.55859
0
LINE
8
BLACK
6
CONTINUOUS
10
5.97316
20
-4.55859
11
5.97814
21
-4.56384
0
LINE
8
BLACK
6
CONTINUOUS
10
5.97814
20
-4.56384
11
5.98187
21
-4.57004
0
LINE
8
BLACK
6
CONTINUOUS
10
5.98187
20
-4.57004
11
5.98418
21
-4.5769
0
LINE
8
BLACK
6
CONTINUOUS
10
5.98418
20
-4.5769
11
5.98496
21
-4.58409
0
LINE
8
BLACK
6
CONTINUOUS
10
5.98496
20
-4.58409
11
5.98496
21
-4.59591
0
LINE
8
BLACK
6
CONTINUOUS
10
5.98496
20
-4.59591
11
5.98476
21
-4.59952
0
LINE
8
BLACK
6
CONTINUOUS
10
5.98476
20
-4.59952
11
5.98321
21
-4.60659
0
LINE
8
BLACK
6
CONTINUOUS
10
5.98321
20
-4.60659
11
5.98017
21
-4.61316
0
LINE
8
BLACK
6
CONTINUOUS
10
5.98017
20
-4.61316
11
5.97579
21
-4.61892
0
LINE
8
BLACK
6
CONTINUOUS
10
5.97579
20
-4.61892
11
5.97028
21
-4.6236
0
LINE
8
BLACK
6
CONTINUOUS
10
5.97028
20
-4.6236
11
5.96388
21
-4.62699
0
LINE
8
BLACK
6
CONTINUOUS
10
5.96388
20
-4.62699
11
5.95691
21
-4.62893
0
LINE
8
BLACK
6
CONTINUOUS
10
5.95691
20
-4.62893
11
5.94968
21
-4.62932
0
LINE
8
BLACK
6
CONTINUOUS
10
5.94968
20
-4.62932
11
5.94254
21
-4.62815
0
LINE
8
BLACK
6
CONTINUOUS
10
5.94254
20
-4.62815
11
5.93582
21
-4.62547
0
LINE
8
BLACK
6
CONTINUOUS
10
5.93582
20
-4.62547
11
5.92983
21
-4.62141
0
LINE
8
BLACK
6
CONTINUOUS
10
5.92983
20
-4.62141
11
5.92486
21
-4.61616
0
LINE
8
BLACK
6
CONTINUOUS
10
5.92486
20
-4.61616
11
5.92112
21
-4.60996
0
LINE
8
BLACK
6
CONTINUOUS
10
5.92112
20
-4.60996
11
5.91881
21
-4.6031
0
LINE
8
BLACK
6
CONTINUOUS
10
5.91881
20
-4.6031
11
5.91803
21
-4.59591
0
LINE
8
BLACK
6
CONTINUOUS
10
5.91803
20
-4.59591
11
5.91803
21
-4.58409
0
LINE
8
BLACK
6
CONTINUOUS
10
5.91803
20
-4.58409
11
5.91823
21
-4.58048
0
LINE
8
BLACK
6
CONTINUOUS
10
5.91823
20
-4.58048
11
5.91978
21
-4.57341
0
LINE
8
BLACK
6
CONTINUOUS
10
5.91978
20
-4.57341
11
5.92282
21
-4.56684
0
LINE
8
BLACK
6
CONTINUOUS
10
5.92282
20
-4.56684
11
5.9272
21
-4.56108
0
LINE
8
BLACK
6
CONTINUOUS
10
5.9272
20
-4.56108
11
5.93272
21
-4.5564
0
LINE
8
BLACK
6
CONTINUOUS
10
5.93272
20
-4.5564
11
5.93911
21
-4.55301
0
LINE
8
BLACK
6
CONTINUOUS
10
5.93911
20
-4.55301
11
5.94608
21
-4.55107
0
LINE
8
BLACK
6
CONTINUOUS
10
5.94608
20
-4.55107
11
5.94705
21
-4.55102
0
LINE
8
BLACK
6
CONTINUOUS
10
5.94705
20
-4.55102
11
5.94705
21
-3.88544
0
LINE
8
BLACK
6
CONTINUOUS
10
5.94705
20
-3.88544
11
5.94695
21
-3.88544
0
LINE
8
BLACK
6
CONTINUOUS
10
5.94695
20
-3.88544
11
5.94695
21
-3.84763
0
LINE
8
BLACK
6
CONTINUOUS
10
5.94695
20
-3.84763
11
5.95698
21
-3.84763
0
LINE
8
BLACK
6
CONTINUOUS
10
5.95698
20
-3.84763
11
5.95698
21
-3.88544
0
LINE
8
BLACK
6
CONTINUOUS
10
5.97667
20
-3.88544
11
5.97657
21
-3.88544
0
LINE
8
BLACK
6
CONTINUOUS
10
5.97657
20
-3.88544
11
5.97657
21
-4.11725
0
LINE
8
BLACK
6
CONTINUOUS
10
5.97657
20
-4.11725
11
6.13498
21
-4.27565
0
LINE
8
BLACK
6
CONTINUOUS
10
6.13498
20
-4.27565
11
6.1355
21
-4.27636
0
LINE
8
BLACK
6
CONTINUOUS
10
6.1355
20
-4.27636
11
6.13564
21
-4.27647
0
LINE
8
BLACK
6
CONTINUOUS
10
6.13564
20
-4.27647
11
6.13567
21
-4.27658
0
LINE
8
BLACK
6
CONTINUOUS
10
6.13567
20
-4.27658
11
6.13582
21
-4.27678
0
LINE
8
BLACK
6
CONTINUOUS
10
6.13582
20
-4.27678
11
6.13607
21
-4.27797
0
LINE
8
BLACK
6
CONTINUOUS
10
6.13607
20
-4.27797
11
6.13642
21
-4.27913
0
LINE
8
BLACK
6
CONTINUOUS
10
6.13642
20
-4.27913
11
6.13642
21
-4.55119
0
LINE
8
BLACK
6
CONTINUOUS
10
6.13642
20
-4.55119
11
6.14045
21
-4.55185
0
LINE
8
BLACK
6
CONTINUOUS
10
6.14045
20
-4.55185
11
6.14717
21
-4.55453
0
LINE
8
BLACK
6
CONTINUOUS
10
6.14717
20
-4.55453
11
6.15316
21
-4.55859
0
LINE
8
BLACK
6
CONTINUOUS
10
6.15316
20
-4.55859
11
6.15814
21
-4.56384
0
LINE
8
BLACK
6
CONTINUOUS
10
6.15814
20
-4.56384
11
6.16187
21
-4.57004
0
LINE
8
BLACK
6
CONTINUOUS
10
6.16187
20
-4.57004
11
6.16418
21
-4.5769
0
LINE
8
BLACK
6
CONTINUOUS
10
6.16418
20
-4.5769
11
6.16496
21
-4.58409
0
LINE
8
BLACK
6
CONTINUOUS
10
6.16496
20
-4.58409
11
6.16496
21
-4.59591
0
LINE
8
BLACK
6
CONTINUOUS
10
6.16496
20
-4.59591
11
6.16476
21
-4.59952
0
LINE
8
BLACK
6
CONTINUOUS
10
6.16476
20
-4.59952
11
6.16321
21
-4.60659
0
LINE
8
BLACK
6
CONTINUOUS
10
6.16321
20
-4.60659
11
6.16017
21
-4.61316
0
LINE
8
BLACK
6
CONTINUOUS
10
6.16017
20
-4.61316
11
6.15579
21
-4.61892
0
LINE
8
BLACK
6
CONTINUOUS
10
6.15579
20
-4.61892
11
6.15028
21
-4.6236
0
LINE
8
BLACK
6
CONTINUOUS
10
6.15028
20
-4.6236
11
6.14388
21
-4.62699
0
LINE
8
BLACK
6
CONTINUOUS
10
6.14388
20
-4.62699
11
6.13691
21
-4.62893
0
LINE
8
BLACK
6
CONTINUOUS
10
6.13691
20
-4.62893
11
6.12968
21
-4.62932
0
LINE
8
BLACK
6
CONTINUOUS
10
6.12968
20
-4.62932
11
6.12254
21
-4.62815
0
LINE
8
BLACK
6
CONTINUOUS
10
6.12254
20
-4.62815
11
6.11582
21
-4.62547
0
LINE
8
BLACK
6
CONTINUOUS
10
6.11582
20
-4.62547
11
6.10983
21
-4.62141
0
LINE
8
BLACK
6
CONTINUOUS
10
6.10983
20
-4.62141
11
6.10486
21
-4.61616
0
LINE
8
BLACK
6
CONTINUOUS
10
6.10486
20
-4.61616
11
6.10112
21
-4.60996
0
LINE
8
BLACK
6
CONTINUOUS
10
6.10112
20
-4.60996
11
6.09881
21
-4.6031
0
LINE
8
BLACK
6
CONTINUOUS
10
6.09881
20
-4.6031
11
6.09803
21
-4.59591
0
LINE
8
BLACK
6
CONTINUOUS
10
6.09803
20
-4.59591
11
6.09803
21
-4.58409
0
LINE
8
BLACK
6
CONTINUOUS
10
6.09803
20
-4.58409
11
6.09823
21
-4.58048
0
LINE
8
BLACK
6
CONTINUOUS
10
6.09823
20
-4.58048
11
6.09978
21
-4.57341
0
LINE
8
BLACK
6
CONTINUOUS
10
6.09978
20
-4.57341
11
6.10282
21
-4.56684
0
LINE
8
BLACK
6
CONTINUOUS
10
6.10282
20
-4.56684
11
6.1072
21
-4.56108
0
LINE
8
BLACK
6
CONTINUOUS
10
6.1072
20
-4.56108
11
6.11272
21
-4.5564
0
LINE
8
BLACK
6
CONTINUOUS
10
6.11272
20
-4.5564
11
6.11911
21
-4.55301
0
LINE
8
BLACK
6
CONTINUOUS
10
6.11911
20
-4.55301
11
6.12608
21
-4.55107
0
LINE
8
BLACK
6
CONTINUOUS
10
6.12608
20
-4.55107
11
6.12657
21
-4.55104
0
LINE
8
BLACK
6
CONTINUOUS
10
6.12657
20
-4.55104
11
6.12657
21
-4.28117
0
LINE
8
BLACK
6
CONTINUOUS
10
6.12657
20
-4.28117
11
5.96817
21
-4.12277
0
LINE
8
BLACK
6
CONTINUOUS
10
5.96817
20
-4.12277
11
5.96765
21
-4.12207
0
LINE
8
BLACK
6
CONTINUOUS
10
5.96765
20
-4.12207
11
5.96751
21
-4.12195
0
LINE
8
BLACK
6
CONTINUOUS
10
5.96751
20
-4.12195
11
5.96748
21
-4.12185
0
LINE
8
BLACK
6
CONTINUOUS
10
5.96748
20
-4.12185
11
5.96733
21
-4.12165
0
LINE
8
BLACK
6
CONTINUOUS
10
5.96733
20
-4.12165
11
5.96708
21
-4.12046
0
LINE
8
BLACK
6
CONTINUOUS
10
5.96708
20
-4.12046
11
5.96673
21
-4.11929
0
LINE
8
BLACK
6
CONTINUOUS
10
5.96673
20
-4.11929
11
5.96673
21
-3.88544
0
LINE
8
BLACK
6
CONTINUOUS
10
5.96673
20
-3.88544
11
5.96664
21
-3.88544
0
LINE
8
BLACK
6
CONTINUOUS
10
5.96664
20
-3.88544
11
5.96664
21
-3.84763
0
LINE
8
BLACK
6
CONTINUOUS
10
5.96664
20
-3.84763
11
5.97667
21
-3.84763
0
LINE
8
BLACK
6
CONTINUOUS
10
5.97667
20
-3.84763
11
5.97667
21
-3.88544
0
LINE
8
BLACK
6
CONTINUOUS
10
5.99635
20
-3.88544
11
5.99626
21
-3.88544
0
LINE
8
BLACK
6
CONTINUOUS
10
5.99626
20
-3.88544
11
5.99626
21
-4.07395
0
LINE
8
BLACK
6
CONTINUOUS
10
5.99626
20
-4.07395
11
6.31498
21
-4.39266
0
LINE
8
BLACK
6
CONTINUOUS
10
6.31498
20
-4.39266
11
6.3155
21
-4.39337
0
LINE
8
BLACK
6
CONTINUOUS
10
6.3155
20
-4.39337
11
6.31564
21
-4.39348
0
LINE
8
BLACK
6
CONTINUOUS
10
6.31564
20
-4.39348
11
6.31567
21
-4.39358
0
LINE
8
BLACK
6
CONTINUOUS
10
6.31567
20
-4.39358
11
6.31582
21
-4.39378
0
LINE
8
BLACK
6
CONTINUOUS
10
6.31582
20
-4.39378
11
6.31607
21
-4.39497
0
LINE
8
BLACK
6
CONTINUOUS
10
6.31607
20
-4.39497
11
6.31642
21
-4.39614
0
LINE
8
BLACK
6
CONTINUOUS
10
6.31642
20
-4.39614
11
6.31642
21
-4.55119
0
LINE
8
BLACK
6
CONTINUOUS
10
6.31642
20
-4.55119
11
6.32045
21
-4.55185
0
LINE
8
BLACK
6
CONTINUOUS
10
6.32045
20
-4.55185
11
6.32717
21
-4.55453
0
LINE
8
BLACK
6
CONTINUOUS
10
6.32717
20
-4.55453
11
6.33316
21
-4.55859
0
LINE
8
BLACK
6
CONTINUOUS
10
6.33316
20
-4.55859
11
6.33814
21
-4.56384
0
LINE
8
BLACK
6
CONTINUOUS
10
6.33814
20
-4.56384
11
6.34187
21
-4.57004
0
LINE
8
BLACK
6
CONTINUOUS
10
6.34187
20
-4.57004
11
6.34418
21
-4.5769
0
LINE
8
BLACK
6
CONTINUOUS
10
6.34418
20
-4.5769
11
6.34496
21
-4.58409
0
LINE
8
BLACK
6
CONTINUOUS
10
6.34496
20
-4.58409
11
6.34496
21
-4.59591
0
LINE
8
BLACK
6
CONTINUOUS
10
6.34496
20
-4.59591
11
6.34476
21
-4.59952
0
LINE
8
BLACK
6
CONTINUOUS
10
6.34476
20
-4.59952
11
6.34321
21
-4.60659
0
LINE
8
BLACK
6
CONTINUOUS
10
6.34321
20
-4.60659
11
6.34017
21
-4.61316
0
LINE
8
BLACK
6
CONTINUOUS
10
6.34017
20
-4.61316
11
6.33579
21
-4.61892
0
LINE
8
BLACK
6
CONTINUOUS
10
6.33579
20
-4.61892
11
6.33028
21
-4.6236
0
LINE
8
BLACK
6
CONTINUOUS
10
6.33028
20
-4.6236
11
6.32388
21
-4.62699
0
LINE
8
BLACK
6
CONTINUOUS
10
6.32388
20
-4.62699
11
6.31691
21
-4.62893
0
LINE
8
BLACK
6
CONTINUOUS
10
6.31691
20
-4.62893
11
6.30968
21
-4.62932
0
LINE
8
BLACK
6
CONTINUOUS
10
6.30968
20
-4.62932
11
6.30254
21
-4.62815
0
LINE
8
BLACK
6
CONTINUOUS
10
6.30254
20
-4.62815
11
6.29582
21
-4.62547
0
LINE
8
BLACK
6
CONTINUOUS
10
6.29582
20
-4.62547
11
6.28983
21
-4.62141
0
LINE
8
BLACK
6
CONTINUOUS
10
6.28983
20
-4.62141
11
6.28486
21
-4.61616
0
LINE
8
BLACK
6
CONTINUOUS
10
6.28486
20
-4.61616
11
6.28112
21
-4.60996
0
LINE
8
BLACK
6
CONTINUOUS
10
6.28112
20
-4.60996
11
6.27881
21
-4.6031
0
LINE
8
BLACK
6
CONTINUOUS
10
6.27881
20
-4.6031
11
6.27803
21
-4.59591
0
LINE
8
BLACK
6
CONTINUOUS
10
6.27803
20
-4.59591
11
6.27803
21
-4.58409
0
LINE
8
BLACK
6
CONTINUOUS
10
6.27803
20
-4.58409
11
6.27823
21
-4.58048
0
LINE
8
BLACK
6
CONTINUOUS
10
6.27823
20
-4.58048
11
6.27978
21
-4.57341
0
LINE
8
BLACK
6
CONTINUOUS
10
6.27978
20
-4.57341
11
6.28282
21
-4.56684
0
LINE
8
BLACK
6
CONTINUOUS
10
6.28282
20
-4.56684
11
6.2872
21
-4.56108
0
LINE
8
BLACK
6
CONTINUOUS
10
6.2872
20
-4.56108
11
6.29272
21
-4.5564
0
LINE
8
BLACK
6
CONTINUOUS
10
6.29272
20
-4.5564
11
6.29911
21
-4.55301
0
LINE
8
BLACK
6
CONTINUOUS
10
6.29911
20
-4.55301
11
6.30608
21
-4.55107
0
LINE
8
BLACK
6
CONTINUOUS
10
6.30608
20
-4.55107
11
6.30657
21
-4.55104
0
LINE
8
BLACK
6
CONTINUOUS
10
6.30657
20
-4.55104
11
6.30657
21
-4.39818
0
LINE
8
BLACK
6
CONTINUOUS
10
6.30657
20
-4.39818
11
5.98786
21
-4.07946
0
LINE
8
BLACK
6
CONTINUOUS
10
5.98786
20
-4.07946
11
5.98733
21
-4.07876
0
LINE
8
BLACK
6
CONTINUOUS
10
5.98733
20
-4.07876
11
5.9872
21
-4.07864
0
LINE
8
BLACK
6
CONTINUOUS
10
5.9872
20
-4.07864
11
5.98717
21
-4.07854
0
LINE
8
BLACK
6
CONTINUOUS
10
5.98717
20
-4.07854
11
5.98702
21
-4.07834
0
LINE
8
BLACK
6
CONTINUOUS
10
5.98702
20
-4.07834
11
5.98676
21
-4.07715
0
LINE
8
BLACK
6
CONTINUOUS
10
5.98676
20
-4.07715
11
5.98642
21
-4.07598
0
LINE
8
BLACK
6
CONTINUOUS
10
5.98642
20
-4.07598
11
5.98642
21
-3.88544
0
LINE
8
BLACK
6
CONTINUOUS
10
5.98642
20
-3.88544
11
5.98632
21
-3.88544
0
LINE
8
BLACK
6
CONTINUOUS
10
5.98632
20
-3.88544
11
5.98632
21
-3.84763
0
LINE
8
BLACK
6
CONTINUOUS
10
5.98632
20
-3.84763
11
5.99635
21
-3.84763
0
LINE
8
BLACK
6
CONTINUOUS
10
5.99635
20
-3.84763
11
5.99635
21
-3.88544
0
LINE
8
BLACK
6
CONTINUOUS
10
6.01604
20
-3.88544
11
6.01594
21
-3.88544
0
LINE
8
BLACK
6
CONTINUOUS
10
6.01594
20
-3.88544
11
6.01594
21
-4.04836
0
LINE
8
BLACK
6
CONTINUOUS
10
6.01594
20
-4.04836
11
6.1084
21
-4.14081
0
LINE
8
BLACK
6
CONTINUOUS
10
6.1084
20
-4.14081
11
6.10884
21
-4.14087
0
LINE
8
BLACK
6
CONTINUOUS
10
6.10884
20
-4.14087
11
6.10902
21
-4.14086
0
LINE
8
BLACK
6
CONTINUOUS
10
6.10902
20
-4.14086
11
6.10911
21
-4.14091
0
LINE
8
BLACK
6
CONTINUOUS
10
6.10911
20
-4.14091
11
6.10936
21
-4.14095
0
LINE
8
BLACK
6
CONTINUOUS
10
6.10936
20
-4.14095
11
6.11038
21
-4.14161
0
LINE
8
BLACK
6
CONTINUOUS
10
6.11038
20
-4.14161
11
6.11145
21
-4.14219
0
LINE
8
BLACK
6
CONTINUOUS
10
6.11145
20
-4.14219
11
6.44167
21
-4.4724
0
LINE
8
BLACK
6
CONTINUOUS
10
6.44167
20
-4.4724
11
6.44382
21
-4.4711
0
LINE
8
BLACK
6
CONTINUOUS
10
6.44382
20
-4.4711
11
6.45068
21
-4.46879
0
LINE
8
BLACK
6
CONTINUOUS
10
6.45068
20
-4.46879
11
6.45787
21
-4.46801
0
LINE
8
BLACK
6
CONTINUOUS
10
6.45787
20
-4.46801
11
6.46969
21
-4.46801
0
LINE
8
BLACK
6
CONTINUOUS
10
6.46969
20
-4.46801
11
6.4733
21
-4.46821
0
LINE
8
BLACK
6
CONTINUOUS
10
6.4733
20
-4.46821
11
6.48037
21
-4.46976
0
LINE
8
BLACK
6
CONTINUOUS
10
6.48037
20
-4.46976
11
6.48694
21
-4.4728
0
LINE
8
BLACK
6
CONTINUOUS
10
6.48694
20
-4.4728
11
6.4927
21
-4.47718
0
LINE
8
BLACK
6
CONTINUOUS
10
6.4927
20
-4.47718
11
6.49738
21
-4.4827
0
LINE
8
BLACK
6
CONTINUOUS
10
6.49738
20
-4.4827
11
6.50077
21
-4.48909
0
LINE
8
BLACK
6
CONTINUOUS
10
6.50077
20
-4.48909
11
6.50271
21
-4.49606
0
LINE
8
BLACK
6
CONTINUOUS
10
6.50271
20
-4.49606
11
6.5031
21
-4.50329
0
LINE
8
BLACK
6
CONTINUOUS
10
6.5031
20
-4.50329
11
6.50193
21
-4.51043
0
LINE
8
BLACK
6
CONTINUOUS
10
6.50193
20
-4.51043
11
6.49925
21
-4.51715
0
LINE
8
BLACK
6
CONTINUOUS
10
6.49925
20
-4.51715
11
6.49519
21
-4.52314
0
LINE
8
BLACK
6
CONTINUOUS
10
6.49519
20
-4.52314
11
6.48994
21
-4.52812
0
LINE
8
BLACK
6
CONTINUOUS
10
6.48994
20
-4.52812
11
6.48374
21
-4.53185
0
LINE
8
BLACK
6
CONTINUOUS
10
6.48374
20
-4.53185
11
6.47688
21
-4.53416
0
LINE
8
BLACK
6
CONTINUOUS
10
6.47688
20
-4.53416
11
6.46969
21
-4.53494
0
LINE
8
BLACK
6
CONTINUOUS
10
6.46969
20
-4.53494
11
6.45787
21
-4.53494
0
LINE
8
BLACK
6
CONTINUOUS
10
6.45787
20
-4.53494
11
6.45426
21
-4.53474
0
LINE
8
BLACK
6
CONTINUOUS
10
6.45426
20
-4.53474
11
6.44719
21
-4.53319
0
LINE
8
BLACK
6
CONTINUOUS
10
6.44719
20
-4.53319
11
6.44062
21
-4.53015
0
LINE
8
BLACK
6
CONTINUOUS
10
6.44062
20
-4.53015
11
6.43486
21
-4.52577
0
LINE
8
BLACK
6
CONTINUOUS
10
6.43486
20
-4.52577
11
6.43018
21
-4.52026
0
LINE
8
BLACK
6
CONTINUOUS
10
6.43018
20
-4.52026
11
6.42679
21
-4.51386
0
LINE
8
BLACK
6
CONTINUOUS
10
6.42679
20
-4.51386
11
6.42485
21
-4.50689
0
LINE
8
BLACK
6
CONTINUOUS
10
6.42485
20
-4.50689
11
6.42446
21
-4.49966
0
LINE
8
BLACK
6
CONTINUOUS
10
6.42446
20
-4.49966
11
6.42563
21
-4.49252
0
LINE
8
BLACK
6
CONTINUOUS
10
6.42563
20
-4.49252
11
6.42831
21
-4.4858
0
LINE
8
BLACK
6
CONTINUOUS
10
6.42831
20
-4.4858
11
6.43237
21
-4.47981
0
LINE
8
BLACK
6
CONTINUOUS
10
6.43237
20
-4.47981
11
6.4338
21
-4.47846
0
LINE
8
BLACK
6
CONTINUOUS
10
6.4338
20
-4.47846
11
6.10587
21
-4.15053
0
LINE
8
BLACK
6
CONTINUOUS
10
6.10587
20
-4.15053
11
6.10543
21
-4.15047
0
LINE
8
BLACK
6
CONTINUOUS
10
6.10543
20
-4.15047
11
6.10525
21
-4.15048
0
LINE
8
BLACK
6
CONTINUOUS
10
6.10525
20
-4.15048
11
6.10516
21
-4.15043
0
LINE
8
BLACK
6
CONTINUOUS
10
6.10516
20
-4.15043
11
6.10491
21
-4.15039
0
LINE
8
BLACK
6
CONTINUOUS
10
6.10491
20
-4.15039
11
6.10389
21
-4.14973
0
LINE
8
BLACK
6
CONTINUOUS
10
6.10389
20
-4.14973
11
6.10282
21
-4.14915
0
LINE
8
BLACK
6
CONTINUOUS
10
6.10282
20
-4.14915
11
6.00754
21
-4.05387
0
LINE
8
BLACK
6
CONTINUOUS
10
6.00754
20
-4.05387
11
6.00702
21
-4.05317
0
LINE
8
BLACK
6
CONTINUOUS
10
6.00702
20
-4.05317
11
6.00688
21
-4.05305
0
LINE
8
BLACK
6
CONTINUOUS
10
6.00688
20
-4.05305
11
6.00685
21
-4.05295
0
LINE
8
BLACK
6
CONTINUOUS
10
6.00685
20
-4.05295
11
6.0067
21
-4.05275
0
LINE
8
BLACK
6
CONTINUOUS
10
6.0067
20
-4.05275
11
6.00645
21
-4.05156
0
LINE
8
BLACK
6
CONTINUOUS
10
6.00645
20
-4.05156
11
6.0061
21
-4.05039
0
LINE
8
BLACK
6
CONTINUOUS
10
6.0061
20
-4.05039
11
6.0061
21
-3.88544
0
LINE
8
BLACK
6
CONTINUOUS
10
6.0061
20
-3.88544
11
6.00601
21
-3.88544
0
LINE
8
BLACK
6
CONTINUOUS
10
6.00601
20
-3.88544
11
6.00601
21
-3.84763
0
LINE
8
BLACK
6
CONTINUOUS
10
6.00601
20
-3.84763
11
6.01604
21
-3.84763
0
LINE
8
BLACK
6
CONTINUOUS
10
6.01604
20
-3.84763
11
6.01604
21
-3.88544
0
LINE
8
BLACK
6
CONTINUOUS
10
5.45047
20
-3.28563
11
5.45754
21
-3.28718
0
LINE
8
BLACK
6
CONTINUOUS
10
5.45754
20
-3.28718
11
5.4641
21
-3.29022
0
LINE
8
BLACK
6
CONTINUOUS
10
5.4641
20
-3.29022
11
5.46986
21
-3.2946
0
LINE
8
BLACK
6
CONTINUOUS
10
5.46986
20
-3.2946
11
5.47455
21
-3.30012
0
LINE
8
BLACK
6
CONTINUOUS
10
5.47455
20
-3.30012
11
5.47794
21
-3.30651
0
LINE
8
BLACK
6
CONTINUOUS
10
5.47794
20
-3.30651
11
5.47987
21
-3.31348
0
LINE
8
BLACK
6
CONTINUOUS
10
5.47987
20
-3.31348
11
5.4799
21
-3.31398
0
LINE
8
BLACK
6
CONTINUOUS
10
5.4799
20
-3.31398
11
5.55118
21
-3.31398
0
LINE
8
BLACK
6
CONTINUOUS
10
5.55118
20
-3.31398
11
5.55205
21
-3.3141
0
LINE
8
BLACK
6
CONTINUOUS
10
5.55205
20
-3.3141
11
5.55223
21
-3.31409
0
LINE
8
BLACK
6
CONTINUOUS
10
5.55223
20
-3.31409
11
5.55232
21
-3.31414
0
LINE
8
BLACK
6
CONTINUOUS
10
5.55232
20
-3.31414
11
5.55257
21
-3.31418
0
LINE
8
BLACK
6
CONTINUOUS
10
5.55257
20
-3.31418
11
5.55359
21
-3.31483
0
LINE
8
BLACK
6
CONTINUOUS
10
5.55359
20
-3.31483
11
5.55466
21
-3.31542
0
LINE
8
BLACK
6
CONTINUOUS
10
5.55466
20
-3.31542
11
5.64521
21
-3.40597
0
LINE
8
BLACK
6
CONTINUOUS
10
5.64521
20
-3.40597
11
5.64574
21
-3.40667
0
LINE
8
BLACK
6
CONTINUOUS
10
5.64574
20
-3.40667
11
5.64587
21
-3.40679
0
LINE
8
BLACK
6
CONTINUOUS
10
5.64587
20
-3.40679
11
5.6459
21
-3.40689
0
LINE
8
BLACK
6
CONTINUOUS
10
5.6459
20
-3.40689
11
5.64605
21
-3.40709
0
LINE
8
BLACK
6
CONTINUOUS
10
5.64605
20
-3.40709
11
5.64631
21
-3.40828
0
LINE
8
BLACK
6
CONTINUOUS
10
5.64631
20
-3.40828
11
5.64665
21
-3.40945
0
LINE
8
BLACK
6
CONTINUOUS
10
5.64665
20
-3.40945
11
5.64665
21
-3.56095
0
LINE
8
BLACK
6
CONTINUOUS
10
5.64665
20
-3.56095
11
5.79485
21
-3.70915
0
LINE
8
BLACK
6
CONTINUOUS
10
5.79485
20
-3.70915
11
5.83966
21
-3.70915
0
LINE
8
BLACK
6
CONTINUOUS
10
5.83966
20
-3.70915
11
5.83966
21
-3.70906
0
LINE
8
BLACK
6
CONTINUOUS
10
5.83966
20
-3.70906
11
5.87747
21
-3.70906
0
LINE
8
BLACK
6
CONTINUOUS
10
5.87747
20
-3.70906
11
5.87747
21
-3.71909
0
LINE
8
BLACK
6
CONTINUOUS
10
5.87747
20
-3.71909
11
5.83966
21
-3.71909
0
LINE
8
BLACK
6
CONTINUOUS
10
5.83966
20
-3.71909
11
5.83966
21
-3.719
0
LINE
8
BLACK
6
CONTINUOUS
10
5.83966
20
-3.719
11
5.79281
21
-3.719
0
LINE
8
BLACK
6
CONTINUOUS
10
5.79281
20
-3.719
11
5.79195
21
-3.71887
0
LINE
8
BLACK
6
CONTINUOUS
10
5.79195
20
-3.71887
11
5.79177
21
-3.71888
0
LINE
8
BLACK
6
CONTINUOUS
10
5.79177
20
-3.71888
11
5.79167
21
-3.71883
0
LINE
8
BLACK
6
CONTINUOUS
10
5.79167
20
-3.71883
11
5.79143
21
-3.7188
0
LINE
8
BLACK
6
CONTINUOUS
10
5.79143
20
-3.7188
11
5.7904
21
-3.71814
0
LINE
8
BLACK
6
CONTINUOUS
10
5.7904
20
-3.71814
11
5.78934
21
-3.71755
0
LINE
8
BLACK
6
CONTINUOUS
10
5.78934
20
-3.71755
11
5.63825
21
-3.56647
0
LINE
8
BLACK
6
CONTINUOUS
10
5.63825
20
-3.56647
11
5.63773
21
-3.56577
0
LINE
8
BLACK
6
CONTINUOUS
10
5.63773
20
-3.56577
11
5.63759
21
-3.56565
0
LINE
8
BLACK
6
CONTINUOUS
10
5.63759
20
-3.56565
11
5.63756
21
-3.56555
0
LINE
8
BLACK
6
CONTINUOUS
10
5.63756
20
-3.56555
11
5.63741
21
-3.56535
0
LINE
8
BLACK
6
CONTINUOUS
10
5.63741
20
-3.56535
11
5.63715
21
-3.56416
0
LINE
8
BLACK
6
CONTINUOUS
10
5.63715
20
-3.56416
11
5.63681
21
-3.56299
0
LINE
8
BLACK
6
CONTINUOUS
10
5.63681
20
-3.56299
11
5.63681
21
-3.41149
0
LINE
8
BLACK
6
CONTINUOUS
10
5.63681
20
-3.41149
11
5.54914
21
-3.32382
0
LINE
8
BLACK
6
CONTINUOUS
10
5.54914
20
-3.32382
11
5.47976
21
-3.32382
0
LINE
8
BLACK
6
CONTINUOUS
10
5.47976
20
-3.32382
11
5.4791
21
-3.32785
0
LINE
8
BLACK
6
CONTINUOUS
10
5.4791
20
-3.32785
11
5.47642
21
-3.33457
0
LINE
8
BLACK
6
CONTINUOUS
10
5.47642
20
-3.33457
11
5.47236
21
-3.34056
0
LINE
8
BLACK
6
CONTINUOUS
10
5.47236
20
-3.34056
11
5.4671
21
-3.34554
0
LINE
8
BLACK
6
CONTINUOUS
10
5.4671
20
-3.34554
11
5.4609
21
-3.34927
0
LINE
8
BLACK
6
CONTINUOUS
10
5.4609
20
-3.34927
11
5.45404
21
-3.35158
0
LINE
8
BLACK
6
CONTINUOUS
10
5.45404
20
-3.35158
11
5.44685
21
-3.35236
0
LINE
8
BLACK
6
CONTINUOUS
10
5.44685
20
-3.35236
11
5.43504
21
-3.35236
0
LINE
8
BLACK
6
CONTINUOUS
10
5.43504
20
-3.35236
11
5.43142
21
-3.35217
0
LINE
8
BLACK
6
CONTINUOUS
10
5.43142
20
-3.35217
11
5.42435
21
-3.35061
0
LINE
8
BLACK
6
CONTINUOUS
10
5.42435
20
-3.35061
11
5.41779
21
-3.34757
0
LINE
8
BLACK
6
CONTINUOUS
10
5.41779
20
-3.34757
11
5.41203
21
-3.34319
0
LINE
8
BLACK
6
CONTINUOUS
10
5.41203
20
-3.34319
11
5.40734
21
-3.33768
0
LINE
8
BLACK
6
CONTINUOUS
10
5.40734
20
-3.33768
11
5.40395
21
-3.33128
0
LINE
8
BLACK
6
CONTINUOUS
10
5.40395
20
-3.33128
11
5.40202
21
-3.32431
0
LINE
8
BLACK
6
CONTINUOUS
10
5.40202
20
-3.32431
11
5.40162
21
-3.31709
0
LINE
8
BLACK
6
CONTINUOUS
10
5.40162
20
-3.31709
11
5.40279
21
-3.30994
0
LINE
8
BLACK
6
CONTINUOUS
10
5.40279
20
-3.30994
11
5.40547
21
-3.30322
0
LINE
8
BLACK
6
CONTINUOUS
10
5.40547
20
-3.30322
11
5.40953
21
-3.29723
0
LINE
8
BLACK
6
CONTINUOUS
10
5.40953
20
-3.29723
11
5.41479
21
-3.29226
0
LINE
8
BLACK
6
CONTINUOUS
10
5.41479
20
-3.29226
11
5.42099
21
-3.28853
0
LINE
8
BLACK
6
CONTINUOUS
10
5.42099
20
-3.28853
11
5.42785
21
-3.28622
0
LINE
8
BLACK
6
CONTINUOUS
10
5.42785
20
-3.28622
11
5.43504
21
-3.28543
0
LINE
8
BLACK
6
CONTINUOUS
10
5.43504
20
-3.28543
11
5.44685
21
-3.28543
0
LINE
8
BLACK
6
CONTINUOUS
10
5.44685
20
-3.28543
11
5.45047
21
-3.28563
0
LINE
8
BLACK
6
CONTINUOUS
10
6.01797
20
-3.83913
11
5.88597
21
-3.83913
0
LINE
8
BLACK
6
CONTINUOUS
10
5.88597
20
-3.83913
11
5.88597
21
-3.70713
0
LINE
8
BLACK
6
CONTINUOUS
10
5.88597
20
-3.70713
11
6.01797
21
-3.70713
0
LINE
8
BLACK
6
CONTINUOUS
10
6.01797
20
-3.70713
11
6.01797
21
-3.83913
0
LINE
8
BLACK
6
CONTINUOUS
10
6.06428
20
-3.82726
11
6.07825
21
-3.82726
0
LINE
8
BLACK
6
CONTINUOUS
10
6.07825
20
-3.82726
11
6.07912
21
-3.82739
0
LINE
8
BLACK
6
CONTINUOUS
10
6.07912
20
-3.82739
11
6.07929
21
-3.82738
0
LINE
8
BLACK
6
CONTINUOUS
10
6.07929
20
-3.82738
11
6.07939
21
-3.82743
0
LINE
8
BLACK
6
CONTINUOUS
10
6.07939
20
-3.82743
11
6.07963
21
-3.82746
0
LINE
8
BLACK
6
CONTINUOUS
10
6.07963
20
-3.82746
11
6.08066
21
-3.82812
0
LINE
8
BLACK
6
CONTINUOUS
10
6.08066
20
-3.82812
11
6.08173
21
-3.82871
0
LINE
8
BLACK
6
CONTINUOUS
10
6.08173
20
-3.82871
11
6.2771
21
-4.02408
0
LINE
8
BLACK
6
CONTINUOUS
10
6.2771
20
-4.02408
11
6.27763
21
-4.02478
0
LINE
8
BLACK
6
CONTINUOUS
10
6.27763
20
-4.02478
11
6.27776
21
-4.0249
0
LINE
8
BLACK
6
CONTINUOUS
10
6.27776
20
-4.0249
11
6.27779
21
-4.025
0
LINE
8
BLACK
6
CONTINUOUS
10
6.27779
20
-4.025
11
6.27794
21
-4.0252
0
LINE
8
BLACK
6
CONTINUOUS
10
6.27794
20
-4.0252
11
6.2782
21
-4.02639
0
LINE
8
BLACK
6
CONTINUOUS
10
6.2782
20
-4.02639
11
6.27854
21
-4.02756
0
LINE
8
BLACK
6
CONTINUOUS
10
6.27854
20
-4.02756
11
6.27854
21
-4.20465
0
LINE
8
BLACK
6
CONTINUOUS
10
6.27854
20
-4.20465
11
6.38747
21
-4.31358
0
LINE
8
BLACK
6
CONTINUOUS
10
6.38747
20
-4.31358
11
6.42733
21
-4.31358
0
LINE
8
BLACK
6
CONTINUOUS
10
6.42733
20
-4.31358
11
6.42799
21
-4.30955
0
LINE
8
BLACK
6
CONTINUOUS
10
6.42799
20
-4.30955
11
6.43067
21
-4.30283
0
LINE
8
BLACK
6
CONTINUOUS
10
6.43067
20
-4.30283
11
6.43473
21
-4.29684
0
LINE
8
BLACK
6
CONTINUOUS
10
6.43473
20
-4.29684
11
6.43998
21
-4.29186
0
LINE
8
BLACK
6
CONTINUOUS
10
6.43998
20
-4.29186
11
6.44618
21
-4.28813
0
LINE
8
BLACK
6
CONTINUOUS
10
6.44618
20
-4.28813
11
6.45304
21
-4.28582
0
LINE
8
BLACK
6
CONTINUOUS
10
6.45304
20
-4.28582
11
6.46024
21
-4.28504
0
LINE
8
BLACK
6
CONTINUOUS
10
6.46024
20
-4.28504
11
6.47205
21
-4.28504
0
LINE
8
BLACK
6
CONTINUOUS
10
6.47205
20
-4.28504
11
6.47567
21
-4.28524
0
LINE
8
BLACK
6
CONTINUOUS
10
6.47567
20
-4.28524
11
6.48273
21
-4.28679
0
LINE
8
BLACK
6
CONTINUOUS
10
6.48273
20
-4.28679
11
6.4893
21
-4.28983
0
LINE
8
BLACK
6
CONTINUOUS
10
6.4893
20
-4.28983
11
6.49506
21
-4.29421
0
LINE
8
BLACK
6
CONTINUOUS
10
6.49506
20
-4.29421
11
6.49975
21
-4.29972
0
LINE
8
BLACK
6
CONTINUOUS
10
6.49975
20
-4.29972
11
6.50314
21
-4.30612
0
LINE
8
BLACK
6
CONTINUOUS
10
6.50314
20
-4.30612
11
6.50507
21
-4.31309
0
LINE
8
BLACK
6
CONTINUOUS
10
6.50507
20
-4.31309
11
6.50546
21
-4.32032
0
LINE
8
BLACK
6
CONTINUOUS
10
6.50546
20
-4.32032
11
6.50429
21
-4.32746
0
LINE
8
BLACK
6
CONTINUOUS
10
6.50429
20
-4.32746
11
6.50161
21
-4.33418
0
LINE
8
BLACK
6
CONTINUOUS
10
6.50161
20
-4.33418
11
6.49755
21
-4.34017
0
LINE
8
BLACK
6
CONTINUOUS
10
6.49755
20
-4.34017
11
6.4923
21
-4.34514
0
LINE
8
BLACK
6
CONTINUOUS
10
6.4923
20
-4.34514
11
6.4861
21
-4.34888
0
LINE
8
BLACK
6
CONTINUOUS
10
6.4861
20
-4.34888
11
6.47924
21
-4.35119
0
LINE
8
BLACK
6
CONTINUOUS
10
6.47924
20
-4.35119
11
6.47205
21
-4.35197
0
LINE
8
BLACK
6
CONTINUOUS
10
6.47205
20
-4.35197
11
6.46024
21
-4.35197
0
LINE
8
BLACK
6
CONTINUOUS
10
6.46024
20
-4.35197
11
6.45662
21
-4.35177
0
LINE
8
BLACK
6
CONTINUOUS
10
6.45662
20
-4.35177
11
6.44955
21
-4.35022
0
LINE
8
BLACK
6
CONTINUOUS
10
6.44955
20
-4.35022
11
6.44298
21
-4.34718
0
LINE
8
BLACK
6
CONTINUOUS
10
6.44298
20
-4.34718
11
6.43722
21
-4.3428
0
LINE
8
BLACK
6
CONTINUOUS
10
6.43722
20
-4.3428
11
6.43254
21
-4.33728
0
LINE
8
BLACK
6
CONTINUOUS
10
6.43254
20
-4.33728
11
6.42915
21
-4.33089
0
LINE
8
BLACK
6
CONTINUOUS
10
6.42915
20
-4.33089
11
6.42721
21
-4.32392
0
LINE
8
BLACK
6
CONTINUOUS
10
6.42721
20
-4.32392
11
6.42719
21
-4.32343
0
LINE
8
BLACK
6
CONTINUOUS
10
6.42719
20
-4.32343
11
6.38543
21
-4.32343
0
LINE
8
BLACK
6
CONTINUOUS
10
6.38543
20
-4.32343
11
6.38456
21
-4.3233
0
LINE
8
BLACK
6
CONTINUOUS
10
6.38456
20
-4.3233
11
6.38439
21
-4.32331
0
LINE
8
BLACK
6
CONTINUOUS
10
6.38439
20
-4.32331
11
6.38429
21
-4.32326
0
LINE
8
BLACK
6
CONTINUOUS
10
6.38429
20
-4.32326
11
6.38405
21
-4.32323
0
LINE
8
BLACK
6
CONTINUOUS
10
6.38405
20
-4.32323
11
6.38302
21
-4.32257
0
LINE
8
BLACK
6
CONTINUOUS
10
6.38302
20
-4.32257
11
6.38195
21
-4.32198
0
LINE
8
BLACK
6
CONTINUOUS
10
6.38195
20
-4.32198
11
6.27014
21
-4.21017
0
LINE
8
BLACK
6
CONTINUOUS
10
6.27014
20
-4.21017
11
6.26962
21
-4.20947
0
LINE
8
BLACK
6
CONTINUOUS
10
6.26962
20
-4.20947
11
6.26948
21
-4.20935
0
LINE
8
BLACK
6
CONTINUOUS
10
6.26948
20
-4.20935
11
6.26945
21
-4.20925
0
LINE
8
BLACK
6
CONTINUOUS
10
6.26945
20
-4.20925
11
6.2693
21
-4.20905
0
LINE
8
BLACK
6
CONTINUOUS
10
6.2693
20
-4.20905
11
6.26904
21
-4.20786
0
LINE
8
BLACK
6
CONTINUOUS
10
6.26904
20
-4.20786
11
6.2687
21
-4.20669
0
LINE
8
BLACK
6
CONTINUOUS
10
6.2687
20
-4.20669
11
6.2687
21
-4.0296
0
LINE
8
BLACK
6
CONTINUOUS
10
6.2687
20
-4.0296
11
6.07621
21
-3.83711
0
LINE
8
BLACK
6
CONTINUOUS
10
6.07621
20
-3.83711
11
6.06428
21
-3.83711
0
LINE
8
BLACK
6
CONTINUOUS
10
6.06428
20
-3.83711
11
6.06428
21
-3.8372
0
LINE
8
BLACK
6
CONTINUOUS
10
6.06428
20
-3.8372
11
6.02647
21
-3.8372
0
LINE
8
BLACK
6
CONTINUOUS
10
6.02647
20
-3.8372
11
6.02647
21
-3.82717
0
LINE
8
BLACK
6
CONTINUOUS
10
6.02647
20
-3.82717
11
6.06428
21
-3.82717
0
LINE
8
BLACK
6
CONTINUOUS
10
6.06428
20
-3.82717
11
6.06428
21
-3.82726
0
LINE
8
BLACK
6
CONTINUOUS
10
6.06428
20
-3.80758
11
6.11565
21
-3.80758
0
LINE
8
BLACK
6
CONTINUOUS
10
6.11565
20
-3.80758
11
6.11652
21
-3.8077
0
LINE
8
BLACK
6
CONTINUOUS
10
6.11652
20
-3.8077
11
6.1167
21
-3.80769
0
LINE
8
BLACK
6
CONTINUOUS
10
6.1167
20
-3.80769
11
6.11679
21
-3.80774
0
LINE
8
BLACK
6
CONTINUOUS
10
6.11679
20
-3.80774
11
6.11704
21
-3.80778
0
LINE
8
BLACK
6
CONTINUOUS
10
6.11704
20
-3.80778
11
6.11806
21
-3.80844
0
LINE
8
BLACK
6
CONTINUOUS
10
6.11806
20
-3.80844
11
6.11913
21
-3.80902
0
LINE
8
BLACK
6
CONTINUOUS
10
6.11913
20
-3.80902
11
6.32238
21
-4.01227
0
LINE
8
BLACK
6
CONTINUOUS
10
6.32238
20
-4.01227
11
6.3229
21
-4.01297
0
LINE
8
BLACK
6
CONTINUOUS
10
6.3229
20
-4.01297
11
6.32304
21
-4.01309
0
LINE
8
BLACK
6
CONTINUOUS
10
6.32304
20
-4.01309
11
6.32307
21
-4.01319
0
LINE
8
BLACK
6
CONTINUOUS
10
6.32307
20
-4.01319
11
6.32322
21
-4.01339
0
LINE
8
BLACK
6
CONTINUOUS
10
6.32322
20
-4.01339
11
6.32348
21
-4.01458
0
LINE
8
BLACK
6
CONTINUOUS
10
6.32348
20
-4.01458
11
6.32382
21
-4.01575
0
LINE
8
BLACK
6
CONTINUOUS
10
6.32382
20
-4.01575
11
6.32382
21
-4.09048
0
LINE
8
BLACK
6
CONTINUOUS
10
6.32382
20
-4.09048
11
6.38117
21
-4.14783
0
LINE
8
BLACK
6
CONTINUOUS
10
6.38117
20
-4.14783
11
6.42654
21
-4.14783
0
LINE
8
BLACK
6
CONTINUOUS
10
6.42654
20
-4.14783
11
6.4272
21
-4.1438
0
LINE
8
BLACK
6
CONTINUOUS
10
6.4272
20
-4.1438
11
6.42988
21
-4.13708
0
LINE
8
BLACK
6
CONTINUOUS
10
6.42988
20
-4.13708
11
6.43394
21
-4.13109
0
LINE
8
BLACK
6
CONTINUOUS
10
6.43394
20
-4.13109
11
6.4392
21
-4.12611
0
LINE
8
BLACK
6
CONTINUOUS
10
6.4392
20
-4.12611
11
6.4454
21
-4.12238
0
LINE
8
BLACK
6
CONTINUOUS
10
6.4454
20
-4.12238
11
6.45225
21
-4.12007
0
LINE
8
BLACK
6
CONTINUOUS
10
6.45225
20
-4.12007
11
6.45945
21
-4.11929
0
LINE
8
BLACK
6
CONTINUOUS
10
6.45945
20
-4.11929
11
6.47126
21
-4.11929
0
LINE
8
BLACK
6
CONTINUOUS
10
6.47126
20
-4.11929
11
6.47488
21
-4.11949
0
LINE
8
BLACK
6
CONTINUOUS
10
6.47488
20
-4.11949
11
6.48195
21
-4.12104
0
LINE
8
BLACK
6
CONTINUOUS
10
6.48195
20
-4.12104
11
6.48851
21
-4.12408
0
LINE
8
BLACK
6
CONTINUOUS
10
6.48851
20
-4.12408
11
6.49427
21
-4.12846
0
LINE
8
BLACK
6
CONTINUOUS
10
6.49427
20
-4.12846
11
6.49896
21
-4.13398
0
LINE
8
BLACK
6
CONTINUOUS
10
6.49896
20
-4.13398
11
6.50235
21
-4.14037
0
LINE
8
BLACK
6
CONTINUOUS
10
6.50235
20
-4.14037
11
6.50428
21
-4.14734
0
LINE
8
BLACK
6
CONTINUOUS
10
6.50428
20
-4.14734
11
6.50468
21
-4.15457
0
LINE
8
BLACK
6
CONTINUOUS
10
6.50468
20
-4.15457
11
6.5035
21
-4.16171
0
LINE
8
BLACK
6
CONTINUOUS
10
6.5035
20
-4.16171
11
6.50083
21
-4.16843
0
LINE
8
BLACK
6
CONTINUOUS
10
6.50083
20
-4.16843
11
6.49677
21
-4.17442
0
LINE
8
BLACK
6
CONTINUOUS
10
6.49677
20
-4.17442
11
6.49151
21
-4.1794
0
LINE
8
BLACK
6
CONTINUOUS
10
6.49151
20
-4.1794
11
6.48531
21
-4.18313
0
LINE
8
BLACK
6
CONTINUOUS
10
6.48531
20
-4.18313
11
6.47845
21
-4.18544
0
LINE
8
BLACK
6
CONTINUOUS
10
6.47845
20
-4.18544
11
6.47126
21
-4.18622
0
LINE
8
BLACK
6
CONTINUOUS
10
6.47126
20
-4.18622
11
6.45945
21
-4.18622
0
LINE
8
BLACK
6
CONTINUOUS
10
6.45945
20
-4.18622
11
6.45583
21
-4.18602
0
LINE
8
BLACK
6
CONTINUOUS
10
6.45583
20
-4.18602
11
6.44876
21
-4.18447
0
LINE
8
BLACK
6
CONTINUOUS
10
6.44876
20
-4.18447
11
6.4422
21
-4.18143
0
LINE
8
BLACK
6
CONTINUOUS
10
6.4422
20
-4.18143
11
6.43644
21
-4.17705
0
LINE
8
BLACK
6
CONTINUOUS
10
6.43644
20
-4.17705
11
6.43175
21
-4.17154
0
LINE
8
BLACK
6
CONTINUOUS
10
6.43175
20
-4.17154
11
6.42836
21
-4.16514
0
LINE
8
BLACK
6
CONTINUOUS
10
6.42836
20
-4.16514
11
6.42643
21
-4.15817
0
LINE
8
BLACK
6
CONTINUOUS
10
6.42643
20
-4.15817
11
6.4264
21
-4.15768
0
LINE
8
BLACK
6
CONTINUOUS
10
6.4264
20
-4.15768
11
6.37913
21
-4.15768
0
LINE
8
BLACK
6
CONTINUOUS
10
6.37913
20
-4.15768
11
6.37826
21
-4.15755
0
LINE
8
BLACK
6
CONTINUOUS
10
6.37826
20
-4.15755
11
6.37809
21
-4.15756
0
LINE
8
BLACK
6
CONTINUOUS
10
6.37809
20
-4.15756
11
6.37799
21
-4.15751
0
LINE
8
BLACK
6
CONTINUOUS
10
6.37799
20
-4.15751
11
6.37775
21
-4.15748
0
LINE
8
BLACK
6
CONTINUOUS
10
6.37775
20
-4.15748
11
6.37672
21
-4.15682
0
LINE
8
BLACK
6
CONTINUOUS
10
6.37672
20
-4.15682
11
6.37565
21
-4.15624
0
LINE
8
BLACK
6
CONTINUOUS
10
6.37565
20
-4.15624
11
6.31542
21
-4.096
0
LINE
8
BLACK
6
CONTINUOUS
10
6.31542
20
-4.096
11
6.31489
21
-4.0953
0
LINE
8
BLACK
6
CONTINUOUS
10
6.31489
20
-4.0953
11
6.31476
21
-4.09518
0
LINE
8
BLACK
6
CONTINUOUS
10
6.31476
20
-4.09518
11
6.31473
21
-4.09508
0
LINE
8
BLACK
6
CONTINUOUS
10
6.31473
20
-4.09508
11
6.31458
21
-4.09488
0
LINE
8
BLACK
6
CONTINUOUS
10
6.31458
20
-4.09488
11
6.31432
21
-4.09369
0
LINE
8
BLACK
6
CONTINUOUS
10
6.31432
20
-4.09369
11
6.31398
21
-4.09252
0
LINE
8
BLACK
6
CONTINUOUS
10
6.31398
20
-4.09252
11
6.31398
21
-4.01779
0
LINE
8
BLACK
6
CONTINUOUS
10
6.31398
20
-4.01779
11
6.11361
21
-3.81742
0
LINE
8
BLACK
6
CONTINUOUS
10
6.11361
20
-3.81742
11
6.06428
21
-3.81742
0
LINE
8
BLACK
6
CONTINUOUS
10
6.06428
20
-3.81742
11
6.06428
21
-3.81752
0
LINE
8
BLACK
6
CONTINUOUS
10
6.06428
20
-3.81752
11
6.02647
21
-3.81752
0
LINE
8
BLACK
6
CONTINUOUS
10
6.02647
20
-3.81752
11
6.02647
21
-3.80748
0
LINE
8
BLACK
6
CONTINUOUS
10
6.02647
20
-3.80748
11
6.06428
21
-3.80748
0
LINE
8
BLACK
6
CONTINUOUS
10
6.06428
20
-3.80748
11
6.06428
21
-3.80758
0
LINE
8
BLACK
6
CONTINUOUS
10
6.06428
20
-3.78789
11
6.1685
21
-3.78789
0
LINE
8
BLACK
6
CONTINUOUS
10
6.1685
20
-3.78789
11
6.16937
21
-3.78802
0
LINE
8
BLACK
6
CONTINUOUS
10
6.16937
20
-3.78802
11
6.16955
21
-3.78801
0
LINE
8
BLACK
6
CONTINUOUS
10
6.16955
20
-3.78801
11
6.16964
21
-3.78806
0
LINE
8
BLACK
6
CONTINUOUS
10
6.16964
20
-3.78806
11
6.16989
21
-3.78809
0
LINE
8
BLACK
6
CONTINUOUS
10
6.16989
20
-3.78809
11
6.17092
21
-3.78875
0
LINE
8
BLACK
6
CONTINUOUS
10
6.17092
20
-3.78875
11
6.17198
21
-3.78934
0
LINE
8
BLACK
6
CONTINUOUS
10
6.17198
20
-3.78934
11
6.36739
21
-3.98474
0
LINE
8
BLACK
6
CONTINUOUS
10
6.36739
20
-3.98474
11
6.42497
21
-3.98474
0
LINE
8
BLACK
6
CONTINUOUS
10
6.42497
20
-3.98474
11
6.42563
21
-3.98071
0
LINE
8
BLACK
6
CONTINUOUS
10
6.42563
20
-3.98071
11
6.42831
21
-3.97399
0
LINE
8
BLACK
6
CONTINUOUS
10
6.42831
20
-3.97399
11
6.43237
21
-3.968
0
LINE
8
BLACK
6
CONTINUOUS
10
6.43237
20
-3.968
11
6.43762
21
-3.96302
0
LINE
8
BLACK
6
CONTINUOUS
10
6.43762
20
-3.96302
11
6.44382
21
-3.95929
0
LINE
8
BLACK
6
CONTINUOUS
10
6.44382
20
-3.95929
11
6.45068
21
-3.95698
0
LINE
8
BLACK
6
CONTINUOUS
10
6.45068
20
-3.95698
11
6.45787
21
-3.9562
0
LINE
8
BLACK
6
CONTINUOUS
10
6.45787
20
-3.9562
11
6.46969
21
-3.9562
0
LINE
8
BLACK
6
CONTINUOUS
10
6.46969
20
-3.9562
11
6.4733
21
-3.9564
0
LINE
8
BLACK
6
CONTINUOUS
10
6.4733
20
-3.9564
11
6.48037
21
-3.95795
0
LINE
8
BLACK
6
CONTINUOUS
10
6.48037
20
-3.95795
11
6.48694
21
-3.96099
0
LINE
8
BLACK
6
CONTINUOUS
10
6.48694
20
-3.96099
11
6.4927
21
-3.96537
0
LINE
8
BLACK
6
CONTINUOUS
10
6.4927
20
-3.96537
11
6.49738
21
-3.97089
0
LINE
8
BLACK
6
CONTINUOUS
10
6.49738
20
-3.97089
11
6.50077
21
-3.97728
0
LINE
8
BLACK
6
CONTINUOUS
10
6.50077
20
-3.97728
11
6.50271
21
-3.98425
0
LINE
8
BLACK
6
CONTINUOUS
10
6.50271
20
-3.98425
11
6.5031
21
-3.99148
0
LINE
8
BLACK
6
CONTINUOUS
10
6.5031
20
-3.99148
11
6.50193
21
-3.99862
0
LINE
8
BLACK
6
CONTINUOUS
10
6.50193
20
-3.99862
11
6.49925
21
-4.00534
0
LINE
8
BLACK
6
CONTINUOUS
10
6.49925
20
-4.00534
11
6.49519
21
-4.01133
0
LINE
8
BLACK
6
CONTINUOUS
10
6.49519
20
-4.01133
11
6.48994
21
-4.01631
0
LINE
8
BLACK
6
CONTINUOUS
10
6.48994
20
-4.01631
11
6.48374
21
-4.02004
0
LINE
8
BLACK
6
CONTINUOUS
10
6.48374
20
-4.02004
11
6.47688
21
-4.02235
0
LINE
8
BLACK
6
CONTINUOUS
10
6.47688
20
-4.02235
11
6.46969
21
-4.02313
0
LINE
8
BLACK
6
CONTINUOUS
10
6.46969
20
-4.02313
11
6.45787
21
-4.02313
0
LINE
8
BLACK
6
CONTINUOUS
10
6.45787
20
-4.02313
11
6.45426
21
-4.02293
0
LINE
8
BLACK
6
CONTINUOUS
10
6.45426
20
-4.02293
11
6.44719
21
-4.02138
0
LINE
8
BLACK
6
CONTINUOUS
10
6.44719
20
-4.02138
11
6.44062
21
-4.01834
0
LINE
8
BLACK
6
CONTINUOUS
10
6.44062
20
-4.01834
11
6.43486
21
-4.01396
0
LINE
8
BLACK
6
CONTINUOUS
10
6.43486
20
-4.01396
11
6.43018
21
-4.00845
0
LINE
8
BLACK
6
CONTINUOUS
10
6.43018
20
-4.00845
11
6.42679
21
-4.00205
0
LINE
8
BLACK
6
CONTINUOUS
10
6.42679
20
-4.00205
11
6.42485
21
-3.99508
0
LINE
8
BLACK
6
CONTINUOUS
10
6.42485
20
-3.99508
11
6.42482
21
-3.99459
0
LINE
8
BLACK
6
CONTINUOUS
10
6.42482
20
-3.99459
11
6.36535
21
-3.99459
0
LINE
8
BLACK
6
CONTINUOUS
10
6.36535
20
-3.99459
11
6.36448
21
-3.99446
0
LINE
8
BLACK
6
CONTINUOUS
10
6.36448
20
-3.99446
11
6.36431
21
-3.99447
0
LINE
8
BLACK
6
CONTINUOUS
10
6.36431
20
-3.99447
11
6.36421
21
-3.99442
0
LINE
8
BLACK
6
CONTINUOUS
10
6.36421
20
-3.99442
11
6.36397
21
-3.99439
0
LINE
8
BLACK
6
CONTINUOUS
10
6.36397
20
-3.99439
11
6.36294
21
-3.99373
0
LINE
8
BLACK
6
CONTINUOUS
10
6.36294
20
-3.99373
11
6.36187
21
-3.99315
0
LINE
8
BLACK
6
CONTINUOUS
10
6.36187
20
-3.99315
11
6.16647
21
-3.79774
0
LINE
8
BLACK
6
CONTINUOUS
10
6.16647
20
-3.79774
11
6.06428
21
-3.79774
0
LINE
8
BLACK
6
CONTINUOUS
10
6.06428
20
-3.79774
11
6.06428
21
-3.79783
0
LINE
8
BLACK
6
CONTINUOUS
10
6.06428
20
-3.79783
11
6.02647
21
-3.79783
0
LINE
8
BLACK
6
CONTINUOUS
10
6.02647
20
-3.79783
11
6.02647
21
-3.7878
0
LINE
8
BLACK
6
CONTINUOUS
10
6.02647
20
-3.7878
11
6.06428
21
-3.7878
0
LINE
8
BLACK
6
CONTINUOUS
10
6.06428
20
-3.7878
11
6.06428
21
-3.78789
0
LINE
8
BLACK
6
CONTINUOUS
10
6.06428
20
-3.76821
11
6.28661
21
-3.76821
0
LINE
8
BLACK
6
CONTINUOUS
10
6.28661
20
-3.76821
11
6.28748
21
-3.76833
0
LINE
8
BLACK
6
CONTINUOUS
10
6.28748
20
-3.76833
11
6.28766
21
-3.76832
0
LINE
8
BLACK
6
CONTINUOUS
10
6.28766
20
-3.76832
11
6.28775
21
-3.76837
0
LINE
8
BLACK
6
CONTINUOUS
10
6.28775
20
-3.76837
11
6.288
21
-3.76841
0
LINE
8
BLACK
6
CONTINUOUS
10
6.288
20
-3.76841
11
6.28903
21
-3.76907
0
LINE
8
BLACK
6
CONTINUOUS
10
6.28903
20
-3.76907
11
6.29009
21
-3.76965
0
LINE
8
BLACK
6
CONTINUOUS
10
6.29009
20
-3.76965
11
6.35755
21
-3.83711
0
LINE
8
BLACK
6
CONTINUOUS
10
6.35755
20
-3.83711
11
6.42497
21
-3.83711
0
LINE
8
BLACK
6
CONTINUOUS
10
6.42497
20
-3.83711
11
6.42563
21
-3.83307
0
LINE
8
BLACK
6
CONTINUOUS
10
6.42563
20
-3.83307
11
6.42831
21
-3.82635
0
LINE
8
BLACK
6
CONTINUOUS
10
6.42831
20
-3.82635
11
6.43237
21
-3.82036
0
LINE
8
BLACK
6
CONTINUOUS
10
6.43237
20
-3.82036
11
6.43762
21
-3.81539
0
LINE
8
BLACK
6
CONTINUOUS
10
6.43762
20
-3.81539
11
6.44382
21
-3.81166
0
LINE
8
BLACK
6
CONTINUOUS
10
6.44382
20
-3.81166
11
6.45068
21
-3.80935
0
LINE
8
BLACK
6
CONTINUOUS
10
6.45068
20
-3.80935
11
6.45787
21
-3.80856
0
LINE
8
BLACK
6
CONTINUOUS
10
6.45787
20
-3.80856
11
6.46969
21
-3.80856
0
LINE
8
BLACK
6
CONTINUOUS
10
6.46969
20
-3.80856
11
6.4733
21
-3.80876
0
LINE
8
BLACK
6
CONTINUOUS
10
6.4733
20
-3.80876
11
6.48037
21
-3.81031
0
LINE
8
BLACK
6
CONTINUOUS
10
6.48037
20
-3.81031
11
6.48694
21
-3.81335
0
LINE
8
BLACK
6
CONTINUOUS
10
6.48694
20
-3.81335
11
6.4927
21
-3.81773
0
LINE
8
BLACK
6
CONTINUOUS
10
6.4927
20
-3.81773
11
6.49738
21
-3.82325
0
LINE
8
BLACK
6
CONTINUOUS
10
6.49738
20
-3.82325
11
6.50077
21
-3.82964
0
LINE
8
BLACK
6
CONTINUOUS
10
6.50077
20
-3.82964
11
6.50271
21
-3.83661
0
LINE
8
BLACK
6
CONTINUOUS
10
6.50271
20
-3.83661
11
6.5031
21
-3.84384
0
LINE
8
BLACK
6
CONTINUOUS
10
6.5031
20
-3.84384
11
6.50193
21
-3.85098
0
LINE
8
BLACK
6
CONTINUOUS
10
6.50193
20
-3.85098
11
6.49925
21
-3.8577
0
LINE
8
BLACK
6
CONTINUOUS
10
6.49925
20
-3.8577
11
6.49519
21
-3.86369
0
LINE
8
BLACK
6
CONTINUOUS
10
6.49519
20
-3.86369
11
6.48994
21
-3.86867
0
LINE
8
BLACK
6
CONTINUOUS
10
6.48994
20
-3.86867
11
6.48374
21
-3.8724
0
LINE
8
BLACK
6
CONTINUOUS
10
6.48374
20
-3.8724
11
6.47688
21
-3.87471
0
LINE
8
BLACK
6
CONTINUOUS
10
6.47688
20
-3.87471
11
6.46969
21
-3.87549
0
LINE
8
BLACK
6
CONTINUOUS
10
6.46969
20
-3.87549
11
6.45787
21
-3.87549
0
LINE
8
BLACK
6
CONTINUOUS
10
6.45787
20
-3.87549
11
6.45426
21
-3.8753
0
LINE
8
BLACK
6
CONTINUOUS
10
6.45426
20
-3.8753
11
6.44719
21
-3.87374
0
LINE
8
BLACK
6
CONTINUOUS
10
6.44719
20
-3.87374
11
6.44062
21
-3.8707
0
LINE
8
BLACK
6
CONTINUOUS
10
6.44062
20
-3.8707
11
6.43486
21
-3.86632
0
LINE
8
BLACK
6
CONTINUOUS
10
6.43486
20
-3.86632
11
6.43018
21
-3.86081
0
LINE
8
BLACK
6
CONTINUOUS
10
6.43018
20
-3.86081
11
6.42679
21
-3.85441
0
LINE
8
BLACK
6
CONTINUOUS
10
6.42679
20
-3.85441
11
6.42485
21
-3.84744
0
LINE
8
BLACK
6
CONTINUOUS
10
6.42485
20
-3.84744
11
6.42482
21
-3.84695
0
LINE
8
BLACK
6
CONTINUOUS
10
6.42482
20
-3.84695
11
6.35551
21
-3.84695
0
LINE
8
BLACK
6
CONTINUOUS
10
6.35551
20
-3.84695
11
6.35464
21
-3.84682
0
LINE
8
BLACK
6
CONTINUOUS
10
6.35464
20
-3.84682
11
6.35447
21
-3.84684
0
LINE
8
BLACK
6
CONTINUOUS
10
6.35447
20
-3.84684
11
6.35437
21
-3.84678
0
LINE
8
BLACK
6
CONTINUOUS
10
6.35437
20
-3.84678
11
6.35413
21
-3.84675
0
LINE
8
BLACK
6
CONTINUOUS
10
6.35413
20
-3.84675
11
6.3531
21
-3.84609
0
LINE
8
BLACK
6
CONTINUOUS
10
6.3531
20
-3.84609
11
6.35203
21
-3.84551
0
LINE
8
BLACK
6
CONTINUOUS
10
6.35203
20
-3.84551
11
6.28458
21
-3.77805
0
LINE
8
BLACK
6
CONTINUOUS
10
6.28458
20
-3.77805
11
6.06428
21
-3.77805
0
LINE
8
BLACK
6
CONTINUOUS
10
6.06428
20
-3.77805
11
6.06428
21
-3.77815
0
LINE
8
BLACK
6
CONTINUOUS
10
6.06428
20
-3.77815
11
6.02647
21
-3.77815
0
LINE
8
BLACK
6
CONTINUOUS
10
6.02647
20
-3.77815
11
6.02647
21
-3.76811
0
LINE
8
BLACK
6
CONTINUOUS
10
6.02647
20
-3.76811
11
6.06428
21
-3.76811
0
LINE
8
BLACK
6
CONTINUOUS
10
6.06428
20
-3.76811
11
6.06428
21
-3.76821
0
LINE
8
BLACK
6
CONTINUOUS
10
5.45441
20
-3.62421
11
5.46147
21
-3.62577
0
LINE
8
BLACK
6
CONTINUOUS
10
5.46147
20
-3.62577
11
5.46804
21
-3.62881
0
LINE
8
BLACK
6
CONTINUOUS
10
5.46804
20
-3.62881
11
5.4738
21
-3.63319
0
LINE
8
BLACK
6
CONTINUOUS
10
5.4738
20
-3.63319
11
5.47849
21
-3.6387
0
LINE
8
BLACK
6
CONTINUOUS
10
5.47849
20
-3.6387
11
5.48188
21
-3.64509
0
LINE
8
BLACK
6
CONTINUOUS
10
5.48188
20
-3.64509
11
5.48381
21
-3.65207
0
LINE
8
BLACK
6
CONTINUOUS
10
5.48381
20
-3.65207
11
5.48384
21
-3.65256
0
LINE
8
BLACK
6
CONTINUOUS
10
5.48384
20
-3.65256
11
5.51181
21
-3.65256
0
LINE
8
BLACK
6
CONTINUOUS
10
5.51181
20
-3.65256
11
5.51268
21
-3.65268
0
LINE
8
BLACK
6
CONTINUOUS
10
5.51268
20
-3.65268
11
5.51286
21
-3.65267
0
LINE
8
BLACK
6
CONTINUOUS
10
5.51286
20
-3.65267
11
5.51295
21
-3.65272
0
LINE
8
BLACK
6
CONTINUOUS
10
5.51295
20
-3.65272
11
5.5132
21
-3.65276
0
LINE
8
BLACK
6
CONTINUOUS
10
5.5132
20
-3.65276
11
5.51422
21
-3.65342
0
LINE
8
BLACK
6
CONTINUOUS
10
5.51422
20
-3.65342
11
5.51529
21
-3.654
0
LINE
8
BLACK
6
CONTINUOUS
10
5.51529
20
-3.654
11
5.60981
21
-3.74852
0
LINE
8
BLACK
6
CONTINUOUS
10
5.60981
20
-3.74852
11
5.83966
21
-3.74852
0
LINE
8
BLACK
6
CONTINUOUS
10
5.83966
20
-3.74852
11
5.83966
21
-3.74843
0
LINE
8
BLACK
6
CONTINUOUS
10
5.83966
20
-3.74843
11
5.87747
21
-3.74843
0
LINE
8
BLACK
6
CONTINUOUS
10
5.87747
20
-3.74843
11
5.87747
21
-3.75846
0
LINE
8
BLACK
6
CONTINUOUS
10
5.87747
20
-3.75846
11
5.83966
21
-3.75846
0
LINE
8
BLACK
6
CONTINUOUS
10
5.83966
20
-3.75846
11
5.83966
21
-3.75837
0
LINE
8
BLACK
6
CONTINUOUS
10
5.83966
20
-3.75837
11
5.60778
21
-3.75837
0
LINE
8
BLACK
6
CONTINUOUS
10
5.60778
20
-3.75837
11
5.60691
21
-3.75824
0
LINE
8
BLACK
6
CONTINUOUS
10
5.60691
20
-3.75824
11
5.60673
21
-3.75825
0
LINE
8
BLACK
6
CONTINUOUS
10
5.60673
20
-3.75825
11
5.60664
21
-3.7582
0
LINE
8
BLACK
6
CONTINUOUS
10
5.60664
20
-3.7582
11
5.60639
21
-3.75817
0
LINE
8
BLACK
6
CONTINUOUS
10
5.60639
20
-3.75817
11
5.60536
21
-3.75751
0
LINE
8
BLACK
6
CONTINUOUS
10
5.60536
20
-3.75751
11
5.6043
21
-3.75692
0
LINE
8
BLACK
6
CONTINUOUS
10
5.6043
20
-3.75692
11
5.50977
21
-3.6624
0
LINE
8
BLACK
6
CONTINUOUS
10
5.50977
20
-3.6624
11
5.48369
21
-3.6624
0
LINE
8
BLACK
6
CONTINUOUS
10
5.48369
20
-3.6624
11
5.48303
21
-3.66643
0
LINE
8
BLACK
6
CONTINUOUS
10
5.48303
20
-3.66643
11
5.48035
21
-3.67316
0
LINE
8
BLACK
6
CONTINUOUS
10
5.48035
20
-3.67316
11
5.47629
21
-3.67914
0
LINE
8
BLACK
6
CONTINUOUS
10
5.47629
20
-3.67914
11
5.47104
21
-3.68412
0
LINE
8
BLACK
6
CONTINUOUS
10
5.47104
20
-3.68412
11
5.46484
21
-3.68785
0
LINE
8
BLACK
6
CONTINUOUS
10
5.46484
20
-3.68785
11
5.45798
21
-3.69016
0
LINE
8
BLACK
6
CONTINUOUS
10
5.45798
20
-3.69016
11
5.45079
21
-3.69094
0
LINE
8
BLACK
6
CONTINUOUS
10
5.45079
20
-3.69094
11
5.43898
21
-3.69094
0
LINE
8
BLACK
6
CONTINUOUS
10
5.43898
20
-3.69094
11
5.43536
21
-3.69075
0
LINE
8
BLACK
6
CONTINUOUS
10
5.43536
20
-3.69075
11
5.42829
21
-3.68919
0
LINE
8
BLACK
6
CONTINUOUS
10
5.42829
20
-3.68919
11
5.42172
21
-3.68615
0
LINE
8
BLACK
6
CONTINUOUS
10
5.42172
20
-3.68615
11
5.41596
21
-3.68178
0
LINE
8
BLACK
6
CONTINUOUS
10
5.41596
20
-3.68178
11
5.41128
21
-3.67626
0
LINE
8
BLACK
6
CONTINUOUS
10
5.41128
20
-3.67626
11
5.40789
21
-3.66987
0
LINE
8
BLACK
6
CONTINUOUS
10
5.40789
20
-3.66987
11
5.40595
21
-3.66289
0
LINE
8
BLACK
6
CONTINUOUS
10
5.40595
20
-3.66289
11
5.40556
21
-3.65567
0
LINE
8
BLACK
6
CONTINUOUS
10
5.40556
20
-3.65567
11
5.40673
21
-3.64853
0
LINE
8
BLACK
6
CONTINUOUS
10
5.40673
20
-3.64853
11
5.40941
21
-3.64181
0
LINE
8
BLACK
6
CONTINUOUS
10
5.40941
20
-3.64181
11
5.41347
21
-3.63582
0
LINE
8
BLACK
6
CONTINUOUS
10
5.41347
20
-3.63582
11
5.41872
21
-3.63084
0
LINE
8
BLACK
6
CONTINUOUS
10
5.41872
20
-3.63084
11
5.42492
21
-3.62711
0
LINE
8
BLACK
6
CONTINUOUS
10
5.42492
20
-3.62711
11
5.43178
21
-3.6248
0
LINE
8
BLACK
6
CONTINUOUS
10
5.43178
20
-3.6248
11
5.43898
21
-3.62402
0
LINE
8
BLACK
6
CONTINUOUS
10
5.43898
20
-3.62402
11
5.45079
21
-3.62402
0
LINE
8
BLACK
6
CONTINUOUS
10
5.45079
20
-3.62402
11
5.45441
21
-3.62421
0
LINE
8
BLACK
6
CONTINUOUS
10
6.30029
20
-2.9461
11
6.30701
21
-2.94878
0
LINE
8
BLACK
6
CONTINUOUS
10
6.30701
20
-2.94878
11
6.313
21
-2.95284
0
LINE
8
BLACK
6
CONTINUOUS
10
6.313
20
-2.95284
11
6.31798
21
-2.95809
0
LINE
8
BLACK
6
CONTINUOUS
10
6.31798
20
-2.95809
11
6.32171
21
-2.9643
0
LINE
8
BLACK
6
CONTINUOUS
10
6.32171
20
-2.9643
11
6.32402
21
-2.97115
0
LINE
8
BLACK
6
CONTINUOUS
10
6.32402
20
-2.97115
11
6.3248
21
-2.97835
0
LINE
8
BLACK
6
CONTINUOUS
10
6.3248
20
-2.97835
11
6.3248
21
-2.99016
0
LINE
8
BLACK
6
CONTINUOUS
10
6.3248
20
-2.99016
11
6.32461
21
-2.99378
0
LINE
8
BLACK
6
CONTINUOUS
10
6.32461
20
-2.99378
11
6.32305
21
-3.00084
0
LINE
8
BLACK
6
CONTINUOUS
10
6.32305
20
-3.00084
11
6.32001
21
-3.00741
0
LINE
8
BLACK
6
CONTINUOUS
10
6.32001
20
-3.00741
11
6.31563
21
-3.01317
0
LINE
8
BLACK
6
CONTINUOUS
10
6.31563
20
-3.01317
11
6.31012
21
-3.01786
0
LINE
8
BLACK
6
CONTINUOUS
10
6.31012
20
-3.01786
11
6.30373
21
-3.02125
0
LINE
8
BLACK
6
CONTINUOUS
10
6.30373
20
-3.02125
11
6.29675
21
-3.02318
0
LINE
8
BLACK
6
CONTINUOUS
10
6.29675
20
-3.02318
11
6.29626
21
-3.02321
0
LINE
8
BLACK
6
CONTINUOUS
10
6.29626
20
-3.02321
11
6.29626
21
-3.17126
0
LINE
8
BLACK
6
CONTINUOUS
10
6.29626
20
-3.17126
11
6.29613
21
-3.17213
0
LINE
8
BLACK
6
CONTINUOUS
10
6.29613
20
-3.17213
11
6.29615
21
-3.17231
0
LINE
8
BLACK
6
CONTINUOUS
10
6.29615
20
-3.17231
11
6.2961
21
-3.1724
0
LINE
8
BLACK
6
CONTINUOUS
10
6.2961
20
-3.1724
11
6.29606
21
-3.17265
0
LINE
8
BLACK
6
CONTINUOUS
10
6.29606
20
-3.17265
11
6.2954
21
-3.17367
0
LINE
8
BLACK
6
CONTINUOUS
10
6.2954
20
-3.17367
11
6.29482
21
-3.17474
0
LINE
8
BLACK
6
CONTINUOUS
10
6.29482
20
-3.17474
11
5.99626
21
-3.4733
0
LINE
8
BLACK
6
CONTINUOUS
10
5.99626
20
-3.4733
11
5.99626
21
-3.66082
0
LINE
8
BLACK
6
CONTINUOUS
10
5.99626
20
-3.66082
11
5.99635
21
-3.66082
0
LINE
8
BLACK
6
CONTINUOUS
10
5.99635
20
-3.66082
11
5.99635
21
-3.69863
0
LINE
8
BLACK
6
CONTINUOUS
10
5.99635
20
-3.69863
11
5.98632
21
-3.69863
0
LINE
8
BLACK
6
CONTINUOUS
10
5.98632
20
-3.69863
11
5.98632
21
-3.66082
0
LINE
8
BLACK
6
CONTINUOUS
10
5.98632
20
-3.66082
11
5.98642
21
-3.66082
0
LINE
8
BLACK
6
CONTINUOUS
10
5.98642
20
-3.66082
11
5.98642
21
-3.47126
0
LINE
8
BLACK
6
CONTINUOUS
10
5.98642
20
-3.47126
11
5.98654
21
-3.47039
0
LINE
8
BLACK
6
CONTINUOUS
10
5.98654
20
-3.47039
11
5.98653
21
-3.47021
0
LINE
8
BLACK
6
CONTINUOUS
10
5.98653
20
-3.47021
11
5.98658
21
-3.47012
0
LINE
8
BLACK
6
CONTINUOUS
10
5.98658
20
-3.47012
11
5.98662
21
-3.46987
0
LINE
8
BLACK
6
CONTINUOUS
10
5.98662
20
-3.46987
11
5.98728
21
-3.46885
0
LINE
8
BLACK
6
CONTINUOUS
10
5.98728
20
-3.46885
11
5.98786
21
-3.46778
0
LINE
8
BLACK
6
CONTINUOUS
10
5.98786
20
-3.46778
11
6.28642
21
-3.16922
0
LINE
8
BLACK
6
CONTINUOUS
10
6.28642
20
-3.16922
11
6.28642
21
-3.02306
0
LINE
8
BLACK
6
CONTINUOUS
10
6.28642
20
-3.02306
11
6.28239
21
-3.0224
0
LINE
8
BLACK
6
CONTINUOUS
10
6.28239
20
-3.0224
11
6.27566
21
-3.01972
0
LINE
8
BLACK
6
CONTINUOUS
10
6.27566
20
-3.01972
11
6.26967
21
-3.01566
0
LINE
8
BLACK
6
CONTINUOUS
10
6.26967
20
-3.01566
11
6.2647
21
-3.01041
0
LINE
8
BLACK
6
CONTINUOUS
10
6.2647
20
-3.01041
11
6.26097
21
-3.00421
0
LINE
8
BLACK
6
CONTINUOUS
10
6.26097
20
-3.00421
11
6.25866
21
-2.99735
0
LINE
8
BLACK
6
CONTINUOUS
10
6.25866
20
-2.99735
11
6.25787
21
-2.99016
0
LINE
8
BLACK
6
CONTINUOUS
10
6.25787
20
-2.99016
11
6.25787
21
-2.97835
0
LINE
8
BLACK
6
CONTINUOUS
10
6.25787
20
-2.97835
11
6.25807
21
-2.97473
0
LINE
8
BLACK
6
CONTINUOUS
10
6.25807
20
-2.97473
11
6.25963
21
-2.96766
0
LINE
8
BLACK
6
CONTINUOUS
10
6.25963
20
-2.96766
11
6.26266
21
-2.96109
0
LINE
8
BLACK
6
CONTINUOUS
10
6.26266
20
-2.96109
11
6.26704
21
-2.95533
0
LINE
8
BLACK
6
CONTINUOUS
10
6.26704
20
-2.95533
11
6.27256
21
-2.95065
0
LINE
8
BLACK
6
CONTINUOUS
10
6.27256
20
-2.95065
11
6.27895
21
-2.94726
0
LINE
8
BLACK
6
CONTINUOUS
10
6.27895
20
-2.94726
11
6.28592
21
-2.94532
0
LINE
8
BLACK
6
CONTINUOUS
10
6.28592
20
-2.94532
11
6.29315
21
-2.94493
0
LINE
8
BLACK
6
CONTINUOUS
10
6.29315
20
-2.94493
11
6.30029
21
-2.9461
0
LINE
8
BLACK
6
CONTINUOUS
10
6.47015
20
-3.14783
11
6.47722
21
-3.14939
0
LINE
8
BLACK
6
CONTINUOUS
10
6.47722
20
-3.14939
11
6.48379
21
-3.15243
0
LINE
8
BLACK
6
CONTINUOUS
10
6.48379
20
-3.15243
11
6.48955
21
-3.15681
0
LINE
8
BLACK
6
CONTINUOUS
10
6.48955
20
-3.15681
11
6.49423
21
-3.16232
0
LINE
8
BLACK
6
CONTINUOUS
10
6.49423
20
-3.16232
11
6.49762
21
-3.16872
0
LINE
8
BLACK
6
CONTINUOUS
10
6.49762
20
-3.16872
11
6.49956
21
-3.17569
0
LINE
8
BLACK
6
CONTINUOUS
10
6.49956
20
-3.17569
11
6.49995
21
-3.18291
0
LINE
8
BLACK
6
CONTINUOUS
10
6.49995
20
-3.18291
11
6.49878
21
-3.19006
0
LINE
8
BLACK
6
CONTINUOUS
10
6.49878
20
-3.19006
11
6.4961
21
-3.19678
0
LINE
8
BLACK
6
CONTINUOUS
10
6.4961
20
-3.19678
11
6.49204
21
-3.20277
0
LINE
8
BLACK
6
CONTINUOUS
10
6.49204
20
-3.20277
11
6.48679
21
-3.20774
0
LINE
8
BLACK
6
CONTINUOUS
10
6.48679
20
-3.20774
11
6.48059
21
-3.21147
0
LINE
8
BLACK
6
CONTINUOUS
10
6.48059
20
-3.21147
11
6.47373
21
-3.21378
0
LINE
8
BLACK
6
CONTINUOUS
10
6.47373
20
-3.21378
11
6.46654
21
-3.21457
0
LINE
8
BLACK
6
CONTINUOUS
10
6.46654
20
-3.21457
11
6.45472
21
-3.21457
0
LINE
8
BLACK
6
CONTINUOUS
10
6.45472
20
-3.21457
11
6.45111
21
-3.21437
0
LINE
8
BLACK
6
CONTINUOUS
10
6.45111
20
-3.21437
11
6.44404
21
-3.21282
0
LINE
8
BLACK
6
CONTINUOUS
10
6.44404
20
-3.21282
11
6.43747
21
-3.20978
0
LINE
8
BLACK
6
CONTINUOUS
10
6.43747
20
-3.20978
11
6.43171
21
-3.2054
0
LINE
8
BLACK
6
CONTINUOUS
10
6.43171
20
-3.2054
11
6.42703
21
-3.19988
0
LINE
8
BLACK
6
CONTINUOUS
10
6.42703
20
-3.19988
11
6.42364
21
-3.19349
0
LINE
8
BLACK
6
CONTINUOUS
10
6.42364
20
-3.19349
11
6.4217
21
-3.18652
0
LINE
8
BLACK
6
CONTINUOUS
10
6.4217
20
-3.18652
11
6.42167
21
-3.18602
0
LINE
8
BLACK
6
CONTINUOUS
10
6.42167
20
-3.18602
11
6.35637
21
-3.18602
0
LINE
8
BLACK
6
CONTINUOUS
10
6.35637
20
-3.18602
11
6.01594
21
-3.52645
0
LINE
8
BLACK
6
CONTINUOUS
10
6.01594
20
-3.52645
11
6.01594
21
-3.66082
0
LINE
8
BLACK
6
CONTINUOUS
10
6.01594
20
-3.66082
11
6.01604
21
-3.66082
0
LINE
8
BLACK
6
CONTINUOUS
10
6.01604
20
-3.66082
11
6.01604
21
-3.69863
0
LINE
8
BLACK
6
CONTINUOUS
10
6.01604
20
-3.69863
11
6.00601
21
-3.69863
0
LINE
8
BLACK
6
CONTINUOUS
10
6.00601
20
-3.69863
11
6.00601
21
-3.66082
0
LINE
8
BLACK
6
CONTINUOUS
10
6.00601
20
-3.66082
11
6.0061
21
-3.66082
0
LINE
8
BLACK
6
CONTINUOUS
10
6.0061
20
-3.66082
11
6.0061
21
-3.52441
0
LINE
8
BLACK
6
CONTINUOUS
10
6.0061
20
-3.52441
11
6.00623
21
-3.52354
0
LINE
8
BLACK
6
CONTINUOUS
10
6.00623
20
-3.52354
11
6.00621
21
-3.52336
0
LINE
8
BLACK
6
CONTINUOUS
10
6.00621
20
-3.52336
11
6.00627
21
-3.52327
0
LINE
8
BLACK
6
CONTINUOUS
10
6.00627
20
-3.52327
11
6.0063
21
-3.52302
0
LINE
8
BLACK
6
CONTINUOUS
10
6.0063
20
-3.52302
11
6.00696
21
-3.522
0
LINE
8
BLACK
6
CONTINUOUS
10
6.00696
20
-3.522
11
6.00754
21
-3.52093
0
LINE
8
BLACK
6
CONTINUOUS
10
6.00754
20
-3.52093
11
6.35085
21
-3.17762
0
LINE
8
BLACK
6
CONTINUOUS
10
6.35085
20
-3.17762
11
6.35155
21
-3.1771
0
LINE
8
BLACK
6
CONTINUOUS
10
6.35155
20
-3.1771
11
6.35167
21
-3.17696
0
LINE
8
BLACK
6
CONTINUOUS
10
6.35167
20
-3.17696
11
6.35177
21
-3.17693
0
LINE
8
BLACK
6
CONTINUOUS
10
6.35177
20
-3.17693
11
6.35197
21
-3.17678
0
LINE
8
BLACK
6
CONTINUOUS
10
6.35197
20
-3.17678
11
6.35316
21
-3.17652
0
LINE
8
BLACK
6
CONTINUOUS
10
6.35316
20
-3.17652
11
6.35433
21
-3.17618
0
LINE
8
BLACK
6
CONTINUOUS
10
6.35433
20
-3.17618
11
6.42182
21
-3.17618
0
LINE
8
BLACK
6
CONTINUOUS
10
6.42182
20
-3.17618
11
6.42248
21
-3.17215
0
LINE
8
BLACK
6
CONTINUOUS
10
6.42248
20
-3.17215
11
6.42516
21
-3.16543
0
LINE
8
BLACK
6
CONTINUOUS
10
6.42516
20
-3.16543
11
6.42922
21
-3.15944
0
LINE
8
BLACK
6
CONTINUOUS
10
6.42922
20
-3.15944
11
6.43447
21
-3.15446
0
LINE
8
BLACK
6
CONTINUOUS
10
6.43447
20
-3.15446
11
6.44067
21
-3.15073
0
LINE
8
BLACK
6
CONTINUOUS
10
6.44067
20
-3.15073
11
6.44753
21
-3.14842
0
LINE
8
BLACK
6
CONTINUOUS
10
6.44753
20
-3.14842
11
6.45472
21
-3.14764
0
LINE
8
BLACK
6
CONTINUOUS
10
6.45472
20
-3.14764
11
6.46654
21
-3.14764
0
LINE
8
BLACK
6
CONTINUOUS
10
6.46654
20
-3.14764
11
6.47015
21
-3.14783
0
LINE
8
BLACK
6
CONTINUOUS
10
6.47252
20
-3.33248
11
6.47958
21
-3.33404
0
LINE
8
BLACK
6
CONTINUOUS
10
6.47958
20
-3.33404
11
6.48615
21
-3.33707
0
LINE
8
BLACK
6
CONTINUOUS
10
6.48615
20
-3.33707
11
6.49191
21
-3.34145
0
LINE
8
BLACK
6
CONTINUOUS
10
6.49191
20
-3.34145
11
6.4966
21
-3.34697
0
LINE
8
BLACK
6
CONTINUOUS
10
6.4966
20
-3.34697
11
6.49999
21
-3.35336
0
LINE
8
BLACK
6
CONTINUOUS
10
6.49999
20
-3.35336
11
6.50192
21
-3.36033
0
LINE
8
BLACK
6
CONTINUOUS
10
6.50192
20
-3.36033
11
6.50231
21
-3.36756
0
LINE
8
BLACK
6
CONTINUOUS
10
6.50231
20
-3.36756
11
6.50114
21
-3.3747
0
LINE
8
BLACK
6
CONTINUOUS
10
6.50114
20
-3.3747
11
6.49846
21
-3.38142
0
LINE
8
BLACK
6
CONTINUOUS
10
6.49846
20
-3.38142
11
6.4944
21
-3.38741
0
LINE
8
BLACK
6
CONTINUOUS
10
6.4944
20
-3.38741
11
6.48915
21
-3.39239
0
LINE
8
BLACK
6
CONTINUOUS
10
6.48915
20
-3.39239
11
6.48295
21
-3.39612
0
LINE
8
BLACK
6
CONTINUOUS
10
6.48295
20
-3.39612
11
6.47609
21
-3.39843
0
LINE
8
BLACK
6
CONTINUOUS
10
6.47609
20
-3.39843
11
6.4689
21
-3.39921
0
LINE
8
BLACK
6
CONTINUOUS
10
6.4689
20
-3.39921
11
6.45709
21
-3.39921
0
LINE
8
BLACK
6
CONTINUOUS
10
6.45709
20
-3.39921
11
6.45347
21
-3.39902
0
LINE
8
BLACK
6
CONTINUOUS
10
6.45347
20
-3.39902
11
6.4464
21
-3.39746
0
LINE
8
BLACK
6
CONTINUOUS
10
6.4464
20
-3.39746
11
6.43983
21
-3.39442
0
LINE
8
BLACK
6
CONTINUOUS
10
6.43983
20
-3.39442
11
6.43407
21
-3.39004
0
LINE
8
BLACK
6
CONTINUOUS
10
6.43407
20
-3.39004
11
6.42939
21
-3.38453
0
LINE
8
BLACK
6
CONTINUOUS
10
6.42939
20
-3.38453
11
6.426
21
-3.37813
0
LINE
8
BLACK
6
CONTINUOUS
10
6.426
20
-3.37813
11
6.42406
21
-3.37116
0
LINE
8
BLACK
6
CONTINUOUS
10
6.42406
20
-3.37116
11
6.42404
21
-3.37067
0
LINE
8
BLACK
6
CONTINUOUS
10
6.42404
20
-3.37067
11
6.3922
21
-3.37067
0
LINE
8
BLACK
6
CONTINUOUS
10
6.3922
20
-3.37067
11
6.30807
21
-3.45479
0
LINE
8
BLACK
6
CONTINUOUS
10
6.30807
20
-3.45479
11
6.30807
21
-3.51378
0
LINE
8
BLACK
6
CONTINUOUS
10
6.30807
20
-3.51378
11
6.30795
21
-3.51465
0
LINE
8
BLACK
6
CONTINUOUS
10
6.30795
20
-3.51465
11
6.30796
21
-3.51483
0
LINE
8
BLACK
6
CONTINUOUS
10
6.30796
20
-3.51483
11
6.30791
21
-3.51492
0
LINE
8
BLACK
6
CONTINUOUS
10
6.30791
20
-3.51492
11
6.30787
21
-3.51517
0
LINE
8
BLACK
6
CONTINUOUS
10
6.30787
20
-3.51517
11
6.30721
21
-3.51619
0
LINE
8
BLACK
6
CONTINUOUS
10
6.30721
20
-3.51619
11
6.30663
21
-3.51726
0
LINE
8
BLACK
6
CONTINUOUS
10
6.30663
20
-3.51726
11
6.10633
21
-3.71755
0
LINE
8
BLACK
6
CONTINUOUS
10
6.10633
20
-3.71755
11
6.10563
21
-3.71808
0
LINE
8
BLACK
6
CONTINUOUS
10
6.10563
20
-3.71808
11
6.10551
21
-3.71821
0
LINE
8
BLACK
6
CONTINUOUS
10
6.10551
20
-3.71821
11
6.10541
21
-3.71825
0
LINE
8
BLACK
6
CONTINUOUS
10
6.10541
20
-3.71825
11
6.10521
21
-3.71839
0
LINE
8
BLACK
6
CONTINUOUS
10
6.10521
20
-3.71839
11
6.10402
21
-3.71865
0
LINE
8
BLACK
6
CONTINUOUS
10
6.10402
20
-3.71865
11
6.10285
21
-3.719
0
LINE
8
BLACK
6
CONTINUOUS
10
6.10285
20
-3.719
11
6.07677
21
-3.719
0
LINE
8
BLACK
6
CONTINUOUS
10
6.07677
20
-3.719
11
6.06428
21
-3.719
0
LINE
8
BLACK
6
CONTINUOUS
10
6.06428
20
-3.719
11
6.06428
21
-3.71909
0
LINE
8
BLACK
6
CONTINUOUS
10
6.06428
20
-3.71909
11
6.02647
21
-3.71909
0
LINE
8
BLACK
6
CONTINUOUS
10
6.02647
20
-3.71909
11
6.02647
21
-3.70906
0
LINE
8
BLACK
6
CONTINUOUS
10
6.02647
20
-3.70906
11
6.06428
21
-3.70906
0
LINE
8
BLACK
6
CONTINUOUS
10
6.06428
20
-3.70906
11
6.06428
21
-3.70915
0
LINE
8
BLACK
6
CONTINUOUS
10
6.06428
20
-3.70915
11
6.07677
21
-3.70915
0
LINE
8
BLACK
6
CONTINUOUS
10
6.07677
20
-3.70915
11
6.10082
21
-3.70915
0
LINE
8
BLACK
6
CONTINUOUS
10
6.10082
20
-3.70915
11
6.29823
21
-3.51174
0
LINE
8
BLACK
6
CONTINUOUS
10
6.29823
20
-3.51174
11
6.29823
21
-3.45276
0
LINE
8
BLACK
6
CONTINUOUS
10
6.29823
20
-3.45276
11
6.29835
21
-3.45189
0
LINE
8
BLACK
6
CONTINUOUS
10
6.29835
20
-3.45189
11
6.29834
21
-3.45171
0
LINE
8
BLACK
6
CONTINUOUS
10
6.29834
20
-3.45171
11
6.29839
21
-3.45162
0
LINE
8
BLACK
6
CONTINUOUS
10
6.29839
20
-3.45162
11
6.29843
21
-3.45137
0
LINE
8
BLACK
6
CONTINUOUS
10
6.29843
20
-3.45137
11
6.29909
21
-3.45034
0
LINE
8
BLACK
6
CONTINUOUS
10
6.29909
20
-3.45034
11
6.29967
21
-3.44928
0
LINE
8
BLACK
6
CONTINUOUS
10
6.29967
20
-3.44928
11
6.38668
21
-3.36227
0
LINE
8
BLACK
6
CONTINUOUS
10
6.38668
20
-3.36227
11
6.38738
21
-3.36174
0
LINE
8
BLACK
6
CONTINUOUS
10
6.38738
20
-3.36174
11
6.3875
21
-3.36161
0
LINE
8
BLACK
6
CONTINUOUS
10
6.3875
20
-3.36161
11
6.3876
21
-3.36158
0
LINE
8
BLACK
6
CONTINUOUS
10
6.3876
20
-3.36158
11
6.3878
21
-3.36143
0
LINE
8
BLACK
6
CONTINUOUS
10
6.3878
20
-3.36143
11
6.38899
21
-3.36117
0
LINE
8
BLACK
6
CONTINUOUS
10
6.38899
20
-3.36117
11
6.39016
21
-3.36083
0
LINE
8
BLACK
6
CONTINUOUS
10
6.39016
20
-3.36083
11
6.42418
21
-3.36083
0
LINE
8
BLACK
6
CONTINUOUS
10
6.42418
20
-3.36083
11
6.42484
21
-3.3568
0
LINE
8
BLACK
6
CONTINUOUS
10
6.42484
20
-3.3568
11
6.42752
21
-3.35007
0
LINE
8
BLACK
6
CONTINUOUS
10
6.42752
20
-3.35007
11
6.43158
21
-3.34408
0
LINE
8
BLACK
6
CONTINUOUS
10
6.43158
20
-3.34408
11
6.43683
21
-3.33911
0
LINE
8
BLACK
6
CONTINUOUS
10
6.43683
20
-3.33911
11
6.44304
21
-3.33538
0
LINE
8
BLACK
6
CONTINUOUS
10
6.44304
20
-3.33538
11
6.44989
21
-3.33307
0
LINE
8
BLACK
6
CONTINUOUS
10
6.44989
20
-3.33307
11
6.45709
21
-3.33228
0
LINE
8
BLACK
6
CONTINUOUS
10
6.45709
20
-3.33228
11
6.4689
21
-3.33228
0
LINE
8
BLACK
6
CONTINUOUS
10
6.4689
20
-3.33228
11
6.47252
21
-3.33248
0
LINE
8
BLACK
6
CONTINUOUS
10
6.4733
20
-3.51348
11
6.48037
21
-3.51504
0
LINE
8
BLACK
6
CONTINUOUS
10
6.48037
20
-3.51504
11
6.48694
21
-3.51808
0
LINE
8
BLACK
6
CONTINUOUS
10
6.48694
20
-3.51808
11
6.4927
21
-3.52246
0
LINE
8
BLACK
6
CONTINUOUS
10
6.4927
20
-3.52246
11
6.49738
21
-3.52797
0
LINE
8
BLACK
6
CONTINUOUS
10
6.49738
20
-3.52797
11
6.50077
21
-3.53437
0
LINE
8
BLACK
6
CONTINUOUS
10
6.50077
20
-3.53437
11
6.50271
21
-3.54134
0
LINE
8
BLACK
6
CONTINUOUS
10
6.50271
20
-3.54134
11
6.5031
21
-3.54856
0
LINE
8
BLACK
6
CONTINUOUS
10
6.5031
20
-3.54856
11
6.50193
21
-3.5557
0
LINE
8
BLACK
6
CONTINUOUS
10
6.50193
20
-3.5557
11
6.49925
21
-3.56243
0
LINE
8
BLACK
6
CONTINUOUS
10
6.49925
20
-3.56243
11
6.49519
21
-3.56842
0
LINE
8
BLACK
6
CONTINUOUS
10
6.49519
20
-3.56842
11
6.48994
21
-3.57339
0
LINE
8
BLACK
6
CONTINUOUS
10
6.48994
20
-3.57339
11
6.48374
21
-3.57712
0
LINE
8
BLACK
6
CONTINUOUS
10
6.48374
20
-3.57712
11
6.47688
21
-3.57943
0
LINE
8
BLACK
6
CONTINUOUS
10
6.47688
20
-3.57943
11
6.46969
21
-3.58022
0
LINE
8
BLACK
6
CONTINUOUS
10
6.46969
20
-3.58022
11
6.45787
21
-3.58022
0
LINE
8
BLACK
6
CONTINUOUS
10
6.45787
20
-3.58022
11
6.45426
21
-3.58002
0
LINE
8
BLACK
6
CONTINUOUS
10
6.45426
20
-3.58002
11
6.44719
21
-3.57846
0
LINE
8
BLACK
6
CONTINUOUS
10
6.44719
20
-3.57846
11
6.44062
21
-3.57543
0
LINE
8
BLACK
6
CONTINUOUS
10
6.44062
20
-3.57543
11
6.43486
21
-3.57105
0
LINE
8
BLACK
6
CONTINUOUS
10
6.43486
20
-3.57105
11
6.43018
21
-3.56553
0
LINE
8
BLACK
6
CONTINUOUS
10
6.43018
20
-3.56553
11
6.42679
21
-3.55914
0
LINE
8
BLACK
6
CONTINUOUS
10
6.42679
20
-3.55914
11
6.42485
21
-3.55217
0
LINE
8
BLACK
6
CONTINUOUS
10
6.42485
20
-3.55217
11
6.42482
21
-3.55167
0
LINE
8
BLACK
6
CONTINUOUS
10
6.42482
20
-3.55167
11
6.34779
21
-3.55167
0
LINE
8
BLACK
6
CONTINUOUS
10
6.34779
20
-3.55167
11
6.17208
21
-3.73714
0
LINE
8
BLACK
6
CONTINUOUS
10
6.17208
20
-3.73714
11
6.17126
21
-3.73779
0
LINE
8
BLACK
6
CONTINUOUS
10
6.17126
20
-3.73779
11
6.17116
21
-3.7379
0
LINE
8
BLACK
6
CONTINUOUS
10
6.17116
20
-3.7379
11
6.1711
21
-3.73792
0
LINE
8
BLACK
6
CONTINUOUS
10
6.1711
20
-3.73792
11
6.17098
21
-3.73801
0
LINE
8
BLACK
6
CONTINUOUS
10
6.17098
20
-3.73801
11
6.16973
21
-3.73832
0
LINE
8
BLACK
6
CONTINUOUS
10
6.16973
20
-3.73832
11
6.1685
21
-3.73868
0
LINE
8
BLACK
6
CONTINUOUS
10
6.1685
20
-3.73868
11
6.06428
21
-3.73868
0
LINE
8
BLACK
6
CONTINUOUS
10
6.06428
20
-3.73868
11
6.06428
21
-3.73878
0
LINE
8
BLACK
6
CONTINUOUS
10
6.06428
20
-3.73878
11
6.02647
21
-3.73878
0
LINE
8
BLACK
6
CONTINUOUS
10
6.02647
20
-3.73878
11
6.02647
21
-3.72874
0
LINE
8
BLACK
6
CONTINUOUS
10
6.02647
20
-3.72874
11
6.06428
21
-3.72874
0
LINE
8
BLACK
6
CONTINUOUS
10
6.06428
20
-3.72874
11
6.06428
21
-3.72884
0
LINE
8
BLACK
6
CONTINUOUS
10
6.06428
20
-3.72884
11
6.16639
21
-3.72884
0
LINE
8
BLACK
6
CONTINUOUS
10
6.16639
20
-3.72884
11
6.3421
21
-3.54337
0
LINE
8
BLACK
6
CONTINUOUS
10
6.3421
20
-3.54337
11
6.34292
21
-3.54272
0
LINE
8
BLACK
6
CONTINUOUS
10
6.34292
20
-3.54272
11
6.34301
21
-3.54261
0
LINE
8
BLACK
6
CONTINUOUS
10
6.34301
20
-3.54261
11
6.34308
21
-3.54259
0
LINE
8
BLACK
6
CONTINUOUS
10
6.34308
20
-3.54259
11
6.34319
21
-3.5425
0
LINE
8
BLACK
6
CONTINUOUS
10
6.34319
20
-3.5425
11
6.34444
21
-3.54219
0
LINE
8
BLACK
6
CONTINUOUS
10
6.34444
20
-3.54219
11
6.34567
21
-3.54183
0
LINE
8
BLACK
6
CONTINUOUS
10
6.34567
20
-3.54183
11
6.42497
21
-3.54183
0
LINE
8
BLACK
6
CONTINUOUS
10
6.42497
20
-3.54183
11
6.42563
21
-3.5378
0
LINE
8
BLACK
6
CONTINUOUS
10
6.42563
20
-3.5378
11
6.42831
21
-3.53108
0
LINE
8
BLACK
6
CONTINUOUS
10
6.42831
20
-3.53108
11
6.43237
21
-3.52509
0
LINE
8
BLACK
6
CONTINUOUS
10
6.43237
20
-3.52509
11
6.43762
21
-3.52011
0
LINE
8
BLACK
6
CONTINUOUS
10
6.43762
20
-3.52011
11
6.44382
21
-3.51638
0
LINE
8
BLACK
6
CONTINUOUS
10
6.44382
20
-3.51638
11
6.45068
21
-3.51407
0
LINE
8
BLACK
6
CONTINUOUS
10
6.45068
20
-3.51407
11
6.45787
21
-3.51329
0
LINE
8
BLACK
6
CONTINUOUS
10
6.45787
20
-3.51329
11
6.46969
21
-3.51329
0
LINE
8
BLACK
6
CONTINUOUS
10
6.46969
20
-3.51329
11
6.4733
21
-3.51348
0
LINE
8
BLACK
6
CONTINUOUS
10
6.4733
20
-3.66112
11
6.48037
21
-3.66268
0
LINE
8
BLACK
6
CONTINUOUS
10
6.48037
20
-3.66268
11
6.48694
21
-3.66572
0
LINE
8
BLACK
6
CONTINUOUS
10
6.48694
20
-3.66572
11
6.4927
21
-3.67009
0
LINE
8
BLACK
6
CONTINUOUS
10
6.4927
20
-3.67009
11
6.49738
21
-3.67561
0
LINE
8
BLACK
6
CONTINUOUS
10
6.49738
20
-3.67561
11
6.50077
21
-3.682
0
LINE
8
BLACK
6
CONTINUOUS
10
6.50077
20
-3.682
11
6.50271
21
-3.68898
0
LINE
8
BLACK
6
CONTINUOUS
10
6.50271
20
-3.68898
11
6.5031
21
-3.6962
0
LINE
8
BLACK
6
CONTINUOUS
10
6.5031
20
-3.6962
11
6.50193
21
-3.70334
0
LINE
8
BLACK
6
CONTINUOUS
10
6.50193
20
-3.70334
11
6.49925
21
-3.71006
0
LINE
8
BLACK
6
CONTINUOUS
10
6.49925
20
-3.71006
11
6.49519
21
-3.71605
0
LINE
8
BLACK
6
CONTINUOUS
10
6.49519
20
-3.71605
11
6.48994
21
-3.72103
0
LINE
8
BLACK
6
CONTINUOUS
10
6.48994
20
-3.72103
11
6.48374
21
-3.72476
0
LINE
8
BLACK
6
CONTINUOUS
10
6.48374
20
-3.72476
11
6.47688
21
-3.72707
0
LINE
8
BLACK
6
CONTINUOUS
10
6.47688
20
-3.72707
11
6.46969
21
-3.72785
0
LINE
8
BLACK
6
CONTINUOUS
10
6.46969
20
-3.72785
11
6.45787
21
-3.72785
0
LINE
8
BLACK
6
CONTINUOUS
10
6.45787
20
-3.72785
11
6.45426
21
-3.72766
0
LINE
8
BLACK
6
CONTINUOUS
10
6.45426
20
-3.72766
11
6.44719
21
-3.7261
0
LINE
8
BLACK
6
CONTINUOUS
10
6.44719
20
-3.7261
11
6.44062
21
-3.72306
0
LINE
8
BLACK
6
CONTINUOUS
10
6.44062
20
-3.72306
11
6.43486
21
-3.71868
0
LINE
8
BLACK
6
CONTINUOUS
10
6.43486
20
-3.71868
11
6.43018
21
-3.71317
0
LINE
8
BLACK
6
CONTINUOUS
10
6.43018
20
-3.71317
11
6.42679
21
-3.70678
0
LINE
8
BLACK
6
CONTINUOUS
10
6.42679
20
-3.70678
11
6.42485
21
-3.6998
0
LINE
8
BLACK
6
CONTINUOUS
10
6.42485
20
-3.6998
11
6.42482
21
-3.69931
0
LINE
8
BLACK
6
CONTINUOUS
10
6.42482
20
-3.69931
11
6.36699
21
-3.69931
0
LINE
8
BLACK
6
CONTINUOUS
10
6.36699
20
-3.69931
11
6.28957
21
-3.75738
0
LINE
8
BLACK
6
CONTINUOUS
10
6.28957
20
-3.75738
11
6.28935
21
-3.7575
0
LINE
8
BLACK
6
CONTINUOUS
10
6.28935
20
-3.7575
11
6.28927
21
-3.75758
0
LINE
8
BLACK
6
CONTINUOUS
10
6.28927
20
-3.75758
11
6.2891
21
-3.75763
0
LINE
8
BLACK
6
CONTINUOUS
10
6.2891
20
-3.75763
11
6.28834
21
-3.75805
0
LINE
8
BLACK
6
CONTINUOUS
10
6.28834
20
-3.75805
11
6.28746
21
-3.75812
0
LINE
8
BLACK
6
CONTINUOUS
10
6.28746
20
-3.75812
11
6.28661
21
-3.75837
0
LINE
8
BLACK
6
CONTINUOUS
10
6.28661
20
-3.75837
11
6.06428
21
-3.75837
0
LINE
8
BLACK
6
CONTINUOUS
10
6.06428
20
-3.75837
11
6.06428
21
-3.75846
0
LINE
8
BLACK
6
CONTINUOUS
10
6.06428
20
-3.75846
11
6.02647
21
-3.75846
0
LINE
8
BLACK
6
CONTINUOUS
10
6.02647
20
-3.75846
11
6.02647
21
-3.74843
0
LINE
8
BLACK
6
CONTINUOUS
10
6.02647
20
-3.74843
11
6.06428
21
-3.74843
0
LINE
8
BLACK
6
CONTINUOUS
10
6.06428
20
-3.74843
11
6.06428
21
-3.74852
0
LINE
8
BLACK
6
CONTINUOUS
10
6.06428
20
-3.74852
11
6.28497
21
-3.74852
0
LINE
8
BLACK
6
CONTINUOUS
10
6.28497
20
-3.74852
11
6.3624
21
-3.69045
0
LINE
8
BLACK
6
CONTINUOUS
10
6.3624
20
-3.69045
11
6.36262
21
-3.69033
0
LINE
8
BLACK
6
CONTINUOUS
10
6.36262
20
-3.69033
11
6.36269
21
-3.69025
0
LINE
8
BLACK
6
CONTINUOUS
10
6.36269
20
-3.69025
11
6.36286
21
-3.6902
0
LINE
8
BLACK
6
CONTINUOUS
10
6.36286
20
-3.6902
11
6.36363
21
-3.68978
0
LINE
8
BLACK
6
CONTINUOUS
10
6.36363
20
-3.68978
11
6.36451
21
-3.68972
0
LINE
8
BLACK
6
CONTINUOUS
10
6.36451
20
-3.68972
11
6.36535
21
-3.68947
0
LINE
8
BLACK
6
CONTINUOUS
10
6.36535
20
-3.68947
11
6.42497
21
-3.68947
0
LINE
8
BLACK
6
CONTINUOUS
10
6.42497
20
-3.68947
11
6.42563
21
-3.68544
0
LINE
8
BLACK
6
CONTINUOUS
10
6.42563
20
-3.68544
11
6.42831
21
-3.67871
0
LINE
8
BLACK
6
CONTINUOUS
10
6.42831
20
-3.67871
11
6.43237
21
-3.67273
0
LINE
8
BLACK
6
CONTINUOUS
10
6.43237
20
-3.67273
11
6.43762
21
-3.66775
0
LINE
8
BLACK
6
CONTINUOUS
10
6.43762
20
-3.66775
11
6.44382
21
-3.66402
0
LINE
8
BLACK
6
CONTINUOUS
10
6.44382
20
-3.66402
11
6.45068
21
-3.66171
0
LINE
8
BLACK
6
CONTINUOUS
10
6.45068
20
-3.66171
11
6.45787
21
-3.66093
0
LINE
8
BLACK
6
CONTINUOUS
10
6.45787
20
-3.66093
11
6.46969
21
-3.66093
0
LINE
8
BLACK
6
CONTINUOUS
10
6.46969
20
-3.66093
11
6.4733
21
-3.66112
0
LINE
8
BLACK
6
CONTINUOUS
10
5.45244
20
-3.45886
11
5.4595
21
-3.46041
0
LINE
8
BLACK
6
CONTINUOUS
10
5.4595
20
-3.46041
11
5.46607
21
-3.46345
0
LINE
8
BLACK
6
CONTINUOUS
10
5.46607
20
-3.46345
11
5.47183
21
-3.46783
0
LINE
8
BLACK
6
CONTINUOUS
10
5.47183
20
-3.46783
11
5.47652
21
-3.47335
0
LINE
8
BLACK
6
CONTINUOUS
10
5.47652
20
-3.47335
11
5.47991
21
-3.47974
0
LINE
8
BLACK
6
CONTINUOUS
10
5.47991
20
-3.47974
11
5.48184
21
-3.48671
0
LINE
8
BLACK
6
CONTINUOUS
10
5.48184
20
-3.48671
11
5.48187
21
-3.4872
0
LINE
8
BLACK
6
CONTINUOUS
10
5.48187
20
-3.4872
11
5.50197
21
-3.4872
0
LINE
8
BLACK
6
CONTINUOUS
10
5.50197
20
-3.4872
11
5.50284
21
-3.48733
0
LINE
8
BLACK
6
CONTINUOUS
10
5.50284
20
-3.48733
11
5.50301
21
-3.48732
0
LINE
8
BLACK
6
CONTINUOUS
10
5.50301
20
-3.48732
11
5.50311
21
-3.48737
0
LINE
8
BLACK
6
CONTINUOUS
10
5.50311
20
-3.48737
11
5.50335
21
-3.4874
0
LINE
8
BLACK
6
CONTINUOUS
10
5.50335
20
-3.4874
11
5.50438
21
-3.48806
0
LINE
8
BLACK
6
CONTINUOUS
10
5.50438
20
-3.48806
11
5.50545
21
-3.48865
0
LINE
8
BLACK
6
CONTINUOUS
10
5.50545
20
-3.48865
11
5.74564
21
-3.72884
0
LINE
8
BLACK
6
CONTINUOUS
10
5.74564
20
-3.72884
11
5.83966
21
-3.72884
0
LINE
8
BLACK
6
CONTINUOUS
10
5.83966
20
-3.72884
11
5.83966
21
-3.72874
0
LINE
8
BLACK
6
CONTINUOUS
10
5.83966
20
-3.72874
11
5.87747
21
-3.72874
0
LINE
8
BLACK
6
CONTINUOUS
10
5.87747
20
-3.72874
11
5.87747
21
-3.73878
0
LINE
8
BLACK
6
CONTINUOUS
10
5.87747
20
-3.73878
11
5.83966
21
-3.73878
0
LINE
8
BLACK
6
CONTINUOUS
10
5.83966
20
-3.73878
11
5.83966
21
-3.73868
0
LINE
8
BLACK
6
CONTINUOUS
10
5.83966
20
-3.73868
11
5.7436
21
-3.73868
0
LINE
8
BLACK
6
CONTINUOUS
10
5.7436
20
-3.73868
11
5.74273
21
-3.73856
0
LINE
8
BLACK
6
CONTINUOUS
10
5.74273
20
-3.73856
11
5.74256
21
-3.73857
0
LINE
8
BLACK
6
CONTINUOUS
10
5.74256
20
-3.73857
11
5.74246
21
-3.73852
0
LINE
8
BLACK
6
CONTINUOUS
10
5.74246
20
-3.73852
11
5.74222
21
-3.73848
0
LINE
8
BLACK
6
CONTINUOUS
10
5.74222
20
-3.73848
11
5.74119
21
-3.73782
0
LINE
8
BLACK
6
CONTINUOUS
10
5.74119
20
-3.73782
11
5.74012
21
-3.73724
0
LINE
8
BLACK
6
CONTINUOUS
10
5.74012
20
-3.73724
11
5.49993
21
-3.49705
0
LINE
8
BLACK
6
CONTINUOUS
10
5.49993
20
-3.49705
11
5.48172
21
-3.49705
0
LINE
8
BLACK
6
CONTINUOUS
10
5.48172
20
-3.49705
11
5.48106
21
-3.50108
0
LINE
8
BLACK
6
CONTINUOUS
10
5.48106
20
-3.50108
11
5.47839
21
-3.5078
0
LINE
8
BLACK
6
CONTINUOUS
10
5.47839
20
-3.5078
11
5.47432
21
-3.51379
0
LINE
8
BLACK
6
CONTINUOUS
10
5.47432
20
-3.51379
11
5.46907
21
-3.51877
0
LINE
8
BLACK
6
CONTINUOUS
10
5.46907
20
-3.51877
11
5.46287
21
-3.5225
0
LINE
8
BLACK
6
CONTINUOUS
10
5.46287
20
-3.5225
11
5.45601
21
-3.52481
0
LINE
8
BLACK
6
CONTINUOUS
10
5.45601
20
-3.52481
11
5.44882
21
-3.52559
0
LINE
8
BLACK
6
CONTINUOUS
10
5.44882
20
-3.52559
11
5.43701
21
-3.52559
0
LINE
8
BLACK
6
CONTINUOUS
10
5.43701
20
-3.52559
11
5.43339
21
-3.52539
0
LINE
8
BLACK
6
CONTINUOUS
10
5.43339
20
-3.52539
11
5.42632
21
-3.52384
0
LINE
8
BLACK
6
CONTINUOUS
10
5.42632
20
-3.52384
11
5.41976
21
-3.5208
0
LINE
8
BLACK
6
CONTINUOUS
10
5.41976
20
-3.5208
11
5.41399
21
-3.51642
0
LINE
8
BLACK
6
CONTINUOUS
10
5.41399
20
-3.51642
11
5.40931
21
-3.51091
0
LINE
8
BLACK
6
CONTINUOUS
10
5.40931
20
-3.51091
11
5.40592
21
-3.50451
0
LINE
8
BLACK
6
CONTINUOUS
10
5.40592
20
-3.50451
11
5.40398
21
-3.49754
0
LINE
8
BLACK
6
CONTINUOUS
10
5.40398
20
-3.49754
11
5.40359
21
-3.49031
0
LINE
8
BLACK
6
CONTINUOUS
10
5.40359
20
-3.49031
11
5.40476
21
-3.48317
0
LINE
8
BLACK
6
CONTINUOUS
10
5.40476
20
-3.48317
11
5.40744
21
-3.47645
0
LINE
8
BLACK
6
CONTINUOUS
10
5.40744
20
-3.47645
11
5.4115
21
-3.47046
0
LINE
8
BLACK
6
CONTINUOUS
10
5.4115
20
-3.47046
11
5.41676
21
-3.46549
0
LINE
8
BLACK
6
CONTINUOUS
10
5.41676
20
-3.46549
11
5.42296
21
-3.46175
0
LINE
8
BLACK
6
CONTINUOUS
10
5.42296
20
-3.46175
11
5.42981
21
-3.45944
0
LINE
8
BLACK
6
CONTINUOUS
10
5.42981
20
-3.45944
11
5.43701
21
-3.45866
0
LINE
8
BLACK
6
CONTINUOUS
10
5.43701
20
-3.45866
11
5.44882
21
-3.45866
0
LINE
8
BLACK
6
CONTINUOUS
10
5.44882
20
-3.45866
11
5.45244
21
-3.45886
0
LINE
8
BLACK
6
CONTINUOUS
10
5.45244
20
-3.11634
11
5.4595
21
-3.11789
0
LINE
8
BLACK
6
CONTINUOUS
10
5.4595
20
-3.11789
11
5.46607
21
-3.12093
0
LINE
8
BLACK
6
CONTINUOUS
10
5.46607
20
-3.12093
11
5.47183
21
-3.12531
0
LINE
8
BLACK
6
CONTINUOUS
10
5.47183
20
-3.12531
11
5.47652
21
-3.13083
0
LINE
8
BLACK
6
CONTINUOUS
10
5.47652
20
-3.13083
11
5.47991
21
-3.13722
0
LINE
8
BLACK
6
CONTINUOUS
10
5.47991
20
-3.13722
11
5.48184
21
-3.14419
0
LINE
8
BLACK
6
CONTINUOUS
10
5.48184
20
-3.14419
11
5.48187
21
-3.14469
0
LINE
8
BLACK
6
CONTINUOUS
10
5.48187
20
-3.14469
11
5.52362
21
-3.14469
0
LINE
8
BLACK
6
CONTINUOUS
10
5.52362
20
-3.14469
11
5.52449
21
-3.14481
0
LINE
8
BLACK
6
CONTINUOUS
10
5.52449
20
-3.14481
11
5.52467
21
-3.1448
0
LINE
8
BLACK
6
CONTINUOUS
10
5.52467
20
-3.1448
11
5.52476
21
-3.14485
0
LINE
8
BLACK
6
CONTINUOUS
10
5.52476
20
-3.14485
11
5.52501
21
-3.14488
0
LINE
8
BLACK
6
CONTINUOUS
10
5.52501
20
-3.14488
11
5.52603
21
-3.14554
0
LINE
8
BLACK
6
CONTINUOUS
10
5.52603
20
-3.14554
11
5.5271
21
-3.14613
0
LINE
8
BLACK
6
CONTINUOUS
10
5.5271
20
-3.14613
11
5.89639
21
-3.51542
0
LINE
8
BLACK
6
CONTINUOUS
10
5.89639
20
-3.51542
11
5.89692
21
-3.51612
0
LINE
8
BLACK
6
CONTINUOUS
10
5.89692
20
-3.51612
11
5.89705
21
-3.51624
0
LINE
8
BLACK
6
CONTINUOUS
10
5.89705
20
-3.51624
11
5.89708
21
-3.51634
0
LINE
8
BLACK
6
CONTINUOUS
10
5.89708
20
-3.51634
11
5.89723
21
-3.51654
0
LINE
8
BLACK
6
CONTINUOUS
10
5.89723
20
-3.51654
11
5.89749
21
-3.51773
0
LINE
8
BLACK
6
CONTINUOUS
10
5.89749
20
-3.51773
11
5.89783
21
-3.5189
0
LINE
8
BLACK
6
CONTINUOUS
10
5.89783
20
-3.5189
11
5.89783
21
-3.66082
0
LINE
8
BLACK
6
CONTINUOUS
10
5.89783
20
-3.66082
11
5.89793
21
-3.66082
0
LINE
8
BLACK
6
CONTINUOUS
10
5.89793
20
-3.66082
11
5.89793
21
-3.69863
0
LINE
8
BLACK
6
CONTINUOUS
10
5.89793
20
-3.69863
11
5.8879
21
-3.69863
0
LINE
8
BLACK
6
CONTINUOUS
10
5.8879
20
-3.69863
11
5.8879
21
-3.66082
0
LINE
8
BLACK
6
CONTINUOUS
10
5.8879
20
-3.66082
11
5.88799
21
-3.66082
0
LINE
8
BLACK
6
CONTINUOUS
10
5.88799
20
-3.66082
11
5.88799
21
-3.52094
0
LINE
8
BLACK
6
CONTINUOUS
10
5.88799
20
-3.52094
11
5.52158
21
-3.15453
0
LINE
8
BLACK
6
CONTINUOUS
10
5.52158
20
-3.15453
11
5.48172
21
-3.15453
0
LINE
8
BLACK
6
CONTINUOUS
10
5.48172
20
-3.15453
11
5.48106
21
-3.15856
0
LINE
8
BLACK
6
CONTINUOUS
10
5.48106
20
-3.15856
11
5.47839
21
-3.16528
0
LINE
8
BLACK
6
CONTINUOUS
10
5.47839
20
-3.16528
11
5.47432
21
-3.17127
0
LINE
8
BLACK
6
CONTINUOUS
10
5.47432
20
-3.17127
11
5.46907
21
-3.17625
0
LINE
8
BLACK
6
CONTINUOUS
10
5.46907
20
-3.17625
11
5.46287
21
-3.17998
0
LINE
8
BLACK
6
CONTINUOUS
10
5.46287
20
-3.17998
11
5.45601
21
-3.18229
0
LINE
8
BLACK
6
CONTINUOUS
10
5.45601
20
-3.18229
11
5.44882
21
-3.18307
0
LINE
8
BLACK
6
CONTINUOUS
10
5.44882
20
-3.18307
11
5.43701
21
-3.18307
0
LINE
8
BLACK
6
CONTINUOUS
10
5.43701
20
-3.18307
11
5.43339
21
-3.18287
0
LINE
8
BLACK
6
CONTINUOUS
10
5.43339
20
-3.18287
11
5.42632
21
-3.18132
0
LINE
8
BLACK
6
CONTINUOUS
10
5.42632
20
-3.18132
11
5.41976
21
-3.17828
0
LINE
8
BLACK
6
CONTINUOUS
10
5.41976
20
-3.17828
11
5.41399
21
-3.1739
0
LINE
8
BLACK
6
CONTINUOUS
10
5.41399
20
-3.1739
11
5.40931
21
-3.16839
0
LINE
8
BLACK
6
CONTINUOUS
10
5.40931
20
-3.16839
11
5.40592
21
-3.16199
0
LINE
8
BLACK
6
CONTINUOUS
10
5.40592
20
-3.16199
11
5.40398
21
-3.15502
0
LINE
8
BLACK
6
CONTINUOUS
10
5.40398
20
-3.15502
11
5.40359
21
-3.14779
0
LINE
8
BLACK
6
CONTINUOUS
10
5.40359
20
-3.14779
11
5.40476
21
-3.14065
0
LINE
8
BLACK
6
CONTINUOUS
10
5.40476
20
-3.14065
11
5.40744
21
-3.13393
0
LINE
8
BLACK
6
CONTINUOUS
10
5.40744
20
-3.13393
11
5.4115
21
-3.12794
0
LINE
8
BLACK
6
CONTINUOUS
10
5.4115
20
-3.12794
11
5.41676
21
-3.12297
0
LINE
8
BLACK
6
CONTINUOUS
10
5.41676
20
-3.12297
11
5.42296
21
-3.11923
0
LINE
8
BLACK
6
CONTINUOUS
10
5.42296
20
-3.11923
11
5.42981
21
-3.11692
0
LINE
8
BLACK
6
CONTINUOUS
10
5.42981
20
-3.11692
11
5.43701
21
-3.11614
0
LINE
8
BLACK
6
CONTINUOUS
10
5.43701
20
-3.11614
11
5.44882
21
-3.11614
0
LINE
8
BLACK
6
CONTINUOUS
10
5.44882
20
-3.11614
11
5.45244
21
-3.11634
0
LINE
8
BLACK
6
CONTINUOUS
10
5.61525
20
-2.9461
11
5.62197
21
-2.94878
0
LINE
8
BLACK
6
CONTINUOUS
10
5.62197
20
-2.94878
11
5.62796
21
-2.95284
0
LINE
8
BLACK
6
CONTINUOUS
10
5.62796
20
-2.95284
11
5.63294
21
-2.95809
0
LINE
8
BLACK
6
CONTINUOUS
10
5.63294
20
-2.95809
11
5.63667
21
-2.9643
0
LINE
8
BLACK
6
CONTINUOUS
10
5.63667
20
-2.9643
11
5.63898
21
-2.97115
0
LINE
8
BLACK
6
CONTINUOUS
10
5.63898
20
-2.97115
11
5.63976
21
-2.97835
0
LINE
8
BLACK
6
CONTINUOUS
10
5.63976
20
-2.97835
11
5.63976
21
-2.99016
0
LINE
8
BLACK
6
CONTINUOUS
10
5.63976
20
-2.99016
11
5.63957
21
-2.99378
0
LINE
8
BLACK
6
CONTINUOUS
10
5.63957
20
-2.99378
11
5.63801
21
-3.00084
0
LINE
8
BLACK
6
CONTINUOUS
10
5.63801
20
-3.00084
11
5.63497
21
-3.00741
0
LINE
8
BLACK
6
CONTINUOUS
10
5.63497
20
-3.00741
11
5.63059
21
-3.01317
0
LINE
8
BLACK
6
CONTINUOUS
10
5.63059
20
-3.01317
11
5.62508
21
-3.01786
0
LINE
8
BLACK
6
CONTINUOUS
10
5.62508
20
-3.01786
11
5.61869
21
-3.02125
0
LINE
8
BLACK
6
CONTINUOUS
10
5.61869
20
-3.02125
11
5.61171
21
-3.02318
0
LINE
8
BLACK
6
CONTINUOUS
10
5.61171
20
-3.02318
11
5.61122
21
-3.02321
0
LINE
8
BLACK
6
CONTINUOUS
10
5.61122
20
-3.02321
11
5.61122
21
-3.16528
0
LINE
8
BLACK
6
CONTINUOUS
10
5.61122
20
-3.16528
11
5.91608
21
-3.47014
0
LINE
8
BLACK
6
CONTINUOUS
10
5.91608
20
-3.47014
11
5.9166
21
-3.47085
0
LINE
8
BLACK
6
CONTINUOUS
10
5.9166
20
-3.47085
11
5.91674
21
-3.47096
0
LINE
8
BLACK
6
CONTINUOUS
10
5.91674
20
-3.47096
11
5.91677
21
-3.47106
0
LINE
8
BLACK
6
CONTINUOUS
10
5.91677
20
-3.47106
11
5.91692
21
-3.47126
0
LINE
8
BLACK
6
CONTINUOUS
10
5.91692
20
-3.47126
11
5.91718
21
-3.47245
0
LINE
8
BLACK
6
CONTINUOUS
10
5.91718
20
-3.47245
11
5.91752
21
-3.47362
0
LINE
8
BLACK
6
CONTINUOUS
10
5.91752
20
-3.47362
11
5.91752
21
-3.66082
0
LINE
8
BLACK
6
CONTINUOUS
10
5.91752
20
-3.66082
11
5.91761
21
-3.66082
0
LINE
8
BLACK
6
CONTINUOUS
10
5.91761
20
-3.66082
11
5.91761
21
-3.69863
0
LINE
8
BLACK
6
CONTINUOUS
10
5.91761
20
-3.69863
11
5.90758
21
-3.69863
0
LINE
8
BLACK
6
CONTINUOUS
10
5.90758
20
-3.69863
11
5.90758
21
-3.66082
0
LINE
8
BLACK
6
CONTINUOUS
10
5.90758
20
-3.66082
11
5.90768
21
-3.66082
0
LINE
8
BLACK
6
CONTINUOUS
10
5.90768
20
-3.66082
11
5.90768
21
-3.47566
0
LINE
8
BLACK
6
CONTINUOUS
10
5.90768
20
-3.47566
11
5.60282
21
-3.1708
0
LINE
8
BLACK
6
CONTINUOUS
10
5.60282
20
-3.1708
11
5.60229
21
-3.1701
0
LINE
8
BLACK
6
CONTINUOUS
10
5.60229
20
-3.1701
11
5.60216
21
-3.16998
0
LINE
8
BLACK
6
CONTINUOUS
10
5.60216
20
-3.16998
11
5.60213
21
-3.16988
0
LINE
8
BLACK
6
CONTINUOUS
10
5.60213
20
-3.16988
11
5.60198
21
-3.16968
0
LINE
8
BLACK
6
CONTINUOUS
10
5.60198
20
-3.16968
11
5.60172
21
-3.16849
0
LINE
8
BLACK
6
CONTINUOUS
10
5.60172
20
-3.16849
11
5.60138
21
-3.16732
0
LINE
8
BLACK
6
CONTINUOUS
10
5.60138
20
-3.16732
11
5.60138
21
-3.02306
0
LINE
8
BLACK
6
CONTINUOUS
10
5.60138
20
-3.02306
11
5.59735
21
-3.0224
0
LINE
8
BLACK
6
CONTINUOUS
10
5.59735
20
-3.0224
11
5.59062
21
-3.01972
0
LINE
8
BLACK
6
CONTINUOUS
10
5.59062
20
-3.01972
11
5.58463
21
-3.01566
0
LINE
8
BLACK
6
CONTINUOUS
10
5.58463
20
-3.01566
11
5.57966
21
-3.01041
0
LINE
8
BLACK
6
CONTINUOUS
10
5.57966
20
-3.01041
11
5.57593
21
-3.00421
0
LINE
8
BLACK
6
CONTINUOUS
10
5.57593
20
-3.00421
11
5.57362
21
-2.99735
0
LINE
8
BLACK
6
CONTINUOUS
10
5.57362
20
-2.99735
11
5.57283
21
-2.99016
0
LINE
8
BLACK
6
CONTINUOUS
10
5.57283
20
-2.99016
11
5.57283
21
-2.97835
0
LINE
8
BLACK
6
CONTINUOUS
10
5.57283
20
-2.97835
11
5.57303
21
-2.97473
0
LINE
8
BLACK
6
CONTINUOUS
10
5.57303
20
-2.97473
11
5.57459
21
-2.96766
0
LINE
8
BLACK
6
CONTINUOUS
10
5.57459
20
-2.96766
11
5.57762
21
-2.96109
0
LINE
8
BLACK
6
CONTINUOUS
10
5.57762
20
-2.96109
11
5.582
21
-2.95533
0
LINE
8
BLACK
6
CONTINUOUS
10
5.582
20
-2.95533
11
5.58752
21
-2.95065
0
LINE
8
BLACK
6
CONTINUOUS
10
5.58752
20
-2.95065
11
5.59391
21
-2.94726
0
LINE
8
BLACK
6
CONTINUOUS
10
5.59391
20
-2.94726
11
5.60089
21
-2.94532
0
LINE
8
BLACK
6
CONTINUOUS
10
5.60089
20
-2.94532
11
5.60811
21
-2.94493
0
LINE
8
BLACK
6
CONTINUOUS
10
5.60811
20
-2.94493
11
5.61525
21
-2.9461
0
LINE
8
BLACK
6
CONTINUOUS
10
5.79045
20
-2.9461
11
5.79717
21
-2.94878
0
LINE
8
BLACK
6
CONTINUOUS
10
5.79717
20
-2.94878
11
5.80316
21
-2.95284
0
LINE
8
BLACK
6
CONTINUOUS
10
5.80316
20
-2.95284
11
5.80814
21
-2.95809
0
LINE
8
BLACK
6
CONTINUOUS
10
5.80814
20
-2.95809
11
5.81187
21
-2.9643
0
LINE
8
BLACK
6
CONTINUOUS
10
5.81187
20
-2.9643
11
5.81418
21
-2.97115
0
LINE
8
BLACK
6
CONTINUOUS
10
5.81418
20
-2.97115
11
5.81496
21
-2.97835
0
LINE
8
BLACK
6
CONTINUOUS
10
5.81496
20
-2.97835
11
5.81496
21
-2.99016
0
LINE
8
BLACK
6
CONTINUOUS
10
5.81496
20
-2.99016
11
5.81476
21
-2.99378
0
LINE
8
BLACK
6
CONTINUOUS
10
5.81476
20
-2.99378
11
5.81321
21
-3.00084
0
LINE
8
BLACK
6
CONTINUOUS
10
5.81321
20
-3.00084
11
5.81017
21
-3.00741
0
LINE
8
BLACK
6
CONTINUOUS
10
5.81017
20
-3.00741
11
5.80579
21
-3.01317
0
LINE
8
BLACK
6
CONTINUOUS
10
5.80579
20
-3.01317
11
5.80028
21
-3.01786
0
LINE
8
BLACK
6
CONTINUOUS
10
5.80028
20
-3.01786
11
5.79388
21
-3.02125
0
LINE
8
BLACK
6
CONTINUOUS
10
5.79388
20
-3.02125
11
5.78691
21
-3.02318
0
LINE
8
BLACK
6
CONTINUOUS
10
5.78691
20
-3.02318
11
5.78642
21
-3.02321
0
LINE
8
BLACK
6
CONTINUOUS
10
5.78642
20
-3.02321
11
5.78642
21
-3.26174
0
LINE
8
BLACK
6
CONTINUOUS
10
5.78642
20
-3.26174
11
5.93576
21
-3.41109
0
LINE
8
BLACK
6
CONTINUOUS
10
5.93576
20
-3.41109
11
5.93629
21
-3.41179
0
LINE
8
BLACK
6
CONTINUOUS
10
5.93629
20
-3.41179
11
5.93642
21
-3.41191
0
LINE
8
BLACK
6
CONTINUOUS
10
5.93642
20
-3.41191
11
5.93645
21
-3.41201
0
LINE
8
BLACK
6
CONTINUOUS
10
5.93645
20
-3.41201
11
5.9366
21
-3.41221
0
LINE
8
BLACK
6
CONTINUOUS
10
5.9366
20
-3.41221
11
5.93686
21
-3.4134
0
LINE
8
BLACK
6
CONTINUOUS
10
5.93686
20
-3.4134
11
5.9372
21
-3.41457
0
LINE
8
BLACK
6
CONTINUOUS
10
5.9372
20
-3.41457
11
5.9372
21
-3.66082
0
LINE
8
BLACK
6
CONTINUOUS
10
5.9372
20
-3.66082
11
5.9373
21
-3.66082
0
LINE
8
BLACK
6
CONTINUOUS
10
5.9373
20
-3.66082
11
5.9373
21
-3.69863
0
LINE
8
BLACK
6
CONTINUOUS
10
5.9373
20
-3.69863
11
5.92727
21
-3.69863
0
LINE
8
BLACK
6
CONTINUOUS
10
5.92727
20
-3.69863
11
5.92727
21
-3.66082
0
LINE
8
BLACK
6
CONTINUOUS
10
5.92727
20
-3.66082
11
5.92736
21
-3.66082
0
LINE
8
BLACK
6
CONTINUOUS
10
5.92736
20
-3.66082
11
5.92736
21
-3.41661
0
LINE
8
BLACK
6
CONTINUOUS
10
5.92736
20
-3.41661
11
5.77802
21
-3.26726
0
LINE
8
BLACK
6
CONTINUOUS
10
5.77802
20
-3.26726
11
5.77749
21
-3.26656
0
LINE
8
BLACK
6
CONTINUOUS
10
5.77749
20
-3.26656
11
5.77736
21
-3.26644
0
LINE
8
BLACK
6
CONTINUOUS
10
5.77736
20
-3.26644
11
5.77733
21
-3.26634
0
LINE
8
BLACK
6
CONTINUOUS
10
5.77733
20
-3.26634
11
5.77718
21
-3.26614
0
LINE
8
BLACK
6
CONTINUOUS
10
5.77718
20
-3.26614
11
5.77692
21
-3.26495
0
LINE
8
BLACK
6
CONTINUOUS
10
5.77692
20
-3.26495
11
5.77657
21
-3.26378
0
LINE
8
BLACK
6
CONTINUOUS
10
5.77657
20
-3.26378
11
5.77657
21
-3.02306
0
LINE
8
BLACK
6
CONTINUOUS
10
5.77657
20
-3.02306
11
5.77254
21
-3.0224
0
LINE
8
BLACK
6
CONTINUOUS
10
5.77254
20
-3.0224
11
5.76582
21
-3.01972
0
LINE
8
BLACK
6
CONTINUOUS
10
5.76582
20
-3.01972
11
5.75983
21
-3.01566
0
LINE
8
BLACK
6
CONTINUOUS
10
5.75983
20
-3.01566
11
5.75486
21
-3.01041
0
LINE
8
BLACK
6
CONTINUOUS
10
5.75486
20
-3.01041
11
5.75112
21
-3.00421
0
LINE
8
BLACK
6
CONTINUOUS
10
5.75112
20
-3.00421
11
5.74881
21
-2.99735
0
LINE
8
BLACK
6
CONTINUOUS
10
5.74881
20
-2.99735
11
5.74803
21
-2.99016
0
LINE
8
BLACK
6
CONTINUOUS
10
5.74803
20
-2.99016
11
5.74803
21
-2.97835
0
LINE
8
BLACK
6
CONTINUOUS
10
5.74803
20
-2.97835
11
5.74823
21
-2.97473
0
LINE
8
BLACK
6
CONTINUOUS
10
5.74823
20
-2.97473
11
5.74978
21
-2.96766
0
LINE
8
BLACK
6
CONTINUOUS
10
5.74978
20
-2.96766
11
5.75282
21
-2.96109
0
LINE
8
BLACK
6
CONTINUOUS
10
5.75282
20
-2.96109
11
5.7572
21
-2.95533
0
LINE
8
BLACK
6
CONTINUOUS
10
5.7572
20
-2.95533
11
5.76272
21
-2.95065
0
LINE
8
BLACK
6
CONTINUOUS
10
5.76272
20
-2.95065
11
5.76911
21
-2.94726
0
LINE
8
BLACK
6
CONTINUOUS
10
5.76911
20
-2.94726
11
5.77608
21
-2.94532
0
LINE
8
BLACK
6
CONTINUOUS
10
5.77608
20
-2.94532
11
5.78331
21
-2.94493
0
LINE
8
BLACK
6
CONTINUOUS
10
5.78331
20
-2.94493
11
5.79045
21
-2.9461
0
LINE
8
BLACK
6
CONTINUOUS
10
5.96092
20
-2.94758
11
5.96764
21
-2.95026
0
LINE
8
BLACK
6
CONTINUOUS
10
5.96764
20
-2.95026
11
5.97363
21
-2.95432
0
LINE
8
BLACK
6
CONTINUOUS
10
5.97363
20
-2.95432
11
5.97861
21
-2.95957
0
LINE
8
BLACK
6
CONTINUOUS
10
5.97861
20
-2.95957
11
5.98234
21
-2.96577
0
LINE
8
BLACK
6
CONTINUOUS
10
5.98234
20
-2.96577
11
5.98465
21
-2.97263
0
LINE
8
BLACK
6
CONTINUOUS
10
5.98465
20
-2.97263
11
5.98543
21
-2.97982
0
LINE
8
BLACK
6
CONTINUOUS
10
5.98543
20
-2.97982
11
5.98543
21
-2.99163
0
LINE
8
BLACK
6
CONTINUOUS
10
5.98543
20
-2.99163
11
5.98524
21
-2.99525
0
LINE
8
BLACK
6
CONTINUOUS
10
5.98524
20
-2.99525
11
5.98368
21
-3.00232
0
LINE
8
BLACK
6
CONTINUOUS
10
5.98368
20
-3.00232
11
5.98064
21
-3.00889
0
LINE
8
BLACK
6
CONTINUOUS
10
5.98064
20
-3.00889
11
5.97626
21
-3.01465
0
LINE
8
BLACK
6
CONTINUOUS
10
5.97626
20
-3.01465
11
5.97075
21
-3.01933
0
LINE
8
BLACK
6
CONTINUOUS
10
5.97075
20
-3.01933
11
5.96436
21
-3.02272
0
LINE
8
BLACK
6
CONTINUOUS
10
5.96436
20
-3.02272
11
5.95738
21
-3.02466
0
LINE
8
BLACK
6
CONTINUOUS
10
5.95738
20
-3.02466
11
5.95689
21
-3.02468
0
LINE
8
BLACK
6
CONTINUOUS
10
5.95689
20
-3.02468
11
5.95689
21
-3.66082
0
LINE
8
BLACK
6
CONTINUOUS
10
5.95689
20
-3.66082
11
5.95698
21
-3.66082
0
LINE
8
BLACK
6
CONTINUOUS
10
5.95698
20
-3.66082
11
5.95698
21
-3.69863
0
LINE
8
BLACK
6
CONTINUOUS
10
5.95698
20
-3.69863
11
5.94695
21
-3.69863
0
LINE
8
BLACK
6
CONTINUOUS
10
5.94695
20
-3.69863
11
5.94695
21
-3.66082
0
LINE
8
BLACK
6
CONTINUOUS
10
5.94695
20
-3.66082
11
5.94705
21
-3.66082
0
LINE
8
BLACK
6
CONTINUOUS
10
5.94705
20
-3.66082
11
5.94705
21
-3.02454
0
LINE
8
BLACK
6
CONTINUOUS
10
5.94705
20
-3.02454
11
5.94302
21
-3.02388
0
LINE
8
BLACK
6
CONTINUOUS
10
5.94302
20
-3.02388
11
5.93629
21
-3.0212
0
LINE
8
BLACK
6
CONTINUOUS
10
5.93629
20
-3.0212
11
5.9303
21
-3.01714
0
LINE
8
BLACK
6
CONTINUOUS
10
5.9303
20
-3.01714
11
5.92533
21
-3.01189
0
LINE
8
BLACK
6
CONTINUOUS
10
5.92533
20
-3.01189
11
5.9216
21
-3.00569
0
LINE
8
BLACK
6
CONTINUOUS
10
5.9216
20
-3.00569
11
5.91929
21
-2.99883
0
LINE
8
BLACK
6
CONTINUOUS
10
5.91929
20
-2.99883
11
5.9185
21
-2.99163
0
LINE
8
BLACK
6
CONTINUOUS
10
5.9185
20
-2.99163
11
5.9185
21
-2.97982
0
LINE
8
BLACK
6
CONTINUOUS
10
5.9185
20
-2.97982
11
5.9187
21
-2.9762
0
LINE
8
BLACK
6
CONTINUOUS
10
5.9187
20
-2.9762
11
5.92026
21
-2.96914
0
LINE
8
BLACK
6
CONTINUOUS
10
5.92026
20
-2.96914
11
5.92329
21
-2.96257
0
LINE
8
BLACK
6
CONTINUOUS
10
5.92329
20
-2.96257
11
5.92767
21
-2.95681
0
LINE
8
BLACK
6
CONTINUOUS
10
5.92767
20
-2.95681
11
5.93319
21
-2.95212
0
LINE
8
BLACK
6
CONTINUOUS
10
5.93319
20
-2.95212
11
5.93958
21
-2.94874
0
LINE
8
BLACK
6
CONTINUOUS
10
5.93958
20
-2.94874
11
5.94655
21
-2.9468
0
LINE
8
BLACK
6
CONTINUOUS
10
5.94655
20
-2.9468
11
5.95378
21
-2.94641
0
LINE
8
BLACK
6
CONTINUOUS
10
5.95378
20
-2.94641
11
5.96092
21
-2.94758
0
LINE
8
BLACK
6
CONTINUOUS
10
6.13297
20
-2.94807
11
6.13969
21
-2.95075
0
LINE
8
BLACK
6
CONTINUOUS
10
6.13969
20
-2.95075
11
6.14568
21
-2.95481
0
LINE
8
BLACK
6
CONTINUOUS
10
6.14568
20
-2.95481
11
6.15066
21
-2.96006
0
LINE
8
BLACK
6
CONTINUOUS
10
6.15066
20
-2.96006
11
6.15439
21
-2.96626
0
LINE
8
BLACK
6
CONTINUOUS
10
6.15439
20
-2.96626
11
6.1567
21
-2.97312
0
LINE
8
BLACK
6
CONTINUOUS
10
6.1567
20
-2.97312
11
6.15748
21
-2.98031
0
LINE
8
BLACK
6
CONTINUOUS
10
6.15748
20
-2.98031
11
6.15748
21
-2.99213
0
LINE
8
BLACK
6
CONTINUOUS
10
6.15748
20
-2.99213
11
6.15728
21
-2.99574
0
LINE
8
BLACK
6
CONTINUOUS
10
6.15728
20
-2.99574
11
6.15573
21
-3.00281
0
LINE
8
BLACK
6
CONTINUOUS
10
6.15573
20
-3.00281
11
6.15269
21
-3.00938
0
LINE
8
BLACK
6
CONTINUOUS
10
6.15269
20
-3.00938
11
6.14831
21
-3.01514
0
LINE
8
BLACK
6
CONTINUOUS
10
6.14831
20
-3.01514
11
6.1428
21
-3.01982
0
LINE
8
BLACK
6
CONTINUOUS
10
6.1428
20
-3.01982
11
6.1364
21
-3.02321
0
LINE
8
BLACK
6
CONTINUOUS
10
6.1364
20
-3.02321
11
6.12943
21
-3.02515
0
LINE
8
BLACK
6
CONTINUOUS
10
6.12943
20
-3.02515
11
6.12894
21
-3.02518
0
LINE
8
BLACK
6
CONTINUOUS
10
6.12894
20
-3.02518
11
6.12894
21
-3.27362
0
LINE
8
BLACK
6
CONTINUOUS
10
6.12894
20
-3.27362
11
6.12881
21
-3.27449
0
LINE
8
BLACK
6
CONTINUOUS
10
6.12881
20
-3.27449
11
6.12882
21
-3.27467
0
LINE
8
BLACK
6
CONTINUOUS
10
6.12882
20
-3.27467
11
6.12877
21
-3.27476
0
LINE
8
BLACK
6
CONTINUOUS
10
6.12877
20
-3.27476
11
6.12874
21
-3.27501
0
LINE
8
BLACK
6
CONTINUOUS
10
6.12874
20
-3.27501
11
6.12808
21
-3.27603
0
LINE
8
BLACK
6
CONTINUOUS
10
6.12808
20
-3.27603
11
6.1275
21
-3.2771
0
LINE
8
BLACK
6
CONTINUOUS
10
6.1275
20
-3.2771
11
5.97657
21
-3.42802
0
LINE
8
BLACK
6
CONTINUOUS
10
5.97657
20
-3.42802
11
5.97657
21
-3.66082
0
LINE
8
BLACK
6
CONTINUOUS
10
5.97657
20
-3.66082
11
5.97667
21
-3.66082
0
LINE
8
BLACK
6
CONTINUOUS
10
5.97667
20
-3.66082
11
5.97667
21
-3.69863
0
LINE
8
BLACK
6
CONTINUOUS
10
5.97667
20
-3.69863
11
5.96664
21
-3.69863
0
LINE
8
BLACK
6
CONTINUOUS
10
5.96664
20
-3.69863
11
5.96664
21
-3.66082
0
LINE
8
BLACK
6
CONTINUOUS
10
5.96664
20
-3.66082
11
5.96673
21
-3.66082
0
LINE
8
BLACK
6
CONTINUOUS
10
5.96673
20
-3.66082
11
5.96673
21
-3.42598
0
LINE
8
BLACK
6
CONTINUOUS
10
5.96673
20
-3.42598
11
5.96686
21
-3.42511
0
LINE
8
BLACK
6
CONTINUOUS
10
5.96686
20
-3.42511
11
5.96684
21
-3.42494
0
LINE
8
BLACK
6
CONTINUOUS
10
5.96684
20
-3.42494
11
5.9669
21
-3.42484
0
LINE
8
BLACK
6
CONTINUOUS
10
5.9669
20
-3.42484
11
5.96693
21
-3.4246
0
LINE
8
BLACK
6
CONTINUOUS
10
5.96693
20
-3.4246
11
5.96759
21
-3.42357
0
LINE
8
BLACK
6
CONTINUOUS
10
5.96759
20
-3.42357
11
5.96817
21
-3.4225
0
LINE
8
BLACK
6
CONTINUOUS
10
5.96817
20
-3.4225
11
6.11909
21
-3.27158
0
LINE
8
BLACK
6
CONTINUOUS
10
6.11909
20
-3.27158
11
6.11909
21
-3.02503
0
LINE
8
BLACK
6
CONTINUOUS
10
6.11909
20
-3.02503
11
6.11506
21
-3.02437
0
LINE
8
BLACK
6
CONTINUOUS
10
6.11506
20
-3.02437
11
6.10834
21
-3.02169
0
LINE
8
BLACK
6
CONTINUOUS
10
6.10834
20
-3.02169
11
6.10235
21
-3.01763
0
LINE
8
BLACK
6
CONTINUOUS
10
6.10235
20
-3.01763
11
6.09737
21
-3.01238
0
LINE
8
BLACK
6
CONTINUOUS
10
6.09737
20
-3.01238
11
6.09364
21
-3.00618
0
LINE
8
BLACK
6
CONTINUOUS
10
6.09364
20
-3.00618
11
6.09133
21
-2.99932
0
LINE
8
BLACK
6
CONTINUOUS
10
6.09133
20
-2.99932
11
6.09055
21
-2.99213
0
LINE
8
BLACK
6
CONTINUOUS
10
6.09055
20
-2.99213
11
6.09055
21
-2.98031
0
LINE
8
BLACK
6
CONTINUOUS
10
6.09055
20
-2.98031
11
6.09075
21
-2.9767
0
LINE
8
BLACK
6
CONTINUOUS
10
6.09075
20
-2.9767
11
6.0923
21
-2.96963
0
LINE
8
BLACK
6
CONTINUOUS
10
6.0923
20
-2.96963
11
6.09534
21
-2.96306
0
LINE
8
BLACK
6
CONTINUOUS
10
6.09534
20
-2.96306
11
6.09972
21
-2.9573
0
LINE
8
BLACK
6
CONTINUOUS
10
6.09972
20
-2.9573
11
6.10524
21
-2.95262
0
LINE
8
BLACK
6
CONTINUOUS
10
6.10524
20
-2.95262
11
6.11163
21
-2.94923
0
LINE
8
BLACK
6
CONTINUOUS
10
6.11163
20
-2.94923
11
6.1186
21
-2.94729
0
LINE
8
BLACK
6
CONTINUOUS
10
6.1186
20
-2.94729
11
6.12583
21
-2.9469
0
LINE
8
BLACK
6
CONTINUOUS
10
6.12583
20
-2.9469
11
6.13297
21
-2.94807
  0
ENDSEC
  0
EOF
