  0
SECTION
  2
HEADER
  9
$ANGBASE
  50
0.0
  9
$ANGDIR
  70
1
  9
$MEASUREMENT
  70
1
  0
ENDSEC
  0
SECTION
  2
TABLES
  0
TABLE
  2
LTYPE
  70
4
  0
LTYPE
  5
40F
  2
CONTINUOUS
  70
0
  3
Solid line
  72
65
  73
0
  40
0.0
  0
LTYPE
  5
410
  2
DASHDOT
 70
0
  3
Dash Dot ____ _ ____ _
 72
65
 73
4
 40
2.0
 49
1.25
 49
-0.25
 49
0.25
 49
-0.25
  0
LTYPE
  5
411
  2
DASHED
 70
0
  3
Dashed __ __ __ __ __
 72
65
 73
2
 40
0.75
 49
0.5
 49
-0.25
  0
LTYPE
  5
43B
  2
DOTTED
 70
0
  3
Dotted .  .  .  .
 72
65
 73
2
 40
0.2
 49
0.0
 49
-0.2
  0
ENDTAB
  0
TABLE
  2
STYLE
  70
4
  0
STYLE
  2
KICAD
  70
0
  40
0
  41
1
  42
1
  50
0
  71
0
  3
isocp.shx
  0
STYLE
  2
KICADB
  70
0
  40
0
  41
1
  42
1
  50
0
  71
0
  3
isocp.shx
  0
STYLE
  2
KICADI
  70
0
  40
0
  41
1
  42
1
  50
15
  71
0
  3
isocp.shx
  0
STYLE
  2
KICADBI
  70
0
  40
0
  41
1
  42
1
  50
15
  71
0
  3
isocp.shx
  0
ENDTAB
  0
TABLE
  2
LAYER
  70
1
  0
LAYER
  2
BLACK
  70
0
  62
7
  6
CONTINUOUS
  0
ENDTAB
  0
ENDSEC
  0
SECTION
  2
ENTITIES
0
LINE
8
BLACK
6
CONTINUOUS
10
127.072
20
-94.985
11
127.251
21
-95.0245
0
LINE
8
BLACK
6
CONTINUOUS
10
127.251
20
-95.0245
11
127.418
21
-95.1017
0
LINE
8
BLACK
6
CONTINUOUS
10
127.418
20
-95.1017
11
127.565
21
-95.2129
0
LINE
8
BLACK
6
CONTINUOUS
10
127.565
20
-95.2129
11
127.684
21
-95.353
0
LINE
8
BLACK
6
CONTINUOUS
10
127.684
20
-95.353
11
127.77
21
-95.5154
0
LINE
8
BLACK
6
CONTINUOUS
10
127.77
20
-95.5154
11
127.819
21
-95.6925
0
LINE
8
BLACK
6
CONTINUOUS
10
127.819
20
-95.6925
11
127.82
21
-95.7125
0
LINE
8
BLACK
6
CONTINUOUS
10
127.82
20
-95.7125
11
148.327
21
-95.7125
0
LINE
8
BLACK
6
CONTINUOUS
10
148.327
20
-95.7125
11
148.327
21
-95.7101
0
LINE
8
BLACK
6
CONTINUOUS
10
148.327
20
-95.7101
11
149.288
21
-95.7101
0
LINE
8
BLACK
6
CONTINUOUS
10
149.288
20
-95.7101
11
149.288
21
-95.9649
0
LINE
8
BLACK
6
CONTINUOUS
10
149.288
20
-95.9649
11
148.327
21
-95.9649
0
LINE
8
BLACK
6
CONTINUOUS
10
148.327
20
-95.9649
11
148.327
21
-95.9625
0
LINE
8
BLACK
6
CONTINUOUS
10
148.327
20
-95.9625
11
127.815
21
-95.9625
0
LINE
8
BLACK
6
CONTINUOUS
10
127.815
20
-95.9625
11
127.799
21
-96.0574
0
LINE
8
BLACK
6
CONTINUOUS
10
127.799
20
-96.0574
11
127.731
21
-96.2281
0
LINE
8
BLACK
6
CONTINUOUS
10
127.731
20
-96.2281
11
127.628
21
-96.3803
0
LINE
8
BLACK
6
CONTINUOUS
10
127.628
20
-96.3803
11
127.494
21
-96.5067
0
LINE
8
BLACK
6
CONTINUOUS
10
127.494
20
-96.5067
11
127.337
21
-96.6014
0
LINE
8
BLACK
6
CONTINUOUS
10
127.337
20
-96.6014
11
127.163
21
-96.6601
0
LINE
8
BLACK
6
CONTINUOUS
10
127.163
20
-96.6601
11
126.98
21
-96.68
0
LINE
8
BLACK
6
CONTINUOUS
10
126.98
20
-96.68
11
126.68
21
-96.68
0
LINE
8
BLACK
6
CONTINUOUS
10
126.68
20
-96.68
11
126.588
21
-96.675
0
LINE
8
BLACK
6
CONTINUOUS
10
126.588
20
-96.675
11
126.409
21
-96.6355
0
LINE
8
BLACK
6
CONTINUOUS
10
126.409
20
-96.6355
11
126.242
21
-96.5583
0
LINE
8
BLACK
6
CONTINUOUS
10
126.242
20
-96.5583
11
126.095
21
-96.4471
0
LINE
8
BLACK
6
CONTINUOUS
10
126.095
20
-96.4471
11
125.976
21
-96.307
0
LINE
8
BLACK
6
CONTINUOUS
10
125.976
20
-96.307
11
125.89
21
-96.1446
0
LINE
8
BLACK
6
CONTINUOUS
10
125.89
20
-96.1446
11
125.841
21
-95.9675
0
LINE
8
BLACK
6
CONTINUOUS
10
125.841
20
-95.9675
11
125.831
21
-95.784
0
LINE
8
BLACK
6
CONTINUOUS
10
125.831
20
-95.784
11
125.861
21
-95.6026
0
LINE
8
BLACK
6
CONTINUOUS
10
125.861
20
-95.6026
11
125.929
21
-95.4319
0
LINE
8
BLACK
6
CONTINUOUS
10
125.929
20
-95.4319
11
126.032
21
-95.2797
0
LINE
8
BLACK
6
CONTINUOUS
10
126.032
20
-95.2797
11
126.166
21
-95.1533
0
LINE
8
BLACK
6
CONTINUOUS
10
126.166
20
-95.1533
11
126.323
21
-95.0586
0
LINE
8
BLACK
6
CONTINUOUS
10
126.323
20
-95.0586
11
126.497
21
-94.9999
0
LINE
8
BLACK
6
CONTINUOUS
10
126.497
20
-94.9999
11
126.68
21
-94.98
0
LINE
8
BLACK
6
CONTINUOUS
10
126.68
20
-94.98
11
126.98
21
-94.98
0
LINE
8
BLACK
6
CONTINUOUS
10
126.98
20
-94.98
11
127.072
21
-94.985
0
LINE
8
BLACK
6
CONTINUOUS
10
145.659
20
-96.2073
11
145.668
21
-96.2066
0
LINE
8
BLACK
6
CONTINUOUS
10
145.668
20
-96.2066
11
145.679
21
-96.2125
0
LINE
8
BLACK
6
CONTINUOUS
10
145.679
20
-96.2125
11
148.327
21
-96.2125
0
LINE
8
BLACK
6
CONTINUOUS
10
148.327
20
-96.2125
11
148.327
21
-96.2101
0
LINE
8
BLACK
6
CONTINUOUS
10
148.327
20
-96.2101
11
149.288
21
-96.2101
0
LINE
8
BLACK
6
CONTINUOUS
10
149.288
20
-96.2101
11
149.288
21
-96.4649
0
LINE
8
BLACK
6
CONTINUOUS
10
149.288
20
-96.4649
11
148.327
21
-96.4649
0
LINE
8
BLACK
6
CONTINUOUS
10
148.327
20
-96.4649
11
148.327
21
-96.4625
0
LINE
8
BLACK
6
CONTINUOUS
10
148.327
20
-96.4625
11
145.684
21
-96.4625
0
LINE
8
BLACK
6
CONTINUOUS
10
145.684
20
-96.4625
11
142.618
21
-99.5284
0
LINE
8
BLACK
6
CONTINUOUS
10
142.618
20
-99.5284
11
142.601
21
-99.5418
0
LINE
8
BLACK
6
CONTINUOUS
10
142.601
20
-99.5418
11
142.598
21
-99.5452
0
LINE
8
BLACK
6
CONTINUOUS
10
142.598
20
-99.5452
11
142.595
21
-99.5459
0
LINE
8
BLACK
6
CONTINUOUS
10
142.595
20
-99.5459
11
142.59
21
-99.5497
0
LINE
8
BLACK
6
CONTINUOUS
10
142.59
20
-99.5497
11
142.56
21
-99.5563
0
LINE
8
BLACK
6
CONTINUOUS
10
142.56
20
-99.5563
11
142.53
21
-99.565
0
LINE
8
BLACK
6
CONTINUOUS
10
142.53
20
-99.565
11
136.806
21
-99.565
0
LINE
8
BLACK
6
CONTINUOUS
10
136.806
20
-99.565
11
136.789
21
-99.6674
0
LINE
8
BLACK
6
CONTINUOUS
10
136.789
20
-99.6674
11
136.721
21
-99.8381
0
LINE
8
BLACK
6
CONTINUOUS
10
136.721
20
-99.8381
11
136.618
21
-99.9903
0
LINE
8
BLACK
6
CONTINUOUS
10
136.618
20
-99.9903
11
136.484
21
-100.117
0
LINE
8
BLACK
6
CONTINUOUS
10
136.484
20
-100.117
11
136.327
21
-100.211
0
LINE
8
BLACK
6
CONTINUOUS
10
136.327
20
-100.211
11
136.153
21
-100.27
0
LINE
8
BLACK
6
CONTINUOUS
10
136.153
20
-100.27
11
135.97
21
-100.29
0
LINE
8
BLACK
6
CONTINUOUS
10
135.97
20
-100.29
11
135.67
21
-100.29
0
LINE
8
BLACK
6
CONTINUOUS
10
135.67
20
-100.29
11
135.578
21
-100.285
0
LINE
8
BLACK
6
CONTINUOUS
10
135.578
20
-100.285
11
135.399
21
-100.246
0
LINE
8
BLACK
6
CONTINUOUS
10
135.399
20
-100.246
11
135.232
21
-100.168
0
LINE
8
BLACK
6
CONTINUOUS
10
135.232
20
-100.168
11
135.085
21
-100.057
0
LINE
8
BLACK
6
CONTINUOUS
10
135.085
20
-100.057
11
134.966
21
-99.917
0
LINE
8
BLACK
6
CONTINUOUS
10
134.966
20
-99.917
11
134.88
21
-99.7546
0
LINE
8
BLACK
6
CONTINUOUS
10
134.88
20
-99.7546
11
134.831
21
-99.5775
0
LINE
8
BLACK
6
CONTINUOUS
10
134.831
20
-99.5775
11
134.821
21
-99.394
0
LINE
8
BLACK
6
CONTINUOUS
10
134.821
20
-99.394
11
134.851
21
-99.2126
0
LINE
8
BLACK
6
CONTINUOUS
10
134.851
20
-99.2126
11
134.919
21
-99.0419
0
LINE
8
BLACK
6
CONTINUOUS
10
134.919
20
-99.0419
11
135.022
21
-98.8897
0
LINE
8
BLACK
6
CONTINUOUS
10
135.022
20
-98.8897
11
135.156
21
-98.7633
0
LINE
8
BLACK
6
CONTINUOUS
10
135.156
20
-98.7633
11
135.313
21
-98.6686
0
LINE
8
BLACK
6
CONTINUOUS
10
135.313
20
-98.6686
11
135.487
21
-98.6099
0
LINE
8
BLACK
6
CONTINUOUS
10
135.487
20
-98.6099
11
135.67
21
-98.59
0
LINE
8
BLACK
6
CONTINUOUS
10
135.67
20
-98.59
11
135.97
21
-98.59
0
LINE
8
BLACK
6
CONTINUOUS
10
135.97
20
-98.59
11
136.062
21
-98.595
0
LINE
8
BLACK
6
CONTINUOUS
10
136.062
20
-98.595
11
136.241
21
-98.6345
0
LINE
8
BLACK
6
CONTINUOUS
10
136.241
20
-98.6345
11
136.408
21
-98.7117
0
LINE
8
BLACK
6
CONTINUOUS
10
136.408
20
-98.7117
11
136.555
21
-98.8229
0
LINE
8
BLACK
6
CONTINUOUS
10
136.555
20
-98.8229
11
136.674
21
-98.963
0
LINE
8
BLACK
6
CONTINUOUS
10
136.674
20
-98.963
11
136.76
21
-99.1254
0
LINE
8
BLACK
6
CONTINUOUS
10
136.76
20
-99.1254
11
136.809
21
-99.3025
0
LINE
8
BLACK
6
CONTINUOUS
10
136.809
20
-99.3025
11
136.809
21
-99.315
0
LINE
8
BLACK
6
CONTINUOUS
10
136.809
20
-99.315
11
142.478
21
-99.315
0
LINE
8
BLACK
6
CONTINUOUS
10
142.478
20
-99.315
11
145.553
21
-96.2404
0
LINE
8
BLACK
6
CONTINUOUS
10
145.553
20
-96.2404
11
145.581
21
-96.219
0
LINE
8
BLACK
6
CONTINUOUS
10
145.581
20
-96.219
11
145.59
21
-96.2171
0
LINE
8
BLACK
6
CONTINUOUS
10
145.59
20
-96.2171
11
145.598
21
-96.2116
0
LINE
8
BLACK
6
CONTINUOUS
10
145.598
20
-96.2116
11
145.624
21
-96.2097
0
LINE
8
BLACK
6
CONTINUOUS
10
145.624
20
-96.2097
11
145.65
21
-96.2041
0
LINE
8
BLACK
6
CONTINUOUS
10
145.65
20
-96.2041
11
145.659
21
-96.2073
0
LINE
8
BLACK
6
CONTINUOUS
10
149.288
20
-96.9649
11
148.327
21
-96.9649
0
LINE
8
BLACK
6
CONTINUOUS
10
148.327
20
-96.9649
11
148.327
21
-96.9625
0
LINE
8
BLACK
6
CONTINUOUS
10
148.327
20
-96.9625
11
146.824
21
-96.9625
0
LINE
8
BLACK
6
CONTINUOUS
10
146.824
20
-96.9625
11
140.658
21
-103.128
0
LINE
8
BLACK
6
CONTINUOUS
10
140.658
20
-103.128
11
140.641
21
-103.142
0
LINE
8
BLACK
6
CONTINUOUS
10
140.641
20
-103.142
11
140.638
21
-103.145
0
LINE
8
BLACK
6
CONTINUOUS
10
140.638
20
-103.145
11
140.635
21
-103.146
0
LINE
8
BLACK
6
CONTINUOUS
10
140.635
20
-103.146
11
140.63
21
-103.15
0
LINE
8
BLACK
6
CONTINUOUS
10
140.63
20
-103.15
11
140.6
21
-103.156
0
LINE
8
BLACK
6
CONTINUOUS
10
140.6
20
-103.156
11
140.57
21
-103.165
0
LINE
8
BLACK
6
CONTINUOUS
10
140.57
20
-103.165
11
136.806
21
-103.165
0
LINE
8
BLACK
6
CONTINUOUS
10
136.806
20
-103.165
11
136.789
21
-103.267
0
LINE
8
BLACK
6
CONTINUOUS
10
136.789
20
-103.267
11
136.721
21
-103.438
0
LINE
8
BLACK
6
CONTINUOUS
10
136.721
20
-103.438
11
136.618
21
-103.59
0
LINE
8
BLACK
6
CONTINUOUS
10
136.618
20
-103.59
11
136.484
21
-103.717
0
LINE
8
BLACK
6
CONTINUOUS
10
136.484
20
-103.717
11
136.327
21
-103.811
0
LINE
8
BLACK
6
CONTINUOUS
10
136.327
20
-103.811
11
136.153
21
-103.87
0
LINE
8
BLACK
6
CONTINUOUS
10
136.153
20
-103.87
11
135.97
21
-103.89
0
LINE
8
BLACK
6
CONTINUOUS
10
135.97
20
-103.89
11
135.67
21
-103.89
0
LINE
8
BLACK
6
CONTINUOUS
10
135.67
20
-103.89
11
135.578
21
-103.885
0
LINE
8
BLACK
6
CONTINUOUS
10
135.578
20
-103.885
11
135.399
21
-103.846
0
LINE
8
BLACK
6
CONTINUOUS
10
135.399
20
-103.846
11
135.232
21
-103.768
0
LINE
8
BLACK
6
CONTINUOUS
10
135.232
20
-103.768
11
135.085
21
-103.657
0
LINE
8
BLACK
6
CONTINUOUS
10
135.085
20
-103.657
11
134.966
21
-103.517
0
LINE
8
BLACK
6
CONTINUOUS
10
134.966
20
-103.517
11
134.88
21
-103.355
0
LINE
8
BLACK
6
CONTINUOUS
10
134.88
20
-103.355
11
134.831
21
-103.178
0
LINE
8
BLACK
6
CONTINUOUS
10
134.831
20
-103.178
11
134.821
21
-102.994
0
LINE
8
BLACK
6
CONTINUOUS
10
134.821
20
-102.994
11
134.851
21
-102.813
0
LINE
8
BLACK
6
CONTINUOUS
10
134.851
20
-102.813
11
134.919
21
-102.642
0
LINE
8
BLACK
6
CONTINUOUS
10
134.919
20
-102.642
11
135.022
21
-102.49
0
LINE
8
BLACK
6
CONTINUOUS
10
135.022
20
-102.49
11
135.156
21
-102.363
0
LINE
8
BLACK
6
CONTINUOUS
10
135.156
20
-102.363
11
135.313
21
-102.269
0
LINE
8
BLACK
6
CONTINUOUS
10
135.313
20
-102.269
11
135.487
21
-102.21
0
LINE
8
BLACK
6
CONTINUOUS
10
135.487
20
-102.21
11
135.67
21
-102.19
0
LINE
8
BLACK
6
CONTINUOUS
10
135.67
20
-102.19
11
135.97
21
-102.19
0
LINE
8
BLACK
6
CONTINUOUS
10
135.97
20
-102.19
11
136.062
21
-102.195
0
LINE
8
BLACK
6
CONTINUOUS
10
136.062
20
-102.195
11
136.241
21
-102.234
0
LINE
8
BLACK
6
CONTINUOUS
10
136.241
20
-102.234
11
136.408
21
-102.312
0
LINE
8
BLACK
6
CONTINUOUS
10
136.408
20
-102.312
11
136.555
21
-102.423
0
LINE
8
BLACK
6
CONTINUOUS
10
136.555
20
-102.423
11
136.674
21
-102.563
0
LINE
8
BLACK
6
CONTINUOUS
10
136.674
20
-102.563
11
136.76
21
-102.725
0
LINE
8
BLACK
6
CONTINUOUS
10
136.76
20
-102.725
11
136.809
21
-102.902
0
LINE
8
BLACK
6
CONTINUOUS
10
136.809
20
-102.902
11
136.809
21
-102.915
0
LINE
8
BLACK
6
CONTINUOUS
10
136.809
20
-102.915
11
140.518
21
-102.915
0
LINE
8
BLACK
6
CONTINUOUS
10
140.518
20
-102.915
11
146.684
21
-96.7491
0
LINE
8
BLACK
6
CONTINUOUS
10
146.684
20
-96.7491
11
146.702
21
-96.7357
0
LINE
8
BLACK
6
CONTINUOUS
10
146.702
20
-96.7357
11
146.705
21
-96.7323
0
LINE
8
BLACK
6
CONTINUOUS
10
146.705
20
-96.7323
11
146.708
21
-96.7316
0
LINE
8
BLACK
6
CONTINUOUS
10
146.708
20
-96.7316
11
146.713
21
-96.7278
0
LINE
8
BLACK
6
CONTINUOUS
10
146.713
20
-96.7278
11
146.743
21
-96.7212
0
LINE
8
BLACK
6
CONTINUOUS
10
146.743
20
-96.7212
11
146.772
21
-96.7125
0
LINE
8
BLACK
6
CONTINUOUS
10
146.772
20
-96.7125
11
148.327
21
-96.7125
0
LINE
8
BLACK
6
CONTINUOUS
10
148.327
20
-96.7125
11
148.327
21
-96.7101
0
LINE
8
BLACK
6
CONTINUOUS
10
148.327
20
-96.7101
11
149.288
21
-96.7101
0
LINE
8
BLACK
6
CONTINUOUS
10
149.288
20
-96.7101
11
149.288
21
-96.9649
0
LINE
8
BLACK
6
CONTINUOUS
10
149.288
20
-97.4649
11
148.327
21
-97.4649
0
LINE
8
BLACK
6
CONTINUOUS
10
148.327
20
-97.4649
11
148.327
21
-97.4625
0
LINE
8
BLACK
6
CONTINUOUS
10
148.327
20
-97.4625
11
147.834
21
-97.4625
0
LINE
8
BLACK
6
CONTINUOUS
10
147.834
20
-97.4625
11
138.568
21
-106.728
0
LINE
8
BLACK
6
CONTINUOUS
10
138.568
20
-106.728
11
138.551
21
-106.742
0
LINE
8
BLACK
6
CONTINUOUS
10
138.551
20
-106.742
11
138.548
21
-106.745
0
LINE
8
BLACK
6
CONTINUOUS
10
138.548
20
-106.745
11
138.545
21
-106.746
0
LINE
8
BLACK
6
CONTINUOUS
10
138.545
20
-106.746
11
138.54
21
-106.75
0
LINE
8
BLACK
6
CONTINUOUS
10
138.54
20
-106.75
11
138.51
21
-106.756
0
LINE
8
BLACK
6
CONTINUOUS
10
138.51
20
-106.756
11
138.48
21
-106.765
0
LINE
8
BLACK
6
CONTINUOUS
10
138.48
20
-106.765
11
136.81
21
-106.765
0
LINE
8
BLACK
6
CONTINUOUS
10
136.81
20
-106.765
11
136.789
21
-106.892
0
LINE
8
BLACK
6
CONTINUOUS
10
136.789
20
-106.892
11
136.721
21
-107.063
0
LINE
8
BLACK
6
CONTINUOUS
10
136.721
20
-107.063
11
136.618
21
-107.215
0
LINE
8
BLACK
6
CONTINUOUS
10
136.618
20
-107.215
11
136.484
21
-107.342
0
LINE
8
BLACK
6
CONTINUOUS
10
136.484
20
-107.342
11
136.327
21
-107.436
0
LINE
8
BLACK
6
CONTINUOUS
10
136.327
20
-107.436
11
136.153
21
-107.495
0
LINE
8
BLACK
6
CONTINUOUS
10
136.153
20
-107.495
11
135.97
21
-107.515
0
LINE
8
BLACK
6
CONTINUOUS
10
135.97
20
-107.515
11
135.67
21
-107.515
0
LINE
8
BLACK
6
CONTINUOUS
10
135.67
20
-107.515
11
135.578
21
-107.51
0
LINE
8
BLACK
6
CONTINUOUS
10
135.578
20
-107.51
11
135.399
21
-107.471
0
LINE
8
BLACK
6
CONTINUOUS
10
135.399
20
-107.471
11
135.232
21
-107.393
0
LINE
8
BLACK
6
CONTINUOUS
10
135.232
20
-107.393
11
135.085
21
-107.282
0
LINE
8
BLACK
6
CONTINUOUS
10
135.085
20
-107.282
11
134.966
21
-107.142
0
LINE
8
BLACK
6
CONTINUOUS
10
134.966
20
-107.142
11
134.88
21
-106.98
0
LINE
8
BLACK
6
CONTINUOUS
10
134.88
20
-106.98
11
134.831
21
-106.803
0
LINE
8
BLACK
6
CONTINUOUS
10
134.831
20
-106.803
11
134.821
21
-106.619
0
LINE
8
BLACK
6
CONTINUOUS
10
134.821
20
-106.619
11
134.851
21
-106.438
0
LINE
8
BLACK
6
CONTINUOUS
10
134.851
20
-106.438
11
134.919
21
-106.267
0
LINE
8
BLACK
6
CONTINUOUS
10
134.919
20
-106.267
11
135.022
21
-106.115
0
LINE
8
BLACK
6
CONTINUOUS
10
135.022
20
-106.115
11
135.156
21
-105.988
0
LINE
8
BLACK
6
CONTINUOUS
10
135.156
20
-105.988
11
135.313
21
-105.894
0
LINE
8
BLACK
6
CONTINUOUS
10
135.313
20
-105.894
11
135.487
21
-105.835
0
LINE
8
BLACK
6
CONTINUOUS
10
135.487
20
-105.835
11
135.67
21
-105.815
0
LINE
8
BLACK
6
CONTINUOUS
10
135.67
20
-105.815
11
135.97
21
-105.815
0
LINE
8
BLACK
6
CONTINUOUS
10
135.97
20
-105.815
11
136.062
21
-105.82
0
LINE
8
BLACK
6
CONTINUOUS
10
136.062
20
-105.82
11
136.241
21
-105.859
0
LINE
8
BLACK
6
CONTINUOUS
10
136.241
20
-105.859
11
136.408
21
-105.937
0
LINE
8
BLACK
6
CONTINUOUS
10
136.408
20
-105.937
11
136.555
21
-106.048
0
LINE
8
BLACK
6
CONTINUOUS
10
136.555
20
-106.048
11
136.674
21
-106.188
0
LINE
8
BLACK
6
CONTINUOUS
10
136.674
20
-106.188
11
136.76
21
-106.35
0
LINE
8
BLACK
6
CONTINUOUS
10
136.76
20
-106.35
11
136.805
21
-106.515
0
LINE
8
BLACK
6
CONTINUOUS
10
136.805
20
-106.515
11
138.428
21
-106.515
0
LINE
8
BLACK
6
CONTINUOUS
10
138.428
20
-106.515
11
147.694
21
-97.2491
0
LINE
8
BLACK
6
CONTINUOUS
10
147.694
20
-97.2491
11
147.712
21
-97.2357
0
LINE
8
BLACK
6
CONTINUOUS
10
147.712
20
-97.2357
11
147.715
21
-97.2323
0
LINE
8
BLACK
6
CONTINUOUS
10
147.715
20
-97.2323
11
147.718
21
-97.2316
0
LINE
8
BLACK
6
CONTINUOUS
10
147.718
20
-97.2316
11
147.723
21
-97.2278
0
LINE
8
BLACK
6
CONTINUOUS
10
147.723
20
-97.2278
11
147.753
21
-97.2212
0
LINE
8
BLACK
6
CONTINUOUS
10
147.753
20
-97.2212
11
147.782
21
-97.2125
0
LINE
8
BLACK
6
CONTINUOUS
10
147.782
20
-97.2125
11
148.327
21
-97.2125
0
LINE
8
BLACK
6
CONTINUOUS
10
148.327
20
-97.2125
11
148.327
21
-97.2101
0
LINE
8
BLACK
6
CONTINUOUS
10
148.327
20
-97.2101
11
149.288
21
-97.2101
0
LINE
8
BLACK
6
CONTINUOUS
10
149.288
20
-97.2101
11
149.288
21
-97.4649
0
LINE
8
BLACK
6
CONTINUOUS
10
149.807
20
-98.6902
11
149.797
21
-98.6902
0
LINE
8
BLACK
6
CONTINUOUS
10
149.797
20
-98.6902
11
149.797
21
-99.1875
0
LINE
8
BLACK
6
CONTINUOUS
10
149.797
20
-99.1875
11
149.794
21
-99.2096
0
LINE
8
BLACK
6
CONTINUOUS
10
149.794
20
-99.2096
11
149.795
21
-99.2141
0
LINE
8
BLACK
6
CONTINUOUS
10
149.795
20
-99.2141
11
149.793
21
-99.2165
0
LINE
8
BLACK
6
CONTINUOUS
10
149.793
20
-99.2165
11
149.792
21
-99.2227
0
LINE
8
BLACK
6
CONTINUOUS
10
149.792
20
-99.2227
11
149.776
21
-99.2487
0
LINE
8
BLACK
6
CONTINUOUS
10
149.776
20
-99.2487
11
149.761
21
-99.2759
0
LINE
8
BLACK
6
CONTINUOUS
10
149.761
20
-99.2759
11
140.495
21
-108.542
0
LINE
8
BLACK
6
CONTINUOUS
10
140.495
20
-108.542
11
140.495
21
-110.179
0
LINE
8
BLACK
6
CONTINUOUS
10
140.495
20
-110.179
11
140.57
21
-110.191
0
LINE
8
BLACK
6
CONTINUOUS
10
140.57
20
-110.191
11
140.74
21
-110.259
0
LINE
8
BLACK
6
CONTINUOUS
10
140.74
20
-110.259
11
140.892
21
-110.362
0
LINE
8
BLACK
6
CONTINUOUS
10
140.892
20
-110.362
11
141.019
21
-110.496
0
LINE
8
BLACK
6
CONTINUOUS
10
141.019
20
-110.496
11
141.114
21
-110.653
0
LINE
8
BLACK
6
CONTINUOUS
10
141.114
20
-110.653
11
141.172
21
-110.827
0
LINE
8
BLACK
6
CONTINUOUS
10
141.172
20
-110.827
11
141.192
21
-111.01
0
LINE
8
BLACK
6
CONTINUOUS
10
141.192
20
-111.01
11
141.192
21
-111.31
0
LINE
8
BLACK
6
CONTINUOUS
10
141.192
20
-111.31
11
141.187
21
-111.402
0
LINE
8
BLACK
6
CONTINUOUS
10
141.187
20
-111.402
11
141.148
21
-111.581
0
LINE
8
BLACK
6
CONTINUOUS
10
141.148
20
-111.581
11
141.071
21
-111.748
0
LINE
8
BLACK
6
CONTINUOUS
10
141.071
20
-111.748
11
140.959
21
-111.895
0
LINE
8
BLACK
6
CONTINUOUS
10
140.959
20
-111.895
11
140.819
21
-112.014
0
LINE
8
BLACK
6
CONTINUOUS
10
140.819
20
-112.014
11
140.657
21
-112.1
0
LINE
8
BLACK
6
CONTINUOUS
10
140.657
20
-112.1
11
140.48
21
-112.149
0
LINE
8
BLACK
6
CONTINUOUS
10
140.48
20
-112.149
11
140.296
21
-112.159
0
LINE
8
BLACK
6
CONTINUOUS
10
140.296
20
-112.159
11
140.115
21
-112.129
0
LINE
8
BLACK
6
CONTINUOUS
10
140.115
20
-112.129
11
139.944
21
-112.061
0
LINE
8
BLACK
6
CONTINUOUS
10
139.944
20
-112.061
11
139.792
21
-111.958
0
LINE
8
BLACK
6
CONTINUOUS
10
139.792
20
-111.958
11
139.666
21
-111.824
0
LINE
8
BLACK
6
CONTINUOUS
10
139.666
20
-111.824
11
139.571
21
-111.667
0
LINE
8
BLACK
6
CONTINUOUS
10
139.571
20
-111.667
11
139.512
21
-111.493
0
LINE
8
BLACK
6
CONTINUOUS
10
139.512
20
-111.493
11
139.492
21
-111.31
0
LINE
8
BLACK
6
CONTINUOUS
10
139.492
20
-111.31
11
139.492
21
-111.01
0
LINE
8
BLACK
6
CONTINUOUS
10
139.492
20
-111.01
11
139.497
21
-110.918
0
LINE
8
BLACK
6
CONTINUOUS
10
139.497
20
-110.918
11
139.537
21
-110.739
0
LINE
8
BLACK
6
CONTINUOUS
10
139.537
20
-110.739
11
139.614
21
-110.572
0
LINE
8
BLACK
6
CONTINUOUS
10
139.614
20
-110.572
11
139.725
21
-110.425
0
LINE
8
BLACK
6
CONTINUOUS
10
139.725
20
-110.425
11
139.865
21
-110.306
0
LINE
8
BLACK
6
CONTINUOUS
10
139.865
20
-110.306
11
140.028
21
-110.22
0
LINE
8
BLACK
6
CONTINUOUS
10
140.028
20
-110.22
11
140.205
21
-110.171
0
LINE
8
BLACK
6
CONTINUOUS
10
140.205
20
-110.171
11
140.245
21
-110.169
0
LINE
8
BLACK
6
CONTINUOUS
10
140.245
20
-110.169
11
140.245
21
-108.49
0
LINE
8
BLACK
6
CONTINUOUS
10
140.245
20
-108.49
11
140.248
21
-108.468
0
LINE
8
BLACK
6
CONTINUOUS
10
140.248
20
-108.468
11
140.248
21
-108.463
0
LINE
8
BLACK
6
CONTINUOUS
10
140.248
20
-108.463
11
140.249
21
-108.461
0
LINE
8
BLACK
6
CONTINUOUS
10
140.249
20
-108.461
11
140.25
21
-108.455
0
LINE
8
BLACK
6
CONTINUOUS
10
140.25
20
-108.455
11
140.267
21
-108.429
0
LINE
8
BLACK
6
CONTINUOUS
10
140.267
20
-108.429
11
140.282
21
-108.402
0
LINE
8
BLACK
6
CONTINUOUS
10
140.282
20
-108.402
11
149.547
21
-99.1357
0
LINE
8
BLACK
6
CONTINUOUS
10
149.547
20
-99.1357
11
149.547
21
-98.2125
0
LINE
8
BLACK
6
CONTINUOUS
10
149.547
20
-98.2125
11
149.553
21
-98.1773
0
LINE
8
BLACK
6
CONTINUOUS
10
149.553
20
-98.1773
11
149.553
21
-98.1772
0
LINE
8
BLACK
6
CONTINUOUS
10
149.553
20
-98.1772
11
149.553
21
-97.7298
0
LINE
8
BLACK
6
CONTINUOUS
10
149.553
20
-97.7298
11
149.807
21
-97.7298
0
LINE
8
BLACK
6
CONTINUOUS
10
149.807
20
-97.7298
11
149.807
21
-98.6902
0
LINE
8
BLACK
6
CONTINUOUS
10
150.307
20
-98.6902
11
150.297
21
-98.6902
0
LINE
8
BLACK
6
CONTINUOUS
10
150.297
20
-98.6902
11
150.297
21
-100.198
0
LINE
8
BLACK
6
CONTINUOUS
10
150.297
20
-100.198
11
150.294
21
-100.22
0
LINE
8
BLACK
6
CONTINUOUS
10
150.294
20
-100.22
11
150.295
21
-100.224
0
LINE
8
BLACK
6
CONTINUOUS
10
150.295
20
-100.224
11
150.293
21
-100.226
0
LINE
8
BLACK
6
CONTINUOUS
10
150.293
20
-100.226
11
150.292
21
-100.233
0
LINE
8
BLACK
6
CONTINUOUS
10
150.292
20
-100.233
11
150.276
21
-100.259
0
LINE
8
BLACK
6
CONTINUOUS
10
150.276
20
-100.259
11
150.261
21
-100.286
0
LINE
8
BLACK
6
CONTINUOUS
10
150.261
20
-100.286
11
144.095
21
-106.452
0
LINE
8
BLACK
6
CONTINUOUS
10
144.095
20
-106.452
11
144.095
21
-110.175
0
LINE
8
BLACK
6
CONTINUOUS
10
144.095
20
-110.175
11
144.19
21
-110.191
0
LINE
8
BLACK
6
CONTINUOUS
10
144.19
20
-110.191
11
144.36
21
-110.259
0
LINE
8
BLACK
6
CONTINUOUS
10
144.36
20
-110.259
11
144.512
21
-110.362
0
LINE
8
BLACK
6
CONTINUOUS
10
144.512
20
-110.362
11
144.639
21
-110.496
0
LINE
8
BLACK
6
CONTINUOUS
10
144.639
20
-110.496
11
144.734
21
-110.653
0
LINE
8
BLACK
6
CONTINUOUS
10
144.734
20
-110.653
11
144.792
21
-110.827
0
LINE
8
BLACK
6
CONTINUOUS
10
144.792
20
-110.827
11
144.812
21
-111.01
0
LINE
8
BLACK
6
CONTINUOUS
10
144.812
20
-111.01
11
144.812
21
-111.31
0
LINE
8
BLACK
6
CONTINUOUS
10
144.812
20
-111.31
11
144.807
21
-111.402
0
LINE
8
BLACK
6
CONTINUOUS
10
144.807
20
-111.402
11
144.768
21
-111.581
0
LINE
8
BLACK
6
CONTINUOUS
10
144.768
20
-111.581
11
144.691
21
-111.748
0
LINE
8
BLACK
6
CONTINUOUS
10
144.691
20
-111.748
11
144.579
21
-111.895
0
LINE
8
BLACK
6
CONTINUOUS
10
144.579
20
-111.895
11
144.439
21
-112.014
0
LINE
8
BLACK
6
CONTINUOUS
10
144.439
20
-112.014
11
144.277
21
-112.1
0
LINE
8
BLACK
6
CONTINUOUS
10
144.277
20
-112.1
11
144.1
21
-112.149
0
LINE
8
BLACK
6
CONTINUOUS
10
144.1
20
-112.149
11
143.916
21
-112.159
0
LINE
8
BLACK
6
CONTINUOUS
10
143.916
20
-112.159
11
143.735
21
-112.129
0
LINE
8
BLACK
6
CONTINUOUS
10
143.735
20
-112.129
11
143.564
21
-112.061
0
LINE
8
BLACK
6
CONTINUOUS
10
143.564
20
-112.061
11
143.412
21
-111.958
0
LINE
8
BLACK
6
CONTINUOUS
10
143.412
20
-111.958
11
143.286
21
-111.824
0
LINE
8
BLACK
6
CONTINUOUS
10
143.286
20
-111.824
11
143.191
21
-111.667
0
LINE
8
BLACK
6
CONTINUOUS
10
143.191
20
-111.667
11
143.132
21
-111.493
0
LINE
8
BLACK
6
CONTINUOUS
10
143.132
20
-111.493
11
143.112
21
-111.31
0
LINE
8
BLACK
6
CONTINUOUS
10
143.112
20
-111.31
11
143.112
21
-111.01
0
LINE
8
BLACK
6
CONTINUOUS
10
143.112
20
-111.01
11
143.117
21
-110.918
0
LINE
8
BLACK
6
CONTINUOUS
10
143.117
20
-110.918
11
143.157
21
-110.739
0
LINE
8
BLACK
6
CONTINUOUS
10
143.157
20
-110.739
11
143.234
21
-110.572
0
LINE
8
BLACK
6
CONTINUOUS
10
143.234
20
-110.572
11
143.345
21
-110.425
0
LINE
8
BLACK
6
CONTINUOUS
10
143.345
20
-110.425
11
143.485
21
-110.306
0
LINE
8
BLACK
6
CONTINUOUS
10
143.485
20
-110.306
11
143.648
21
-110.22
0
LINE
8
BLACK
6
CONTINUOUS
10
143.648
20
-110.22
11
143.825
21
-110.171
0
LINE
8
BLACK
6
CONTINUOUS
10
143.825
20
-110.171
11
143.845
21
-110.17
0
LINE
8
BLACK
6
CONTINUOUS
10
143.845
20
-110.17
11
143.845
21
-106.4
0
LINE
8
BLACK
6
CONTINUOUS
10
143.845
20
-106.4
11
143.848
21
-106.378
0
LINE
8
BLACK
6
CONTINUOUS
10
143.848
20
-106.378
11
143.848
21
-106.373
0
LINE
8
BLACK
6
CONTINUOUS
10
143.848
20
-106.373
11
143.849
21
-106.371
0
LINE
8
BLACK
6
CONTINUOUS
10
143.849
20
-106.371
11
143.85
21
-106.365
0
LINE
8
BLACK
6
CONTINUOUS
10
143.85
20
-106.365
11
143.867
21
-106.339
0
LINE
8
BLACK
6
CONTINUOUS
10
143.867
20
-106.339
11
143.882
21
-106.312
0
LINE
8
BLACK
6
CONTINUOUS
10
143.882
20
-106.312
11
150.047
21
-100.146
0
LINE
8
BLACK
6
CONTINUOUS
10
150.047
20
-100.146
11
150.047
21
-98.2125
0
LINE
8
BLACK
6
CONTINUOUS
10
150.047
20
-98.2125
11
150.053
21
-98.1773
0
LINE
8
BLACK
6
CONTINUOUS
10
150.053
20
-98.1773
11
150.053
21
-98.1772
0
LINE
8
BLACK
6
CONTINUOUS
10
150.053
20
-98.1772
11
150.053
21
-97.7298
0
LINE
8
BLACK
6
CONTINUOUS
10
150.053
20
-97.7298
11
150.307
21
-97.7298
0
LINE
8
BLACK
6
CONTINUOUS
10
150.307
20
-97.7298
11
150.307
21
-98.6902
0
LINE
8
BLACK
6
CONTINUOUS
10
150.807
20
-98.6902
11
150.798
21
-98.6902
0
LINE
8
BLACK
6
CONTINUOUS
10
150.798
20
-98.6902
11
150.798
21
-101.284
0
LINE
8
BLACK
6
CONTINUOUS
10
150.798
20
-101.284
11
150.798
21
-101.285
0
LINE
8
BLACK
6
CONTINUOUS
10
150.798
20
-101.285
11
150.8
21
-101.312
0
LINE
8
BLACK
6
CONTINUOUS
10
150.8
20
-101.312
11
150.806
21
-101.338
0
LINE
8
BLACK
6
CONTINUOUS
10
150.806
20
-101.338
11
150.803
21
-101.346
0
LINE
8
BLACK
6
CONTINUOUS
10
150.803
20
-101.346
11
150.803
21
-101.355
0
LINE
8
BLACK
6
CONTINUOUS
10
150.803
20
-101.355
11
150.791
21
-101.379
0
LINE
8
BLACK
6
CONTINUOUS
10
150.791
20
-101.379
11
150.781
21
-101.404
0
LINE
8
BLACK
6
CONTINUOUS
10
150.781
20
-101.404
11
150.774
21
-101.409
0
LINE
8
BLACK
6
CONTINUOUS
10
150.774
20
-101.409
11
150.77
21
-101.417
0
LINE
8
BLACK
6
CONTINUOUS
10
150.77
20
-101.417
11
147.695
21
-104.492
0
LINE
8
BLACK
6
CONTINUOUS
10
147.695
20
-104.492
11
147.695
21
-110.175
0
LINE
8
BLACK
6
CONTINUOUS
10
147.695
20
-110.175
11
147.79
21
-110.191
0
LINE
8
BLACK
6
CONTINUOUS
10
147.79
20
-110.191
11
147.96
21
-110.259
0
LINE
8
BLACK
6
CONTINUOUS
10
147.96
20
-110.259
11
148.112
21
-110.362
0
LINE
8
BLACK
6
CONTINUOUS
10
148.112
20
-110.362
11
148.239
21
-110.496
0
LINE
8
BLACK
6
CONTINUOUS
10
148.239
20
-110.496
11
148.334
21
-110.653
0
LINE
8
BLACK
6
CONTINUOUS
10
148.334
20
-110.653
11
148.392
21
-110.827
0
LINE
8
BLACK
6
CONTINUOUS
10
148.392
20
-110.827
11
148.412
21
-111.01
0
LINE
8
BLACK
6
CONTINUOUS
10
148.412
20
-111.01
11
148.412
21
-111.31
0
LINE
8
BLACK
6
CONTINUOUS
10
148.412
20
-111.31
11
148.407
21
-111.402
0
LINE
8
BLACK
6
CONTINUOUS
10
148.407
20
-111.402
11
148.368
21
-111.581
0
LINE
8
BLACK
6
CONTINUOUS
10
148.368
20
-111.581
11
148.291
21
-111.748
0
LINE
8
BLACK
6
CONTINUOUS
10
148.291
20
-111.748
11
148.179
21
-111.895
0
LINE
8
BLACK
6
CONTINUOUS
10
148.179
20
-111.895
11
148.039
21
-112.014
0
LINE
8
BLACK
6
CONTINUOUS
10
148.039
20
-112.014
11
147.877
21
-112.1
0
LINE
8
BLACK
6
CONTINUOUS
10
147.877
20
-112.1
11
147.7
21
-112.149
0
LINE
8
BLACK
6
CONTINUOUS
10
147.7
20
-112.149
11
147.516
21
-112.159
0
LINE
8
BLACK
6
CONTINUOUS
10
147.516
20
-112.159
11
147.335
21
-112.129
0
LINE
8
BLACK
6
CONTINUOUS
10
147.335
20
-112.129
11
147.164
21
-112.061
0
LINE
8
BLACK
6
CONTINUOUS
10
147.164
20
-112.061
11
147.012
21
-111.958
0
LINE
8
BLACK
6
CONTINUOUS
10
147.012
20
-111.958
11
146.886
21
-111.824
0
LINE
8
BLACK
6
CONTINUOUS
10
146.886
20
-111.824
11
146.791
21
-111.667
0
LINE
8
BLACK
6
CONTINUOUS
10
146.791
20
-111.667
11
146.732
21
-111.493
0
LINE
8
BLACK
6
CONTINUOUS
10
146.732
20
-111.493
11
146.712
21
-111.31
0
LINE
8
BLACK
6
CONTINUOUS
10
146.712
20
-111.31
11
146.712
21
-111.01
0
LINE
8
BLACK
6
CONTINUOUS
10
146.712
20
-111.01
11
146.717
21
-110.918
0
LINE
8
BLACK
6
CONTINUOUS
10
146.717
20
-110.918
11
146.757
21
-110.739
0
LINE
8
BLACK
6
CONTINUOUS
10
146.757
20
-110.739
11
146.834
21
-110.572
0
LINE
8
BLACK
6
CONTINUOUS
10
146.834
20
-110.572
11
146.945
21
-110.425
0
LINE
8
BLACK
6
CONTINUOUS
10
146.945
20
-110.425
11
147.085
21
-110.306
0
LINE
8
BLACK
6
CONTINUOUS
10
147.085
20
-110.306
11
147.248
21
-110.22
0
LINE
8
BLACK
6
CONTINUOUS
10
147.248
20
-110.22
11
147.425
21
-110.171
0
LINE
8
BLACK
6
CONTINUOUS
10
147.425
20
-110.171
11
147.445
21
-110.17
0
LINE
8
BLACK
6
CONTINUOUS
10
147.445
20
-110.17
11
147.445
21
-104.44
0
LINE
8
BLACK
6
CONTINUOUS
10
147.445
20
-104.44
11
147.448
21
-104.418
0
LINE
8
BLACK
6
CONTINUOUS
10
147.448
20
-104.418
11
147.448
21
-104.413
0
LINE
8
BLACK
6
CONTINUOUS
10
147.448
20
-104.413
11
147.449
21
-104.411
0
LINE
8
BLACK
6
CONTINUOUS
10
147.449
20
-104.411
11
147.45
21
-104.405
0
LINE
8
BLACK
6
CONTINUOUS
10
147.45
20
-104.405
11
147.467
21
-104.379
0
LINE
8
BLACK
6
CONTINUOUS
10
147.467
20
-104.379
11
147.482
21
-104.352
0
LINE
8
BLACK
6
CONTINUOUS
10
147.482
20
-104.352
11
150.548
21
-101.286
0
LINE
8
BLACK
6
CONTINUOUS
10
150.548
20
-101.286
11
150.548
21
-98.2125
0
LINE
8
BLACK
6
CONTINUOUS
10
150.548
20
-98.2125
11
150.553
21
-98.1773
0
LINE
8
BLACK
6
CONTINUOUS
10
150.553
20
-98.1773
11
150.553
21
-98.1772
0
LINE
8
BLACK
6
CONTINUOUS
10
150.553
20
-98.1772
11
150.553
21
-97.7298
0
LINE
8
BLACK
6
CONTINUOUS
10
150.553
20
-97.7298
11
150.807
21
-97.7298
0
LINE
8
BLACK
6
CONTINUOUS
10
150.807
20
-97.7298
11
150.807
21
-98.6902
0
LINE
8
BLACK
6
CONTINUOUS
10
151.307
20
-98.6902
11
151.305
21
-98.6902
0
LINE
8
BLACK
6
CONTINUOUS
10
151.305
20
-98.6902
11
151.305
21
-110.177
0
LINE
8
BLACK
6
CONTINUOUS
10
151.305
20
-110.177
11
151.39
21
-110.191
0
LINE
8
BLACK
6
CONTINUOUS
10
151.39
20
-110.191
11
151.56
21
-110.259
0
LINE
8
BLACK
6
CONTINUOUS
10
151.56
20
-110.259
11
151.712
21
-110.362
0
LINE
8
BLACK
6
CONTINUOUS
10
151.712
20
-110.362
11
151.839
21
-110.496
0
LINE
8
BLACK
6
CONTINUOUS
10
151.839
20
-110.496
11
151.934
21
-110.653
0
LINE
8
BLACK
6
CONTINUOUS
10
151.934
20
-110.653
11
151.992
21
-110.827
0
LINE
8
BLACK
6
CONTINUOUS
10
151.992
20
-110.827
11
152.012
21
-111.01
0
LINE
8
BLACK
6
CONTINUOUS
10
152.012
20
-111.01
11
152.012
21
-111.31
0
LINE
8
BLACK
6
CONTINUOUS
10
152.012
20
-111.31
11
152.007
21
-111.402
0
LINE
8
BLACK
6
CONTINUOUS
10
152.007
20
-111.402
11
151.968
21
-111.581
0
LINE
8
BLACK
6
CONTINUOUS
10
151.968
20
-111.581
11
151.891
21
-111.748
0
LINE
8
BLACK
6
CONTINUOUS
10
151.891
20
-111.748
11
151.779
21
-111.895
0
LINE
8
BLACK
6
CONTINUOUS
10
151.779
20
-111.895
11
151.639
21
-112.014
0
LINE
8
BLACK
6
CONTINUOUS
10
151.639
20
-112.014
11
151.477
21
-112.1
0
LINE
8
BLACK
6
CONTINUOUS
10
151.477
20
-112.1
11
151.3
21
-112.149
0
LINE
8
BLACK
6
CONTINUOUS
10
151.3
20
-112.149
11
151.116
21
-112.159
0
LINE
8
BLACK
6
CONTINUOUS
10
151.116
20
-112.159
11
150.935
21
-112.129
0
LINE
8
BLACK
6
CONTINUOUS
10
150.935
20
-112.129
11
150.764
21
-112.061
0
LINE
8
BLACK
6
CONTINUOUS
10
150.764
20
-112.061
11
150.612
21
-111.958
0
LINE
8
BLACK
6
CONTINUOUS
10
150.612
20
-111.958
11
150.486
21
-111.824
0
LINE
8
BLACK
6
CONTINUOUS
10
150.486
20
-111.824
11
150.391
21
-111.667
0
LINE
8
BLACK
6
CONTINUOUS
10
150.391
20
-111.667
11
150.332
21
-111.493
0
LINE
8
BLACK
6
CONTINUOUS
10
150.332
20
-111.493
11
150.312
21
-111.31
0
LINE
8
BLACK
6
CONTINUOUS
10
150.312
20
-111.31
11
150.312
21
-111.01
0
LINE
8
BLACK
6
CONTINUOUS
10
150.312
20
-111.01
11
150.317
21
-110.918
0
LINE
8
BLACK
6
CONTINUOUS
10
150.317
20
-110.918
11
150.357
21
-110.739
0
LINE
8
BLACK
6
CONTINUOUS
10
150.357
20
-110.739
11
150.434
21
-110.572
0
LINE
8
BLACK
6
CONTINUOUS
10
150.434
20
-110.572
11
150.545
21
-110.425
0
LINE
8
BLACK
6
CONTINUOUS
10
150.545
20
-110.425
11
150.685
21
-110.306
0
LINE
8
BLACK
6
CONTINUOUS
10
150.685
20
-110.306
11
150.848
21
-110.22
0
LINE
8
BLACK
6
CONTINUOUS
10
150.848
20
-110.22
11
151.025
21
-110.171
0
LINE
8
BLACK
6
CONTINUOUS
10
151.025
20
-110.171
11
151.055
21
-110.17
0
LINE
8
BLACK
6
CONTINUOUS
10
151.055
20
-110.17
11
151.055
21
-98.6902
0
LINE
8
BLACK
6
CONTINUOUS
10
151.055
20
-98.6902
11
151.053
21
-98.6902
0
LINE
8
BLACK
6
CONTINUOUS
10
151.053
20
-98.6902
11
151.053
21
-97.7298
0
LINE
8
BLACK
6
CONTINUOUS
10
151.053
20
-97.7298
11
151.307
21
-97.7298
0
LINE
8
BLACK
6
CONTINUOUS
10
151.307
20
-97.7298
11
151.307
21
-98.6902
0
LINE
8
BLACK
6
CONTINUOUS
10
151.807
20
-98.6902
11
151.802
21
-98.6902
0
LINE
8
BLACK
6
CONTINUOUS
10
151.802
20
-98.6902
11
151.802
21
-101.216
0
LINE
8
BLACK
6
CONTINUOUS
10
151.802
20
-101.216
11
154.868
21
-104.282
0
LINE
8
BLACK
6
CONTINUOUS
10
154.868
20
-104.282
11
154.882
21
-104.299
0
LINE
8
BLACK
6
CONTINUOUS
10
154.882
20
-104.299
11
154.885
21
-104.302
0
LINE
8
BLACK
6
CONTINUOUS
10
154.885
20
-104.302
11
154.886
21
-104.305
0
LINE
8
BLACK
6
CONTINUOUS
10
154.886
20
-104.305
11
154.89
21
-104.31
0
LINE
8
BLACK
6
CONTINUOUS
10
154.89
20
-104.31
11
154.896
21
-104.34
0
LINE
8
BLACK
6
CONTINUOUS
10
154.896
20
-104.34
11
154.905
21
-104.37
0
LINE
8
BLACK
6
CONTINUOUS
10
154.905
20
-104.37
11
154.905
21
-110.177
0
LINE
8
BLACK
6
CONTINUOUS
10
154.905
20
-110.177
11
154.99
21
-110.191
0
LINE
8
BLACK
6
CONTINUOUS
10
154.99
20
-110.191
11
155.16
21
-110.259
0
LINE
8
BLACK
6
CONTINUOUS
10
155.16
20
-110.259
11
155.312
21
-110.362
0
LINE
8
BLACK
6
CONTINUOUS
10
155.312
20
-110.362
11
155.439
21
-110.496
0
LINE
8
BLACK
6
CONTINUOUS
10
155.439
20
-110.496
11
155.534
21
-110.653
0
LINE
8
BLACK
6
CONTINUOUS
10
155.534
20
-110.653
11
155.592
21
-110.827
0
LINE
8
BLACK
6
CONTINUOUS
10
155.592
20
-110.827
11
155.612
21
-111.01
0
LINE
8
BLACK
6
CONTINUOUS
10
155.612
20
-111.01
11
155.612
21
-111.31
0
LINE
8
BLACK
6
CONTINUOUS
10
155.612
20
-111.31
11
155.607
21
-111.402
0
LINE
8
BLACK
6
CONTINUOUS
10
155.607
20
-111.402
11
155.568
21
-111.581
0
LINE
8
BLACK
6
CONTINUOUS
10
155.568
20
-111.581
11
155.491
21
-111.748
0
LINE
8
BLACK
6
CONTINUOUS
10
155.491
20
-111.748
11
155.379
21
-111.895
0
LINE
8
BLACK
6
CONTINUOUS
10
155.379
20
-111.895
11
155.239
21
-112.014
0
LINE
8
BLACK
6
CONTINUOUS
10
155.239
20
-112.014
11
155.077
21
-112.1
0
LINE
8
BLACK
6
CONTINUOUS
10
155.077
20
-112.1
11
154.9
21
-112.149
0
LINE
8
BLACK
6
CONTINUOUS
10
154.9
20
-112.149
11
154.716
21
-112.159
0
LINE
8
BLACK
6
CONTINUOUS
10
154.716
20
-112.159
11
154.535
21
-112.129
0
LINE
8
BLACK
6
CONTINUOUS
10
154.535
20
-112.129
11
154.364
21
-112.061
0
LINE
8
BLACK
6
CONTINUOUS
10
154.364
20
-112.061
11
154.212
21
-111.958
0
LINE
8
BLACK
6
CONTINUOUS
10
154.212
20
-111.958
11
154.086
21
-111.824
0
LINE
8
BLACK
6
CONTINUOUS
10
154.086
20
-111.824
11
153.991
21
-111.667
0
LINE
8
BLACK
6
CONTINUOUS
10
153.991
20
-111.667
11
153.932
21
-111.493
0
LINE
8
BLACK
6
CONTINUOUS
10
153.932
20
-111.493
11
153.912
21
-111.31
0
LINE
8
BLACK
6
CONTINUOUS
10
153.912
20
-111.31
11
153.912
21
-111.01
0
LINE
8
BLACK
6
CONTINUOUS
10
153.912
20
-111.01
11
153.917
21
-110.918
0
LINE
8
BLACK
6
CONTINUOUS
10
153.917
20
-110.918
11
153.957
21
-110.739
0
LINE
8
BLACK
6
CONTINUOUS
10
153.957
20
-110.739
11
154.034
21
-110.572
0
LINE
8
BLACK
6
CONTINUOUS
10
154.034
20
-110.572
11
154.145
21
-110.425
0
LINE
8
BLACK
6
CONTINUOUS
10
154.145
20
-110.425
11
154.285
21
-110.306
0
LINE
8
BLACK
6
CONTINUOUS
10
154.285
20
-110.306
11
154.448
21
-110.22
0
LINE
8
BLACK
6
CONTINUOUS
10
154.448
20
-110.22
11
154.625
21
-110.171
0
LINE
8
BLACK
6
CONTINUOUS
10
154.625
20
-110.171
11
154.655
21
-110.17
0
LINE
8
BLACK
6
CONTINUOUS
10
154.655
20
-110.17
11
154.655
21
-104.422
0
LINE
8
BLACK
6
CONTINUOUS
10
154.655
20
-104.422
11
151.58
21
-101.347
0
LINE
8
BLACK
6
CONTINUOUS
10
151.58
20
-101.347
11
151.559
21
-101.319
0
LINE
8
BLACK
6
CONTINUOUS
10
151.559
20
-101.319
11
151.557
21
-101.31
0
LINE
8
BLACK
6
CONTINUOUS
10
151.557
20
-101.31
11
151.552
21
-101.302
0
LINE
8
BLACK
6
CONTINUOUS
10
151.552
20
-101.302
11
151.55
21
-101.276
0
LINE
8
BLACK
6
CONTINUOUS
10
151.55
20
-101.276
11
151.544
21
-101.25
0
LINE
8
BLACK
6
CONTINUOUS
10
151.544
20
-101.25
11
151.547
21
-101.241
0
LINE
8
BLACK
6
CONTINUOUS
10
151.547
20
-101.241
11
151.547
21
-101.232
0
LINE
8
BLACK
6
CONTINUOUS
10
151.547
20
-101.232
11
151.552
21
-101.221
0
LINE
8
BLACK
6
CONTINUOUS
10
151.552
20
-101.221
11
151.552
21
-98.1425
0
LINE
8
BLACK
6
CONTINUOUS
10
151.552
20
-98.1425
11
151.553
21
-98.1418
0
LINE
8
BLACK
6
CONTINUOUS
10
151.553
20
-98.1418
11
151.553
21
-97.7298
0
LINE
8
BLACK
6
CONTINUOUS
10
151.553
20
-97.7298
11
151.807
21
-97.7298
0
LINE
8
BLACK
6
CONTINUOUS
10
151.807
20
-97.7298
11
151.807
21
-98.6902
0
LINE
8
BLACK
6
CONTINUOUS
10
152.307
20
-98.6902
11
152.303
21
-98.6902
0
LINE
8
BLACK
6
CONTINUOUS
10
152.303
20
-98.6902
11
152.303
21
-100.076
0
LINE
8
BLACK
6
CONTINUOUS
10
152.303
20
-100.076
11
158.468
21
-106.242
0
LINE
8
BLACK
6
CONTINUOUS
10
158.468
20
-106.242
11
158.482
21
-106.259
0
LINE
8
BLACK
6
CONTINUOUS
10
158.482
20
-106.259
11
158.485
21
-106.262
0
LINE
8
BLACK
6
CONTINUOUS
10
158.485
20
-106.262
11
158.486
21
-106.265
0
LINE
8
BLACK
6
CONTINUOUS
10
158.486
20
-106.265
11
158.49
21
-106.27
0
LINE
8
BLACK
6
CONTINUOUS
10
158.49
20
-106.27
11
158.496
21
-106.3
0
LINE
8
BLACK
6
CONTINUOUS
10
158.496
20
-106.3
11
158.505
21
-106.33
0
LINE
8
BLACK
6
CONTINUOUS
10
158.505
20
-106.33
11
158.505
21
-110.177
0
LINE
8
BLACK
6
CONTINUOUS
10
158.505
20
-110.177
11
158.59
21
-110.191
0
LINE
8
BLACK
6
CONTINUOUS
10
158.59
20
-110.191
11
158.76
21
-110.259
0
LINE
8
BLACK
6
CONTINUOUS
10
158.76
20
-110.259
11
158.912
21
-110.362
0
LINE
8
BLACK
6
CONTINUOUS
10
158.912
20
-110.362
11
159.039
21
-110.496
0
LINE
8
BLACK
6
CONTINUOUS
10
159.039
20
-110.496
11
159.134
21
-110.653
0
LINE
8
BLACK
6
CONTINUOUS
10
159.134
20
-110.653
11
159.192
21
-110.827
0
LINE
8
BLACK
6
CONTINUOUS
10
159.192
20
-110.827
11
159.212
21
-111.01
0
LINE
8
BLACK
6
CONTINUOUS
10
159.212
20
-111.01
11
159.212
21
-111.31
0
LINE
8
BLACK
6
CONTINUOUS
10
159.212
20
-111.31
11
159.207
21
-111.402
0
LINE
8
BLACK
6
CONTINUOUS
10
159.207
20
-111.402
11
159.168
21
-111.581
0
LINE
8
BLACK
6
CONTINUOUS
10
159.168
20
-111.581
11
159.091
21
-111.748
0
LINE
8
BLACK
6
CONTINUOUS
10
159.091
20
-111.748
11
158.979
21
-111.895
0
LINE
8
BLACK
6
CONTINUOUS
10
158.979
20
-111.895
11
158.839
21
-112.014
0
LINE
8
BLACK
6
CONTINUOUS
10
158.839
20
-112.014
11
158.677
21
-112.1
0
LINE
8
BLACK
6
CONTINUOUS
10
158.677
20
-112.1
11
158.5
21
-112.149
0
LINE
8
BLACK
6
CONTINUOUS
10
158.5
20
-112.149
11
158.316
21
-112.159
0
LINE
8
BLACK
6
CONTINUOUS
10
158.316
20
-112.159
11
158.135
21
-112.129
0
LINE
8
BLACK
6
CONTINUOUS
10
158.135
20
-112.129
11
157.964
21
-112.061
0
LINE
8
BLACK
6
CONTINUOUS
10
157.964
20
-112.061
11
157.812
21
-111.958
0
LINE
8
BLACK
6
CONTINUOUS
10
157.812
20
-111.958
11
157.686
21
-111.824
0
LINE
8
BLACK
6
CONTINUOUS
10
157.686
20
-111.824
11
157.591
21
-111.667
0
LINE
8
BLACK
6
CONTINUOUS
10
157.591
20
-111.667
11
157.532
21
-111.493
0
LINE
8
BLACK
6
CONTINUOUS
10
157.532
20
-111.493
11
157.512
21
-111.31
0
LINE
8
BLACK
6
CONTINUOUS
10
157.512
20
-111.31
11
157.512
21
-111.01
0
LINE
8
BLACK
6
CONTINUOUS
10
157.512
20
-111.01
11
157.517
21
-110.918
0
LINE
8
BLACK
6
CONTINUOUS
10
157.517
20
-110.918
11
157.557
21
-110.739
0
LINE
8
BLACK
6
CONTINUOUS
10
157.557
20
-110.739
11
157.634
21
-110.572
0
LINE
8
BLACK
6
CONTINUOUS
10
157.634
20
-110.572
11
157.745
21
-110.425
0
LINE
8
BLACK
6
CONTINUOUS
10
157.745
20
-110.425
11
157.885
21
-110.306
0
LINE
8
BLACK
6
CONTINUOUS
10
157.885
20
-110.306
11
158.048
21
-110.22
0
LINE
8
BLACK
6
CONTINUOUS
10
158.048
20
-110.22
11
158.225
21
-110.171
0
LINE
8
BLACK
6
CONTINUOUS
10
158.225
20
-110.171
11
158.255
21
-110.17
0
LINE
8
BLACK
6
CONTINUOUS
10
158.255
20
-110.17
11
158.255
21
-106.382
0
LINE
8
BLACK
6
CONTINUOUS
10
158.255
20
-106.382
11
152.089
21
-100.216
0
LINE
8
BLACK
6
CONTINUOUS
10
152.089
20
-100.216
11
152.076
21
-100.198
0
LINE
8
BLACK
6
CONTINUOUS
10
152.076
20
-100.198
11
152.072
21
-100.195
0
LINE
8
BLACK
6
CONTINUOUS
10
152.072
20
-100.195
11
152.072
21
-100.192
0
LINE
8
BLACK
6
CONTINUOUS
10
152.072
20
-100.192
11
152.068
21
-100.187
0
LINE
8
BLACK
6
CONTINUOUS
10
152.068
20
-100.187
11
152.061
21
-100.157
0
LINE
8
BLACK
6
CONTINUOUS
10
152.061
20
-100.157
11
152.053
21
-100.128
0
LINE
8
BLACK
6
CONTINUOUS
10
152.053
20
-100.128
11
152.053
21
-98.1425
0
LINE
8
BLACK
6
CONTINUOUS
10
152.053
20
-98.1425
11
152.053
21
-98.1418
0
LINE
8
BLACK
6
CONTINUOUS
10
152.053
20
-98.1418
11
152.053
21
-97.7298
0
LINE
8
BLACK
6
CONTINUOUS
10
152.053
20
-97.7298
11
152.307
21
-97.7298
0
LINE
8
BLACK
6
CONTINUOUS
10
152.307
20
-97.7298
11
152.307
21
-98.6902
0
LINE
8
BLACK
6
CONTINUOUS
10
152.807
20
-98.6902
11
152.802
21
-98.6902
0
LINE
8
BLACK
6
CONTINUOUS
10
152.802
20
-98.6902
11
152.802
21
-99.0657
0
LINE
8
BLACK
6
CONTINUOUS
10
152.802
20
-99.0657
11
162.068
21
-108.332
0
LINE
8
BLACK
6
CONTINUOUS
10
162.068
20
-108.332
11
162.082
21
-108.349
0
LINE
8
BLACK
6
CONTINUOUS
10
162.082
20
-108.349
11
162.085
21
-108.352
0
LINE
8
BLACK
6
CONTINUOUS
10
162.085
20
-108.352
11
162.086
21
-108.355
0
LINE
8
BLACK
6
CONTINUOUS
10
162.086
20
-108.355
11
162.09
21
-108.36
0
LINE
8
BLACK
6
CONTINUOUS
10
162.09
20
-108.36
11
162.096
21
-108.39
0
LINE
8
BLACK
6
CONTINUOUS
10
162.096
20
-108.39
11
162.105
21
-108.42
0
LINE
8
BLACK
6
CONTINUOUS
10
162.105
20
-108.42
11
162.105
21
-110.177
0
LINE
8
BLACK
6
CONTINUOUS
10
162.105
20
-110.177
11
162.19
21
-110.191
0
LINE
8
BLACK
6
CONTINUOUS
10
162.19
20
-110.191
11
162.36
21
-110.259
0
LINE
8
BLACK
6
CONTINUOUS
10
162.36
20
-110.259
11
162.512
21
-110.362
0
LINE
8
BLACK
6
CONTINUOUS
10
162.512
20
-110.362
11
162.639
21
-110.496
0
LINE
8
BLACK
6
CONTINUOUS
10
162.639
20
-110.496
11
162.734
21
-110.653
0
LINE
8
BLACK
6
CONTINUOUS
10
162.734
20
-110.653
11
162.792
21
-110.827
0
LINE
8
BLACK
6
CONTINUOUS
10
162.792
20
-110.827
11
162.812
21
-111.01
0
LINE
8
BLACK
6
CONTINUOUS
10
162.812
20
-111.01
11
162.812
21
-111.31
0
LINE
8
BLACK
6
CONTINUOUS
10
162.812
20
-111.31
11
162.807
21
-111.402
0
LINE
8
BLACK
6
CONTINUOUS
10
162.807
20
-111.402
11
162.768
21
-111.581
0
LINE
8
BLACK
6
CONTINUOUS
10
162.768
20
-111.581
11
162.691
21
-111.748
0
LINE
8
BLACK
6
CONTINUOUS
10
162.691
20
-111.748
11
162.579
21
-111.895
0
LINE
8
BLACK
6
CONTINUOUS
10
162.579
20
-111.895
11
162.439
21
-112.014
0
LINE
8
BLACK
6
CONTINUOUS
10
162.439
20
-112.014
11
162.277
21
-112.1
0
LINE
8
BLACK
6
CONTINUOUS
10
162.277
20
-112.1
11
162.1
21
-112.149
0
LINE
8
BLACK
6
CONTINUOUS
10
162.1
20
-112.149
11
161.916
21
-112.159
0
LINE
8
BLACK
6
CONTINUOUS
10
161.916
20
-112.159
11
161.735
21
-112.129
0
LINE
8
BLACK
6
CONTINUOUS
10
161.735
20
-112.129
11
161.564
21
-112.061
0
LINE
8
BLACK
6
CONTINUOUS
10
161.564
20
-112.061
11
161.412
21
-111.958
0
LINE
8
BLACK
6
CONTINUOUS
10
161.412
20
-111.958
11
161.286
21
-111.824
0
LINE
8
BLACK
6
CONTINUOUS
10
161.286
20
-111.824
11
161.191
21
-111.667
0
LINE
8
BLACK
6
CONTINUOUS
10
161.191
20
-111.667
11
161.132
21
-111.493
0
LINE
8
BLACK
6
CONTINUOUS
10
161.132
20
-111.493
11
161.112
21
-111.31
0
LINE
8
BLACK
6
CONTINUOUS
10
161.112
20
-111.31
11
161.112
21
-111.01
0
LINE
8
BLACK
6
CONTINUOUS
10
161.112
20
-111.01
11
161.117
21
-110.918
0
LINE
8
BLACK
6
CONTINUOUS
10
161.117
20
-110.918
11
161.157
21
-110.739
0
LINE
8
BLACK
6
CONTINUOUS
10
161.157
20
-110.739
11
161.234
21
-110.572
0
LINE
8
BLACK
6
CONTINUOUS
10
161.234
20
-110.572
11
161.345
21
-110.425
0
LINE
8
BLACK
6
CONTINUOUS
10
161.345
20
-110.425
11
161.485
21
-110.306
0
LINE
8
BLACK
6
CONTINUOUS
10
161.485
20
-110.306
11
161.648
21
-110.22
0
LINE
8
BLACK
6
CONTINUOUS
10
161.648
20
-110.22
11
161.825
21
-110.171
0
LINE
8
BLACK
6
CONTINUOUS
10
161.825
20
-110.171
11
161.855
21
-110.17
0
LINE
8
BLACK
6
CONTINUOUS
10
161.855
20
-110.17
11
161.855
21
-108.472
0
LINE
8
BLACK
6
CONTINUOUS
10
161.855
20
-108.472
11
152.589
21
-99.2059
0
LINE
8
BLACK
6
CONTINUOUS
10
152.589
20
-99.2059
11
152.576
21
-99.188
0
LINE
8
BLACK
6
CONTINUOUS
10
152.576
20
-99.188
11
152.572
21
-99.1851
0
LINE
8
BLACK
6
CONTINUOUS
10
152.572
20
-99.1851
11
152.572
21
-99.1825
0
LINE
8
BLACK
6
CONTINUOUS
10
152.572
20
-99.1825
11
152.568
21
-99.1774
0
LINE
8
BLACK
6
CONTINUOUS
10
152.568
20
-99.1774
11
152.561
21
-99.1472
0
LINE
8
BLACK
6
CONTINUOUS
10
152.561
20
-99.1472
11
152.552
21
-99.1175
0
LINE
8
BLACK
6
CONTINUOUS
10
152.552
20
-99.1175
11
152.552
21
-98.1425
0
LINE
8
BLACK
6
CONTINUOUS
10
152.552
20
-98.1425
11
152.553
21
-98.1418
0
LINE
8
BLACK
6
CONTINUOUS
10
152.553
20
-98.1418
11
152.553
21
-97.7298
0
LINE
8
BLACK
6
CONTINUOUS
10
152.553
20
-97.7298
11
152.807
21
-97.7298
0
LINE
8
BLACK
6
CONTINUOUS
10
152.807
20
-97.7298
11
152.807
21
-98.6902
0
LINE
8
BLACK
6
CONTINUOUS
10
136.062
20
-84.165
11
136.241
21
-84.2045
0
LINE
8
BLACK
6
CONTINUOUS
10
136.241
20
-84.2045
11
136.408
21
-84.2817
0
LINE
8
BLACK
6
CONTINUOUS
10
136.408
20
-84.2817
11
136.555
21
-84.3929
0
LINE
8
BLACK
6
CONTINUOUS
10
136.555
20
-84.3929
11
136.674
21
-84.533
0
LINE
8
BLACK
6
CONTINUOUS
10
136.674
20
-84.533
11
136.76
21
-84.6954
0
LINE
8
BLACK
6
CONTINUOUS
10
136.76
20
-84.6954
11
136.809
21
-84.8725
0
LINE
8
BLACK
6
CONTINUOUS
10
136.809
20
-84.8725
11
136.811
21
-84.915
0
LINE
8
BLACK
6
CONTINUOUS
10
136.811
20
-84.915
11
138.5
21
-84.915
0
LINE
8
BLACK
6
CONTINUOUS
10
138.5
20
-84.915
11
138.522
21
-84.9182
0
LINE
8
BLACK
6
CONTINUOUS
10
138.522
20
-84.9182
11
138.527
21
-84.9179
0
LINE
8
BLACK
6
CONTINUOUS
10
138.527
20
-84.9179
11
138.529
21
-84.9192
0
LINE
8
BLACK
6
CONTINUOUS
10
138.529
20
-84.9192
11
138.535
21
-84.9201
0
LINE
8
BLACK
6
CONTINUOUS
10
138.535
20
-84.9201
11
138.561
21
-84.9368
0
LINE
8
BLACK
6
CONTINUOUS
10
138.561
20
-84.9368
11
138.588
21
-84.9516
0
LINE
8
BLACK
6
CONTINUOUS
10
138.588
20
-84.9516
11
147.854
21
-94.2175
0
LINE
8
BLACK
6
CONTINUOUS
10
147.854
20
-94.2175
11
148.327
21
-94.2175
0
LINE
8
BLACK
6
CONTINUOUS
10
148.327
20
-94.2175
11
148.327
21
-94.2101
0
LINE
8
BLACK
6
CONTINUOUS
10
148.327
20
-94.2101
11
149.288
21
-94.2101
0
LINE
8
BLACK
6
CONTINUOUS
10
149.288
20
-94.2101
11
149.288
21
-94.4649
0
LINE
8
BLACK
6
CONTINUOUS
10
149.288
20
-94.4649
11
148.786
21
-94.4649
0
LINE
8
BLACK
6
CONTINUOUS
10
148.786
20
-94.4649
11
148.778
21
-94.4675
0
LINE
8
BLACK
6
CONTINUOUS
10
148.778
20
-94.4675
11
147.802
21
-94.4675
0
LINE
8
BLACK
6
CONTINUOUS
10
147.802
20
-94.4675
11
147.78
21
-94.4643
0
LINE
8
BLACK
6
CONTINUOUS
10
147.78
20
-94.4643
11
147.776
21
-94.4646
0
LINE
8
BLACK
6
CONTINUOUS
10
147.776
20
-94.4646
11
147.774
21
-94.4633
0
LINE
8
BLACK
6
CONTINUOUS
10
147.774
20
-94.4633
11
147.767
21
-94.4624
0
LINE
8
BLACK
6
CONTINUOUS
10
147.767
20
-94.4624
11
147.741
21
-94.4457
0
LINE
8
BLACK
6
CONTINUOUS
10
147.741
20
-94.4457
11
147.714
21
-94.4309
0
LINE
8
BLACK
6
CONTINUOUS
10
147.714
20
-94.4309
11
138.448
21
-85.165
0
LINE
8
BLACK
6
CONTINUOUS
10
138.448
20
-85.165
11
136.801
21
-85.165
0
LINE
8
BLACK
6
CONTINUOUS
10
136.801
20
-85.165
11
136.789
21
-85.2374
0
LINE
8
BLACK
6
CONTINUOUS
10
136.789
20
-85.2374
11
136.721
21
-85.4081
0
LINE
8
BLACK
6
CONTINUOUS
10
136.721
20
-85.4081
11
136.618
21
-85.5603
0
LINE
8
BLACK
6
CONTINUOUS
10
136.618
20
-85.5603
11
136.484
21
-85.6867
0
LINE
8
BLACK
6
CONTINUOUS
10
136.484
20
-85.6867
11
136.327
21
-85.7814
0
LINE
8
BLACK
6
CONTINUOUS
10
136.327
20
-85.7814
11
136.153
21
-85.8401
0
LINE
8
BLACK
6
CONTINUOUS
10
136.153
20
-85.8401
11
135.97
21
-85.86
0
LINE
8
BLACK
6
CONTINUOUS
10
135.97
20
-85.86
11
135.67
21
-85.86
0
LINE
8
BLACK
6
CONTINUOUS
10
135.67
20
-85.86
11
135.578
21
-85.855
0
LINE
8
BLACK
6
CONTINUOUS
10
135.578
20
-85.855
11
135.399
21
-85.8155
0
LINE
8
BLACK
6
CONTINUOUS
10
135.399
20
-85.8155
11
135.232
21
-85.7383
0
LINE
8
BLACK
6
CONTINUOUS
10
135.232
20
-85.7383
11
135.085
21
-85.6271
0
LINE
8
BLACK
6
CONTINUOUS
10
135.085
20
-85.6271
11
134.966
21
-85.487
0
LINE
8
BLACK
6
CONTINUOUS
10
134.966
20
-85.487
11
134.88
21
-85.3246
0
LINE
8
BLACK
6
CONTINUOUS
10
134.88
20
-85.3246
11
134.831
21
-85.1475
0
LINE
8
BLACK
6
CONTINUOUS
10
134.831
20
-85.1475
11
134.821
21
-84.964
0
LINE
8
BLACK
6
CONTINUOUS
10
134.821
20
-84.964
11
134.851
21
-84.7826
0
LINE
8
BLACK
6
CONTINUOUS
10
134.851
20
-84.7826
11
134.919
21
-84.6119
0
LINE
8
BLACK
6
CONTINUOUS
10
134.919
20
-84.6119
11
135.022
21
-84.4597
0
LINE
8
BLACK
6
CONTINUOUS
10
135.022
20
-84.4597
11
135.156
21
-84.3333
0
LINE
8
BLACK
6
CONTINUOUS
10
135.156
20
-84.3333
11
135.313
21
-84.2386
0
LINE
8
BLACK
6
CONTINUOUS
10
135.313
20
-84.2386
11
135.487
21
-84.1799
0
LINE
8
BLACK
6
CONTINUOUS
10
135.487
20
-84.1799
11
135.67
21
-84.16
0
LINE
8
BLACK
6
CONTINUOUS
10
135.67
20
-84.16
11
135.97
21
-84.16
0
LINE
8
BLACK
6
CONTINUOUS
10
135.97
20
-84.16
11
136.062
21
-84.165
0
LINE
8
BLACK
6
CONTINUOUS
10
152.856
20
-97.5139
11
149.504
21
-97.5139
0
LINE
8
BLACK
6
CONTINUOUS
10
149.504
20
-97.5139
11
149.504
21
-94.1611
0
LINE
8
BLACK
6
CONTINUOUS
10
149.504
20
-94.1611
11
152.856
21
-94.1611
0
LINE
8
BLACK
6
CONTINUOUS
10
152.856
20
-94.1611
11
152.856
21
-97.5139
0
LINE
8
BLACK
6
CONTINUOUS
10
154.033
20
-97.2125
11
154.528
21
-97.2125
0
LINE
8
BLACK
6
CONTINUOUS
10
154.528
20
-97.2125
11
154.55
21
-97.2157
0
LINE
8
BLACK
6
CONTINUOUS
10
154.55
20
-97.2157
11
154.554
21
-97.2154
0
LINE
8
BLACK
6
CONTINUOUS
10
154.554
20
-97.2154
11
154.556
21
-97.2167
0
LINE
8
BLACK
6
CONTINUOUS
10
154.556
20
-97.2167
11
154.563
21
-97.2176
0
LINE
8
BLACK
6
CONTINUOUS
10
154.563
20
-97.2176
11
154.589
21
-97.2343
0
LINE
8
BLACK
6
CONTINUOUS
10
154.589
20
-97.2343
11
154.616
21
-97.2491
0
LINE
8
BLACK
6
CONTINUOUS
10
154.616
20
-97.2491
11
163.882
21
-106.515
0
LINE
8
BLACK
6
CONTINUOUS
10
163.882
20
-106.515
11
165.524
21
-106.515
0
LINE
8
BLACK
6
CONTINUOUS
10
165.524
20
-106.515
11
165.541
21
-106.413
0
LINE
8
BLACK
6
CONTINUOUS
10
165.541
20
-106.413
11
165.609
21
-106.242
0
LINE
8
BLACK
6
CONTINUOUS
10
165.609
20
-106.242
11
165.712
21
-106.09
0
LINE
8
BLACK
6
CONTINUOUS
10
165.712
20
-106.09
11
165.846
21
-105.963
0
LINE
8
BLACK
6
CONTINUOUS
10
165.846
20
-105.963
11
166.003
21
-105.869
0
LINE
8
BLACK
6
CONTINUOUS
10
166.003
20
-105.869
11
166.177
21
-105.81
0
LINE
8
BLACK
6
CONTINUOUS
10
166.177
20
-105.81
11
166.36
21
-105.79
0
LINE
8
BLACK
6
CONTINUOUS
10
166.36
20
-105.79
11
166.66
21
-105.79
0
LINE
8
BLACK
6
CONTINUOUS
10
166.66
20
-105.79
11
166.752
21
-105.795
0
LINE
8
BLACK
6
CONTINUOUS
10
166.752
20
-105.795
11
166.931
21
-105.834
0
LINE
8
BLACK
6
CONTINUOUS
10
166.931
20
-105.834
11
167.098
21
-105.912
0
LINE
8
BLACK
6
CONTINUOUS
10
167.098
20
-105.912
11
167.245
21
-106.023
0
LINE
8
BLACK
6
CONTINUOUS
10
167.245
20
-106.023
11
167.364
21
-106.163
0
LINE
8
BLACK
6
CONTINUOUS
10
167.364
20
-106.163
11
167.45
21
-106.325
0
LINE
8
BLACK
6
CONTINUOUS
10
167.45
20
-106.325
11
167.499
21
-106.502
0
LINE
8
BLACK
6
CONTINUOUS
10
167.499
20
-106.502
11
167.509
21
-106.686
0
LINE
8
BLACK
6
CONTINUOUS
10
167.509
20
-106.686
11
167.479
21
-106.867
0
LINE
8
BLACK
6
CONTINUOUS
10
167.479
20
-106.867
11
167.411
21
-107.038
0
LINE
8
BLACK
6
CONTINUOUS
10
167.411
20
-107.038
11
167.308
21
-107.19
0
LINE
8
BLACK
6
CONTINUOUS
10
167.308
20
-107.19
11
167.174
21
-107.317
0
LINE
8
BLACK
6
CONTINUOUS
10
167.174
20
-107.317
11
167.017
21
-107.411
0
LINE
8
BLACK
6
CONTINUOUS
10
167.017
20
-107.411
11
166.843
21
-107.47
0
LINE
8
BLACK
6
CONTINUOUS
10
166.843
20
-107.47
11
166.66
21
-107.49
0
LINE
8
BLACK
6
CONTINUOUS
10
166.66
20
-107.49
11
166.36
21
-107.49
0
LINE
8
BLACK
6
CONTINUOUS
10
166.36
20
-107.49
11
166.268
21
-107.485
0
LINE
8
BLACK
6
CONTINUOUS
10
166.268
20
-107.485
11
166.089
21
-107.446
0
LINE
8
BLACK
6
CONTINUOUS
10
166.089
20
-107.446
11
165.922
21
-107.368
0
LINE
8
BLACK
6
CONTINUOUS
10
165.922
20
-107.368
11
165.775
21
-107.257
0
LINE
8
BLACK
6
CONTINUOUS
10
165.775
20
-107.257
11
165.656
21
-107.117
0
LINE
8
BLACK
6
CONTINUOUS
10
165.656
20
-107.117
11
165.57
21
-106.955
0
LINE
8
BLACK
6
CONTINUOUS
10
165.57
20
-106.955
11
165.521
21
-106.778
0
LINE
8
BLACK
6
CONTINUOUS
10
165.521
20
-106.778
11
165.521
21
-106.765
0
LINE
8
BLACK
6
CONTINUOUS
10
165.521
20
-106.765
11
163.83
21
-106.765
0
LINE
8
BLACK
6
CONTINUOUS
10
163.83
20
-106.765
11
163.808
21
-106.762
0
LINE
8
BLACK
6
CONTINUOUS
10
163.808
20
-106.762
11
163.803
21
-106.762
0
LINE
8
BLACK
6
CONTINUOUS
10
163.803
20
-106.762
11
163.801
21
-106.761
0
LINE
8
BLACK
6
CONTINUOUS
10
163.801
20
-106.761
11
163.795
21
-106.76
0
LINE
8
BLACK
6
CONTINUOUS
10
163.795
20
-106.76
11
163.769
21
-106.743
0
LINE
8
BLACK
6
CONTINUOUS
10
163.769
20
-106.743
11
163.742
21
-106.728
0
LINE
8
BLACK
6
CONTINUOUS
10
163.742
20
-106.728
11
154.476
21
-97.4625
0
LINE
8
BLACK
6
CONTINUOUS
10
154.476
20
-97.4625
11
154.033
21
-97.4625
0
LINE
8
BLACK
6
CONTINUOUS
10
154.033
20
-97.4625
11
154.033
21
-97.4649
0
LINE
8
BLACK
6
CONTINUOUS
10
154.033
20
-97.4649
11
153.072
21
-97.4649
0
LINE
8
BLACK
6
CONTINUOUS
10
153.072
20
-97.4649
11
153.072
21
-97.2101
0
LINE
8
BLACK
6
CONTINUOUS
10
153.072
20
-97.2101
11
154.033
21
-97.2101
0
LINE
8
BLACK
6
CONTINUOUS
10
154.033
20
-97.2101
11
154.033
21
-97.2125
0
LINE
8
BLACK
6
CONTINUOUS
10
154.033
20
-96.7125
11
155.538
21
-96.7125
0
LINE
8
BLACK
6
CONTINUOUS
10
155.538
20
-96.7125
11
155.56
21
-96.7157
0
LINE
8
BLACK
6
CONTINUOUS
10
155.56
20
-96.7157
11
155.564
21
-96.7154
0
LINE
8
BLACK
6
CONTINUOUS
10
155.564
20
-96.7154
11
155.566
21
-96.7167
0
LINE
8
BLACK
6
CONTINUOUS
10
155.566
20
-96.7167
11
155.573
21
-96.7176
0
LINE
8
BLACK
6
CONTINUOUS
10
155.573
20
-96.7176
11
155.599
21
-96.7343
0
LINE
8
BLACK
6
CONTINUOUS
10
155.599
20
-96.7343
11
155.626
21
-96.7491
0
LINE
8
BLACK
6
CONTINUOUS
10
155.626
20
-96.7491
11
161.792
21
-102.915
0
LINE
8
BLACK
6
CONTINUOUS
10
161.792
20
-102.915
11
165.524
21
-102.915
0
LINE
8
BLACK
6
CONTINUOUS
10
165.524
20
-102.915
11
165.541
21
-102.813
0
LINE
8
BLACK
6
CONTINUOUS
10
165.541
20
-102.813
11
165.609
21
-102.642
0
LINE
8
BLACK
6
CONTINUOUS
10
165.609
20
-102.642
11
165.712
21
-102.49
0
LINE
8
BLACK
6
CONTINUOUS
10
165.712
20
-102.49
11
165.846
21
-102.363
0
LINE
8
BLACK
6
CONTINUOUS
10
165.846
20
-102.363
11
166.003
21
-102.269
0
LINE
8
BLACK
6
CONTINUOUS
10
166.003
20
-102.269
11
166.177
21
-102.21
0
LINE
8
BLACK
6
CONTINUOUS
10
166.177
20
-102.21
11
166.36
21
-102.19
0
LINE
8
BLACK
6
CONTINUOUS
10
166.36
20
-102.19
11
166.66
21
-102.19
0
LINE
8
BLACK
6
CONTINUOUS
10
166.66
20
-102.19
11
166.752
21
-102.195
0
LINE
8
BLACK
6
CONTINUOUS
10
166.752
20
-102.195
11
166.931
21
-102.234
0
LINE
8
BLACK
6
CONTINUOUS
10
166.931
20
-102.234
11
167.098
21
-102.312
0
LINE
8
BLACK
6
CONTINUOUS
10
167.098
20
-102.312
11
167.245
21
-102.423
0
LINE
8
BLACK
6
CONTINUOUS
10
167.245
20
-102.423
11
167.364
21
-102.563
0
LINE
8
BLACK
6
CONTINUOUS
10
167.364
20
-102.563
11
167.45
21
-102.725
0
LINE
8
BLACK
6
CONTINUOUS
10
167.45
20
-102.725
11
167.499
21
-102.902
0
LINE
8
BLACK
6
CONTINUOUS
10
167.499
20
-102.902
11
167.509
21
-103.086
0
LINE
8
BLACK
6
CONTINUOUS
10
167.509
20
-103.086
11
167.479
21
-103.267
0
LINE
8
BLACK
6
CONTINUOUS
10
167.479
20
-103.267
11
167.411
21
-103.438
0
LINE
8
BLACK
6
CONTINUOUS
10
167.411
20
-103.438
11
167.308
21
-103.59
0
LINE
8
BLACK
6
CONTINUOUS
10
167.308
20
-103.59
11
167.174
21
-103.717
0
LINE
8
BLACK
6
CONTINUOUS
10
167.174
20
-103.717
11
167.017
21
-103.811
0
LINE
8
BLACK
6
CONTINUOUS
10
167.017
20
-103.811
11
166.843
21
-103.87
0
LINE
8
BLACK
6
CONTINUOUS
10
166.843
20
-103.87
11
166.66
21
-103.89
0
LINE
8
BLACK
6
CONTINUOUS
10
166.66
20
-103.89
11
166.36
21
-103.89
0
LINE
8
BLACK
6
CONTINUOUS
10
166.36
20
-103.89
11
166.268
21
-103.885
0
LINE
8
BLACK
6
CONTINUOUS
10
166.268
20
-103.885
11
166.089
21
-103.846
0
LINE
8
BLACK
6
CONTINUOUS
10
166.089
20
-103.846
11
165.922
21
-103.768
0
LINE
8
BLACK
6
CONTINUOUS
10
165.922
20
-103.768
11
165.775
21
-103.657
0
LINE
8
BLACK
6
CONTINUOUS
10
165.775
20
-103.657
11
165.656
21
-103.517
0
LINE
8
BLACK
6
CONTINUOUS
10
165.656
20
-103.517
11
165.57
21
-103.355
0
LINE
8
BLACK
6
CONTINUOUS
10
165.57
20
-103.355
11
165.521
21
-103.178
0
LINE
8
BLACK
6
CONTINUOUS
10
165.521
20
-103.178
11
165.521
21
-103.165
0
LINE
8
BLACK
6
CONTINUOUS
10
165.521
20
-103.165
11
161.74
21
-103.165
0
LINE
8
BLACK
6
CONTINUOUS
10
161.74
20
-103.165
11
161.718
21
-103.162
0
LINE
8
BLACK
6
CONTINUOUS
10
161.718
20
-103.162
11
161.713
21
-103.162
0
LINE
8
BLACK
6
CONTINUOUS
10
161.713
20
-103.162
11
161.711
21
-103.161
0
LINE
8
BLACK
6
CONTINUOUS
10
161.711
20
-103.161
11
161.705
21
-103.16
0
LINE
8
BLACK
6
CONTINUOUS
10
161.705
20
-103.16
11
161.679
21
-103.143
0
LINE
8
BLACK
6
CONTINUOUS
10
161.679
20
-103.143
11
161.652
21
-103.128
0
LINE
8
BLACK
6
CONTINUOUS
10
161.652
20
-103.128
11
155.486
21
-96.9625
0
LINE
8
BLACK
6
CONTINUOUS
10
155.486
20
-96.9625
11
154.033
21
-96.9625
0
LINE
8
BLACK
6
CONTINUOUS
10
154.033
20
-96.9625
11
154.033
21
-96.9649
0
LINE
8
BLACK
6
CONTINUOUS
10
154.033
20
-96.9649
11
153.072
21
-96.9649
0
LINE
8
BLACK
6
CONTINUOUS
10
153.072
20
-96.9649
11
153.072
21
-96.7101
0
LINE
8
BLACK
6
CONTINUOUS
10
153.072
20
-96.7101
11
154.033
21
-96.7101
0
LINE
8
BLACK
6
CONTINUOUS
10
154.033
20
-96.7101
11
154.033
21
-96.7125
0
LINE
8
BLACK
6
CONTINUOUS
10
156.686
20
-96.2073
11
156.695
21
-96.2066
0
LINE
8
BLACK
6
CONTINUOUS
10
156.695
20
-96.2066
11
156.719
21
-96.2194
0
LINE
8
BLACK
6
CONTINUOUS
10
156.719
20
-96.2194
11
156.744
21
-96.2287
0
LINE
8
BLACK
6
CONTINUOUS
10
156.744
20
-96.2287
11
156.749
21
-96.236
0
LINE
8
BLACK
6
CONTINUOUS
10
156.749
20
-96.236
11
156.757
21
-96.2404
0
LINE
8
BLACK
6
CONTINUOUS
10
156.757
20
-96.2404
11
159.832
21
-99.315
0
LINE
8
BLACK
6
CONTINUOUS
10
159.832
20
-99.315
11
165.524
21
-99.315
0
LINE
8
BLACK
6
CONTINUOUS
10
165.524
20
-99.315
11
165.541
21
-99.2126
0
LINE
8
BLACK
6
CONTINUOUS
10
165.541
20
-99.2126
11
165.609
21
-99.0419
0
LINE
8
BLACK
6
CONTINUOUS
10
165.609
20
-99.0419
11
165.712
21
-98.8897
0
LINE
8
BLACK
6
CONTINUOUS
10
165.712
20
-98.8897
11
165.846
21
-98.7633
0
LINE
8
BLACK
6
CONTINUOUS
10
165.846
20
-98.7633
11
166.003
21
-98.6686
0
LINE
8
BLACK
6
CONTINUOUS
10
166.003
20
-98.6686
11
166.177
21
-98.6099
0
LINE
8
BLACK
6
CONTINUOUS
10
166.177
20
-98.6099
11
166.36
21
-98.59
0
LINE
8
BLACK
6
CONTINUOUS
10
166.36
20
-98.59
11
166.66
21
-98.59
0
LINE
8
BLACK
6
CONTINUOUS
10
166.66
20
-98.59
11
166.752
21
-98.595
0
LINE
8
BLACK
6
CONTINUOUS
10
166.752
20
-98.595
11
166.931
21
-98.6345
0
LINE
8
BLACK
6
CONTINUOUS
10
166.931
20
-98.6345
11
167.098
21
-98.7117
0
LINE
8
BLACK
6
CONTINUOUS
10
167.098
20
-98.7117
11
167.245
21
-98.8229
0
LINE
8
BLACK
6
CONTINUOUS
10
167.245
20
-98.8229
11
167.364
21
-98.963
0
LINE
8
BLACK
6
CONTINUOUS
10
167.364
20
-98.963
11
167.45
21
-99.1254
0
LINE
8
BLACK
6
CONTINUOUS
10
167.45
20
-99.1254
11
167.499
21
-99.3025
0
LINE
8
BLACK
6
CONTINUOUS
10
167.499
20
-99.3025
11
167.509
21
-99.486
0
LINE
8
BLACK
6
CONTINUOUS
10
167.509
20
-99.486
11
167.479
21
-99.6674
0
LINE
8
BLACK
6
CONTINUOUS
10
167.479
20
-99.6674
11
167.411
21
-99.8381
0
LINE
8
BLACK
6
CONTINUOUS
10
167.411
20
-99.8381
11
167.308
21
-99.9903
0
LINE
8
BLACK
6
CONTINUOUS
10
167.308
20
-99.9903
11
167.174
21
-100.117
0
LINE
8
BLACK
6
CONTINUOUS
10
167.174
20
-100.117
11
167.017
21
-100.211
0
LINE
8
BLACK
6
CONTINUOUS
10
167.017
20
-100.211
11
166.843
21
-100.27
0
LINE
8
BLACK
6
CONTINUOUS
10
166.843
20
-100.27
11
166.66
21
-100.29
0
LINE
8
BLACK
6
CONTINUOUS
10
166.66
20
-100.29
11
166.36
21
-100.29
0
LINE
8
BLACK
6
CONTINUOUS
10
166.36
20
-100.29
11
166.268
21
-100.285
0
LINE
8
BLACK
6
CONTINUOUS
10
166.268
20
-100.285
11
166.089
21
-100.246
0
LINE
8
BLACK
6
CONTINUOUS
10
166.089
20
-100.246
11
165.922
21
-100.168
0
LINE
8
BLACK
6
CONTINUOUS
10
165.922
20
-100.168
11
165.775
21
-100.057
0
LINE
8
BLACK
6
CONTINUOUS
10
165.775
20
-100.057
11
165.656
21
-99.917
0
LINE
8
BLACK
6
CONTINUOUS
10
165.656
20
-99.917
11
165.57
21
-99.7546
0
LINE
8
BLACK
6
CONTINUOUS
10
165.57
20
-99.7546
11
165.521
21
-99.5775
0
LINE
8
BLACK
6
CONTINUOUS
10
165.521
20
-99.5775
11
165.521
21
-99.565
0
LINE
8
BLACK
6
CONTINUOUS
10
165.521
20
-99.565
11
159.78
21
-99.565
0
LINE
8
BLACK
6
CONTINUOUS
10
159.78
20
-99.565
11
159.758
21
-99.5618
0
LINE
8
BLACK
6
CONTINUOUS
10
159.758
20
-99.5618
11
159.753
21
-99.5621
0
LINE
8
BLACK
6
CONTINUOUS
10
159.753
20
-99.5621
11
159.751
21
-99.5608
0
LINE
8
BLACK
6
CONTINUOUS
10
159.751
20
-99.5608
11
159.745
21
-99.5599
0
LINE
8
BLACK
6
CONTINUOUS
10
159.745
20
-99.5599
11
159.719
21
-99.5432
0
LINE
8
BLACK
6
CONTINUOUS
10
159.719
20
-99.5432
11
159.692
21
-99.5284
0
LINE
8
BLACK
6
CONTINUOUS
10
159.692
20
-99.5284
11
156.626
21
-96.4625
0
LINE
8
BLACK
6
CONTINUOUS
10
156.626
20
-96.4625
11
154.033
21
-96.4625
0
LINE
8
BLACK
6
CONTINUOUS
10
154.033
20
-96.4625
11
154.033
21
-96.4649
0
LINE
8
BLACK
6
CONTINUOUS
10
154.033
20
-96.4649
11
153.072
21
-96.4649
0
LINE
8
BLACK
6
CONTINUOUS
10
153.072
20
-96.4649
11
153.072
21
-96.2101
0
LINE
8
BLACK
6
CONTINUOUS
10
153.072
20
-96.2101
11
154.033
21
-96.2101
0
LINE
8
BLACK
6
CONTINUOUS
10
154.033
20
-96.2101
11
154.033
21
-96.2125
0
LINE
8
BLACK
6
CONTINUOUS
10
154.033
20
-96.2125
11
156.624
21
-96.2125
0
LINE
8
BLACK
6
CONTINUOUS
10
156.624
20
-96.2125
11
156.625
21
-96.2116
0
LINE
8
BLACK
6
CONTINUOUS
10
156.625
20
-96.2116
11
156.652
21
-96.2097
0
LINE
8
BLACK
6
CONTINUOUS
10
156.652
20
-96.2097
11
156.678
21
-96.2041
0
LINE
8
BLACK
6
CONTINUOUS
10
156.678
20
-96.2041
11
156.686
21
-96.2073
0
LINE
8
BLACK
6
CONTINUOUS
10
162.187
20
-79.561
11
162.358
21
-79.629
0
LINE
8
BLACK
6
CONTINUOUS
10
162.358
20
-79.629
11
162.51
21
-79.7322
0
LINE
8
BLACK
6
CONTINUOUS
10
162.51
20
-79.7322
11
162.637
21
-79.8656
0
LINE
8
BLACK
6
CONTINUOUS
10
162.637
20
-79.8656
11
162.731
21
-80.0231
0
LINE
8
BLACK
6
CONTINUOUS
10
162.731
20
-80.0231
11
162.79
21
-80.1973
0
LINE
8
BLACK
6
CONTINUOUS
10
162.79
20
-80.1973
11
162.81
21
-80.38
0
LINE
8
BLACK
6
CONTINUOUS
10
162.81
20
-80.38
11
162.81
21
-80.68
0
LINE
8
BLACK
6
CONTINUOUS
10
162.81
20
-80.68
11
162.805
21
-80.7719
0
LINE
8
BLACK
6
CONTINUOUS
10
162.805
20
-80.7719
11
162.766
21
-80.9514
0
LINE
8
BLACK
6
CONTINUOUS
10
162.766
20
-80.9514
11
162.688
21
-81.1182
0
LINE
8
BLACK
6
CONTINUOUS
10
162.688
20
-81.1182
11
162.577
21
-81.2645
0
LINE
8
BLACK
6
CONTINUOUS
10
162.577
20
-81.2645
11
162.437
21
-81.3835
0
LINE
8
BLACK
6
CONTINUOUS
10
162.437
20
-81.3835
11
162.275
21
-81.4696
0
LINE
8
BLACK
6
CONTINUOUS
10
162.275
20
-81.4696
11
162.098
21
-81.5188
0
LINE
8
BLACK
6
CONTINUOUS
10
162.098
20
-81.5188
11
162.086
21
-81.5194
0
LINE
8
BLACK
6
CONTINUOUS
10
162.086
20
-81.5194
11
162.086
21
-83.1487
0
LINE
8
BLACK
6
CONTINUOUS
10
162.086
20
-83.1487
11
162.083
21
-83.1708
0
LINE
8
BLACK
6
CONTINUOUS
10
162.083
20
-83.1708
11
162.083
21
-83.1753
0
LINE
8
BLACK
6
CONTINUOUS
10
162.083
20
-83.1753
11
162.082
21
-83.1777
0
LINE
8
BLACK
6
CONTINUOUS
10
162.082
20
-83.1777
11
162.081
21
-83.184
0
LINE
8
BLACK
6
CONTINUOUS
10
162.081
20
-83.184
11
162.064
21
-83.21
0
LINE
8
BLACK
6
CONTINUOUS
10
162.064
20
-83.21
11
162.05
21
-83.2371
0
LINE
8
BLACK
6
CONTINUOUS
10
162.05
20
-83.2371
11
152.784
21
-92.503
0
LINE
8
BLACK
6
CONTINUOUS
10
152.784
20
-92.503
11
152.784
21
-92.9848
0
LINE
8
BLACK
6
CONTINUOUS
10
152.784
20
-92.9848
11
152.807
21
-92.9848
0
LINE
8
BLACK
6
CONTINUOUS
10
152.807
20
-92.9848
11
152.807
21
-93.9452
0
LINE
8
BLACK
6
CONTINUOUS
10
152.807
20
-93.9452
11
152.553
21
-93.9452
0
LINE
8
BLACK
6
CONTINUOUS
10
152.553
20
-93.9452
11
152.553
21
-93.4905
0
LINE
8
BLACK
6
CONTINUOUS
10
152.553
20
-93.4905
11
152.534
21
-93.4262
0
LINE
8
BLACK
6
CONTINUOUS
10
152.534
20
-93.4262
11
152.534
21
-92.4513
0
LINE
8
BLACK
6
CONTINUOUS
10
152.534
20
-92.4513
11
152.537
21
-92.4292
0
LINE
8
BLACK
6
CONTINUOUS
10
152.537
20
-92.4292
11
152.537
21
-92.4247
0
LINE
8
BLACK
6
CONTINUOUS
10
152.537
20
-92.4247
11
152.538
21
-92.4223
0
LINE
8
BLACK
6
CONTINUOUS
10
152.538
20
-92.4223
11
152.539
21
-92.416
0
LINE
8
BLACK
6
CONTINUOUS
10
152.539
20
-92.416
11
152.556
21
-92.39
0
LINE
8
BLACK
6
CONTINUOUS
10
152.556
20
-92.39
11
152.57
21
-92.3629
0
LINE
8
BLACK
6
CONTINUOUS
10
152.57
20
-92.3629
11
161.836
21
-83.097
0
LINE
8
BLACK
6
CONTINUOUS
10
161.836
20
-83.097
11
161.836
21
-81.516
0
LINE
8
BLACK
6
CONTINUOUS
10
161.836
20
-81.516
11
161.733
21
-81.499
0
LINE
8
BLACK
6
CONTINUOUS
10
161.733
20
-81.499
11
161.562
21
-81.431
0
LINE
8
BLACK
6
CONTINUOUS
10
161.562
20
-81.431
11
161.41
21
-81.3278
0
LINE
8
BLACK
6
CONTINUOUS
10
161.41
20
-81.3278
11
161.283
21
-81.1944
0
LINE
8
BLACK
6
CONTINUOUS
10
161.283
20
-81.1944
11
161.189
21
-81.0369
0
LINE
8
BLACK
6
CONTINUOUS
10
161.189
20
-81.0369
11
161.13
21
-80.8627
0
LINE
8
BLACK
6
CONTINUOUS
10
161.13
20
-80.8627
11
161.11
21
-80.68
0
LINE
8
BLACK
6
CONTINUOUS
10
161.11
20
-80.68
11
161.11
21
-80.38
0
LINE
8
BLACK
6
CONTINUOUS
10
161.11
20
-80.38
11
161.115
21
-80.2881
0
LINE
8
BLACK
6
CONTINUOUS
10
161.115
20
-80.2881
11
161.154
21
-80.1086
0
LINE
8
BLACK
6
CONTINUOUS
10
161.154
20
-80.1086
11
161.232
21
-79.9418
0
LINE
8
BLACK
6
CONTINUOUS
10
161.232
20
-79.9418
11
161.343
21
-79.7955
0
LINE
8
BLACK
6
CONTINUOUS
10
161.343
20
-79.7955
11
161.483
21
-79.6765
0
LINE
8
BLACK
6
CONTINUOUS
10
161.483
20
-79.6765
11
161.645
21
-79.5904
0
LINE
8
BLACK
6
CONTINUOUS
10
161.645
20
-79.5904
11
161.822
21
-79.5412
0
LINE
8
BLACK
6
CONTINUOUS
10
161.822
20
-79.5412
11
162.006
21
-79.5312
0
LINE
8
BLACK
6
CONTINUOUS
10
162.006
20
-79.5312
11
162.187
21
-79.561
0
LINE
8
BLACK
6
CONTINUOUS
10
166.752
20
-84.195
11
166.931
21
-84.2345
0
LINE
8
BLACK
6
CONTINUOUS
10
166.931
20
-84.2345
11
167.098
21
-84.3117
0
LINE
8
BLACK
6
CONTINUOUS
10
167.098
20
-84.3117
11
167.245
21
-84.4229
0
LINE
8
BLACK
6
CONTINUOUS
10
167.245
20
-84.4229
11
167.364
21
-84.563
0
LINE
8
BLACK
6
CONTINUOUS
10
167.364
20
-84.563
11
167.45
21
-84.7254
0
LINE
8
BLACK
6
CONTINUOUS
10
167.45
20
-84.7254
11
167.499
21
-84.9025
0
LINE
8
BLACK
6
CONTINUOUS
10
167.499
20
-84.9025
11
167.509
21
-85.086
0
LINE
8
BLACK
6
CONTINUOUS
10
167.509
20
-85.086
11
167.479
21
-85.2674
0
LINE
8
BLACK
6
CONTINUOUS
10
167.479
20
-85.2674
11
167.411
21
-85.4381
0
LINE
8
BLACK
6
CONTINUOUS
10
167.411
20
-85.4381
11
167.308
21
-85.5903
0
LINE
8
BLACK
6
CONTINUOUS
10
167.308
20
-85.5903
11
167.174
21
-85.7167
0
LINE
8
BLACK
6
CONTINUOUS
10
167.174
20
-85.7167
11
167.017
21
-85.8114
0
LINE
8
BLACK
6
CONTINUOUS
10
167.017
20
-85.8114
11
166.843
21
-85.8701
0
LINE
8
BLACK
6
CONTINUOUS
10
166.843
20
-85.8701
11
166.66
21
-85.89
0
LINE
8
BLACK
6
CONTINUOUS
10
166.66
20
-85.89
11
166.36
21
-85.89
0
LINE
8
BLACK
6
CONTINUOUS
10
166.36
20
-85.89
11
166.268
21
-85.885
0
LINE
8
BLACK
6
CONTINUOUS
10
166.268
20
-85.885
11
166.089
21
-85.8455
0
LINE
8
BLACK
6
CONTINUOUS
10
166.089
20
-85.8455
11
165.922
21
-85.7683
0
LINE
8
BLACK
6
CONTINUOUS
10
165.922
20
-85.7683
11
165.775
21
-85.6571
0
LINE
8
BLACK
6
CONTINUOUS
10
165.775
20
-85.6571
11
165.656
21
-85.517
0
LINE
8
BLACK
6
CONTINUOUS
10
165.656
20
-85.517
11
165.57
21
-85.3546
0
LINE
8
BLACK
6
CONTINUOUS
10
165.57
20
-85.3546
11
165.521
21
-85.1775
0
LINE
8
BLACK
6
CONTINUOUS
10
165.521
20
-85.1775
11
165.521
21
-85.165
0
LINE
8
BLACK
6
CONTINUOUS
10
165.521
20
-85.165
11
163.892
21
-85.165
0
LINE
8
BLACK
6
CONTINUOUS
10
163.892
20
-85.165
11
154.626
21
-94.4309
0
LINE
8
BLACK
6
CONTINUOUS
10
154.626
20
-94.4309
11
154.608
21
-94.4443
0
LINE
8
BLACK
6
CONTINUOUS
10
154.608
20
-94.4443
11
154.605
21
-94.4477
0
LINE
8
BLACK
6
CONTINUOUS
10
154.605
20
-94.4477
11
154.602
21
-94.4484
0
LINE
8
BLACK
6
CONTINUOUS
10
154.602
20
-94.4484
11
154.597
21
-94.4522
0
LINE
8
BLACK
6
CONTINUOUS
10
154.597
20
-94.4522
11
154.567
21
-94.4588
0
LINE
8
BLACK
6
CONTINUOUS
10
154.567
20
-94.4588
11
154.537
21
-94.4675
0
LINE
8
BLACK
6
CONTINUOUS
10
154.537
20
-94.4675
11
153.562
21
-94.4675
0
LINE
8
BLACK
6
CONTINUOUS
10
153.562
20
-94.4675
11
153.544
21
-94.4649
0
LINE
8
BLACK
6
CONTINUOUS
10
153.544
20
-94.4649
11
153.072
21
-94.4649
0
LINE
8
BLACK
6
CONTINUOUS
10
153.072
20
-94.4649
11
153.072
21
-94.2101
0
LINE
8
BLACK
6
CONTINUOUS
10
153.072
20
-94.2101
11
154.033
21
-94.2101
0
LINE
8
BLACK
6
CONTINUOUS
10
154.033
20
-94.2101
11
154.033
21
-94.2175
0
LINE
8
BLACK
6
CONTINUOUS
10
154.033
20
-94.2175
11
154.486
21
-94.2175
0
LINE
8
BLACK
6
CONTINUOUS
10
154.486
20
-94.2175
11
163.752
21
-84.9516
0
LINE
8
BLACK
6
CONTINUOUS
10
163.752
20
-84.9516
11
163.769
21
-84.9382
0
LINE
8
BLACK
6
CONTINUOUS
10
163.769
20
-84.9382
11
163.772
21
-84.9348
0
LINE
8
BLACK
6
CONTINUOUS
10
163.772
20
-84.9348
11
163.775
21
-84.9341
0
LINE
8
BLACK
6
CONTINUOUS
10
163.775
20
-84.9341
11
163.78
21
-84.9303
0
LINE
8
BLACK
6
CONTINUOUS
10
163.78
20
-84.9303
11
163.81
21
-84.9237
0
LINE
8
BLACK
6
CONTINUOUS
10
163.81
20
-84.9237
11
163.84
21
-84.915
0
LINE
8
BLACK
6
CONTINUOUS
10
163.84
20
-84.915
11
165.524
21
-84.915
0
LINE
8
BLACK
6
CONTINUOUS
10
165.524
20
-84.915
11
165.541
21
-84.8126
0
LINE
8
BLACK
6
CONTINUOUS
10
165.541
20
-84.8126
11
165.609
21
-84.6419
0
LINE
8
BLACK
6
CONTINUOUS
10
165.609
20
-84.6419
11
165.712
21
-84.4897
0
LINE
8
BLACK
6
CONTINUOUS
10
165.712
20
-84.4897
11
165.846
21
-84.3633
0
LINE
8
BLACK
6
CONTINUOUS
10
165.846
20
-84.3633
11
166.003
21
-84.2686
0
LINE
8
BLACK
6
CONTINUOUS
10
166.003
20
-84.2686
11
166.177
21
-84.2099
0
LINE
8
BLACK
6
CONTINUOUS
10
166.177
20
-84.2099
11
166.36
21
-84.19
0
LINE
8
BLACK
6
CONTINUOUS
10
166.36
20
-84.19
11
166.66
21
-84.19
0
LINE
8
BLACK
6
CONTINUOUS
10
166.66
20
-84.19
11
166.752
21
-84.195
0
LINE
8
BLACK
6
CONTINUOUS
10
166.752
20
-87.795
11
166.931
21
-87.8345
0
LINE
8
BLACK
6
CONTINUOUS
10
166.931
20
-87.8345
11
167.098
21
-87.9117
0
LINE
8
BLACK
6
CONTINUOUS
10
167.098
20
-87.9117
11
167.245
21
-88.0229
0
LINE
8
BLACK
6
CONTINUOUS
10
167.245
20
-88.0229
11
167.364
21
-88.163
0
LINE
8
BLACK
6
CONTINUOUS
10
167.364
20
-88.163
11
167.45
21
-88.3254
0
LINE
8
BLACK
6
CONTINUOUS
10
167.45
20
-88.3254
11
167.499
21
-88.5025
0
LINE
8
BLACK
6
CONTINUOUS
10
167.499
20
-88.5025
11
167.509
21
-88.686
0
LINE
8
BLACK
6
CONTINUOUS
10
167.509
20
-88.686
11
167.479
21
-88.8674
0
LINE
8
BLACK
6
CONTINUOUS
10
167.479
20
-88.8674
11
167.411
21
-89.0381
0
LINE
8
BLACK
6
CONTINUOUS
10
167.411
20
-89.0381
11
167.308
21
-89.1903
0
LINE
8
BLACK
6
CONTINUOUS
10
167.308
20
-89.1903
11
167.174
21
-89.3167
0
LINE
8
BLACK
6
CONTINUOUS
10
167.174
20
-89.3167
11
167.017
21
-89.4114
0
LINE
8
BLACK
6
CONTINUOUS
10
167.017
20
-89.4114
11
166.843
21
-89.4701
0
LINE
8
BLACK
6
CONTINUOUS
10
166.843
20
-89.4701
11
166.66
21
-89.49
0
LINE
8
BLACK
6
CONTINUOUS
10
166.66
20
-89.49
11
166.36
21
-89.49
0
LINE
8
BLACK
6
CONTINUOUS
10
166.36
20
-89.49
11
166.268
21
-89.485
0
LINE
8
BLACK
6
CONTINUOUS
10
166.268
20
-89.485
11
166.089
21
-89.4455
0
LINE
8
BLACK
6
CONTINUOUS
10
166.089
20
-89.4455
11
165.922
21
-89.3683
0
LINE
8
BLACK
6
CONTINUOUS
10
165.922
20
-89.3683
11
165.775
21
-89.2571
0
LINE
8
BLACK
6
CONTINUOUS
10
165.775
20
-89.2571
11
165.656
21
-89.117
0
LINE
8
BLACK
6
CONTINUOUS
10
165.656
20
-89.117
11
165.57
21
-88.9546
0
LINE
8
BLACK
6
CONTINUOUS
10
165.57
20
-88.9546
11
165.521
21
-88.7775
0
LINE
8
BLACK
6
CONTINUOUS
10
165.521
20
-88.7775
11
165.521
21
-88.765
0
LINE
8
BLACK
6
CONTINUOUS
10
165.521
20
-88.765
11
161.802
21
-88.765
0
LINE
8
BLACK
6
CONTINUOUS
10
161.802
20
-88.765
11
155.636
21
-94.9309
0
LINE
8
BLACK
6
CONTINUOUS
10
155.636
20
-94.9309
11
155.618
21
-94.9443
0
LINE
8
BLACK
6
CONTINUOUS
10
155.618
20
-94.9443
11
155.615
21
-94.9477
0
LINE
8
BLACK
6
CONTINUOUS
10
155.615
20
-94.9477
11
155.612
21
-94.9484
0
LINE
8
BLACK
6
CONTINUOUS
10
155.612
20
-94.9484
11
155.607
21
-94.9522
0
LINE
8
BLACK
6
CONTINUOUS
10
155.607
20
-94.9522
11
155.577
21
-94.9588
0
LINE
8
BLACK
6
CONTINUOUS
10
155.577
20
-94.9588
11
155.548
21
-94.9675
0
LINE
8
BLACK
6
CONTINUOUS
10
155.548
20
-94.9675
11
153.562
21
-94.9675
0
LINE
8
BLACK
6
CONTINUOUS
10
153.562
20
-94.9675
11
153.544
21
-94.9649
0
LINE
8
BLACK
6
CONTINUOUS
10
153.544
20
-94.9649
11
153.072
21
-94.9649
0
LINE
8
BLACK
6
CONTINUOUS
10
153.072
20
-94.9649
11
153.072
21
-94.7101
0
LINE
8
BLACK
6
CONTINUOUS
10
153.072
20
-94.7101
11
154.033
21
-94.7101
0
LINE
8
BLACK
6
CONTINUOUS
10
154.033
20
-94.7101
11
154.033
21
-94.7175
0
LINE
8
BLACK
6
CONTINUOUS
10
154.033
20
-94.7175
11
155.496
21
-94.7175
0
LINE
8
BLACK
6
CONTINUOUS
10
155.496
20
-94.7175
11
161.662
21
-88.5516
0
LINE
8
BLACK
6
CONTINUOUS
10
161.662
20
-88.5516
11
161.679
21
-88.5382
0
LINE
8
BLACK
6
CONTINUOUS
10
161.679
20
-88.5382
11
161.682
21
-88.5348
0
LINE
8
BLACK
6
CONTINUOUS
10
161.682
20
-88.5348
11
161.685
21
-88.5341
0
LINE
8
BLACK
6
CONTINUOUS
10
161.685
20
-88.5341
11
161.69
21
-88.5303
0
LINE
8
BLACK
6
CONTINUOUS
10
161.69
20
-88.5303
11
161.72
21
-88.5237
0
LINE
8
BLACK
6
CONTINUOUS
10
161.72
20
-88.5237
11
161.75
21
-88.515
0
LINE
8
BLACK
6
CONTINUOUS
10
161.75
20
-88.515
11
165.524
21
-88.515
0
LINE
8
BLACK
6
CONTINUOUS
10
165.524
20
-88.515
11
165.541
21
-88.4126
0
LINE
8
BLACK
6
CONTINUOUS
10
165.541
20
-88.4126
11
165.609
21
-88.2419
0
LINE
8
BLACK
6
CONTINUOUS
10
165.609
20
-88.2419
11
165.712
21
-88.0897
0
LINE
8
BLACK
6
CONTINUOUS
10
165.712
20
-88.0897
11
165.846
21
-87.9633
0
LINE
8
BLACK
6
CONTINUOUS
10
165.846
20
-87.9633
11
166.003
21
-87.8686
0
LINE
8
BLACK
6
CONTINUOUS
10
166.003
20
-87.8686
11
166.177
21
-87.8099
0
LINE
8
BLACK
6
CONTINUOUS
10
166.177
20
-87.8099
11
166.36
21
-87.79
0
LINE
8
BLACK
6
CONTINUOUS
10
166.36
20
-87.79
11
166.66
21
-87.79
0
LINE
8
BLACK
6
CONTINUOUS
10
166.66
20
-87.79
11
166.752
21
-87.795
0
LINE
8
BLACK
6
CONTINUOUS
10
166.752
20
-91.395
11
166.931
21
-91.4345
0
LINE
8
BLACK
6
CONTINUOUS
10
166.931
20
-91.4345
11
167.098
21
-91.5117
0
LINE
8
BLACK
6
CONTINUOUS
10
167.098
20
-91.5117
11
167.245
21
-91.6229
0
LINE
8
BLACK
6
CONTINUOUS
10
167.245
20
-91.6229
11
167.364
21
-91.763
0
LINE
8
BLACK
6
CONTINUOUS
10
167.364
20
-91.763
11
167.45
21
-91.9254
0
LINE
8
BLACK
6
CONTINUOUS
10
167.45
20
-91.9254
11
167.499
21
-92.1025
0
LINE
8
BLACK
6
CONTINUOUS
10
167.499
20
-92.1025
11
167.509
21
-92.286
0
LINE
8
BLACK
6
CONTINUOUS
10
167.509
20
-92.286
11
167.479
21
-92.4674
0
LINE
8
BLACK
6
CONTINUOUS
10
167.479
20
-92.4674
11
167.411
21
-92.6381
0
LINE
8
BLACK
6
CONTINUOUS
10
167.411
20
-92.6381
11
167.308
21
-92.7903
0
LINE
8
BLACK
6
CONTINUOUS
10
167.308
20
-92.7903
11
167.174
21
-92.9167
0
LINE
8
BLACK
6
CONTINUOUS
10
167.174
20
-92.9167
11
167.017
21
-93.0114
0
LINE
8
BLACK
6
CONTINUOUS
10
167.017
20
-93.0114
11
166.843
21
-93.0701
0
LINE
8
BLACK
6
CONTINUOUS
10
166.843
20
-93.0701
11
166.66
21
-93.09
0
LINE
8
BLACK
6
CONTINUOUS
10
166.66
20
-93.09
11
166.36
21
-93.09
0
LINE
8
BLACK
6
CONTINUOUS
10
166.36
20
-93.09
11
166.268
21
-93.085
0
LINE
8
BLACK
6
CONTINUOUS
10
166.268
20
-93.085
11
166.089
21
-93.0455
0
LINE
8
BLACK
6
CONTINUOUS
10
166.089
20
-93.0455
11
165.922
21
-92.9683
0
LINE
8
BLACK
6
CONTINUOUS
10
165.922
20
-92.9683
11
165.775
21
-92.8571
0
LINE
8
BLACK
6
CONTINUOUS
10
165.775
20
-92.8571
11
165.656
21
-92.717
0
LINE
8
BLACK
6
CONTINUOUS
10
165.656
20
-92.717
11
165.57
21
-92.5546
0
LINE
8
BLACK
6
CONTINUOUS
10
165.57
20
-92.5546
11
165.521
21
-92.3775
0
LINE
8
BLACK
6
CONTINUOUS
10
165.521
20
-92.3775
11
165.521
21
-92.365
0
LINE
8
BLACK
6
CONTINUOUS
10
165.521
20
-92.365
11
159.842
21
-92.365
0
LINE
8
BLACK
6
CONTINUOUS
10
159.842
20
-92.365
11
156.767
21
-95.4396
0
LINE
8
BLACK
6
CONTINUOUS
10
156.767
20
-95.4396
11
156.739
21
-95.461
0
LINE
8
BLACK
6
CONTINUOUS
10
156.739
20
-95.461
11
156.73
21
-95.4629
0
LINE
8
BLACK
6
CONTINUOUS
10
156.73
20
-95.4629
11
156.722
21
-95.4684
0
LINE
8
BLACK
6
CONTINUOUS
10
156.722
20
-95.4684
11
156.696
21
-95.4703
0
LINE
8
BLACK
6
CONTINUOUS
10
156.696
20
-95.4703
11
156.67
21
-95.4759
0
LINE
8
BLACK
6
CONTINUOUS
10
156.67
20
-95.4759
11
156.661
21
-95.4727
0
LINE
8
BLACK
6
CONTINUOUS
10
156.661
20
-95.4727
11
156.652
21
-95.4734
0
LINE
8
BLACK
6
CONTINUOUS
10
156.652
20
-95.4734
11
156.641
21
-95.4675
0
LINE
8
BLACK
6
CONTINUOUS
10
156.641
20
-95.4675
11
153.562
21
-95.4675
0
LINE
8
BLACK
6
CONTINUOUS
10
153.562
20
-95.4675
11
153.544
21
-95.4649
0
LINE
8
BLACK
6
CONTINUOUS
10
153.544
20
-95.4649
11
153.072
21
-95.4649
0
LINE
8
BLACK
6
CONTINUOUS
10
153.072
20
-95.4649
11
153.072
21
-95.2101
0
LINE
8
BLACK
6
CONTINUOUS
10
153.072
20
-95.2101
11
154.033
21
-95.2101
0
LINE
8
BLACK
6
CONTINUOUS
10
154.033
20
-95.2101
11
154.033
21
-95.2175
0
LINE
8
BLACK
6
CONTINUOUS
10
154.033
20
-95.2175
11
156.636
21
-95.2175
0
LINE
8
BLACK
6
CONTINUOUS
10
156.636
20
-95.2175
11
159.702
21
-92.1516
0
LINE
8
BLACK
6
CONTINUOUS
10
159.702
20
-92.1516
11
159.719
21
-92.1382
0
LINE
8
BLACK
6
CONTINUOUS
10
159.719
20
-92.1382
11
159.722
21
-92.1348
0
LINE
8
BLACK
6
CONTINUOUS
10
159.722
20
-92.1348
11
159.725
21
-92.1341
0
LINE
8
BLACK
6
CONTINUOUS
10
159.725
20
-92.1341
11
159.73
21
-92.1303
0
LINE
8
BLACK
6
CONTINUOUS
10
159.73
20
-92.1303
11
159.76
21
-92.1237
0
LINE
8
BLACK
6
CONTINUOUS
10
159.76
20
-92.1237
11
159.79
21
-92.115
0
LINE
8
BLACK
6
CONTINUOUS
10
159.79
20
-92.115
11
165.524
21
-92.115
0
LINE
8
BLACK
6
CONTINUOUS
10
165.524
20
-92.115
11
165.541
21
-92.0126
0
LINE
8
BLACK
6
CONTINUOUS
10
165.541
20
-92.0126
11
165.609
21
-91.8419
0
LINE
8
BLACK
6
CONTINUOUS
10
165.609
20
-91.8419
11
165.712
21
-91.6897
0
LINE
8
BLACK
6
CONTINUOUS
10
165.712
20
-91.6897
11
165.846
21
-91.5633
0
LINE
8
BLACK
6
CONTINUOUS
10
165.846
20
-91.5633
11
166.003
21
-91.4686
0
LINE
8
BLACK
6
CONTINUOUS
10
166.003
20
-91.4686
11
166.177
21
-91.4099
0
LINE
8
BLACK
6
CONTINUOUS
10
166.177
20
-91.4099
11
166.36
21
-91.39
0
LINE
8
BLACK
6
CONTINUOUS
10
166.36
20
-91.39
11
166.66
21
-91.39
0
LINE
8
BLACK
6
CONTINUOUS
10
166.66
20
-91.39
11
166.752
21
-91.395
0
LINE
8
BLACK
6
CONTINUOUS
10
166.752
20
-94.995
11
166.931
21
-95.0345
0
LINE
8
BLACK
6
CONTINUOUS
10
166.931
20
-95.0345
11
167.098
21
-95.1117
0
LINE
8
BLACK
6
CONTINUOUS
10
167.098
20
-95.1117
11
167.245
21
-95.2229
0
LINE
8
BLACK
6
CONTINUOUS
10
167.245
20
-95.2229
11
167.364
21
-95.363
0
LINE
8
BLACK
6
CONTINUOUS
10
167.364
20
-95.363
11
167.45
21
-95.5254
0
LINE
8
BLACK
6
CONTINUOUS
10
167.45
20
-95.5254
11
167.499
21
-95.7025
0
LINE
8
BLACK
6
CONTINUOUS
10
167.499
20
-95.7025
11
167.509
21
-95.886
0
LINE
8
BLACK
6
CONTINUOUS
10
167.509
20
-95.886
11
167.479
21
-96.0674
0
LINE
8
BLACK
6
CONTINUOUS
10
167.479
20
-96.0674
11
167.411
21
-96.2381
0
LINE
8
BLACK
6
CONTINUOUS
10
167.411
20
-96.2381
11
167.308
21
-96.3903
0
LINE
8
BLACK
6
CONTINUOUS
10
167.308
20
-96.3903
11
167.174
21
-96.5167
0
LINE
8
BLACK
6
CONTINUOUS
10
167.174
20
-96.5167
11
167.017
21
-96.6114
0
LINE
8
BLACK
6
CONTINUOUS
10
167.017
20
-96.6114
11
166.843
21
-96.6701
0
LINE
8
BLACK
6
CONTINUOUS
10
166.843
20
-96.6701
11
166.66
21
-96.69
0
LINE
8
BLACK
6
CONTINUOUS
10
166.66
20
-96.69
11
166.36
21
-96.69
0
LINE
8
BLACK
6
CONTINUOUS
10
166.36
20
-96.69
11
166.268
21
-96.685
0
LINE
8
BLACK
6
CONTINUOUS
10
166.268
20
-96.685
11
166.089
21
-96.6455
0
LINE
8
BLACK
6
CONTINUOUS
10
166.089
20
-96.6455
11
165.922
21
-96.5683
0
LINE
8
BLACK
6
CONTINUOUS
10
165.922
20
-96.5683
11
165.775
21
-96.4571
0
LINE
8
BLACK
6
CONTINUOUS
10
165.775
20
-96.4571
11
165.656
21
-96.317
0
LINE
8
BLACK
6
CONTINUOUS
10
165.656
20
-96.317
11
165.57
21
-96.1546
0
LINE
8
BLACK
6
CONTINUOUS
10
165.57
20
-96.1546
11
165.521
21
-95.9775
0
LINE
8
BLACK
6
CONTINUOUS
10
165.521
20
-95.9775
11
165.52
21
-95.9625
0
LINE
8
BLACK
6
CONTINUOUS
10
165.52
20
-95.9625
11
154.033
21
-95.9625
0
LINE
8
BLACK
6
CONTINUOUS
10
154.033
20
-95.9625
11
154.033
21
-95.9649
0
LINE
8
BLACK
6
CONTINUOUS
10
154.033
20
-95.9649
11
153.072
21
-95.9649
0
LINE
8
BLACK
6
CONTINUOUS
10
153.072
20
-95.9649
11
153.072
21
-95.7101
0
LINE
8
BLACK
6
CONTINUOUS
10
153.072
20
-95.7101
11
154.033
21
-95.7101
0
LINE
8
BLACK
6
CONTINUOUS
10
154.033
20
-95.7101
11
154.033
21
-95.7125
0
LINE
8
BLACK
6
CONTINUOUS
10
154.033
20
-95.7125
11
165.525
21
-95.7125
0
LINE
8
BLACK
6
CONTINUOUS
10
165.525
20
-95.7125
11
165.541
21
-95.6126
0
LINE
8
BLACK
6
CONTINUOUS
10
165.541
20
-95.6126
11
165.609
21
-95.4419
0
LINE
8
BLACK
6
CONTINUOUS
10
165.609
20
-95.4419
11
165.712
21
-95.2897
0
LINE
8
BLACK
6
CONTINUOUS
10
165.712
20
-95.2897
11
165.846
21
-95.1633
0
LINE
8
BLACK
6
CONTINUOUS
10
165.846
20
-95.1633
11
166.003
21
-95.0686
0
LINE
8
BLACK
6
CONTINUOUS
10
166.003
20
-95.0686
11
166.177
21
-95.0099
0
LINE
8
BLACK
6
CONTINUOUS
10
166.177
20
-95.0099
11
166.36
21
-94.99
0
LINE
8
BLACK
6
CONTINUOUS
10
166.36
20
-94.99
11
166.66
21
-94.99
0
LINE
8
BLACK
6
CONTINUOUS
10
166.66
20
-94.99
11
166.752
21
-94.995
0
LINE
8
BLACK
6
CONTINUOUS
10
136.062
20
-91.385
11
136.241
21
-91.4245
0
LINE
8
BLACK
6
CONTINUOUS
10
136.241
20
-91.4245
11
136.408
21
-91.5017
0
LINE
8
BLACK
6
CONTINUOUS
10
136.408
20
-91.5017
11
136.555
21
-91.6129
0
LINE
8
BLACK
6
CONTINUOUS
10
136.555
20
-91.6129
11
136.674
21
-91.753
0
LINE
8
BLACK
6
CONTINUOUS
10
136.674
20
-91.753
11
136.76
21
-91.9154
0
LINE
8
BLACK
6
CONTINUOUS
10
136.76
20
-91.9154
11
136.809
21
-92.0925
0
LINE
8
BLACK
6
CONTINUOUS
10
136.809
20
-92.0925
11
136.81
21
-92.115
0
LINE
8
BLACK
6
CONTINUOUS
10
136.81
20
-92.115
11
142.55
21
-92.115
0
LINE
8
BLACK
6
CONTINUOUS
10
142.55
20
-92.115
11
142.572
21
-92.1182
0
LINE
8
BLACK
6
CONTINUOUS
10
142.572
20
-92.1182
11
142.577
21
-92.1179
0
LINE
8
BLACK
6
CONTINUOUS
10
142.577
20
-92.1179
11
142.579
21
-92.1192
0
LINE
8
BLACK
6
CONTINUOUS
10
142.579
20
-92.1192
11
142.585
21
-92.1201
0
LINE
8
BLACK
6
CONTINUOUS
10
142.585
20
-92.1201
11
142.611
21
-92.1368
0
LINE
8
BLACK
6
CONTINUOUS
10
142.611
20
-92.1368
11
142.638
21
-92.1516
0
LINE
8
BLACK
6
CONTINUOUS
10
142.638
20
-92.1516
11
145.704
21
-95.2175
0
LINE
8
BLACK
6
CONTINUOUS
10
145.704
20
-95.2175
11
148.327
21
-95.2175
0
LINE
8
BLACK
6
CONTINUOUS
10
148.327
20
-95.2175
11
148.327
21
-95.2101
0
LINE
8
BLACK
6
CONTINUOUS
10
148.327
20
-95.2101
11
149.288
21
-95.2101
0
LINE
8
BLACK
6
CONTINUOUS
10
149.288
20
-95.2101
11
149.288
21
-95.4649
0
LINE
8
BLACK
6
CONTINUOUS
10
149.288
20
-95.4649
11
148.786
21
-95.4649
0
LINE
8
BLACK
6
CONTINUOUS
10
148.786
20
-95.4649
11
148.778
21
-95.4675
0
LINE
8
BLACK
6
CONTINUOUS
10
148.778
20
-95.4675
11
145.706
21
-95.4675
0
LINE
8
BLACK
6
CONTINUOUS
10
145.706
20
-95.4675
11
145.705
21
-95.4684
0
LINE
8
BLACK
6
CONTINUOUS
10
145.705
20
-95.4684
11
145.678
21
-95.4703
0
LINE
8
BLACK
6
CONTINUOUS
10
145.678
20
-95.4703
11
145.652
21
-95.4759
0
LINE
8
BLACK
6
CONTINUOUS
10
145.652
20
-95.4759
11
145.644
21
-95.4727
0
LINE
8
BLACK
6
CONTINUOUS
10
145.644
20
-95.4727
11
145.635
21
-95.4734
0
LINE
8
BLACK
6
CONTINUOUS
10
145.635
20
-95.4734
11
145.611
21
-95.4606
0
LINE
8
BLACK
6
CONTINUOUS
10
145.611
20
-95.4606
11
145.586
21
-95.4513
0
LINE
8
BLACK
6
CONTINUOUS
10
145.586
20
-95.4513
11
145.581
21
-95.444
0
LINE
8
BLACK
6
CONTINUOUS
10
145.581
20
-95.444
11
145.573
21
-95.4396
0
LINE
8
BLACK
6
CONTINUOUS
10
145.573
20
-95.4396
11
142.498
21
-92.365
0
LINE
8
BLACK
6
CONTINUOUS
10
142.498
20
-92.365
11
136.804
21
-92.365
0
LINE
8
BLACK
6
CONTINUOUS
10
136.804
20
-92.365
11
136.789
21
-92.4574
0
LINE
8
BLACK
6
CONTINUOUS
10
136.789
20
-92.4574
11
136.721
21
-92.6281
0
LINE
8
BLACK
6
CONTINUOUS
10
136.721
20
-92.6281
11
136.618
21
-92.7803
0
LINE
8
BLACK
6
CONTINUOUS
10
136.618
20
-92.7803
11
136.484
21
-92.9067
0
LINE
8
BLACK
6
CONTINUOUS
10
136.484
20
-92.9067
11
136.327
21
-93.0014
0
LINE
8
BLACK
6
CONTINUOUS
10
136.327
20
-93.0014
11
136.153
21
-93.0601
0
LINE
8
BLACK
6
CONTINUOUS
10
136.153
20
-93.0601
11
135.97
21
-93.08
0
LINE
8
BLACK
6
CONTINUOUS
10
135.97
20
-93.08
11
135.67
21
-93.08
0
LINE
8
BLACK
6
CONTINUOUS
10
135.67
20
-93.08
11
135.578
21
-93.075
0
LINE
8
BLACK
6
CONTINUOUS
10
135.578
20
-93.075
11
135.399
21
-93.0355
0
LINE
8
BLACK
6
CONTINUOUS
10
135.399
20
-93.0355
11
135.232
21
-92.9583
0
LINE
8
BLACK
6
CONTINUOUS
10
135.232
20
-92.9583
11
135.085
21
-92.8471
0
LINE
8
BLACK
6
CONTINUOUS
10
135.085
20
-92.8471
11
134.966
21
-92.707
0
LINE
8
BLACK
6
CONTINUOUS
10
134.966
20
-92.707
11
134.88
21
-92.5446
0
LINE
8
BLACK
6
CONTINUOUS
10
134.88
20
-92.5446
11
134.831
21
-92.3675
0
LINE
8
BLACK
6
CONTINUOUS
10
134.831
20
-92.3675
11
134.821
21
-92.184
0
LINE
8
BLACK
6
CONTINUOUS
10
134.821
20
-92.184
11
134.851
21
-92.0026
0
LINE
8
BLACK
6
CONTINUOUS
10
134.851
20
-92.0026
11
134.919
21
-91.8319
0
LINE
8
BLACK
6
CONTINUOUS
10
134.919
20
-91.8319
11
135.022
21
-91.6797
0
LINE
8
BLACK
6
CONTINUOUS
10
135.022
20
-91.6797
11
135.156
21
-91.5533
0
LINE
8
BLACK
6
CONTINUOUS
10
135.156
20
-91.5533
11
135.313
21
-91.4586
0
LINE
8
BLACK
6
CONTINUOUS
10
135.313
20
-91.4586
11
135.487
21
-91.3999
0
LINE
8
BLACK
6
CONTINUOUS
10
135.487
20
-91.3999
11
135.67
21
-91.38
0
LINE
8
BLACK
6
CONTINUOUS
10
135.67
20
-91.38
11
135.97
21
-91.38
0
LINE
8
BLACK
6
CONTINUOUS
10
135.97
20
-91.38
11
136.062
21
-91.385
0
LINE
8
BLACK
6
CONTINUOUS
10
136.062
20
-87.765
11
136.241
21
-87.8045
0
LINE
8
BLACK
6
CONTINUOUS
10
136.241
20
-87.8045
11
136.408
21
-87.8817
0
LINE
8
BLACK
6
CONTINUOUS
10
136.408
20
-87.8817
11
136.555
21
-87.9929
0
LINE
8
BLACK
6
CONTINUOUS
10
136.555
20
-87.9929
11
136.674
21
-88.133
0
LINE
8
BLACK
6
CONTINUOUS
10
136.674
20
-88.133
11
136.76
21
-88.2954
0
LINE
8
BLACK
6
CONTINUOUS
10
136.76
20
-88.2954
11
136.809
21
-88.4725
0
LINE
8
BLACK
6
CONTINUOUS
10
136.809
20
-88.4725
11
136.811
21
-88.515
0
LINE
8
BLACK
6
CONTINUOUS
10
136.811
20
-88.515
11
140.59
21
-88.515
0
LINE
8
BLACK
6
CONTINUOUS
10
140.59
20
-88.515
11
140.612
21
-88.5182
0
LINE
8
BLACK
6
CONTINUOUS
10
140.612
20
-88.5182
11
140.617
21
-88.5179
0
LINE
8
BLACK
6
CONTINUOUS
10
140.617
20
-88.5179
11
140.619
21
-88.5192
0
LINE
8
BLACK
6
CONTINUOUS
10
140.619
20
-88.5192
11
140.625
21
-88.5201
0
LINE
8
BLACK
6
CONTINUOUS
10
140.625
20
-88.5201
11
140.651
21
-88.5368
0
LINE
8
BLACK
6
CONTINUOUS
10
140.651
20
-88.5368
11
140.678
21
-88.5516
0
LINE
8
BLACK
6
CONTINUOUS
10
140.678
20
-88.5516
11
146.844
21
-94.7175
0
LINE
8
BLACK
6
CONTINUOUS
10
146.844
20
-94.7175
11
148.327
21
-94.7175
0
LINE
8
BLACK
6
CONTINUOUS
10
148.327
20
-94.7175
11
148.327
21
-94.7101
0
LINE
8
BLACK
6
CONTINUOUS
10
148.327
20
-94.7101
11
149.288
21
-94.7101
0
LINE
8
BLACK
6
CONTINUOUS
10
149.288
20
-94.7101
11
149.288
21
-94.9649
0
LINE
8
BLACK
6
CONTINUOUS
10
149.288
20
-94.9649
11
148.786
21
-94.9649
0
LINE
8
BLACK
6
CONTINUOUS
10
148.786
20
-94.9649
11
148.778
21
-94.9675
0
LINE
8
BLACK
6
CONTINUOUS
10
148.778
20
-94.9675
11
146.792
21
-94.9675
0
LINE
8
BLACK
6
CONTINUOUS
10
146.792
20
-94.9675
11
146.77
21
-94.9643
0
LINE
8
BLACK
6
CONTINUOUS
10
146.77
20
-94.9643
11
146.766
21
-94.9646
0
LINE
8
BLACK
6
CONTINUOUS
10
146.766
20
-94.9646
11
146.764
21
-94.9633
0
LINE
8
BLACK
6
CONTINUOUS
10
146.764
20
-94.9633
11
146.757
21
-94.9624
0
LINE
8
BLACK
6
CONTINUOUS
10
146.757
20
-94.9624
11
146.731
21
-94.9457
0
LINE
8
BLACK
6
CONTINUOUS
10
146.731
20
-94.9457
11
146.704
21
-94.9309
0
LINE
8
BLACK
6
CONTINUOUS
10
146.704
20
-94.9309
11
140.538
21
-88.765
0
LINE
8
BLACK
6
CONTINUOUS
10
140.538
20
-88.765
11
136.801
21
-88.765
0
LINE
8
BLACK
6
CONTINUOUS
10
136.801
20
-88.765
11
136.789
21
-88.8374
0
LINE
8
BLACK
6
CONTINUOUS
10
136.789
20
-88.8374
11
136.721
21
-89.0081
0
LINE
8
BLACK
6
CONTINUOUS
10
136.721
20
-89.0081
11
136.618
21
-89.1603
0
LINE
8
BLACK
6
CONTINUOUS
10
136.618
20
-89.1603
11
136.484
21
-89.2867
0
LINE
8
BLACK
6
CONTINUOUS
10
136.484
20
-89.2867
11
136.327
21
-89.3814
0
LINE
8
BLACK
6
CONTINUOUS
10
136.327
20
-89.3814
11
136.153
21
-89.4401
0
LINE
8
BLACK
6
CONTINUOUS
10
136.153
20
-89.4401
11
135.97
21
-89.46
0
LINE
8
BLACK
6
CONTINUOUS
10
135.97
20
-89.46
11
135.67
21
-89.46
0
LINE
8
BLACK
6
CONTINUOUS
10
135.67
20
-89.46
11
135.578
21
-89.455
0
LINE
8
BLACK
6
CONTINUOUS
10
135.578
20
-89.455
11
135.399
21
-89.4155
0
LINE
8
BLACK
6
CONTINUOUS
10
135.399
20
-89.4155
11
135.232
21
-89.3383
0
LINE
8
BLACK
6
CONTINUOUS
10
135.232
20
-89.3383
11
135.085
21
-89.2271
0
LINE
8
BLACK
6
CONTINUOUS
10
135.085
20
-89.2271
11
134.966
21
-89.087
0
LINE
8
BLACK
6
CONTINUOUS
10
134.966
20
-89.087
11
134.88
21
-88.9246
0
LINE
8
BLACK
6
CONTINUOUS
10
134.88
20
-88.9246
11
134.831
21
-88.7475
0
LINE
8
BLACK
6
CONTINUOUS
10
134.831
20
-88.7475
11
134.821
21
-88.564
0
LINE
8
BLACK
6
CONTINUOUS
10
134.821
20
-88.564
11
134.851
21
-88.3826
0
LINE
8
BLACK
6
CONTINUOUS
10
134.851
20
-88.3826
11
134.919
21
-88.2119
0
LINE
8
BLACK
6
CONTINUOUS
10
134.919
20
-88.2119
11
135.022
21
-88.0597
0
LINE
8
BLACK
6
CONTINUOUS
10
135.022
20
-88.0597
11
135.156
21
-87.9333
0
LINE
8
BLACK
6
CONTINUOUS
10
135.156
20
-87.9333
11
135.313
21
-87.8386
0
LINE
8
BLACK
6
CONTINUOUS
10
135.313
20
-87.8386
11
135.487
21
-87.7799
0
LINE
8
BLACK
6
CONTINUOUS
10
135.487
20
-87.7799
11
135.67
21
-87.76
0
LINE
8
BLACK
6
CONTINUOUS
10
135.67
20
-87.76
11
135.97
21
-87.76
0
LINE
8
BLACK
6
CONTINUOUS
10
135.97
20
-87.76
11
136.062
21
-87.765
0
LINE
8
BLACK
6
CONTINUOUS
10
140.587
20
-79.561
11
140.758
21
-79.629
0
LINE
8
BLACK
6
CONTINUOUS
10
140.758
20
-79.629
11
140.91
21
-79.7322
0
LINE
8
BLACK
6
CONTINUOUS
10
140.91
20
-79.7322
11
141.037
21
-79.8656
0
LINE
8
BLACK
6
CONTINUOUS
10
141.037
20
-79.8656
11
141.131
21
-80.0231
0
LINE
8
BLACK
6
CONTINUOUS
10
141.131
20
-80.0231
11
141.19
21
-80.1973
0
LINE
8
BLACK
6
CONTINUOUS
10
141.19
20
-80.1973
11
141.21
21
-80.38
0
LINE
8
BLACK
6
CONTINUOUS
10
141.21
20
-80.38
11
141.21
21
-80.68
0
LINE
8
BLACK
6
CONTINUOUS
10
141.21
20
-80.68
11
141.205
21
-80.7719
0
LINE
8
BLACK
6
CONTINUOUS
10
141.205
20
-80.7719
11
141.166
21
-80.9514
0
LINE
8
BLACK
6
CONTINUOUS
10
141.166
20
-80.9514
11
141.088
21
-81.1182
0
LINE
8
BLACK
6
CONTINUOUS
10
141.088
20
-81.1182
11
140.977
21
-81.2645
0
LINE
8
BLACK
6
CONTINUOUS
10
140.977
20
-81.2645
11
140.837
21
-81.3835
0
LINE
8
BLACK
6
CONTINUOUS
10
140.837
20
-81.3835
11
140.675
21
-81.4696
0
LINE
8
BLACK
6
CONTINUOUS
10
140.675
20
-81.4696
11
140.505
21
-81.5167
0
LINE
8
BLACK
6
CONTINUOUS
10
140.505
20
-81.5167
11
140.505
21
-83.1982
0
LINE
8
BLACK
6
CONTINUOUS
10
140.505
20
-83.1982
11
149.771
21
-92.4641
0
LINE
8
BLACK
6
CONTINUOUS
10
149.771
20
-92.4641
11
149.784
21
-92.482
0
LINE
8
BLACK
6
CONTINUOUS
10
149.784
20
-92.482
11
149.788
21
-92.4849
0
LINE
8
BLACK
6
CONTINUOUS
10
149.788
20
-92.4849
11
149.788
21
-92.4875
0
LINE
8
BLACK
6
CONTINUOUS
10
149.788
20
-92.4875
11
149.792
21
-92.4926
0
LINE
8
BLACK
6
CONTINUOUS
10
149.792
20
-92.4926
11
149.799
21
-92.5228
0
LINE
8
BLACK
6
CONTINUOUS
10
149.799
20
-92.5228
11
149.808
21
-92.5525
0
LINE
8
BLACK
6
CONTINUOUS
10
149.808
20
-92.5525
11
149.808
21
-93.5275
0
LINE
8
BLACK
6
CONTINUOUS
10
149.808
20
-93.5275
11
149.807
21
-93.5282
0
LINE
8
BLACK
6
CONTINUOUS
10
149.807
20
-93.5282
11
149.807
21
-93.9452
0
LINE
8
BLACK
6
CONTINUOUS
10
149.807
20
-93.9452
11
149.553
21
-93.9452
0
LINE
8
BLACK
6
CONTINUOUS
10
149.553
20
-93.9452
11
149.553
21
-92.9848
0
LINE
8
BLACK
6
CONTINUOUS
10
149.553
20
-92.9848
11
149.558
21
-92.9848
0
LINE
8
BLACK
6
CONTINUOUS
10
149.558
20
-92.9848
11
149.558
21
-92.6043
0
LINE
8
BLACK
6
CONTINUOUS
10
149.558
20
-92.6043
11
140.292
21
-83.3384
0
LINE
8
BLACK
6
CONTINUOUS
10
140.292
20
-83.3384
11
140.278
21
-83.3205
0
LINE
8
BLACK
6
CONTINUOUS
10
140.278
20
-83.3205
11
140.275
21
-83.3176
0
LINE
8
BLACK
6
CONTINUOUS
10
140.275
20
-83.3176
11
140.274
21
-83.315
0
LINE
8
BLACK
6
CONTINUOUS
10
140.274
20
-83.315
11
140.27
21
-83.3099
0
LINE
8
BLACK
6
CONTINUOUS
10
140.27
20
-83.3099
11
140.264
21
-83.2797
0
LINE
8
BLACK
6
CONTINUOUS
10
140.264
20
-83.2797
11
140.255
21
-83.25
0
LINE
8
BLACK
6
CONTINUOUS
10
140.255
20
-83.25
11
140.255
21
-81.5191
0
LINE
8
BLACK
6
CONTINUOUS
10
140.255
20
-81.5191
11
140.133
21
-81.499
0
LINE
8
BLACK
6
CONTINUOUS
10
140.133
20
-81.499
11
139.962
21
-81.431
0
LINE
8
BLACK
6
CONTINUOUS
10
139.962
20
-81.431
11
139.81
21
-81.3278
0
LINE
8
BLACK
6
CONTINUOUS
10
139.81
20
-81.3278
11
139.683
21
-81.1944
0
LINE
8
BLACK
6
CONTINUOUS
10
139.683
20
-81.1944
11
139.589
21
-81.0369
0
LINE
8
BLACK
6
CONTINUOUS
10
139.589
20
-81.0369
11
139.53
21
-80.8627
0
LINE
8
BLACK
6
CONTINUOUS
10
139.53
20
-80.8627
11
139.51
21
-80.68
0
LINE
8
BLACK
6
CONTINUOUS
10
139.51
20
-80.68
11
139.51
21
-80.38
0
LINE
8
BLACK
6
CONTINUOUS
10
139.51
20
-80.38
11
139.515
21
-80.2881
0
LINE
8
BLACK
6
CONTINUOUS
10
139.515
20
-80.2881
11
139.554
21
-80.1086
0
LINE
8
BLACK
6
CONTINUOUS
10
139.554
20
-80.1086
11
139.632
21
-79.9418
0
LINE
8
BLACK
6
CONTINUOUS
10
139.632
20
-79.9418
11
139.743
21
-79.7955
0
LINE
8
BLACK
6
CONTINUOUS
10
139.743
20
-79.7955
11
139.883
21
-79.6765
0
LINE
8
BLACK
6
CONTINUOUS
10
139.883
20
-79.6765
11
140.045
21
-79.5904
0
LINE
8
BLACK
6
CONTINUOUS
10
140.045
20
-79.5904
11
140.222
21
-79.5412
0
LINE
8
BLACK
6
CONTINUOUS
10
140.222
20
-79.5412
11
140.406
21
-79.5312
0
LINE
8
BLACK
6
CONTINUOUS
10
140.406
20
-79.5312
11
140.587
21
-79.561
0
LINE
8
BLACK
6
CONTINUOUS
10
144.187
20
-79.561
11
144.358
21
-79.629
0
LINE
8
BLACK
6
CONTINUOUS
10
144.358
20
-79.629
11
144.51
21
-79.7322
0
LINE
8
BLACK
6
CONTINUOUS
10
144.51
20
-79.7322
11
144.637
21
-79.8656
0
LINE
8
BLACK
6
CONTINUOUS
10
144.637
20
-79.8656
11
144.731
21
-80.0231
0
LINE
8
BLACK
6
CONTINUOUS
10
144.731
20
-80.0231
11
144.79
21
-80.1973
0
LINE
8
BLACK
6
CONTINUOUS
10
144.79
20
-80.1973
11
144.81
21
-80.38
0
LINE
8
BLACK
6
CONTINUOUS
10
144.81
20
-80.38
11
144.81
21
-80.68
0
LINE
8
BLACK
6
CONTINUOUS
10
144.81
20
-80.68
11
144.805
21
-80.7719
0
LINE
8
BLACK
6
CONTINUOUS
10
144.805
20
-80.7719
11
144.766
21
-80.9514
0
LINE
8
BLACK
6
CONTINUOUS
10
144.766
20
-80.9514
11
144.688
21
-81.1182
0
LINE
8
BLACK
6
CONTINUOUS
10
144.688
20
-81.1182
11
144.577
21
-81.2645
0
LINE
8
BLACK
6
CONTINUOUS
10
144.577
20
-81.2645
11
144.437
21
-81.3835
0
LINE
8
BLACK
6
CONTINUOUS
10
144.437
20
-81.3835
11
144.275
21
-81.4696
0
LINE
8
BLACK
6
CONTINUOUS
10
144.275
20
-81.4696
11
144.105
21
-81.5167
0
LINE
8
BLACK
6
CONTINUOUS
10
144.105
20
-81.5167
11
144.105
21
-85.2882
0
LINE
8
BLACK
6
CONTINUOUS
10
144.105
20
-85.2882
11
150.271
21
-91.4541
0
LINE
8
BLACK
6
CONTINUOUS
10
150.271
20
-91.4541
11
150.284
21
-91.472
0
LINE
8
BLACK
6
CONTINUOUS
10
150.284
20
-91.472
11
150.288
21
-91.4749
0
LINE
8
BLACK
6
CONTINUOUS
10
150.288
20
-91.4749
11
150.288
21
-91.4775
0
LINE
8
BLACK
6
CONTINUOUS
10
150.288
20
-91.4775
11
150.292
21
-91.4826
0
LINE
8
BLACK
6
CONTINUOUS
10
150.292
20
-91.4826
11
150.299
21
-91.5128
0
LINE
8
BLACK
6
CONTINUOUS
10
150.299
20
-91.5128
11
150.307
21
-91.5425
0
LINE
8
BLACK
6
CONTINUOUS
10
150.307
20
-91.5425
11
150.307
21
-93.5275
0
LINE
8
BLACK
6
CONTINUOUS
10
150.307
20
-93.5275
11
150.307
21
-93.5282
0
LINE
8
BLACK
6
CONTINUOUS
10
150.307
20
-93.5282
11
150.307
21
-93.9452
0
LINE
8
BLACK
6
CONTINUOUS
10
150.307
20
-93.9452
11
150.053
21
-93.9452
0
LINE
8
BLACK
6
CONTINUOUS
10
150.053
20
-93.9452
11
150.053
21
-92.9848
0
LINE
8
BLACK
6
CONTINUOUS
10
150.053
20
-92.9848
11
150.057
21
-92.9848
0
LINE
8
BLACK
6
CONTINUOUS
10
150.057
20
-92.9848
11
150.057
21
-91.5943
0
LINE
8
BLACK
6
CONTINUOUS
10
150.057
20
-91.5943
11
143.892
21
-85.4284
0
LINE
8
BLACK
6
CONTINUOUS
10
143.892
20
-85.4284
11
143.878
21
-85.4105
0
LINE
8
BLACK
6
CONTINUOUS
10
143.878
20
-85.4105
11
143.875
21
-85.4076
0
LINE
8
BLACK
6
CONTINUOUS
10
143.875
20
-85.4076
11
143.874
21
-85.405
0
LINE
8
BLACK
6
CONTINUOUS
10
143.874
20
-85.405
11
143.87
21
-85.3999
0
LINE
8
BLACK
6
CONTINUOUS
10
143.87
20
-85.3999
11
143.864
21
-85.3697
0
LINE
8
BLACK
6
CONTINUOUS
10
143.864
20
-85.3697
11
143.855
21
-85.34
0
LINE
8
BLACK
6
CONTINUOUS
10
143.855
20
-85.34
11
143.855
21
-81.5191
0
LINE
8
BLACK
6
CONTINUOUS
10
143.855
20
-81.5191
11
143.733
21
-81.499
0
LINE
8
BLACK
6
CONTINUOUS
10
143.733
20
-81.499
11
143.562
21
-81.431
0
LINE
8
BLACK
6
CONTINUOUS
10
143.562
20
-81.431
11
143.41
21
-81.3278
0
LINE
8
BLACK
6
CONTINUOUS
10
143.41
20
-81.3278
11
143.283
21
-81.1944
0
LINE
8
BLACK
6
CONTINUOUS
10
143.283
20
-81.1944
11
143.189
21
-81.0369
0
LINE
8
BLACK
6
CONTINUOUS
10
143.189
20
-81.0369
11
143.13
21
-80.8627
0
LINE
8
BLACK
6
CONTINUOUS
10
143.13
20
-80.8627
11
143.11
21
-80.68
0
LINE
8
BLACK
6
CONTINUOUS
10
143.11
20
-80.68
11
143.11
21
-80.38
0
LINE
8
BLACK
6
CONTINUOUS
10
143.11
20
-80.38
11
143.115
21
-80.2881
0
LINE
8
BLACK
6
CONTINUOUS
10
143.115
20
-80.2881
11
143.154
21
-80.1086
0
LINE
8
BLACK
6
CONTINUOUS
10
143.154
20
-80.1086
11
143.232
21
-79.9418
0
LINE
8
BLACK
6
CONTINUOUS
10
143.232
20
-79.9418
11
143.343
21
-79.7955
0
LINE
8
BLACK
6
CONTINUOUS
10
143.343
20
-79.7955
11
143.483
21
-79.6765
0
LINE
8
BLACK
6
CONTINUOUS
10
143.483
20
-79.6765
11
143.645
21
-79.5904
0
LINE
8
BLACK
6
CONTINUOUS
10
143.645
20
-79.5904
11
143.822
21
-79.5412
0
LINE
8
BLACK
6
CONTINUOUS
10
143.822
20
-79.5412
11
144.006
21
-79.5312
0
LINE
8
BLACK
6
CONTINUOUS
10
144.006
20
-79.5312
11
144.187
21
-79.561
0
LINE
8
BLACK
6
CONTINUOUS
10
147.787
20
-79.561
11
147.958
21
-79.629
0
LINE
8
BLACK
6
CONTINUOUS
10
147.958
20
-79.629
11
148.11
21
-79.7322
0
LINE
8
BLACK
6
CONTINUOUS
10
148.11
20
-79.7322
11
148.237
21
-79.8656
0
LINE
8
BLACK
6
CONTINUOUS
10
148.237
20
-79.8656
11
148.331
21
-80.0231
0
LINE
8
BLACK
6
CONTINUOUS
10
148.331
20
-80.0231
11
148.39
21
-80.1973
0
LINE
8
BLACK
6
CONTINUOUS
10
148.39
20
-80.1973
11
148.41
21
-80.38
0
LINE
8
BLACK
6
CONTINUOUS
10
148.41
20
-80.38
11
148.41
21
-80.68
0
LINE
8
BLACK
6
CONTINUOUS
10
148.41
20
-80.68
11
148.405
21
-80.7719
0
LINE
8
BLACK
6
CONTINUOUS
10
148.405
20
-80.7719
11
148.366
21
-80.9514
0
LINE
8
BLACK
6
CONTINUOUS
10
148.366
20
-80.9514
11
148.288
21
-81.1182
0
LINE
8
BLACK
6
CONTINUOUS
10
148.288
20
-81.1182
11
148.177
21
-81.2645
0
LINE
8
BLACK
6
CONTINUOUS
10
148.177
20
-81.2645
11
148.037
21
-81.3835
0
LINE
8
BLACK
6
CONTINUOUS
10
148.037
20
-81.3835
11
147.875
21
-81.4696
0
LINE
8
BLACK
6
CONTINUOUS
10
147.875
20
-81.4696
11
147.705
21
-81.5167
0
LINE
8
BLACK
6
CONTINUOUS
10
147.705
20
-81.5167
11
147.705
21
-87.2482
0
LINE
8
BLACK
6
CONTINUOUS
10
147.705
20
-87.2482
11
150.78
21
-90.3229
0
LINE
8
BLACK
6
CONTINUOUS
10
150.78
20
-90.3229
11
150.801
21
-90.3513
0
LINE
8
BLACK
6
CONTINUOUS
10
150.801
20
-90.3513
11
150.803
21
-90.3603
0
LINE
8
BLACK
6
CONTINUOUS
10
150.803
20
-90.3603
11
150.808
21
-90.3676
0
LINE
8
BLACK
6
CONTINUOUS
10
150.808
20
-90.3676
11
150.81
21
-90.3941
0
LINE
8
BLACK
6
CONTINUOUS
10
150.81
20
-90.3941
11
150.816
21
-90.4202
0
LINE
8
BLACK
6
CONTINUOUS
10
150.816
20
-90.4202
11
150.813
21
-90.4287
0
LINE
8
BLACK
6
CONTINUOUS
10
150.813
20
-90.4287
11
150.813
21
-90.4378
0
LINE
8
BLACK
6
CONTINUOUS
10
150.813
20
-90.4378
11
150.808
21
-90.4486
0
LINE
8
BLACK
6
CONTINUOUS
10
150.808
20
-90.4486
11
150.808
21
-93.5275
0
LINE
8
BLACK
6
CONTINUOUS
10
150.808
20
-93.5275
11
150.807
21
-93.5282
0
LINE
8
BLACK
6
CONTINUOUS
10
150.807
20
-93.5282
11
150.807
21
-93.9452
0
LINE
8
BLACK
6
CONTINUOUS
10
150.807
20
-93.9452
11
150.553
21
-93.9452
0
LINE
8
BLACK
6
CONTINUOUS
10
150.553
20
-93.9452
11
150.553
21
-92.9848
0
LINE
8
BLACK
6
CONTINUOUS
10
150.553
20
-92.9848
11
150.558
21
-92.9848
0
LINE
8
BLACK
6
CONTINUOUS
10
150.558
20
-92.9848
11
150.558
21
-90.4543
0
LINE
8
BLACK
6
CONTINUOUS
10
150.558
20
-90.4543
11
147.492
21
-87.3884
0
LINE
8
BLACK
6
CONTINUOUS
10
147.492
20
-87.3884
11
147.478
21
-87.3705
0
LINE
8
BLACK
6
CONTINUOUS
10
147.478
20
-87.3705
11
147.475
21
-87.3676
0
LINE
8
BLACK
6
CONTINUOUS
10
147.475
20
-87.3676
11
147.474
21
-87.365
0
LINE
8
BLACK
6
CONTINUOUS
10
147.474
20
-87.365
11
147.47
21
-87.3599
0
LINE
8
BLACK
6
CONTINUOUS
10
147.47
20
-87.3599
11
147.464
21
-87.3297
0
LINE
8
BLACK
6
CONTINUOUS
10
147.464
20
-87.3297
11
147.455
21
-87.3
0
LINE
8
BLACK
6
CONTINUOUS
10
147.455
20
-87.3
11
147.455
21
-81.5191
0
LINE
8
BLACK
6
CONTINUOUS
10
147.455
20
-81.5191
11
147.333
21
-81.499
0
LINE
8
BLACK
6
CONTINUOUS
10
147.333
20
-81.499
11
147.162
21
-81.431
0
LINE
8
BLACK
6
CONTINUOUS
10
147.162
20
-81.431
11
147.01
21
-81.3278
0
LINE
8
BLACK
6
CONTINUOUS
10
147.01
20
-81.3278
11
146.883
21
-81.1944
0
LINE
8
BLACK
6
CONTINUOUS
10
146.883
20
-81.1944
11
146.789
21
-81.0369
0
LINE
8
BLACK
6
CONTINUOUS
10
146.789
20
-81.0369
11
146.73
21
-80.8627
0
LINE
8
BLACK
6
CONTINUOUS
10
146.73
20
-80.8627
11
146.71
21
-80.68
0
LINE
8
BLACK
6
CONTINUOUS
10
146.71
20
-80.68
11
146.71
21
-80.38
0
LINE
8
BLACK
6
CONTINUOUS
10
146.71
20
-80.38
11
146.715
21
-80.2881
0
LINE
8
BLACK
6
CONTINUOUS
10
146.715
20
-80.2881
11
146.754
21
-80.1086
0
LINE
8
BLACK
6
CONTINUOUS
10
146.754
20
-80.1086
11
146.832
21
-79.9418
0
LINE
8
BLACK
6
CONTINUOUS
10
146.832
20
-79.9418
11
146.943
21
-79.7955
0
LINE
8
BLACK
6
CONTINUOUS
10
146.943
20
-79.7955
11
147.083
21
-79.6765
0
LINE
8
BLACK
6
CONTINUOUS
10
147.083
20
-79.6765
11
147.245
21
-79.5904
0
LINE
8
BLACK
6
CONTINUOUS
10
147.245
20
-79.5904
11
147.422
21
-79.5412
0
LINE
8
BLACK
6
CONTINUOUS
10
147.422
20
-79.5412
11
147.606
21
-79.5312
0
LINE
8
BLACK
6
CONTINUOUS
10
147.606
20
-79.5312
11
147.787
21
-79.561
0
LINE
8
BLACK
6
CONTINUOUS
10
151.387
20
-79.561
11
151.558
21
-79.629
0
LINE
8
BLACK
6
CONTINUOUS
10
151.558
20
-79.629
11
151.71
21
-79.7322
0
LINE
8
BLACK
6
CONTINUOUS
10
151.71
20
-79.7322
11
151.837
21
-79.8656
0
LINE
8
BLACK
6
CONTINUOUS
10
151.837
20
-79.8656
11
151.931
21
-80.0231
0
LINE
8
BLACK
6
CONTINUOUS
10
151.931
20
-80.0231
11
151.99
21
-80.1973
0
LINE
8
BLACK
6
CONTINUOUS
10
151.99
20
-80.1973
11
152.01
21
-80.38
0
LINE
8
BLACK
6
CONTINUOUS
10
152.01
20
-80.38
11
152.01
21
-80.68
0
LINE
8
BLACK
6
CONTINUOUS
10
152.01
20
-80.68
11
152.005
21
-80.7719
0
LINE
8
BLACK
6
CONTINUOUS
10
152.005
20
-80.7719
11
151.966
21
-80.9514
0
LINE
8
BLACK
6
CONTINUOUS
10
151.966
20
-80.9514
11
151.888
21
-81.1182
0
LINE
8
BLACK
6
CONTINUOUS
10
151.888
20
-81.1182
11
151.777
21
-81.2645
0
LINE
8
BLACK
6
CONTINUOUS
10
151.777
20
-81.2645
11
151.637
21
-81.3835
0
LINE
8
BLACK
6
CONTINUOUS
10
151.637
20
-81.3835
11
151.475
21
-81.4696
0
LINE
8
BLACK
6
CONTINUOUS
10
151.475
20
-81.4696
11
151.305
21
-81.5167
0
LINE
8
BLACK
6
CONTINUOUS
10
151.305
20
-81.5167
11
151.305
21
-92.9848
0
LINE
8
BLACK
6
CONTINUOUS
10
151.305
20
-92.9848
11
151.307
21
-92.9848
0
LINE
8
BLACK
6
CONTINUOUS
10
151.307
20
-92.9848
11
151.307
21
-93.9452
0
LINE
8
BLACK
6
CONTINUOUS
10
151.307
20
-93.9452
11
151.053
21
-93.9452
0
LINE
8
BLACK
6
CONTINUOUS
10
151.053
20
-93.9452
11
151.053
21
-92.9848
0
LINE
8
BLACK
6
CONTINUOUS
10
151.053
20
-92.9848
11
151.055
21
-92.9848
0
LINE
8
BLACK
6
CONTINUOUS
10
151.055
20
-92.9848
11
151.055
21
-81.5191
0
LINE
8
BLACK
6
CONTINUOUS
10
151.055
20
-81.5191
11
150.933
21
-81.499
0
LINE
8
BLACK
6
CONTINUOUS
10
150.933
20
-81.499
11
150.762
21
-81.431
0
LINE
8
BLACK
6
CONTINUOUS
10
150.762
20
-81.431
11
150.61
21
-81.3278
0
LINE
8
BLACK
6
CONTINUOUS
10
150.61
20
-81.3278
11
150.483
21
-81.1944
0
LINE
8
BLACK
6
CONTINUOUS
10
150.483
20
-81.1944
11
150.389
21
-81.0369
0
LINE
8
BLACK
6
CONTINUOUS
10
150.389
20
-81.0369
11
150.33
21
-80.8627
0
LINE
8
BLACK
6
CONTINUOUS
10
150.33
20
-80.8627
11
150.31
21
-80.68
0
LINE
8
BLACK
6
CONTINUOUS
10
150.31
20
-80.68
11
150.31
21
-80.38
0
LINE
8
BLACK
6
CONTINUOUS
10
150.31
20
-80.38
11
150.315
21
-80.2881
0
LINE
8
BLACK
6
CONTINUOUS
10
150.315
20
-80.2881
11
150.354
21
-80.1086
0
LINE
8
BLACK
6
CONTINUOUS
10
150.354
20
-80.1086
11
150.432
21
-79.9418
0
LINE
8
BLACK
6
CONTINUOUS
10
150.432
20
-79.9418
11
150.543
21
-79.7955
0
LINE
8
BLACK
6
CONTINUOUS
10
150.543
20
-79.7955
11
150.683
21
-79.6765
0
LINE
8
BLACK
6
CONTINUOUS
10
150.683
20
-79.6765
11
150.845
21
-79.5904
0
LINE
8
BLACK
6
CONTINUOUS
10
150.845
20
-79.5904
11
151.022
21
-79.5412
0
LINE
8
BLACK
6
CONTINUOUS
10
151.022
20
-79.5412
11
151.206
21
-79.5312
0
LINE
8
BLACK
6
CONTINUOUS
10
151.206
20
-79.5312
11
151.387
21
-79.561
0
LINE
8
BLACK
6
CONTINUOUS
10
154.987
20
-79.561
11
155.158
21
-79.629
0
LINE
8
BLACK
6
CONTINUOUS
10
155.158
20
-79.629
11
155.31
21
-79.7322
0
LINE
8
BLACK
6
CONTINUOUS
10
155.31
20
-79.7322
11
155.437
21
-79.8656
0
LINE
8
BLACK
6
CONTINUOUS
10
155.437
20
-79.8656
11
155.531
21
-80.0231
0
LINE
8
BLACK
6
CONTINUOUS
10
155.531
20
-80.0231
11
155.59
21
-80.1973
0
LINE
8
BLACK
6
CONTINUOUS
10
155.59
20
-80.1973
11
155.61
21
-80.38
0
LINE
8
BLACK
6
CONTINUOUS
10
155.61
20
-80.38
11
155.61
21
-80.68
0
LINE
8
BLACK
6
CONTINUOUS
10
155.61
20
-80.68
11
155.605
21
-80.7719
0
LINE
8
BLACK
6
CONTINUOUS
10
155.605
20
-80.7719
11
155.566
21
-80.9514
0
LINE
8
BLACK
6
CONTINUOUS
10
155.566
20
-80.9514
11
155.488
21
-81.1182
0
LINE
8
BLACK
6
CONTINUOUS
10
155.488
20
-81.1182
11
155.377
21
-81.2645
0
LINE
8
BLACK
6
CONTINUOUS
10
155.377
20
-81.2645
11
155.237
21
-81.3835
0
LINE
8
BLACK
6
CONTINUOUS
10
155.237
20
-81.3835
11
155.075
21
-81.4696
0
LINE
8
BLACK
6
CONTINUOUS
10
155.075
20
-81.4696
11
154.898
21
-81.5188
0
LINE
8
BLACK
6
CONTINUOUS
10
154.898
20
-81.5188
11
154.886
21
-81.5194
0
LINE
8
BLACK
6
CONTINUOUS
10
154.886
20
-81.5194
11
154.886
21
-87.1987
0
LINE
8
BLACK
6
CONTINUOUS
10
154.886
20
-87.1987
11
154.883
21
-87.2208
0
LINE
8
BLACK
6
CONTINUOUS
10
154.883
20
-87.2208
11
154.883
21
-87.2253
0
LINE
8
BLACK
6
CONTINUOUS
10
154.883
20
-87.2253
11
154.882
21
-87.2277
0
LINE
8
BLACK
6
CONTINUOUS
10
154.882
20
-87.2277
11
154.881
21
-87.234
0
LINE
8
BLACK
6
CONTINUOUS
10
154.881
20
-87.234
11
154.864
21
-87.26
0
LINE
8
BLACK
6
CONTINUOUS
10
154.864
20
-87.26
11
154.85
21
-87.2871
0
LINE
8
BLACK
6
CONTINUOUS
10
154.85
20
-87.2871
11
151.784
21
-90.353
0
LINE
8
BLACK
6
CONTINUOUS
10
151.784
20
-90.353
11
151.784
21
-92.9848
0
LINE
8
BLACK
6
CONTINUOUS
10
151.784
20
-92.9848
11
151.807
21
-92.9848
0
LINE
8
BLACK
6
CONTINUOUS
10
151.807
20
-92.9848
11
151.807
21
-93.9452
0
LINE
8
BLACK
6
CONTINUOUS
10
151.807
20
-93.9452
11
151.553
21
-93.9452
0
LINE
8
BLACK
6
CONTINUOUS
10
151.553
20
-93.9452
11
151.553
21
-93.4905
0
LINE
8
BLACK
6
CONTINUOUS
10
151.553
20
-93.4905
11
151.534
21
-93.4262
0
LINE
8
BLACK
6
CONTINUOUS
10
151.534
20
-93.4262
11
151.534
21
-90.3548
0
LINE
8
BLACK
6
CONTINUOUS
10
151.534
20
-90.3548
11
151.533
21
-90.3537
0
LINE
8
BLACK
6
CONTINUOUS
10
151.533
20
-90.3537
11
151.531
21
-90.3271
0
LINE
8
BLACK
6
CONTINUOUS
10
151.531
20
-90.3271
11
151.525
21
-90.3011
0
LINE
8
BLACK
6
CONTINUOUS
10
151.525
20
-90.3011
11
151.529
21
-90.2925
0
LINE
8
BLACK
6
CONTINUOUS
10
151.529
20
-90.2925
11
151.528
21
-90.2834
0
LINE
8
BLACK
6
CONTINUOUS
10
151.528
20
-90.2834
11
151.541
21
-90.26
0
LINE
8
BLACK
6
CONTINUOUS
10
151.541
20
-90.26
11
151.55
21
-90.2351
0
LINE
8
BLACK
6
CONTINUOUS
10
151.55
20
-90.2351
11
151.557
21
-90.2296
0
LINE
8
BLACK
6
CONTINUOUS
10
151.557
20
-90.2296
11
151.562
21
-90.2216
0
LINE
8
BLACK
6
CONTINUOUS
10
151.562
20
-90.2216
11
154.636
21
-87.147
0
LINE
8
BLACK
6
CONTINUOUS
10
154.636
20
-87.147
11
154.636
21
-81.516
0
LINE
8
BLACK
6
CONTINUOUS
10
154.636
20
-81.516
11
154.533
21
-81.499
0
LINE
8
BLACK
6
CONTINUOUS
10
154.533
20
-81.499
11
154.362
21
-81.431
0
LINE
8
BLACK
6
CONTINUOUS
10
154.362
20
-81.431
11
154.21
21
-81.3278
0
LINE
8
BLACK
6
CONTINUOUS
10
154.21
20
-81.3278
11
154.083
21
-81.1944
0
LINE
8
BLACK
6
CONTINUOUS
10
154.083
20
-81.1944
11
153.989
21
-81.0369
0
LINE
8
BLACK
6
CONTINUOUS
10
153.989
20
-81.0369
11
153.93
21
-80.8627
0
LINE
8
BLACK
6
CONTINUOUS
10
153.93
20
-80.8627
11
153.91
21
-80.68
0
LINE
8
BLACK
6
CONTINUOUS
10
153.91
20
-80.68
11
153.91
21
-80.38
0
LINE
8
BLACK
6
CONTINUOUS
10
153.91
20
-80.38
11
153.915
21
-80.2881
0
LINE
8
BLACK
6
CONTINUOUS
10
153.915
20
-80.2881
11
153.954
21
-80.1086
0
LINE
8
BLACK
6
CONTINUOUS
10
153.954
20
-80.1086
11
154.032
21
-79.9418
0
LINE
8
BLACK
6
CONTINUOUS
10
154.032
20
-79.9418
11
154.143
21
-79.7955
0
LINE
8
BLACK
6
CONTINUOUS
10
154.143
20
-79.7955
11
154.283
21
-79.6765
0
LINE
8
BLACK
6
CONTINUOUS
10
154.283
20
-79.6765
11
154.445
21
-79.5904
0
LINE
8
BLACK
6
CONTINUOUS
10
154.445
20
-79.5904
11
154.622
21
-79.5412
0
LINE
8
BLACK
6
CONTINUOUS
10
154.622
20
-79.5412
11
154.806
21
-79.5312
0
LINE
8
BLACK
6
CONTINUOUS
10
154.806
20
-79.5312
11
154.987
21
-79.561
0
LINE
8
BLACK
6
CONTINUOUS
10
158.587
20
-79.561
11
158.758
21
-79.629
0
LINE
8
BLACK
6
CONTINUOUS
10
158.758
20
-79.629
11
158.91
21
-79.7322
0
LINE
8
BLACK
6
CONTINUOUS
10
158.91
20
-79.7322
11
159.037
21
-79.8656
0
LINE
8
BLACK
6
CONTINUOUS
10
159.037
20
-79.8656
11
159.131
21
-80.0231
0
LINE
8
BLACK
6
CONTINUOUS
10
159.131
20
-80.0231
11
159.19
21
-80.1973
0
LINE
8
BLACK
6
CONTINUOUS
10
159.19
20
-80.1973
11
159.21
21
-80.38
0
LINE
8
BLACK
6
CONTINUOUS
10
159.21
20
-80.38
11
159.21
21
-80.68
0
LINE
8
BLACK
6
CONTINUOUS
10
159.21
20
-80.68
11
159.205
21
-80.7719
0
LINE
8
BLACK
6
CONTINUOUS
10
159.205
20
-80.7719
11
159.166
21
-80.9514
0
LINE
8
BLACK
6
CONTINUOUS
10
159.166
20
-80.9514
11
159.088
21
-81.1182
0
LINE
8
BLACK
6
CONTINUOUS
10
159.088
20
-81.1182
11
158.977
21
-81.2645
0
LINE
8
BLACK
6
CONTINUOUS
10
158.977
20
-81.2645
11
158.837
21
-81.3835
0
LINE
8
BLACK
6
CONTINUOUS
10
158.837
20
-81.3835
11
158.675
21
-81.4696
0
LINE
8
BLACK
6
CONTINUOUS
10
158.675
20
-81.4696
11
158.498
21
-81.5188
0
LINE
8
BLACK
6
CONTINUOUS
10
158.498
20
-81.5188
11
158.486
21
-81.5194
0
LINE
8
BLACK
6
CONTINUOUS
10
158.486
20
-81.5194
11
158.486
21
-85.2387
0
LINE
8
BLACK
6
CONTINUOUS
10
158.486
20
-85.2387
11
158.483
21
-85.2608
0
LINE
8
BLACK
6
CONTINUOUS
10
158.483
20
-85.2608
11
158.483
21
-85.2653
0
LINE
8
BLACK
6
CONTINUOUS
10
158.483
20
-85.2653
11
158.482
21
-85.2677
0
LINE
8
BLACK
6
CONTINUOUS
10
158.482
20
-85.2677
11
158.481
21
-85.274
0
LINE
8
BLACK
6
CONTINUOUS
10
158.481
20
-85.274
11
158.464
21
-85.3
0
LINE
8
BLACK
6
CONTINUOUS
10
158.464
20
-85.3
11
158.45
21
-85.3271
0
LINE
8
BLACK
6
CONTINUOUS
10
158.45
20
-85.3271
11
152.284
21
-91.493
0
LINE
8
BLACK
6
CONTINUOUS
10
152.284
20
-91.493
11
152.284
21
-92.9848
0
LINE
8
BLACK
6
CONTINUOUS
10
152.284
20
-92.9848
11
152.307
21
-92.9848
0
LINE
8
BLACK
6
CONTINUOUS
10
152.307
20
-92.9848
11
152.307
21
-93.9452
0
LINE
8
BLACK
6
CONTINUOUS
10
152.307
20
-93.9452
11
152.053
21
-93.9452
0
LINE
8
BLACK
6
CONTINUOUS
10
152.053
20
-93.9452
11
152.053
21
-93.4905
0
LINE
8
BLACK
6
CONTINUOUS
10
152.053
20
-93.4905
11
152.034
21
-93.4262
0
LINE
8
BLACK
6
CONTINUOUS
10
152.034
20
-93.4262
11
152.034
21
-91.4412
0
LINE
8
BLACK
6
CONTINUOUS
10
152.034
20
-91.4412
11
152.037
21
-91.4192
0
LINE
8
BLACK
6
CONTINUOUS
10
152.037
20
-91.4192
11
152.037
21
-91.4147
0
LINE
8
BLACK
6
CONTINUOUS
10
152.037
20
-91.4147
11
152.038
21
-91.4123
0
LINE
8
BLACK
6
CONTINUOUS
10
152.038
20
-91.4123
11
152.039
21
-91.406
0
LINE
8
BLACK
6
CONTINUOUS
10
152.039
20
-91.406
11
152.056
21
-91.38
0
LINE
8
BLACK
6
CONTINUOUS
10
152.056
20
-91.38
11
152.07
21
-91.3529
0
LINE
8
BLACK
6
CONTINUOUS
10
152.07
20
-91.3529
11
158.236
21
-85.187
0
LINE
8
BLACK
6
CONTINUOUS
10
158.236
20
-85.187
11
158.236
21
-81.516
0
LINE
8
BLACK
6
CONTINUOUS
10
158.236
20
-81.516
11
158.133
21
-81.499
0
LINE
8
BLACK
6
CONTINUOUS
10
158.133
20
-81.499
11
157.962
21
-81.431
0
LINE
8
BLACK
6
CONTINUOUS
10
157.962
20
-81.431
11
157.81
21
-81.3278
0
LINE
8
BLACK
6
CONTINUOUS
10
157.81
20
-81.3278
11
157.683
21
-81.1944
0
LINE
8
BLACK
6
CONTINUOUS
10
157.683
20
-81.1944
11
157.589
21
-81.0369
0
LINE
8
BLACK
6
CONTINUOUS
10
157.589
20
-81.0369
11
157.53
21
-80.8627
0
LINE
8
BLACK
6
CONTINUOUS
10
157.53
20
-80.8627
11
157.51
21
-80.68
0
LINE
8
BLACK
6
CONTINUOUS
10
157.51
20
-80.68
11
157.51
21
-80.38
0
LINE
8
BLACK
6
CONTINUOUS
10
157.51
20
-80.38
11
157.515
21
-80.2881
0
LINE
8
BLACK
6
CONTINUOUS
10
157.515
20
-80.2881
11
157.554
21
-80.1086
0
LINE
8
BLACK
6
CONTINUOUS
10
157.554
20
-80.1086
11
157.632
21
-79.9418
0
LINE
8
BLACK
6
CONTINUOUS
10
157.632
20
-79.9418
11
157.743
21
-79.7955
0
LINE
8
BLACK
6
CONTINUOUS
10
157.743
20
-79.7955
11
157.883
21
-79.6765
0
LINE
8
BLACK
6
CONTINUOUS
10
157.883
20
-79.6765
11
158.045
21
-79.5904
0
LINE
8
BLACK
6
CONTINUOUS
10
158.045
20
-79.5904
11
158.222
21
-79.5412
0
LINE
8
BLACK
6
CONTINUOUS
10
158.222
20
-79.5412
11
158.406
21
-79.5312
0
LINE
8
BLACK
6
CONTINUOUS
10
158.406
20
-79.5312
11
158.587
21
-79.561
0
LINE
8
BLACK
6
CONTINUOUS
10
148.084
20
-92.2196
11
148.195
21
-92.2764
0
LINE
8
BLACK
6
CONTINUOUS
10
148.195
20
-92.2764
11
148.284
21
-92.3649
0
LINE
8
BLACK
6
CONTINUOUS
10
148.284
20
-92.3649
11
148.34
21
-92.4764
0
LINE
8
BLACK
6
CONTINUOUS
10
148.34
20
-92.4764
11
148.36
21
-92.6
0
LINE
8
BLACK
6
CONTINUOUS
10
148.36
20
-92.6
11
148.34
21
-92.7236
0
LINE
8
BLACK
6
CONTINUOUS
10
148.34
20
-92.7236
11
148.284
21
-92.8351
0
LINE
8
BLACK
6
CONTINUOUS
10
148.284
20
-92.8351
11
148.195
21
-92.9236
0
LINE
8
BLACK
6
CONTINUOUS
10
148.195
20
-92.9236
11
148.084
21
-92.9804
0
LINE
8
BLACK
6
CONTINUOUS
10
148.084
20
-92.9804
11
147.96
21
-93
0
LINE
8
BLACK
6
CONTINUOUS
10
147.96
20
-93
11
147.836
21
-92.9804
0
LINE
8
BLACK
6
CONTINUOUS
10
147.836
20
-92.9804
11
147.725
21
-92.9236
0
LINE
8
BLACK
6
CONTINUOUS
10
147.725
20
-92.9236
11
147.636
21
-92.8351
0
LINE
8
BLACK
6
CONTINUOUS
10
147.636
20
-92.8351
11
147.58
21
-92.7236
0
LINE
8
BLACK
6
CONTINUOUS
10
147.58
20
-92.7236
11
147.56
21
-92.6
0
LINE
8
BLACK
6
CONTINUOUS
10
147.56
20
-92.6
11
147.58
21
-92.4764
0
LINE
8
BLACK
6
CONTINUOUS
10
147.58
20
-92.4764
11
147.636
21
-92.3649
0
LINE
8
BLACK
6
CONTINUOUS
10
147.636
20
-92.3649
11
147.725
21
-92.2764
0
LINE
8
BLACK
6
CONTINUOUS
10
147.725
20
-92.2764
11
147.836
21
-92.2196
0
LINE
8
BLACK
6
CONTINUOUS
10
147.836
20
-92.2196
11
147.96
21
-92.2
0
LINE
8
BLACK
6
CONTINUOUS
10
147.96
20
-92.2
11
148.084
21
-92.2196
0
CIRCLE
8
BLACK
10
147.96
20
-92.6
40
0.2
  0
ENDSEC
  0
EOF
